<svg width="1092" height="227" viewBox="0 0 1092 227" fill="none" xmlns="http://www.w3.org/2000/svg">
<g clip-path="url(#clip0_96_10372)">
<rect width="1092" height="227" fill="#FCEE70"/>
<circle cx="946.656" cy="113.5" r="321.458" fill="#FB5D96"/>
<path d="M41.025 88.208H37.761L46.209 65.072H49.697L58.177 88.208H54.881L52.801 82.448H43.073L41.025 88.208ZM47.553 70.064L44.033 79.728H51.873L48.321 70.064C48.161 69.616 48.001 69.072 47.937 68.72C47.873 69.04 47.713 69.584 47.553 70.064ZM58.1627 80.4C58.1627 75.504 61.2667 72.112 65.8427 72.112C69.7787 72.112 72.5307 74.352 73.0747 77.84H70.0667C69.5547 75.856 67.9547 74.8 65.9387 74.8C63.0907 74.8 61.1387 76.976 61.1387 80.368C61.1387 83.728 62.9627 85.904 65.8107 85.904C67.9547 85.904 69.5547 84.784 70.0987 82.928H73.1067C72.4987 86.32 69.5867 88.592 65.8107 88.592C61.2027 88.592 58.1627 85.328 58.1627 80.4ZM74.2965 80.4C74.2965 75.504 77.4005 72.112 81.9765 72.112C85.9125 72.112 88.6645 74.352 89.2085 77.84H86.2005C85.6885 75.856 84.0885 74.8 82.0725 74.8C79.2245 74.8 77.2725 76.976 77.2725 80.368C77.2725 83.728 79.0965 85.904 81.9445 85.904C84.0885 85.904 85.6885 84.784 86.2325 82.928H89.2405C88.6325 86.32 85.7205 88.592 81.9445 88.592C77.3365 88.592 74.2965 85.328 74.2965 80.4ZM90.4302 80.368C90.4302 75.536 93.8862 72.144 98.5902 72.144C103.262 72.144 106.718 75.536 106.718 80.368C106.718 85.2 103.262 88.592 98.5902 88.592C93.8862 88.592 90.4302 85.2 90.4302 80.368ZM93.4702 80.368C93.4702 83.632 95.5502 85.904 98.5902 85.904C101.598 85.904 103.71 83.632 103.71 80.368C103.71 77.104 101.598 74.832 98.5902 74.832C95.5502 74.832 93.4702 77.104 93.4702 80.368ZM119.529 72.56H122.505V88.208H119.817L119.497 85.84C118.601 87.472 116.521 88.592 114.217 88.592C110.569 88.592 108.521 86.128 108.521 82.288V72.56H111.529V81.296C111.529 84.656 112.969 85.936 115.273 85.936C118.025 85.936 119.529 84.176 119.529 80.816V72.56ZM128.917 88.208H125.909V72.56H128.629L128.949 74.96C129.941 73.168 131.925 72.112 134.133 72.112C138.261 72.112 140.149 74.64 140.149 78.64V88.208H137.141V79.312C137.141 76.144 135.669 74.864 133.365 74.864C130.549 74.864 128.917 76.88 128.917 79.92V88.208ZM147.771 88.208H144.763V75.088H141.691V72.56H144.763V67.664H147.771V72.56H150.843V75.088H147.771V88.208Z" fill="#0E0E0E"/>
<path d="M43.7073 126.617H42.4293V113.729H43.7073L48.4053 125.087L53.1033 113.729H54.3993V126.617H53.1213V120.497C53.1213 118.247 53.1573 117.257 53.2293 116.375L49.0353 126.617H47.7933L43.5993 116.429C43.6713 116.915 43.7073 118.337 43.7073 120.299V126.617ZM59.2209 126.833C57.3669 126.833 56.2689 125.789 56.2689 124.259C56.2689 122.657 57.4929 121.649 59.5269 121.487L62.4069 121.253V120.965C62.4069 119.255 61.3809 118.715 60.1029 118.715C58.5909 118.715 57.6909 119.399 57.6909 120.569H56.5569C56.5569 118.805 57.9969 117.671 60.1389 117.671C62.1549 117.671 63.6309 118.679 63.6309 120.983V126.617H62.5869L62.4249 125.087C61.8849 126.185 60.6969 126.833 59.2209 126.833ZM59.5089 125.825C61.3449 125.825 62.4069 124.547 62.4069 122.657V122.189L59.8329 122.387C58.1949 122.531 57.5289 123.251 57.5289 124.223C57.5289 125.285 58.3209 125.825 59.5089 125.825ZM66.8252 126.617H65.5832V117.905H66.6632L66.8432 119.417C67.4192 118.301 68.5712 117.671 69.8312 117.671C72.2252 117.671 73.2152 119.093 73.2152 121.289V126.617H71.9732V121.559C71.9732 119.525 71.0552 118.805 69.6152 118.805C67.8332 118.805 66.8252 120.101 66.8252 122.063V126.617ZM77.6526 126.833C75.7986 126.833 74.7006 125.789 74.7006 124.259C74.7006 122.657 75.9246 121.649 77.9586 121.487L80.8386 121.253V120.965C80.8386 119.255 79.8126 118.715 78.5346 118.715C77.0226 118.715 76.1226 119.399 76.1226 120.569H74.9886C74.9886 118.805 76.4286 117.671 78.5706 117.671C80.5866 117.671 82.0626 118.679 82.0626 120.983V126.617H81.0186L80.8566 125.087C80.3166 126.185 79.1286 126.833 77.6526 126.833ZM77.9406 125.825C79.7766 125.825 80.8386 124.547 80.8386 122.657V122.189L78.2646 122.387C76.6266 122.531 75.9606 123.251 75.9606 124.223C75.9606 125.285 76.7526 125.825 77.9406 125.825ZM83.4209 122.009C83.4209 119.633 84.9509 117.671 87.5069 117.671C89.0189 117.671 90.1709 118.373 90.7289 119.651L90.8549 117.905H91.9349V126.347C91.9349 128.939 90.2789 130.631 87.7229 130.631C85.4909 130.631 83.9249 129.371 83.5829 127.265H84.8249C85.0949 128.669 86.1749 129.497 87.7409 129.497C89.5229 129.497 90.7109 128.291 90.7109 126.473V124.403C90.1169 125.627 88.9109 126.347 87.4169 126.347C84.9329 126.347 83.4209 124.385 83.4209 122.009ZM84.6629 121.991C84.6629 123.773 85.7609 125.231 87.5969 125.231C89.4869 125.231 90.6029 123.863 90.6029 121.991C90.6029 120.137 89.5229 118.769 87.6149 118.769C85.7429 118.769 84.6629 120.227 84.6629 121.991ZM97.6406 126.833C95.0846 126.833 93.3746 124.997 93.3746 122.261C93.3746 119.543 95.0666 117.671 97.5506 117.671C99.9086 117.671 101.511 119.345 101.511 121.811V122.423H94.5806C94.6706 124.547 95.7866 125.771 97.6586 125.771C99.0806 125.771 99.9986 125.159 100.323 124.007H101.511C101.043 125.843 99.6926 126.833 97.6406 126.833ZM97.5506 118.733C95.9126 118.733 94.8326 119.813 94.6166 121.523H100.269C100.269 119.849 99.1886 118.733 97.5506 118.733ZM106.527 130.415V129.389H107.481C108.237 129.389 108.993 129.335 109.425 128.165L109.803 127.139L106.275 117.905H107.589L110.397 125.501L113.151 117.905H114.429L110.433 128.615C109.929 129.983 109.083 130.541 107.841 130.541C107.319 130.541 106.923 130.505 106.527 130.415ZM114.43 122.261C114.43 119.597 116.302 117.671 118.858 117.671C121.414 117.671 123.286 119.597 123.286 122.261C123.286 124.907 121.414 126.833 118.858 126.833C116.302 126.833 114.43 124.907 114.43 122.261ZM115.69 122.243C115.69 124.295 116.986 125.717 118.858 125.717C120.712 125.717 122.026 124.295 122.026 122.243C122.026 120.227 120.712 118.787 118.858 118.787C116.986 118.787 115.69 120.227 115.69 122.243ZM130.642 117.905H131.884V126.617H130.804L130.642 125.141C130.156 126.149 128.95 126.833 127.582 126.833C125.53 126.833 124.414 125.429 124.414 123.305V117.887H125.674V122.909C125.674 124.979 126.592 125.717 127.978 125.717C129.652 125.717 130.642 124.601 130.642 122.531V117.905ZM138.485 117.797V118.913H137.801C136.199 118.913 135.173 119.993 135.173 121.649V126.617H133.931V117.905H135.101L135.191 119.255C135.533 118.319 136.451 117.707 137.675 117.707C137.945 117.707 138.179 117.725 138.485 117.797ZM144.318 126.617H143.004L147.738 113.729H149.34L154.128 126.617H152.778L151.518 123.197H145.578L144.318 126.617ZM148.368 115.547L145.974 122.063H151.104L148.692 115.547C148.638 115.367 148.548 115.151 148.53 115.025C148.512 115.133 148.44 115.367 148.368 115.547ZM154.199 122.279C154.199 119.543 155.873 117.671 158.411 117.671C160.427 117.671 161.903 118.841 162.245 120.641H161.003C160.679 119.435 159.635 118.769 158.429 118.769C156.665 118.769 155.423 120.119 155.423 122.261C155.423 124.331 156.575 125.717 158.339 125.717C159.635 125.717 160.679 124.997 161.021 123.881H162.281C161.867 125.663 160.319 126.833 158.339 126.833C155.873 126.833 154.199 125.015 154.199 122.279ZM163.011 122.279C163.011 119.543 164.685 117.671 167.223 117.671C169.239 117.671 170.715 118.841 171.057 120.641H169.815C169.491 119.435 168.447 118.769 167.241 118.769C165.477 118.769 164.235 120.119 164.235 122.261C164.235 124.331 165.387 125.717 167.151 125.717C168.447 125.717 169.491 124.997 169.833 123.881H171.093C170.679 125.663 169.131 126.833 167.151 126.833C164.685 126.833 163.011 125.015 163.011 122.279ZM171.822 122.261C171.822 119.597 173.694 117.671 176.25 117.671C178.806 117.671 180.678 119.597 180.678 122.261C180.678 124.907 178.806 126.833 176.25 126.833C173.694 126.833 171.822 124.907 171.822 122.261ZM173.082 122.243C173.082 124.295 174.378 125.717 176.25 125.717C178.104 125.717 179.418 124.295 179.418 122.243C179.418 120.227 178.104 118.787 176.25 118.787C174.378 118.787 173.082 120.227 173.082 122.243ZM188.034 117.905H189.276V126.617H188.196L188.034 125.141C187.548 126.149 186.342 126.833 184.974 126.833C182.922 126.833 181.806 125.429 181.806 123.305V117.887H183.066V122.909C183.066 124.979 183.984 125.717 185.37 125.717C187.044 125.717 188.034 124.601 188.034 122.531V117.905ZM192.565 126.617H191.323V117.905H192.403L192.583 119.417C193.159 118.301 194.311 117.671 195.571 117.671C197.965 117.671 198.955 119.093 198.955 121.289V126.617H197.713V121.559C197.713 119.525 196.795 118.805 195.355 118.805C193.573 118.805 192.565 120.101 192.565 122.063V126.617ZM202.888 126.617H201.664V118.949H199.918V117.905H201.664V115.151H202.888V117.905H204.634V118.949H202.888V126.617ZM206.229 126.815C205.617 126.815 205.095 126.311 205.095 125.717C205.095 125.105 205.617 124.583 206.229 124.583C206.841 124.583 207.363 125.105 207.363 125.717C207.363 126.311 206.841 126.815 206.229 126.815Z" fill="#474747"/>
<g clip-path="url(#clip1_96_10372)">
<path d="M905.577 36.4971H918.95C924.042 36.4971 928.213 40.6684 928.213 45.7599V193.474C928.213 198.566 924.042 202.737 918.95 202.737H905.577V36.4971Z" fill="#999999" stroke="#263238" stroke-width="0.613432" stroke-miterlimit="10" stroke-linecap="round" stroke-linejoin="round"/>
<path d="M925.76 75.8174C924.84 75.8174 924.042 75.0199 924.042 74.0998C924.042 73.4863 924.042 63.8555 924.042 63.242C924.042 62.3219 924.84 61.5244 925.76 61.5244H927.478C928.398 61.5244 929.195 62.3219 929.195 63.242C929.195 63.9168 929.195 73.425 929.195 74.0998C929.195 75.0199 928.398 75.8174 927.478 75.8174H925.76Z" fill="#263238" stroke="#263238" stroke-width="0.613432" stroke-miterlimit="10" stroke-linecap="round" stroke-linejoin="round"/>
<path d="M925.76 63.242C925.76 62.3219 926.558 61.5244 927.478 61.5244C928.398 61.5244 929.195 62.3219 929.195 63.242C929.195 63.9168 929.195 73.425 929.195 74.0998C929.195 75.0199 928.398 75.8174 927.478 75.8174C926.558 75.8174 925.76 75.0199 925.76 74.0998C925.76 73.4863 925.76 63.8555 925.76 63.242Z" fill="#FBE62E" stroke="#263238" stroke-width="0.613432" stroke-miterlimit="10" stroke-linecap="round" stroke-linejoin="round"/>
<path d="M925.76 85.694C924.84 85.694 924.042 84.8965 924.042 83.9764C924.042 83.3629 924.042 81.584 924.042 80.9705C924.042 80.0504 924.84 79.2529 925.76 79.2529H927.478C928.398 79.2529 929.195 80.0504 929.195 80.9705C929.195 81.6453 929.195 83.3016 929.195 83.9764C929.195 84.8965 928.398 85.694 927.478 85.694H925.76Z" fill="#263238" stroke="#263238" stroke-width="0.613432" stroke-miterlimit="10" stroke-linecap="round" stroke-linejoin="round"/>
<path d="M925.76 80.9705C925.76 80.0504 926.558 79.2529 927.478 79.2529C928.398 79.2529 929.195 80.0504 929.195 80.9705C929.195 81.6453 929.195 83.3016 929.195 83.9764C929.195 84.8965 928.398 85.694 927.478 85.694C926.558 85.694 925.76 84.8965 925.76 83.9764C925.76 83.3629 925.76 81.584 925.76 80.9705Z" fill="#FBE62E" stroke="#263238" stroke-width="0.613432" stroke-miterlimit="10" stroke-linecap="round" stroke-linejoin="round"/>
<path d="M850.982 202.737H912.816C917.908 202.737 922.079 198.566 922.079 193.474V45.7599C922.079 40.6684 917.908 36.4971 912.816 36.4971H850.982C845.891 36.4971 841.72 40.6684 841.72 45.7599V193.474C841.72 198.566 845.891 202.737 850.982 202.737Z" fill="#FBE62E"/>
<mask id="mask0_96_10372" style="mask-type:luminance" maskUnits="userSpaceOnUse" x="841" y="36" width="82" height="167">
<path d="M850.982 202.737H912.816C917.908 202.737 922.079 198.566 922.079 193.474V45.7599C922.079 40.6684 917.908 36.4971 912.816 36.4971H850.982C845.891 36.4971 841.72 40.6684 841.72 45.7599V193.474C841.72 198.566 845.891 202.737 850.982 202.737Z" fill="white"/>
</mask>
<g mask="url(#mask0_96_10372)">
<path opacity="0.5" d="M850.982 202.737H912.816C917.908 202.737 922.079 198.566 922.079 193.474V45.7599C922.079 40.6684 917.908 36.4971 912.816 36.4971H850.982C845.891 36.4971 841.72 40.6684 841.72 45.7599V193.474C841.72 198.566 845.891 202.737 850.982 202.737Z" fill="white"/>
</g>
<mask id="mask1_96_10372" style="mask-type:luminance" maskUnits="userSpaceOnUse" x="841" y="36" width="82" height="167">
<path d="M850.982 202.737H912.816C917.908 202.737 922.079 198.566 922.079 193.474V45.7599C922.079 40.6684 917.908 36.4971 912.816 36.4971H850.982C845.891 36.4971 841.72 40.6684 841.72 45.7599V193.474C841.72 198.566 845.891 202.737 850.982 202.737Z" fill="white"/>
</mask>
<g mask="url(#mask1_96_10372)">
<path opacity="0.3" d="M933.489 194.149H966.062L855.583 42.0176H823.01L933.489 194.149Z" fill="white"/>
</g>
<mask id="mask2_96_10372" style="mask-type:luminance" maskUnits="userSpaceOnUse" x="841" y="36" width="82" height="167">
<path d="M850.982 202.737H912.816C917.908 202.737 922.079 198.566 922.079 193.474V45.7599C922.079 40.6684 917.908 36.4971 912.816 36.4971H850.982C845.891 36.4971 841.72 40.6684 841.72 45.7599V193.474C841.72 198.566 845.891 202.737 850.982 202.737Z" fill="white"/>
</mask>
<g mask="url(#mask2_96_10372)">
<path opacity="0.3" d="M919.871 194.149H927.109L816.569 42.0176H809.392L919.871 194.149Z" fill="white"/>
</g>
<path d="M850.982 202.737H912.816C917.908 202.737 922.079 198.566 922.079 193.474V45.7599C922.079 40.6684 917.908 36.4971 912.816 36.4971H850.982C845.891 36.4971 841.72 40.6684 841.72 45.7599V193.474C841.72 198.566 845.891 202.737 850.982 202.737Z" stroke="#263238" stroke-width="0.613432" stroke-miterlimit="10" stroke-linecap="round" stroke-linejoin="round"/>
<path d="M850.982 36.4971H912.816C917.908 36.4971 922.079 40.6684 922.079 45.7599V47.5388H841.72V45.7599C841.72 40.6684 845.891 36.4971 850.982 36.4971Z" fill="#263238" stroke="#263238" stroke-width="0.613432" stroke-miterlimit="10" stroke-linecap="round" stroke-linejoin="round"/>
<path d="M879.63 43.5515C878.771 43.5515 878.096 42.8768 878.096 42.018C878.096 41.1592 878.771 40.4844 879.63 40.4844C880.243 40.4844 888.77 40.4844 889.445 40.4844C890.304 40.4844 890.979 41.1592 890.979 42.018C890.979 42.8768 890.304 43.5515 889.445 43.5515C888.893 43.5515 880.182 43.5515 879.63 43.5515Z" fill="#999999" stroke="#263238" stroke-width="0.613432" stroke-miterlimit="10" stroke-linecap="round" stroke-linejoin="round"/>
<path d="M874.355 43.5515C873.508 43.5515 872.821 42.8649 872.821 42.018C872.821 41.171 873.508 40.4844 874.355 40.4844C875.202 40.4844 875.888 41.171 875.888 42.018C875.888 42.8649 875.202 43.5515 874.355 43.5515Z" fill="#999999" stroke="#263238" stroke-width="0.613432" stroke-miterlimit="10" stroke-linecap="round" stroke-linejoin="round"/>
<path d="M922.079 187.401V193.474C922.079 198.566 917.908 202.737 912.816 202.737H850.982C845.891 202.737 841.72 198.566 841.72 193.474V187.401H922.079Z" fill="#263238" stroke="#263238" stroke-width="0.613432" stroke-miterlimit="10" stroke-linecap="round" stroke-linejoin="round"/>
<path d="M881.899 199.67C879.358 199.67 877.299 197.61 877.299 195.069C877.299 192.529 879.358 190.469 881.899 190.469C884.44 190.469 886.5 192.529 886.5 195.069C886.5 197.61 884.44 199.67 881.899 199.67Z" fill="#999999" stroke="#263238" stroke-width="0.613432" stroke-miterlimit="10" stroke-linecap="round" stroke-linejoin="round"/>
<path d="M883.126 98.7611C871.133 98.7611 861.411 89.0387 861.411 77.0456C861.411 65.0524 871.133 55.3301 883.126 55.3301C895.119 55.3301 904.842 65.0524 904.842 77.0456C904.842 89.0387 895.119 98.7611 883.126 98.7611Z" fill="#999999"/>
<path d="M881.9 97.5335C869.907 97.5335 860.184 87.8112 860.184 75.818C860.184 63.8249 869.907 54.1025 881.9 54.1025C893.893 54.1025 903.615 63.8249 903.615 75.818C903.615 87.8112 893.893 97.5335 881.9 97.5335Z" fill="white"/>
<mask id="mask3_96_10372" style="mask-type:luminance" maskUnits="userSpaceOnUse" x="860" y="54" width="44" height="44">
<path d="M881.9 97.5335C869.907 97.5335 860.184 87.8112 860.184 75.818C860.184 63.8249 869.907 54.1025 881.9 54.1025C893.893 54.1025 903.615 63.8249 903.615 75.818C903.615 87.8112 893.893 97.5335 881.9 97.5335Z" fill="white"/>
</mask>
<g mask="url(#mask3_96_10372)">
<circle cx="6.4946" cy="6.4946" r="6.18488" transform="matrix(-1 0 0 1 888.395 63.8096)" fill="white" stroke="#263238" stroke-width="0.619448"/>
<circle cx="13.6798" cy="13.6798" r="13.3701" transform="matrix(-1 0 0 1 895.58 78.1104)" fill="white" stroke="#263238" stroke-width="0.619448"/>
</g>
<path d="M881.9 97.5335C869.907 97.5335 860.184 87.8112 860.184 75.818C860.184 63.8249 869.907 54.1025 881.9 54.1025C893.893 54.1025 903.615 63.8249 903.615 75.818C903.615 87.8112 893.893 97.5335 881.9 97.5335Z" stroke="#263238" stroke-width="0.613432" stroke-miterlimit="10" stroke-linecap="round" stroke-linejoin="round"/>
<path d="M894.413 99.5579H901.407C903.308 99.5579 904.842 98.0243 904.842 96.1227V89.1296C904.842 87.2279 903.308 85.6943 901.407 85.6943H894.413C892.512 85.6943 890.978 87.2279 890.978 89.1296V96.1227C891.04 98.0243 892.573 99.5579 894.413 99.5579Z" fill="#FBE62E" stroke="#263238" stroke-width="0.613432" stroke-miterlimit="10" stroke-linecap="round" stroke-linejoin="round"/>
<path d="M896.071 89.6818C896.255 89.3137 896.684 89.0684 897.113 89.0684H898.77C899.199 89.0684 899.567 89.3137 899.812 89.6818" stroke="#263238" stroke-width="0.613432" stroke-miterlimit="10" stroke-linecap="round" stroke-linejoin="round"/>
<path d="M900.855 90.0498C901.468 90.0498 902.021 90.5405 902.021 91.2153V95.0799C902.021 95.6934 901.53 96.2455 900.855 96.2455H894.966C894.353 96.2455 893.801 95.7547 893.801 95.0799V91.2153C893.801 90.6019 894.291 90.0498 894.966 90.0498" stroke="#263238" stroke-width="0.613432" stroke-miterlimit="10" stroke-linecap="round" stroke-linejoin="round"/>
<path d="M897.911 91.5225C898.77 91.5225 899.506 92.2586 899.506 93.1174C899.506 93.9762 898.77 94.7123 897.911 94.7123C897.052 94.7123 896.316 93.9762 896.316 93.1174C896.316 92.2586 897.052 91.5225 897.911 91.5225Z" stroke="#263238" stroke-width="0.613432" stroke-miterlimit="10" stroke-linecap="round" stroke-linejoin="round"/>
<path d="M942.077 184.702H886.991C883.985 184.702 881.531 182.248 881.531 179.243V174.212C881.531 171.207 883.985 168.753 886.991 168.753H942.016C945.021 168.753 947.475 171.207 947.475 174.212V179.243C947.537 182.248 945.083 184.702 942.077 184.702Z" fill="#FB5D96"/>
<path d="M942.69 182.862H887.604C884.598 182.862 882.145 180.409 882.145 177.403V172.373C882.145 169.367 884.598 166.913 887.604 166.913H942.629C945.635 166.913 948.088 169.367 948.088 172.373V177.403C948.15 180.409 945.696 182.862 942.69 182.862Z" fill="#FBE62E" stroke="#263238" stroke-width="0.613432" stroke-miterlimit="10" stroke-linecap="round" stroke-linejoin="round"/>
<path d="M889.076 173.047C889.076 172.127 889.812 171.391 890.732 171.391C891.652 171.391 892.389 172.127 892.389 173.047C892.389 173.968 891.652 174.704 890.732 174.704M890.794 169.244C888.708 169.244 887.052 170.962 887.052 172.986C887.052 174.458 888.892 177.464 889.996 179.059C890.364 179.611 891.223 179.611 891.591 179.059C892.695 177.403 894.536 174.397 894.536 172.986C894.536 170.962 892.879 169.244 890.794 169.244Z" stroke="#263238" stroke-width="0.613432" stroke-miterlimit="10" stroke-linecap="round" stroke-linejoin="round"/>
<path d="M935.329 170.41C934.593 170.41 904.964 170.41 904.228 170.41C903.308 170.41 902.511 171.146 902.511 172.128C902.511 173.048 903.247 173.845 904.228 173.845C904.78 173.845 934.777 173.845 935.329 173.845C936.25 173.845 937.047 173.109 937.047 172.128C937.047 171.146 936.25 170.41 935.329 170.41Z" fill="#858585" stroke="#263238" stroke-width="0.613432" stroke-miterlimit="10" stroke-linecap="round" stroke-linejoin="round"/>
<path d="M926.251 175.931C925.514 175.931 904.964 175.931 904.228 175.931C903.308 175.931 902.511 176.667 902.511 177.648C902.511 178.568 903.247 179.366 904.228 179.366C904.78 179.366 925.698 179.366 926.251 179.366C927.171 179.366 927.968 178.63 927.968 177.648C927.968 176.667 927.232 175.931 926.251 175.931Z" fill="#999999" stroke="#263238" stroke-width="0.613432" stroke-miterlimit="10" stroke-linecap="round" stroke-linejoin="round"/>
<path d="M937.292 175.931C936.556 175.931 931.71 175.931 930.973 175.931C930.053 175.931 929.256 176.667 929.256 177.648C929.256 178.568 929.992 179.366 930.973 179.366C931.526 179.366 936.74 179.366 937.292 179.366C938.212 179.366 939.009 178.63 939.009 177.648C939.009 176.667 938.212 175.931 937.292 175.931Z" fill="#999999" stroke="#263238" stroke-width="0.613432" stroke-miterlimit="10" stroke-linecap="round" stroke-linejoin="round"/>
<path d="M909.503 144.829H854.417C851.411 144.829 848.957 142.375 848.957 139.37V134.339C848.957 131.334 851.411 128.88 854.417 128.88H909.441C912.447 128.88 914.901 131.334 914.901 134.339V139.37C914.962 142.375 912.509 144.829 909.503 144.829Z" fill="#FB5D96"/>
<path d="M910.116 142.989H855.03C852.024 142.989 849.57 140.536 849.57 137.53V132.5C849.57 129.494 852.024 127.04 855.03 127.04H910.055C913.061 127.04 915.514 129.494 915.514 132.5V137.53C915.576 140.536 913.122 142.989 910.116 142.989Z" fill="#FBE62E" stroke="#263238" stroke-width="0.613432" stroke-miterlimit="10" stroke-linecap="round" stroke-linejoin="round"/>
<path d="M858.465 138.204H857.913C857.545 138.204 857.3 137.959 857.3 137.591V136.241C857.3 135.873 857.545 135.628 857.913 135.628H858.404C858.772 135.628 859.017 135.873 859.017 136.241V137.591C859.079 137.898 858.772 138.204 858.465 138.204Z" stroke="#263238" stroke-width="0.613432" stroke-miterlimit="10" stroke-linecap="round" stroke-linejoin="round"/>
<path d="M853.987 137.468C853.987 138.511 854.846 139.369 855.888 139.369H860.428C861.471 139.369 862.329 138.511 862.329 137.468" stroke="#263238" stroke-width="0.613432" stroke-miterlimit="10" stroke-linecap="round" stroke-linejoin="round"/>
<path d="M855.153 131.763H854.539C853.987 131.763 853.558 132.193 853.558 132.745V134.708C853.558 135.812 854.416 136.671 855.521 136.671H856.134M860.305 136.732H860.919C862.023 136.732 862.882 135.873 862.882 134.769V132.806C862.882 132.254 862.452 131.825 861.9 131.825H861.287M856.563 131.763V131.518C856.563 131.027 856.993 130.598 857.484 130.598H858.833C859.324 130.598 859.753 131.027 859.753 131.518V131.763" stroke="#263238" stroke-width="0.613432" stroke-miterlimit="10" stroke-linecap="round" stroke-linejoin="round"/>
<path d="M902.755 130.537C902.019 130.537 872.39 130.537 871.654 130.537C870.733 130.537 869.936 131.273 869.936 132.255C869.936 133.175 870.672 133.972 871.654 133.972C872.206 133.972 902.203 133.972 902.755 133.972C903.675 133.972 904.472 133.236 904.472 132.255C904.472 131.273 903.675 130.537 902.755 130.537Z" fill="#858585" stroke="#263238" stroke-width="0.613432" stroke-miterlimit="10" stroke-linecap="round" stroke-linejoin="round"/>
<path d="M897.357 136.058C896.621 136.058 872.39 136.058 871.654 136.058C870.734 136.058 869.937 136.794 869.937 137.775C869.937 138.695 870.673 139.493 871.654 139.493C872.206 139.493 896.805 139.493 897.357 139.493C898.277 139.493 899.075 138.757 899.075 137.775C899.075 136.794 898.338 136.058 897.357 136.058Z" fill="#999999" stroke="#263238" stroke-width="0.613432" stroke-miterlimit="10" stroke-linecap="round" stroke-linejoin="round"/>
<path d="M857.792 125.078H802.767C799.761 125.078 797.308 122.624 797.308 119.618V108.454C797.308 105.448 799.761 102.994 802.767 102.994H857.792C860.798 102.994 863.252 105.448 863.252 108.454V119.618C863.252 122.624 860.798 125.078 857.792 125.078Z" fill="#FBE62E" stroke="#263238" stroke-width="0.613432" stroke-miterlimit="10" stroke-linecap="round" stroke-linejoin="round"/>
<path d="M805.528 114.22L803.135 112.012L807 107.779C807.368 107.35 808.043 107.35 808.533 107.779L809.208 108.454C809.699 108.883 809.699 109.558 809.331 109.987L805.528 114.22Z" stroke="#263238" stroke-width="0.613432" stroke-miterlimit="10" stroke-linecap="round" stroke-linejoin="round"/>
<path d="M803.933 115.202L802.092 115.57L802.276 113.668" stroke="#263238" stroke-width="0.613432" stroke-miterlimit="10" stroke-linecap="round" stroke-linejoin="round"/>
<path d="M849.143 107.104C848.407 107.104 818.778 107.104 818.042 107.104C817.122 107.104 816.324 107.841 816.324 108.822C816.324 109.804 817.06 110.54 818.042 110.54C818.594 110.54 848.591 110.54 849.143 110.54C850.063 110.54 850.86 109.804 850.86 108.822C850.86 107.841 850.063 107.104 849.143 107.104Z" fill="#858585" stroke="#263238" stroke-width="0.613432" stroke-miterlimit="10" stroke-linecap="round" stroke-linejoin="round"/>
<path d="M843.745 112.564C843.009 112.564 818.778 112.564 818.042 112.564C817.122 112.564 816.324 113.301 816.324 114.282C816.324 115.202 817.06 116 818.042 116C818.594 116 843.193 116 843.745 116C844.665 116 845.462 115.264 845.462 114.282C845.462 113.362 844.726 112.564 843.745 112.564Z" fill="#999999" stroke="#263238" stroke-width="0.613432" stroke-miterlimit="10" stroke-linecap="round" stroke-linejoin="round"/>
<path d="M891.377 164.766H836.353C833.347 164.766 830.893 162.312 830.893 159.306V154.276C830.893 151.27 833.347 148.816 836.353 148.816H891.377C894.383 148.816 896.837 151.27 896.837 154.276V159.306C896.837 162.312 894.383 164.766 891.377 164.766Z" fill="#FB5D96"/>
<path d="M891.991 162.926H836.966C833.96 162.926 831.506 160.472 831.506 157.466V152.436C831.506 149.43 833.96 146.977 836.966 146.977H891.991C894.997 146.977 897.45 149.43 897.45 152.436V157.466C897.45 160.472 894.997 162.926 891.991 162.926Z" fill="#FBE62E" stroke="#263238" stroke-width="0.613432" stroke-miterlimit="10" stroke-linecap="round" stroke-linejoin="round"/>
<path d="M884.63 150.474C883.894 150.474 854.265 150.474 853.529 150.474C852.608 150.474 851.811 151.21 851.811 152.191C851.811 153.111 852.547 153.909 853.529 153.909C854.081 153.909 884.078 153.909 884.63 153.909C885.55 153.909 886.347 153.173 886.347 152.191C886.347 151.21 885.55 150.474 884.63 150.474Z" fill="#858585" stroke="#263238" stroke-width="0.613432" stroke-miterlimit="10" stroke-linecap="round" stroke-linejoin="round"/>
<path d="M870.03 155.995C869.294 155.995 854.265 155.995 853.529 155.995C852.608 155.995 851.811 156.731 851.811 157.713C851.811 158.633 852.547 159.43 853.529 159.43C854.081 159.43 869.478 159.43 870.03 159.43C870.95 159.43 871.748 158.694 871.748 157.713C871.748 156.731 871.011 155.995 870.03 155.995Z" fill="#999999" stroke="#263238" stroke-width="0.613432" stroke-miterlimit="10" stroke-linecap="round" stroke-linejoin="round"/>
<path d="M881.195 155.995C880.459 155.995 875.612 155.995 874.876 155.995C873.956 155.995 873.159 156.731 873.159 157.713C873.159 158.633 873.895 159.43 874.876 159.43C875.428 159.43 880.643 159.43 881.195 159.43C882.115 159.43 882.912 158.694 882.912 157.713C882.912 156.731 882.115 155.995 881.195 155.995Z" fill="#999999" stroke="#263238" stroke-width="0.613432" stroke-miterlimit="10" stroke-linecap="round" stroke-linejoin="round"/>
<path d="M843.223 158.08V159.431H835.828V150.777H843.223V156.401" stroke="#263238" stroke-width="0.613432" stroke-miterlimit="10" stroke-linecap="round" stroke-linejoin="round"/>
<path d="M837.292 152.781H841.454" stroke="#263238" stroke-width="0.613432" stroke-miterlimit="10" stroke-linecap="round" stroke-linejoin="round"/>
<path d="M837.292 154.951H841.454" stroke="#263238" stroke-width="0.613432" stroke-miterlimit="10" stroke-linecap="round" stroke-linejoin="round"/>
<path d="M837.292 157.121H841.454" stroke="#263238" stroke-width="0.613432" stroke-miterlimit="10" stroke-linecap="round" stroke-linejoin="round"/>
</g>
</g>
<defs>
<clipPath id="clip0_96_10372">
<rect width="1092" height="227" fill="white"/>
</clipPath>
<clipPath id="clip1_96_10372">
<rect width="169.062" height="166.854" fill="white" transform="matrix(-1 0 0 1 966.062 36.1904)"/>
</clipPath>
</defs>
</svg>
