<svg width="1092" height="227" viewBox="0 0 1092 227" fill="none" xmlns="http://www.w3.org/2000/svg">
<g clip-path="url(#clip0_96_10135)">
<rect width="1092" height="227" fill="#FBF7FF"/>
<circle cx="946.656" cy="113.5" r="321.458" fill="#F6BCCE"/>
<path d="M41.025 88.208H37.761L46.209 65.072H49.697L58.177 88.208H54.881L52.801 82.448H43.073L41.025 88.208ZM47.553 70.064L44.033 79.728H51.873L48.321 70.064C48.161 69.616 48.001 69.072 47.937 68.72C47.873 69.04 47.713 69.584 47.553 70.064ZM58.1627 80.4C58.1627 75.504 61.2667 72.112 65.8427 72.112C69.7787 72.112 72.5307 74.352 73.0747 77.84H70.0667C69.5547 75.856 67.9547 74.8 65.9387 74.8C63.0907 74.8 61.1387 76.976 61.1387 80.368C61.1387 83.728 62.9627 85.904 65.8107 85.904C67.9547 85.904 69.5547 84.784 70.0987 82.928H73.1067C72.4987 86.32 69.5867 88.592 65.8107 88.592C61.2027 88.592 58.1627 85.328 58.1627 80.4ZM79.7365 88.208H76.7285V75.088H73.6565V72.56H76.7285V67.664H79.7365V72.56H82.8085V75.088H79.7365V88.208ZM86.02 68.848C84.932 68.848 84.036 67.952 84.036 66.864C84.036 65.744 84.932 64.88 86.02 64.88C87.108 64.88 88.004 65.744 88.004 66.864C88.004 67.952 87.108 68.848 86.02 68.848ZM84.548 88.208V72.56H87.556V88.208H84.548ZM95.347 88.208L89.043 72.56H92.243L95.667 81.296C96.211 82.768 96.659 84.08 96.915 85.04C97.171 84.016 97.683 82.672 98.227 81.296L101.715 72.56H104.851L98.323 88.208H95.347ZM107.756 68.848C106.668 68.848 105.772 67.952 105.772 66.864C105.772 65.744 106.668 64.88 107.756 64.88C108.844 64.88 109.74 65.744 109.74 66.864C109.74 67.952 108.844 68.848 107.756 68.848ZM106.284 88.208V72.56H109.292V88.208H106.284ZM117.115 88.208H114.107V75.088H111.035V72.56H114.107V67.664H117.115V72.56H120.187V75.088H117.115V88.208ZM120.423 95.216V92.752H122.439C123.879 92.752 125.031 92.528 125.767 90.544L126.311 89.04L120.007 72.56H123.175L127.719 85.168L132.359 72.56H135.463L128.071 91.728C127.015 94.416 125.447 95.536 123.047 95.536C122.055 95.536 121.223 95.408 120.423 95.216ZM148.342 65.072V85.296H158.518V88.208H145.206V65.072H148.342ZM159.116 80.368C159.116 75.536 162.572 72.144 167.276 72.144C171.948 72.144 175.404 75.536 175.404 80.368C175.404 85.2 171.948 88.592 167.276 88.592C162.572 88.592 159.116 85.2 159.116 80.368ZM162.156 80.368C162.156 83.632 164.236 85.904 167.276 85.904C170.284 85.904 172.396 83.632 172.396 80.368C172.396 77.104 170.284 74.832 167.276 74.832C164.236 74.832 162.156 77.104 162.156 80.368ZM176.782 79.984C176.782 75.568 179.63 72.112 184.174 72.112C186.702 72.112 188.654 73.264 189.646 75.216L189.87 72.56H192.558V87.568C192.558 92.496 189.518 95.632 184.718 95.632C180.462 95.632 177.55 93.232 176.974 89.264H179.982C180.366 91.568 182.094 92.912 184.718 92.912C187.662 92.912 189.582 90.992 189.582 88.016V84.88C188.558 86.704 186.51 87.792 184.046 87.792C179.598 87.792 176.782 84.368 176.782 79.984ZM179.79 79.92C179.79 82.864 181.614 85.168 184.558 85.168C187.598 85.168 189.454 82.992 189.454 79.92C189.454 76.912 187.662 74.736 184.59 74.736C181.582 74.736 179.79 77.04 179.79 79.92Z" fill="#0E0E0E"/>
<path d="M43.7253 113.729V121.487L49.9353 113.729H51.4833L47.1093 119.183L51.5553 126.617H50.0433L46.2633 120.263L43.7253 123.413V126.617H42.4293V113.729H43.7253ZM55.785 126.833C53.229 126.833 51.519 124.997 51.519 122.261C51.519 119.543 53.211 117.671 55.695 117.671C58.053 117.671 59.655 119.345 59.655 121.811V122.423H52.725C52.815 124.547 53.931 125.771 55.803 125.771C57.225 125.771 58.143 125.159 58.467 124.007H59.655C59.187 125.843 57.837 126.833 55.785 126.833ZM55.695 118.733C54.057 118.733 52.977 119.813 52.761 121.523H58.413C58.413 119.849 57.333 118.733 55.695 118.733ZM64.7548 126.833C62.1988 126.833 60.4888 124.997 60.4888 122.261C60.4888 119.543 62.1808 117.671 64.6648 117.671C67.0228 117.671 68.6248 119.345 68.6248 121.811V122.423H61.6948C61.7848 124.547 62.9008 125.771 64.7728 125.771C66.1948 125.771 67.1128 125.159 67.4368 124.007H68.6248C68.1568 125.843 66.8068 126.833 64.7548 126.833ZM64.6648 118.733C63.0268 118.733 61.9468 119.813 61.7308 121.523H67.3828C67.3828 119.849 66.3028 118.733 64.6648 118.733ZM70.0705 130.415V117.905H71.1505L71.2765 119.669C71.8885 118.319 73.1125 117.671 74.5705 117.671C77.0905 117.671 78.6025 119.597 78.6025 122.225C78.6025 124.853 77.1445 126.833 74.5705 126.833C73.0945 126.833 71.9245 126.203 71.3125 124.943V130.415H70.0705ZM71.3305 122.261C71.3305 124.259 72.4465 125.717 74.3545 125.717C76.2445 125.717 77.3425 124.259 77.3425 122.261C77.3425 120.245 76.2445 118.805 74.3545 118.805C72.4465 118.805 71.3305 120.245 71.3305 122.261ZM83.4144 114.917V113.729H92.6484V114.917H88.6704V126.617H87.3744V114.917H83.4144ZM97.1041 117.797V118.913H96.4201C94.8181 118.913 93.7921 119.993 93.7921 121.649V126.617H92.5501V117.905H93.7201L93.8101 119.255C94.1521 118.319 95.0701 117.707 96.2941 117.707C96.5641 117.707 96.7981 117.725 97.1041 117.797ZM100.366 126.833C98.5117 126.833 97.4137 125.789 97.4137 124.259C97.4137 122.657 98.6377 121.649 100.672 121.487L103.552 121.253V120.965C103.552 119.255 102.526 118.715 101.248 118.715C99.7357 118.715 98.8357 119.399 98.8357 120.569H97.7017C97.7017 118.805 99.1417 117.671 101.284 117.671C103.3 117.671 104.776 118.679 104.776 120.983V126.617H103.732L103.57 125.087C103.03 126.185 101.842 126.833 100.366 126.833ZM100.654 125.825C102.49 125.825 103.552 124.547 103.552 122.657V122.189L100.978 122.387C99.3397 122.531 98.6737 123.251 98.6737 124.223C98.6737 125.285 99.4657 125.825 100.654 125.825ZM106.116 122.279C106.116 119.543 107.79 117.671 110.328 117.671C112.344 117.671 113.82 118.841 114.162 120.641H112.92C112.596 119.435 111.552 118.769 110.346 118.769C108.582 118.769 107.34 120.119 107.34 122.261C107.34 124.331 108.492 125.717 110.256 125.717C111.552 125.717 112.596 124.997 112.938 123.881H114.198C113.784 125.663 112.236 126.833 110.256 126.833C107.79 126.833 106.116 125.015 106.116 122.279ZM116.836 126.617H115.594V113.495H116.836V122.405L121.156 117.905H122.722L119.374 121.379L122.74 126.617H121.3L118.528 122.261L116.836 124.007V126.617ZM127.523 122.261C127.523 119.597 129.395 117.671 131.951 117.671C134.507 117.671 136.379 119.597 136.379 122.261C136.379 124.907 134.507 126.833 131.951 126.833C129.395 126.833 127.523 124.907 127.523 122.261ZM128.783 122.243C128.783 124.295 130.079 125.717 131.951 125.717C133.805 125.717 135.119 124.295 135.119 122.243C135.119 120.227 133.805 118.787 131.951 118.787C130.079 118.787 128.783 120.227 128.783 122.243ZM136.783 117.905H138.115V116.213C138.115 114.251 139.195 113.495 140.527 113.495C140.833 113.495 141.193 113.513 141.481 113.567V114.629H140.743C139.645 114.629 139.357 115.187 139.357 116.213V117.905H141.409V118.949H139.357V126.617H138.115V118.949H136.783V117.905ZM149.513 126.833C147.659 126.833 146.561 125.789 146.561 124.259C146.561 122.657 147.785 121.649 149.819 121.487L152.699 121.253V120.965C152.699 119.255 151.673 118.715 150.395 118.715C148.883 118.715 147.983 119.399 147.983 120.569H146.849C146.849 118.805 148.289 117.671 150.431 117.671C152.447 117.671 153.923 118.679 153.923 120.983V126.617H152.879L152.717 125.087C152.177 126.185 150.989 126.833 149.513 126.833ZM149.801 125.825C151.637 125.825 152.699 124.547 152.699 122.657V122.189L150.125 122.387C148.487 122.531 147.821 123.251 147.821 124.223C147.821 125.285 148.613 125.825 149.801 125.825ZM157.172 126.617H155.93V113.495H157.172V126.617ZM160.569 126.617H159.327V113.495H160.569V126.617ZM169.625 126.833C167.771 126.833 166.673 125.789 166.673 124.259C166.673 122.657 167.897 121.649 169.931 121.487L172.811 121.253V120.965C172.811 119.255 171.785 118.715 170.507 118.715C168.995 118.715 168.095 119.399 168.095 120.569H166.961C166.961 118.805 168.401 117.671 170.543 117.671C172.559 117.671 174.035 118.679 174.035 120.983V126.617H172.991L172.829 125.087C172.289 126.185 171.101 126.833 169.625 126.833ZM169.913 125.825C171.749 125.825 172.811 124.547 172.811 122.657V122.189L170.237 122.387C168.599 122.531 167.933 123.251 167.933 124.223C167.933 125.285 168.725 125.825 169.913 125.825ZM175.375 122.279C175.375 119.543 177.049 117.671 179.587 117.671C181.603 117.671 183.079 118.841 183.421 120.641H182.179C181.855 119.435 180.811 118.769 179.605 118.769C177.841 118.769 176.599 120.119 176.599 122.261C176.599 124.331 177.751 125.717 179.515 125.717C180.811 125.717 181.855 124.997 182.197 123.881H183.457C183.043 125.663 181.495 126.833 179.515 126.833C177.049 126.833 175.375 125.015 175.375 122.279ZM186.797 126.617H185.573V118.949H183.827V117.905H185.573V115.151H186.797V117.905H188.543V118.949H186.797V126.617ZM190.232 115.511C189.728 115.511 189.314 115.097 189.314 114.593C189.314 114.089 189.728 113.657 190.232 113.657C190.736 113.657 191.168 114.089 191.168 114.593C191.168 115.097 190.736 115.511 190.232 115.511ZM189.62 126.617V117.905H190.862V126.617H189.62ZM195.342 126.617L191.778 117.905H193.11L195.36 123.521C195.594 124.151 195.828 124.745 195.99 125.321C196.152 124.727 196.386 124.151 196.638 123.521L198.924 117.905H200.202L196.584 126.617H195.342ZM201.738 115.511C201.234 115.511 200.82 115.097 200.82 114.593C200.82 114.089 201.234 113.657 201.738 113.657C202.242 113.657 202.674 114.089 202.674 114.593C202.674 115.097 202.242 115.511 201.738 115.511ZM201.126 126.617V117.905H202.368V126.617H201.126ZM206.416 126.617H205.192V118.949H203.446V117.905H205.192V115.151H206.416V117.905H208.162V118.949H206.416V126.617ZM209.851 115.511C209.347 115.511 208.933 115.097 208.933 114.593C208.933 114.089 209.347 113.657 209.851 113.657C210.355 113.657 210.787 114.089 210.787 114.593C210.787 115.097 210.355 115.511 209.851 115.511ZM209.239 126.617V117.905H210.481V126.617H209.239ZM216.185 126.833C213.629 126.833 211.919 124.997 211.919 122.261C211.919 119.543 213.611 117.671 216.095 117.671C218.453 117.671 220.055 119.345 220.055 121.811V122.423H213.125C213.215 124.547 214.331 125.771 216.203 125.771C217.625 125.771 218.543 125.159 218.867 124.007H220.055C219.587 125.843 218.237 126.833 216.185 126.833ZM216.095 118.733C214.457 118.733 213.377 119.813 213.161 121.523H218.813C218.813 119.849 217.733 118.733 216.095 118.733ZM220.763 124.169H221.951C221.951 125.177 222.707 125.807 223.931 125.807C225.281 125.807 226.073 125.231 226.073 124.295C226.073 123.575 225.713 123.161 224.687 122.909L223.193 122.531C221.681 122.153 220.943 121.361 220.943 120.173C220.943 118.643 222.221 117.671 224.093 117.671C225.929 117.671 227.117 118.679 227.171 120.299H225.965C225.929 119.291 225.227 118.697 224.057 118.697C222.833 118.697 222.149 119.219 222.149 120.155C222.149 120.821 222.617 121.289 223.571 121.523L225.065 121.901C226.577 122.279 227.261 122.981 227.261 124.241C227.261 125.807 225.929 126.833 223.949 126.833C221.987 126.833 220.763 125.789 220.763 124.169ZM232.606 122.279C232.606 119.543 234.28 117.671 236.818 117.671C238.834 117.671 240.31 118.841 240.652 120.641H239.41C239.086 119.435 238.042 118.769 236.836 118.769C235.072 118.769 233.83 120.119 233.83 122.261C233.83 124.331 234.982 125.717 236.746 125.717C238.042 125.717 239.086 124.997 239.428 123.881H240.688C240.274 125.663 238.726 126.833 236.746 126.833C234.28 126.833 232.606 125.015 232.606 122.279ZM244.532 126.833C242.678 126.833 241.58 125.789 241.58 124.259C241.58 122.657 242.804 121.649 244.838 121.487L247.718 121.253V120.965C247.718 119.255 246.692 118.715 245.414 118.715C243.902 118.715 243.002 119.399 243.002 120.569H241.868C241.868 118.805 243.308 117.671 245.45 117.671C247.466 117.671 248.942 118.679 248.942 120.983V126.617H247.898L247.736 125.087C247.196 126.185 246.008 126.833 244.532 126.833ZM244.82 125.825C246.656 125.825 247.718 124.547 247.718 122.657V122.189L245.144 122.387C243.506 122.531 242.84 123.251 242.84 124.223C242.84 125.285 243.632 125.825 244.82 125.825ZM255.448 117.797V118.913H254.764C253.162 118.913 252.136 119.993 252.136 121.649V126.617H250.894V117.905H252.064L252.154 119.255C252.496 118.319 253.414 117.707 254.638 117.707C254.908 117.707 255.142 117.725 255.448 117.797ZM261.113 117.797V118.913H260.429C258.827 118.913 257.801 119.993 257.801 121.649V126.617H256.559V117.905H257.729L257.819 119.255C258.161 118.319 259.079 117.707 260.303 117.707C260.573 117.707 260.807 117.725 261.113 117.797ZM262.836 115.511C262.332 115.511 261.918 115.097 261.918 114.593C261.918 114.089 262.332 113.657 262.836 113.657C263.34 113.657 263.772 114.089 263.772 114.593C263.772 115.097 263.34 115.511 262.836 115.511ZM262.224 126.617V117.905H263.466V126.617H262.224ZM269.17 126.833C266.614 126.833 264.904 124.997 264.904 122.261C264.904 119.543 266.596 117.671 269.08 117.671C271.438 117.671 273.04 119.345 273.04 121.811V122.423H266.11C266.2 124.547 267.316 125.771 269.188 125.771C270.61 125.771 271.528 125.159 271.852 124.007H273.04C272.572 125.843 271.222 126.833 269.17 126.833ZM269.08 118.733C267.442 118.733 266.362 119.813 266.146 121.523H271.798C271.798 119.849 270.718 118.733 269.08 118.733ZM277.906 126.833C275.368 126.833 273.874 124.889 273.874 122.279C273.874 119.651 275.368 117.671 277.96 117.671C279.4 117.671 280.552 118.301 281.164 119.561V113.495H282.406V126.617H281.326L281.2 124.835C280.588 126.185 279.364 126.833 277.906 126.833ZM278.122 125.699C280.03 125.699 281.146 124.259 281.146 122.243C281.146 120.245 280.03 118.787 278.122 118.787C276.232 118.787 275.134 120.245 275.134 122.243C275.134 124.259 276.232 125.699 278.122 125.699ZM288.298 122.261C288.298 119.597 290.17 117.671 292.726 117.671C295.282 117.671 297.154 119.597 297.154 122.261C297.154 124.907 295.282 126.833 292.726 126.833C290.17 126.833 288.298 124.907 288.298 122.261ZM289.558 122.243C289.558 124.295 290.854 125.717 292.726 125.717C294.58 125.717 295.894 124.295 295.894 122.243C295.894 120.227 294.58 118.787 292.726 118.787C290.854 118.787 289.558 120.227 289.558 122.243ZM304.509 117.905H305.751V126.617H304.671L304.509 125.141C304.023 126.149 302.817 126.833 301.449 126.833C299.397 126.833 298.281 125.429 298.281 123.305V117.887H299.541V122.909C299.541 124.979 300.459 125.717 301.845 125.717C303.519 125.717 304.509 124.601 304.509 122.531V117.905ZM309.797 126.617H308.573V118.949H306.827V117.905H308.573V115.151H309.797V117.905H311.543V118.949H309.797V126.617ZM317.684 115.511C317.18 115.511 316.766 115.097 316.766 114.593C316.766 114.089 317.18 113.657 317.684 113.657C318.188 113.657 318.62 114.089 318.62 114.593C318.62 115.097 318.188 115.511 317.684 115.511ZM317.072 126.617V117.905H318.314V126.617H317.072ZM321.606 126.617H320.364V117.905H321.444L321.624 119.417C322.2 118.301 323.352 117.671 324.612 117.671C327.006 117.671 327.996 119.093 327.996 121.289V126.617H326.754V121.559C326.754 119.525 325.836 118.805 324.396 118.805C322.614 118.805 321.606 120.101 321.606 122.063V126.617ZM333.502 130.415V129.389H334.456C335.212 129.389 335.968 129.335 336.4 128.165L336.778 127.139L333.25 117.905H334.564L337.372 125.501L340.126 117.905H341.404L337.408 128.615C336.904 129.983 336.058 130.541 334.816 130.541C334.294 130.541 333.898 130.505 333.502 130.415ZM341.405 122.261C341.405 119.597 343.277 117.671 345.833 117.671C348.389 117.671 350.261 119.597 350.261 122.261C350.261 124.907 348.389 126.833 345.833 126.833C343.277 126.833 341.405 124.907 341.405 122.261ZM342.665 122.243C342.665 124.295 343.961 125.717 345.833 125.717C347.687 125.717 349.001 124.295 349.001 122.243C349.001 120.227 347.687 118.787 345.833 118.787C343.961 118.787 342.665 120.227 342.665 122.243ZM357.617 117.905H358.859V126.617H357.779L357.617 125.141C357.131 126.149 355.925 126.833 354.557 126.833C352.505 126.833 351.389 125.429 351.389 123.305V117.887H352.649V122.909C352.649 124.979 353.567 125.717 354.953 125.717C356.627 125.717 357.617 124.601 357.617 122.531V117.905ZM365.46 117.797V118.913H364.776C363.174 118.913 362.148 119.993 362.148 121.649V126.617H360.906V117.905H362.076L362.166 119.255C362.508 118.319 363.426 117.707 364.65 117.707C364.92 117.707 365.154 117.725 365.46 117.797ZM370.412 122.261C370.412 119.597 372.284 117.671 374.84 117.671C377.396 117.671 379.268 119.597 379.268 122.261C379.268 124.907 377.396 126.833 374.84 126.833C372.284 126.833 370.412 124.907 370.412 122.261ZM371.672 122.243C371.672 124.295 372.968 125.717 374.84 125.717C376.694 125.717 378.008 124.295 378.008 122.243C378.008 120.227 376.694 118.787 374.84 118.787C372.968 118.787 371.672 120.227 371.672 122.243ZM385.268 117.797V118.913H384.584C382.982 118.913 381.956 119.993 381.956 121.649V126.617H380.714V117.905H381.884L381.974 119.255C382.316 118.319 383.234 117.707 384.458 117.707C384.728 117.707 384.962 117.725 385.268 117.797ZM385.627 122.009C385.627 119.633 387.157 117.671 389.713 117.671C391.225 117.671 392.377 118.373 392.935 119.651L393.061 117.905H394.141V126.347C394.141 128.939 392.485 130.631 389.929 130.631C387.697 130.631 386.131 129.371 385.789 127.265H387.031C387.301 128.669 388.381 129.497 389.947 129.497C391.729 129.497 392.917 128.291 392.917 126.473V124.403C392.323 125.627 391.117 126.347 389.623 126.347C387.139 126.347 385.627 124.385 385.627 122.009ZM386.869 121.991C386.869 123.773 387.967 125.231 389.803 125.231C391.693 125.231 392.809 123.863 392.809 121.991C392.809 120.137 391.729 118.769 389.821 118.769C387.949 118.769 386.869 120.227 386.869 121.991Z" fill="#474747"/>
<path d="M842.226 69.7476L820.634 57.2971C820.424 57.192 820.214 57.192 820.109 57.2971C820.004 57.4021 818.743 58.0325 818.638 58.1376C818.48 58.2427 818.428 58.4528 818.428 58.7155V78.1531C818.428 78.6784 818.743 79.3614 819.163 79.5715L822.946 81.7779L842.751 70.3255C842.593 70.0628 842.436 69.8527 842.226 69.7476Z" fill="#BA68C8"/>
<path opacity="0.6" d="M842.226 69.7476L820.634 57.2971C820.424 57.192 820.214 57.192 820.109 57.2971C820.004 57.4021 818.743 58.0325 818.638 58.1376C818.48 58.2427 818.428 58.4528 818.428 58.7155V78.1531C818.428 78.6784 818.743 79.3614 819.163 79.5715L822.946 81.7779L842.751 70.3255C842.593 70.0628 842.436 69.8527 842.226 69.7476Z" fill="white"/>
<path d="M841.227 92.0745C841.385 91.9694 842.593 91.2865 842.751 91.2339C842.908 91.1289 842.961 90.9187 842.961 90.6561V71.2185C842.961 70.9558 842.856 70.6406 842.751 70.3779L822.945 81.8304L840.702 92.022C840.912 92.127 841.07 92.127 841.227 92.0745Z" fill="#BA68C8"/>
<path opacity="0.3" d="M841.227 92.0745C841.385 91.9694 842.593 91.2865 842.751 91.2339C842.908 91.1289 842.961 90.9187 842.961 90.6561V71.2185C842.961 70.9558 842.856 70.6406 842.751 70.3779L822.945 81.8304L840.702 92.022C840.912 92.127 841.07 92.127 841.227 92.0745Z" fill="white"/>
<path d="M840.702 92.022L819.11 79.5714C818.69 79.3087 818.375 78.6783 818.375 78.153V58.7154C818.375 58.19 818.69 57.9273 819.11 58.1375L840.702 70.5881C841.122 70.8507 841.437 71.4811 841.437 72.0065V91.4441C841.49 92.022 841.122 92.2846 840.702 92.022Z" fill="#BA68C8"/>
<path opacity="0.8" d="M840.702 92.022L819.11 79.5714C818.69 79.3087 818.375 78.6783 818.375 78.153V58.7154C818.375 58.19 818.69 57.9273 819.11 58.1375L840.702 70.5881C841.122 70.8507 841.437 71.4811 841.437 72.0065V91.4441C841.49 92.022 841.122 92.2846 840.702 92.022Z" fill="white"/>
<path opacity="0.2" d="M841.49 91.4443V91.0766L832.559 76.262L841.385 71.3763C841.385 71.3238 841.333 71.2712 841.333 71.2187L830.353 75.7891C830.143 75.8942 829.828 75.7366 829.565 75.3689L818.585 58.1377L818.533 58.1902L827.359 73.215L818.428 77.6804V78.0481C818.428 78.3633 818.533 78.6785 818.638 78.9412L827.779 73.9505L829.092 76.1569C829.618 77.05 830.3 77.4177 830.826 77.155L832.139 76.4196L841.228 92.0747C841.385 91.9696 841.49 91.7595 841.49 91.4443Z" fill="#BA68C8"/>
<path d="M836.867 72.9L815.276 60.4494C815.066 60.3443 814.855 60.3443 814.75 60.4494C814.645 60.5545 813.385 61.1849 813.279 61.2899C813.122 61.395 813.069 61.6052 813.069 61.8678V81.3054C813.069 81.8308 813.385 82.5137 813.805 82.7239L817.587 84.9303L837.393 73.4779C837.235 73.2152 837.077 73.005 836.867 72.9Z" fill="#BA68C8"/>
<path opacity="0.6" d="M836.867 72.9L815.276 60.4494C815.066 60.3443 814.855 60.3443 814.75 60.4494C814.645 60.5545 813.385 61.1849 813.279 61.2899C813.122 61.395 813.069 61.6052 813.069 61.8678V81.3054C813.069 81.8308 813.385 82.5137 813.805 82.7239L817.587 84.9303L837.393 73.4779C837.235 73.2152 837.077 73.005 836.867 72.9Z" fill="white"/>
<path d="M835.869 95.2268C836.027 95.1218 837.235 94.4388 837.392 94.3863C837.55 94.2812 837.603 94.0711 837.603 93.8084V74.3708C837.603 74.1081 837.497 73.7929 837.392 73.5303L817.587 84.9827L835.396 95.2794C835.554 95.2794 835.711 95.2794 835.869 95.2268Z" fill="#BA68C8"/>
<path opacity="0.3" d="M835.869 95.2268C836.027 95.1218 837.235 94.4388 837.392 94.3863C837.55 94.2812 837.603 94.0711 837.603 93.8084V74.3708C837.603 74.1081 837.497 73.7929 837.392 73.5303L817.587 84.9827L835.396 95.2794C835.554 95.2794 835.711 95.2794 835.869 95.2268Z" fill="white"/>
<path d="M835.343 95.1743L813.752 82.7237C813.332 82.4611 813.017 81.8307 813.017 81.3053V61.8677C813.017 61.3424 813.332 61.0797 813.752 61.2898L835.343 73.7404C835.764 74.0031 836.079 74.6335 836.079 75.1588V94.5964C836.131 95.1743 835.764 95.437 835.343 95.1743Z" fill="#BA68C8"/>
<path opacity="0.8" d="M835.343 95.1743L813.752 82.7237C813.332 82.4611 813.017 81.8307 813.017 81.3053V61.8677C813.017 61.3424 813.332 61.0797 813.752 61.2898L835.343 73.7404C835.764 74.0031 836.079 74.6335 836.079 75.1588V94.5964C836.131 95.1743 835.764 95.437 835.343 95.1743Z" fill="white"/>
<path opacity="0.2" d="M836.132 94.5966V94.2289L827.201 79.4143L836.027 74.5286C836.027 74.4761 835.974 74.4236 835.974 74.371L824.942 78.9415C824.732 79.0466 824.417 78.889 824.154 78.5212L813.174 61.29L813.122 61.3426L821.948 76.3673L813.017 80.8327V81.2004C813.017 81.5157 813.122 81.8309 813.227 82.0935L822.368 77.1028L823.681 79.3092C824.207 80.2023 824.89 80.5701 825.415 80.3074L826.728 79.5719L835.869 95.2271C836.027 95.122 836.132 94.9118 836.132 94.5966Z" fill="#BA68C8"/>
<path d="M831.509 76.0518L809.917 63.6013C809.707 63.4962 809.497 63.4962 809.392 63.6013C809.287 63.7063 808.026 64.3367 807.921 64.4418C807.763 64.5469 807.711 64.757 807.711 65.0197V84.4573C807.711 84.9826 808.026 85.6656 808.446 85.8757L812.229 88.0821L832.034 76.6297C831.877 76.3671 831.719 76.1569 831.509 76.0518Z" fill="#BA68C8"/>
<path opacity="0.6" d="M831.509 76.0518L809.917 63.6013C809.707 63.4962 809.497 63.4962 809.392 63.6013C809.287 63.7063 808.026 64.3367 807.921 64.4418C807.763 64.5469 807.711 64.757 807.711 65.0197V84.4573C807.711 84.9826 808.026 85.6656 808.446 85.8757L812.229 88.0821L832.034 76.6297C831.877 76.3671 831.719 76.1569 831.509 76.0518Z" fill="white"/>
<path d="M830.511 98.3787C830.668 98.2736 831.876 97.5907 832.034 97.5381C832.192 97.4331 832.244 97.2229 832.244 96.9603V77.5227C832.244 77.26 832.139 76.9448 832.034 76.6821L812.229 88.1346L830.038 98.4312C830.195 98.4312 830.353 98.4312 830.511 98.3787Z" fill="#BA68C8"/>
<path opacity="0.3" d="M830.511 98.3787C830.668 98.2736 831.876 97.5907 832.034 97.5381C832.192 97.4331 832.244 97.2229 832.244 96.9603V77.5227C832.244 77.26 832.139 76.9448 832.034 76.6821L812.229 88.1346L830.038 98.4312C830.195 98.4312 830.353 98.4312 830.511 98.3787Z" fill="white"/>
<path d="M829.985 98.3262L808.394 85.8756C807.973 85.6129 807.658 84.9825 807.658 84.4572V65.0196C807.658 64.4942 807.973 64.2315 808.394 64.4417L829.985 76.8923C830.406 77.1549 830.721 77.7853 830.721 78.3107V97.7483C830.721 98.3262 830.406 98.5888 829.985 98.3262Z" fill="#BA68C8"/>
<path opacity="0.8" d="M829.985 98.3262L808.394 85.8756C807.973 85.6129 807.658 84.9825 807.658 84.4572V65.0196C807.658 64.4942 807.973 64.2315 808.394 64.4417L829.985 76.8923C830.406 77.1549 830.721 77.7853 830.721 78.3107V97.7483C830.721 98.3262 830.406 98.5888 829.985 98.3262Z" fill="white"/>
<path opacity="0.2" d="M830.721 97.7485V97.3808L821.79 82.5662L830.616 77.6805C830.616 77.628 830.563 77.5754 830.563 77.5229L819.583 82.0933C819.373 82.1984 819.058 82.0408 818.795 81.6731L807.816 64.4419L807.763 64.4944L816.589 79.5192L807.658 83.9846V84.3523C807.658 84.6675 807.763 84.9827 807.868 85.2454L817.009 80.2547L818.323 82.4611C818.848 83.3542 819.531 83.7219 820.056 83.4592L821.37 82.7238L830.511 98.3789C830.616 98.2738 830.721 98.0637 830.721 97.7485Z" fill="#BA68C8"/>
<path d="M802.142 59.7662L804.401 58.4529C805.399 57.9275 806.713 57.9801 808.184 58.8206C811.178 60.5542 813.595 64.7044 813.595 68.1717C813.595 69.9053 813.017 71.1136 812.019 71.6389L809.97 72.7947L809.497 72.0066C809.024 71.9016 808.499 71.6915 807.974 71.4288C804.979 69.6952 802.563 65.545 802.563 62.0777C802.563 61.5524 802.615 61.1321 802.72 60.7118L802.142 59.7662Z" fill="#37474F"/>
<path d="M813.385 66.3857C813.542 67.0162 813.595 67.594 813.595 68.2244C813.595 69.9581 813.017 71.1663 812.019 71.6917L809.97 72.8474L809.497 72.0594C809.024 71.9543 808.499 71.7442 807.974 71.4815C807.448 71.1663 806.975 70.7986 806.503 70.3783L813.385 66.3857Z" fill="#263238"/>
<path d="M806.082 60.0815C809.077 61.8151 811.493 65.9653 811.493 69.4326C811.493 72.8998 809.077 74.2657 806.082 72.5321C803.088 70.7985 800.671 66.6483 800.671 63.181C800.671 59.7663 803.088 58.3479 806.082 60.0815Z" fill="#455A64"/>
<path d="M803.981 64.8621V63.5487C803.981 62.0252 804.874 61.3423 806.03 62.0252C807.185 62.6556 808.078 64.4418 808.078 65.9653V67.121C808.078 67.8565 808.341 68.6971 808.761 69.4325C808.866 69.6427 808.919 69.8528 808.919 70.0629C808.919 70.4307 808.709 70.6408 808.394 70.4307L803.613 67.6464C803.35 67.4888 803.088 67.016 803.088 66.6482C803.088 66.4381 803.14 66.333 803.245 66.2279C803.666 66.0703 803.981 65.5975 803.981 64.8621Z" fill="white"/>
<path d="M805.032 68.8545C805.032 69.59 805.452 70.4305 806.03 70.7457C806.556 71.0609 807.028 70.7457 807.028 70.0102L805.032 68.8545Z" fill="white"/>
<path d="M866.42 59.5991V63.7493L939.653 105.987L941.281 105.041V100.943C941.281 100.681 941.229 100.418 941.124 100.103C941.124 100.05 941.071 99.9978 941.071 99.9453C941.019 99.8402 940.966 99.7351 940.914 99.6301C940.703 99.2623 940.388 98.8946 940.02 98.737L869.31 57.9705C868.942 57.7604 868.627 57.7604 868.416 57.918C868.206 58.0756 867.103 58.706 866.84 58.8111C866.788 58.8111 866.788 58.8636 866.735 58.8636C866.683 58.8636 866.683 58.9162 866.63 58.9687C866.63 59.0212 866.578 59.0212 866.578 59.0738C866.578 59.0738 866.578 59.0738 866.578 59.1263C866.578 59.1788 866.525 59.2314 866.525 59.2839C866.473 59.3364 866.42 59.4415 866.42 59.5991Z" fill="#455A64"/>
<path d="M938.76 166.926C938.655 166.926 938.55 166.874 938.445 166.821L867.787 125.949C867.156 125.582 866.631 124.689 866.631 123.953V59.599C866.631 59.1787 866.789 58.916 867.104 58.916C867.262 58.916 867.419 58.9686 867.577 59.0736L938.288 99.8926C938.918 100.26 939.443 101.153 939.443 101.889V165.928C939.443 166.191 939.391 166.453 939.233 166.611C939.128 166.768 938.971 166.926 938.76 166.926Z" fill="#FAFAFA"/>
<path d="M866.841 63.9594V123.953C866.841 124.584 867.314 125.424 867.892 125.74L938.55 166.611C938.602 166.664 938.708 166.664 938.76 166.664C938.97 166.664 939.18 166.296 939.18 165.928V105.777L939.601 106.039V165.981C939.601 166.611 939.233 167.136 938.76 167.136C938.655 167.136 938.497 167.084 938.34 167.031L867.681 126.16C866.998 125.74 866.421 124.794 866.421 124.006V63.6968L866.841 63.9594Z" fill="#E0E0E0"/>
<path d="M867.419 58.7588C867.524 58.8113 867.629 58.8113 867.734 58.8639C867.577 58.8113 867.472 58.7588 867.419 58.7588Z" fill="#37474F"/>
<path d="M941.229 105.041V100.943C941.229 100.523 941.072 100.103 940.862 99.6826L939.233 100.628C939.443 101.049 939.601 101.469 939.601 101.889V105.987L941.229 105.041Z" fill="#263238"/>
<path d="M866.421 59.5993C866.421 58.8113 866.999 58.4961 867.682 58.8638L938.393 99.6828C939.075 100.103 939.653 101.049 939.653 101.889V105.987L866.473 63.697V59.5993H866.421Z" fill="#37474F"/>
<path d="M939.601 105.987L939.653 113.394L866.421 71.1566V63.6968L939.601 105.987Z" fill="#EBEBEB"/>
<path d="M935.45 105.461L929.041 101.731V105.461L935.45 109.138V105.461Z" fill="#E0E0E0"/>
<path d="M927.412 100.786V102.257L924.208 100.418V98.9473L927.412 100.786Z" fill="#E0E0E0"/>
<path d="M927.412 103.045V104.516L924.208 102.677V101.206L927.412 103.045Z" fill="#E0E0E0"/>
<path d="M922.632 98.0013L922.579 99.4722L919.375 97.6335V96.1626L922.632 98.0013Z" fill="#E0E0E0"/>
<path d="M922.632 100.261L922.579 101.732L919.375 99.8928V98.4219L922.632 100.261Z" fill="#E0E0E0"/>
<path d="M917.799 95.2171V96.6881L914.542 94.8494V93.3784L917.799 95.2171Z" fill="#E0E0E0"/>
<path d="M917.799 97.4759V98.9469L914.542 97.1082V95.6372L917.799 97.4759Z" fill="#E0E0E0"/>
<path d="M903.3 86.8636V88.3346L900.095 86.4959V85.0249L903.3 86.8636Z" fill="#E0E0E0"/>
<path d="M903.3 89.1229V90.5938L900.095 88.7551V87.2842L903.3 89.1229Z" fill="#E0E0E0"/>
<path d="M898.467 84.0794V85.5504L895.262 83.7117V82.2407L898.467 84.0794Z" fill="#E0E0E0"/>
<path d="M898.467 86.3387V87.8096L895.262 85.971V84.5L898.467 86.3387Z" fill="#E0E0E0"/>
<path d="M893.634 81.2952V82.7662L890.429 80.9275V79.4565L893.634 81.2952Z" fill="#E0E0E0"/>
<path d="M893.634 83.554V85.025L890.429 83.1863V81.7153L893.634 83.554Z" fill="#E0E0E0"/>
<path d="M912.966 92.4326L904.928 87.8096V91.5395L912.966 96.1625V92.4326Z" fill="#E0E0E0"/>
<path d="M888.8 78.5109L882.391 74.8335V78.5109L888.853 82.2408L888.8 78.5109Z" fill="#E0E0E0"/>
<path d="M880.763 73.8883V75.3593L877.558 73.468V71.9971L880.763 73.8883Z" fill="#E0E0E0"/>
<path d="M880.763 76.1471V77.5655L877.558 75.7268V74.2559L880.763 76.1471Z" fill="#E0E0E0"/>
<path d="M875.982 71.1036V72.522L872.725 70.6834V69.2124L875.982 71.1036Z" fill="#E0E0E0"/>
<path d="M875.982 73.3629V74.7813L872.725 72.9426V71.4717L875.982 73.3629Z" fill="#E0E0E0"/>
<path d="M871.149 68.3194V69.7379L867.892 67.8992V66.4282L871.149 68.3194Z" fill="#E0E0E0"/>
<path d="M871.149 70.5782V71.9967L867.892 70.158V68.687L871.149 70.5782Z" fill="#E0E0E0"/>
<path d="M940.703 166.138C940.546 166.191 939.6 166.769 939.18 167.031C939.495 166.821 939.6 166.453 939.653 165.981V105.987L941.281 105.041V165.035C941.229 165.508 941.019 165.928 940.703 166.138Z" fill="#F0F0F0"/>
<path d="M939.601 105.987L941.229 105.041V112.501L939.653 113.394L939.601 105.987Z" fill="#E0E0E0"/>
<path d="M868.523 62.068V62.3307C868.523 62.7509 868.838 63.2763 869.206 63.539L886.227 73.3628V71.5241L869.206 61.7003C868.838 61.4376 868.523 61.5952 868.523 62.068Z" fill="#F5F5F5"/>
<path d="M889.431 74.4136V74.1509C889.431 73.7306 889.115 73.2053 888.748 72.9426L886.226 71.4717V73.3104L888.748 74.7813C889.115 74.9915 889.431 74.8339 889.431 74.4136Z" fill="#455A64"/>
<path d="M938.13 114.549V164.457L937.867 164.299V117.964L868.26 77.7754V74.2031L938.13 114.549Z" fill="#F0F0F0"/>
<path d="M937.866 117.964L930.144 113.499V117.071L937.866 121.536V117.964Z" fill="#BA68C8"/>
<path d="M937.866 146.49L930.144 142.025V145.597L937.866 150.063V146.49Z" fill="#BA68C8"/>
<path d="M937.866 150.063L930.144 145.597V149.169L937.866 153.582V150.063Z" fill="#BA68C8"/>
<path opacity="0.8" d="M937.866 150.063L930.144 145.597V149.169L937.866 153.582V150.063Z" fill="white"/>
<path d="M891.584 119.75L883.861 115.285V118.857L891.584 123.322V119.75Z" fill="#BA68C8"/>
<path opacity="0.3" d="M891.584 119.75L883.861 115.285V118.857L891.584 123.322V119.75Z" fill="white"/>
<path d="M891.584 123.323L883.861 118.857V122.43L891.584 126.895V123.323Z" fill="#BA68C8"/>
<path opacity="0.4" d="M891.584 123.323L883.861 118.857V122.43L891.584 126.895V123.323Z" fill="white"/>
<path d="M891.584 126.895L883.861 122.43V126.002L891.584 130.467V126.895Z" fill="#BA68C8"/>
<path opacity="0.5" d="M891.584 126.895L883.861 122.43V126.002L891.584 130.467V126.895Z" fill="white"/>
<path d="M891.584 130.467L883.861 126.002V129.574L891.584 133.987V130.467Z" fill="#BA68C8"/>
<path opacity="0.3" d="M891.584 130.467L883.861 126.002V129.574L891.584 133.987V130.467Z" fill="white"/>
<path d="M883.862 90.3313L876.14 85.9185V103.728L883.862 108.193V90.3313Z" fill="#BA68C8"/>
<path d="M899.254 117.071L891.584 112.605V137.559L899.254 142.025V117.071Z" fill="#BA68C8"/>
<path d="M930.145 134.88L922.422 130.467V133.987L930.145 138.452V134.88Z" fill="#BA68C8"/>
<path opacity="0.3" d="M930.145 134.88L922.422 130.467V133.987L930.145 138.452V134.88Z" fill="black"/>
<path d="M914.699 108.193L906.977 103.728V107.3L914.699 111.713V108.193Z" fill="#BA68C8"/>
<path opacity="0.6" d="M914.699 108.193L906.977 103.728V107.3L914.699 111.713V108.193Z" fill="white"/>
<path d="M876.14 107.3L868.417 102.834V106.407L876.14 110.82V107.3Z" fill="#BA68C8"/>
<path opacity="0.8" d="M876.14 107.3L868.417 102.834V106.407L876.14 110.82V107.3Z" fill="white"/>
<path d="M876.14 114.392L868.417 109.979V113.499L876.14 117.964V114.392Z" fill="#BA68C8"/>
<path d="M938.13 114.339V114.76L938.077 114.707V117.807L938.13 117.859V118.279L938.077 118.227V121.326L938.13 121.379V121.799L938.077 121.747V124.846L938.13 124.899V125.319L938.077 125.266V128.418L938.13 128.576V128.996L938.077 128.944V132.096L938.13 132.148V132.569L938.077 132.516V135.668L938.13 135.721V136.141L938.077 136.088V139.24L938.13 139.293V139.713L938.077 139.661V142.813L938.13 142.865V143.286L938.077 143.233V146.385L938.13 146.438V146.858L938.077 146.805V149.957L938.13 150.01V150.43L938.077 150.378V153.53L938.13 153.582V154.003L938.077 153.95V157.102L938.13 157.155V157.575L938.077 157.522V160.674L938.13 160.727V161.147L938.077 161.095V164.194L938.13 164.247V164.667L868.26 124.321V73.9932L938.13 114.339ZM930.302 159.729L937.657 163.984V160.885L930.302 156.629V159.729ZM930.302 156.209L937.657 160.464V157.312L930.302 153.057V156.209ZM930.302 152.637L937.657 156.892V153.74L930.302 149.485V152.637ZM930.302 149.064L937.657 153.32V150.168L930.302 145.912V149.064ZM930.302 145.492L937.657 149.747V146.595L930.302 142.34V145.492ZM930.302 141.92L937.657 146.175V143.023L930.302 138.768V141.92ZM930.302 138.347L937.657 142.603V139.451L930.302 135.195V138.347ZM930.302 134.775L937.657 139.03V135.878L930.302 131.623V134.775ZM930.302 131.255L937.657 135.511V132.359L930.302 128.103V131.255ZM930.302 127.683L937.657 131.938V128.786L930.302 124.531V127.683ZM930.302 124.111L937.657 128.366V125.214L930.302 120.959V124.111ZM930.302 120.538L937.657 124.794V121.694L930.302 117.439V120.538ZM930.302 116.966L937.657 121.221V118.069L930.302 113.814V116.966ZM930.302 113.394L937.657 117.649V114.549L930.302 110.294V113.394ZM922.632 155.263L929.987 159.519V156.419L922.632 152.164V155.263ZM922.632 151.744L929.987 155.999V152.847L922.632 148.592V151.744ZM922.632 148.171L929.987 152.427V149.274L922.632 145.019V148.171ZM922.632 144.599L929.987 148.854V145.702L922.632 141.447V144.599ZM922.632 141.027L929.987 145.282V142.13L922.632 137.875V141.027ZM922.632 137.454L929.987 141.71V138.558L922.632 134.302V137.454ZM922.632 133.882L929.987 138.137V134.985L922.632 130.73V133.882ZM922.632 130.362L929.987 134.617V131.465L922.632 127.21V130.362ZM922.632 126.79L929.987 131.045V127.893L922.632 123.638V126.79ZM922.632 123.218L929.987 127.473V124.321L922.632 120.066V123.218ZM922.632 119.645L929.987 123.901V120.748L922.632 116.493V119.645ZM922.632 116.073L929.987 120.328V117.229L922.632 112.973V116.073ZM922.632 112.501L929.987 116.756V113.604L922.632 109.349V112.501ZM922.632 108.981L929.987 113.236V110.137L922.632 105.881V108.981ZM914.91 150.851L922.265 155.106V152.006L914.91 147.751V150.851ZM914.91 147.278L922.265 151.533V148.381L914.91 144.126V147.278ZM914.91 143.706L922.265 147.961V144.809L914.91 140.554V143.706ZM914.91 140.134L922.265 144.389V141.237L914.91 136.982V140.134ZM914.91 136.561L922.265 140.816V137.664L914.91 133.409V136.561ZM914.91 133.041L922.265 137.297V134.145L914.91 129.889V133.041ZM914.91 129.469L922.265 133.724V130.572L914.91 126.317V129.469ZM914.91 125.897L922.265 130.152V127L914.91 122.745V125.897ZM914.91 122.325L922.265 126.58V123.428L914.91 119.172V122.325ZM914.91 118.752L922.265 123.007V119.855L914.91 115.6V118.752ZM914.91 115.18L922.265 119.435V116.283L914.91 112.028V115.18ZM914.91 111.608L922.265 115.863V112.763L914.91 108.508V111.608ZM914.91 108.088L922.265 112.343V109.244L914.91 104.988V108.088ZM914.91 104.515L922.265 108.771V105.671L914.91 101.416V104.515ZM907.187 146.385L914.542 150.64V147.488L907.187 143.233V146.385ZM907.187 142.813L914.542 147.068V143.916L907.187 139.661V142.813ZM907.187 139.24L914.542 143.496V140.344L907.187 136.088V139.24ZM907.187 135.668L914.542 139.923V136.771L907.187 132.516V135.668ZM907.187 132.148L914.542 136.404V133.252L907.187 128.996V132.148ZM907.187 128.576L914.542 132.831V129.679L907.187 125.424V128.576ZM907.187 125.004L914.542 129.259V126.107L907.187 121.852V125.004ZM907.187 121.431L914.542 125.687V122.535L907.187 118.279V121.431ZM907.187 117.859L914.542 122.114V118.962L907.187 114.707V117.859ZM907.187 114.287L914.542 118.542V115.39L907.187 111.135V114.287ZM907.187 110.714L914.542 114.97V111.818L907.187 107.562V110.714ZM907.187 107.195L914.542 111.45V108.298L907.187 104.043V107.195ZM907.187 103.622L914.542 107.878V104.778L907.187 100.523V103.622ZM907.187 100.05L914.542 104.305V101.206L907.187 96.9506V100.05ZM899.465 141.92L906.82 146.175V143.075L899.465 138.82V141.92ZM899.465 138.347L906.82 142.603V139.451L899.465 135.195V138.347ZM899.465 134.775L906.82 139.03V135.878L899.465 131.623V134.775ZM899.465 131.255L906.82 135.511V132.359L899.465 128.103V131.255ZM899.465 127.683L906.82 131.938V128.786L899.465 124.531V127.683ZM899.465 124.111L906.82 128.366V125.214L899.465 120.959V124.111ZM899.465 120.538L906.82 124.794V121.642L899.465 117.386V120.538ZM899.465 116.966L906.82 121.221V118.069L899.465 113.814V116.966ZM899.465 113.394L906.82 117.649V114.497L899.465 110.242V113.394ZM899.465 109.874L906.82 114.129V110.977L899.465 106.722V109.874ZM899.465 106.302L906.82 110.557V107.405L899.465 103.15V106.302ZM899.465 102.729L906.82 106.985V103.833L899.465 99.5773V102.729ZM899.465 99.157L906.82 103.412V100.313L899.465 96.0575V99.157ZM899.465 95.5847L906.82 99.8399V96.7404L899.465 92.4852V95.5847ZM891.742 137.454L899.097 141.71V138.61L891.742 134.355V137.454ZM891.742 133.935L899.097 138.19V135.038L891.742 130.782V133.935ZM891.742 130.362L899.097 134.617V131.465L891.742 127.21V130.362ZM891.742 126.79L899.097 131.045V127.893L891.742 123.638V126.79ZM891.742 123.218L899.097 127.473V124.321L891.742 120.066V123.218ZM891.742 119.645L899.097 123.901V120.748L891.742 116.493V119.645ZM891.742 116.073L899.097 120.328V117.176L891.742 112.921V116.073ZM891.742 112.501L899.097 116.756V113.604L891.742 109.349V112.501ZM891.742 108.981L899.097 113.236V110.084L891.742 105.829V108.981ZM891.742 105.409L899.097 109.664V106.512L891.742 102.256V105.409ZM891.742 101.836L899.097 106.091V102.939L891.742 98.6842V101.836ZM891.742 98.2639L899.097 102.519V99.4197L891.742 95.1644V98.2639ZM891.742 94.6916L899.097 98.9468V95.8473L891.742 91.5921V94.6916ZM891.742 91.1193L899.097 95.3745V92.275L891.742 88.0198V91.1193ZM884.02 132.989L891.375 137.244V134.145L884.02 129.889V132.989ZM884.02 129.469L891.375 133.724V130.625L884.02 126.37V129.469ZM884.02 125.897L891.375 130.152V127L884.02 122.745V125.897ZM884.02 122.325L891.375 126.58V123.428L884.02 119.172V122.325ZM884.02 118.752L891.375 123.007V119.855L884.02 115.6V118.752ZM884.02 115.18L891.375 119.435V116.283L884.02 112.028V115.18ZM884.02 111.608L891.375 115.863V112.763L884.02 108.508V111.608ZM884.02 108.088L891.375 112.343V109.191L884.02 104.936V108.088ZM884.02 104.515L891.375 108.771V105.619L884.02 101.363V104.515ZM884.02 100.943L891.375 105.198V102.099L884.02 97.8436V100.943ZM884.02 97.3708L891.375 101.626V98.474L884.02 94.2188V97.3708ZM884.02 93.7985L891.375 98.0538V94.9017L884.02 90.6465V93.7985ZM884.02 90.2262L891.375 94.4815V91.3819L884.02 87.1267V90.2262ZM884.02 86.7064L891.375 90.9617V87.8622L884.02 83.6069V86.7064ZM876.297 128.576L883.652 132.831V129.732L876.297 125.477V128.576ZM876.297 125.004L883.652 129.259V126.107L876.297 121.852V125.004ZM876.297 121.431L883.652 125.687V122.535L876.297 118.279V121.431ZM876.297 117.859L883.652 122.114V118.962L876.297 114.707V117.859ZM876.297 114.287L883.652 118.542V115.39L876.297 111.135V114.287ZM876.297 110.767L883.652 115.022V111.87L876.297 107.615V110.767ZM876.297 107.195L883.652 111.45V108.298L876.297 104.043V107.195ZM876.297 103.622L883.652 107.878V104.726L876.297 100.47V103.622ZM876.297 100.05L883.652 104.305V101.153L876.297 96.898V100.05ZM876.297 96.4777L883.652 100.733V97.581L876.297 93.3257V96.4777ZM876.297 92.9054L883.652 97.1607V94.0086L876.297 89.7534V92.9054ZM876.297 89.3331L883.652 93.5884V90.4889L876.297 86.2336V89.3331ZM876.297 85.8133L883.652 90.0686V86.9691L876.297 82.7138V85.8133ZM876.297 82.241L883.652 86.4963V83.3968L876.297 79.1415V82.241ZM868.627 124.111L875.982 128.366V125.266L868.627 121.011V124.111ZM868.627 120.538L875.982 124.794V121.694L868.627 117.439V120.538ZM868.627 116.966L875.982 121.221V118.069L868.627 113.814V116.966ZM868.627 113.394L875.982 117.649V114.497L868.627 110.242V113.394ZM868.627 109.874L875.982 114.129V110.977L868.627 106.722V109.874ZM868.627 106.302L875.982 110.557V107.405L868.627 103.15V106.302ZM868.627 102.729L875.982 106.985V103.885L868.627 99.6298V102.729ZM868.627 99.157L875.982 103.412V100.26L868.627 96.0049V99.157ZM868.627 95.5847L875.982 99.8399V96.6879L868.627 92.4326V95.5847ZM868.627 92.0124L875.982 96.2676V93.1156L868.627 88.8603V92.0124ZM868.627 88.44L875.982 92.6953V89.5432L868.627 85.288V88.44ZM868.627 84.9203L875.982 89.1755V86.0235L868.627 81.7682V84.9203ZM868.627 81.3479L875.982 85.6032V82.4511L868.627 78.1959V81.3479ZM868.627 77.7756L875.982 82.0309V78.9314L868.627 74.6761V77.7756Z" fill="#E0E0E0"/>
<path d="M874.49 160.306C873.678 160.306 873.019 159.93 873.019 159.466C873.019 159.001 873.678 158.625 874.49 158.625C875.302 158.625 875.961 159.001 875.961 159.466C875.961 159.93 875.302 160.306 874.49 160.306Z" fill="black"/>
<path d="M875.961 159.361L873.229 150.64L869.394 152.847L873.072 159.729L875.961 159.361Z" fill="black"/>
<path d="M842.339 145.019C842.917 145.334 842.917 145.912 842.339 146.227C841.761 146.543 840.816 146.543 840.238 146.227C839.66 145.912 839.66 145.334 840.238 145.019C840.816 144.704 841.761 144.704 842.339 145.019Z" fill="black"/>
<path d="M839.818 145.492L842.55 136.771L846.385 139.03L842.707 145.912L839.818 145.492Z" fill="black"/>
<path d="M848.171 106.984L846.437 103.937C845.965 103.044 844.809 102.729 843.916 103.202C843.023 103.675 842.708 104.83 843.18 105.723L844.966 108.823C845.334 109.453 846.385 109.611 847.225 109.086C848.171 108.613 848.539 107.667 848.171 106.984Z" fill="#263238"/>
<path d="M839.451 111.292L853.74 103.044C857.05 101.153 861.567 101.468 866.611 104.358C876.697 110.189 884.893 124.373 884.893 136.036C884.893 141.814 882.896 145.912 879.587 147.856L865.297 156.104L864.142 153.057C862.513 152.636 860.832 151.953 859.098 150.955C849.012 145.124 840.816 130.94 840.816 119.277C840.816 117.281 841.079 115.495 841.499 113.866L839.451 111.292Z" fill="#BA68C8"/>
<path opacity="0.1" d="M884.735 133.146C884.84 134.092 884.893 135.038 884.893 135.983C884.893 141.762 882.896 145.86 879.587 147.803L865.297 156.051L864.142 153.004C863.774 152.899 863.354 152.794 862.986 152.689L861.252 146.753L884.735 133.146Z" fill="black"/>
<path d="M839.405 141.167C832.267 128.805 832.266 115.444 839.402 111.324C846.537 107.204 858.108 113.885 865.246 126.247C872.383 138.609 872.384 151.97 865.248 156.09C858.113 160.21 846.542 153.529 839.405 141.167Z" fill="#BA68C8"/>
<path opacity="0.3" d="M839.405 141.167C832.267 128.805 832.266 115.444 839.402 111.324C846.537 107.204 858.108 113.885 865.246 126.247C872.383 138.609 872.384 151.97 865.248 156.09C858.113 160.21 846.542 153.529 839.405 141.167Z" fill="white"/>
<path d="M838.189 116.44C840.763 112.343 845.754 111.712 851.48 114.759C860.989 119.803 868.712 133.146 868.344 143.916C868.239 146.753 867.556 149.169 866.453 151.008C863.878 155.105 858.888 155.736 853.161 152.689C843.653 147.646 835.93 134.302 836.298 123.532C836.403 120.696 837.086 118.227 838.189 116.44Z" fill="#BA68C8"/>
<path d="M855 151.638C858.678 153.582 862.04 154.002 864.614 153.057C865.297 152.532 865.927 151.849 866.453 151.008C867.608 149.169 868.239 146.753 868.344 143.916C868.764 133.146 861.042 119.803 851.481 114.76C847.803 112.816 844.441 112.395 841.867 113.341C841.184 113.866 840.553 114.549 840.028 115.39C838.872 117.229 838.242 119.645 838.137 122.482C837.769 133.251 845.492 146.595 855 151.638Z" fill="#FAFAFA"/>
<path d="M852.322 117.858C852.322 118.489 852.742 119.224 853.267 119.54C853.793 119.855 854.213 119.592 854.213 118.962C854.213 118.331 853.793 117.596 853.267 117.281C852.742 116.965 852.322 117.228 852.322 117.858Z" fill="#455A64"/>
<path d="M839.713 124.898C839.713 125.529 840.134 126.264 840.659 126.579C841.184 126.894 841.604 126.632 841.604 126.001C841.604 125.371 841.184 124.636 840.659 124.32C840.134 124.058 839.713 124.32 839.713 124.898Z" fill="#455A64"/>
<path d="M845.492 115.757C845.492 116.02 845.65 116.335 845.913 116.44C846.123 116.545 846.333 116.44 846.333 116.23C846.333 116.02 846.175 115.652 845.913 115.547C845.703 115.442 845.492 115.547 845.492 115.757Z" fill="#455A64"/>
<path d="M840.974 119.33C840.974 119.592 841.132 119.907 841.394 120.013C841.604 120.118 841.814 120.013 841.814 119.802C841.814 119.54 841.657 119.225 841.394 119.119C841.132 118.962 840.974 119.067 840.974 119.33Z" fill="#455A64"/>
<path d="M841.499 132.306C841.499 132.568 841.657 132.884 841.92 132.989C842.13 133.094 842.34 132.989 842.34 132.778C842.34 132.568 842.182 132.201 841.92 132.096C841.657 131.938 841.499 132.043 841.499 132.306Z" fill="#455A64"/>
<path d="M846.07 140.869C846.07 141.131 846.227 141.447 846.49 141.552C846.7 141.657 846.91 141.552 846.91 141.341C846.91 141.079 846.753 140.764 846.49 140.659C846.227 140.501 846.07 140.606 846.07 140.869Z" fill="#455A64"/>
<path d="M864.142 132.936C864.142 133.199 864.299 133.514 864.562 133.619C864.772 133.724 864.982 133.619 864.982 133.409C864.982 133.199 864.825 132.831 864.562 132.726C864.352 132.568 864.142 132.673 864.142 132.936Z" fill="#455A64"/>
<path d="M859.781 124.583C859.781 124.846 859.938 125.161 860.201 125.266C860.411 125.371 860.621 125.266 860.621 125.056C860.621 124.793 860.463 124.478 860.201 124.373C859.991 124.215 859.781 124.32 859.781 124.583Z" fill="#455A64"/>
<path d="M860.201 150.167C860.201 150.43 860.359 150.745 860.622 150.85C860.832 150.955 861.042 150.85 861.042 150.64C861.042 150.377 860.884 150.062 860.622 149.957C860.359 149.799 860.201 149.904 860.201 150.167Z" fill="#455A64"/>
<path d="M864.667 145.912C864.667 146.174 864.825 146.49 865.088 146.595C865.298 146.7 865.508 146.595 865.508 146.385C865.508 146.122 865.35 145.807 865.088 145.702C864.825 145.597 864.667 145.649 864.667 145.912Z" fill="#455A64"/>
<path d="M864.825 139.397C864.825 140.028 865.245 140.763 865.77 141.079C866.296 141.394 866.716 141.131 866.716 140.501C866.716 139.87 866.296 139.135 865.77 138.82C865.245 138.557 864.825 138.767 864.825 139.397Z" fill="#455A64"/>
<path d="M852.322 146.7C852.322 147.33 852.742 148.066 853.267 148.381C853.793 148.696 854.213 148.433 854.213 147.803C854.213 147.173 853.793 146.437 853.267 146.122C852.742 145.859 852.322 146.069 852.322 146.7Z" fill="#455A64"/>
<path d="M853.687 132.463C853.372 131.938 852.951 131.675 852.636 131.833C852.321 131.991 852.321 132.568 852.636 133.041C852.951 133.567 853.372 133.829 853.687 133.672C853.949 133.514 853.949 132.989 853.687 132.463Z" fill="#455A64"/>
<path d="M852.584 130.467L853.162 120.906L853.32 120.801L853.897 131.045L853.32 132.568L853.162 132.673L852.584 130.467Z" fill="#263238"/>
<path d="M853.74 131.15L853.897 131.045L853.32 120.801L853.162 120.906L853.74 131.15Z" fill="#37474F"/>
<path d="M853.162 132.673L852.584 130.467L853.162 120.906L853.74 131.15L853.162 132.673Z" fill="#455A64"/>
<path d="M853.372 132.778L855.001 134.617L858.521 141.657L858.363 141.762L854.003 135.247L853.215 132.883L853.372 132.778Z" fill="#263238"/>
<path d="M855.001 134.617L854.843 134.722L858.363 141.762L858.521 141.657L855.001 134.617Z" fill="#37474F"/>
<path d="M858.362 141.762L854.002 135.247L853.214 132.883L854.843 134.722L858.362 141.762Z" fill="#455A64"/>
<path d="M851.9 131.728L852.426 131.413C852.636 131.308 852.899 131.308 853.161 131.465C853.739 131.78 854.212 132.621 854.212 133.304C854.212 133.619 854.107 133.882 853.897 133.987L853.371 134.302L853.319 134.144C853.214 134.144 853.109 134.092 853.004 134.039C852.426 133.724 851.953 132.884 851.953 132.201C851.953 132.096 851.953 131.99 852.005 131.885L851.9 131.728Z" fill="#37474F"/>
<path d="M854.265 133.146C854.265 133.199 854.265 133.252 854.265 133.304C854.265 133.619 854.16 133.882 853.949 133.987L853.424 134.302L853.372 134.145H853.319L853.214 133.777L854.265 133.146Z" fill="#263238"/>
<path d="M851.585 132.411C851.585 133.094 852.058 133.934 852.636 134.249C853.214 134.565 853.687 134.302 853.687 133.619C853.687 132.936 853.214 132.095 852.636 131.78C852.058 131.465 851.585 131.728 851.585 132.411Z" fill="#455A64"/>
<path d="M852.775 132.827L852.785 132.984L844.085 133.569L844.074 133.412L852.775 132.827Z" fill="#BA68C8"/>
<path d="M853.162 133.987C853.32 133.882 853.372 133.724 853.372 133.514C853.372 133.041 853.057 132.463 852.637 132.201C852.426 132.096 852.216 132.043 852.111 132.148C851.586 132.463 851.428 133.094 851.744 133.619C852.006 134.092 852.637 134.302 853.162 133.987Z" fill="#BA68C8"/>
<path opacity="0.3" d="M852.742 132.569C852.742 132.621 852.795 132.621 852.742 132.674L852.69 132.726C852.585 132.831 852.375 132.779 852.269 132.779C852.112 132.779 851.954 132.831 851.849 132.884C851.692 132.936 851.692 132.831 851.744 132.726C851.797 132.516 852.007 132.306 852.269 132.253C852.375 132.253 852.637 132.411 852.742 132.569Z" fill="white"/>
<path opacity="0.2" d="M851.691 133.619C851.691 133.567 851.639 133.514 851.639 133.514C851.796 133.672 852.006 133.724 852.217 133.724C852.532 133.724 852.847 133.514 853.005 133.251C853.11 132.989 853.11 132.674 852.952 132.463C853.215 132.779 853.425 133.199 853.425 133.514C853.425 133.777 853.32 133.934 853.215 133.987C852.637 134.302 852.006 134.092 851.691 133.619Z" fill="black"/>
<path d="M857.679 104.095C857.679 103.937 857.784 103.727 858.047 103.57C858.52 103.307 859.308 103.307 859.781 103.57C860.043 103.727 860.148 103.885 860.148 104.095C860.148 104.2 860.148 108.77 860.148 108.876C860.148 109.033 860.043 109.243 859.781 109.401C859.308 109.664 858.52 109.664 858.047 109.401C857.784 109.243 857.679 109.086 857.679 108.876C857.679 108.77 857.679 104.2 857.679 104.095Z" fill="#455A64"/>
<path d="M858.047 103.622C858.52 103.36 859.308 103.36 859.781 103.622C860.043 103.78 860.148 103.938 860.148 104.148C860.148 104.2 860.148 105.408 860.148 106.617C859.36 106.774 858.467 106.774 857.679 106.617C857.679 105.408 857.679 104.148 857.679 104.148C857.679 103.938 857.784 103.727 858.047 103.622Z" fill="#263238"/>
<path d="M859.781 104.62C860.043 104.463 860.148 104.305 860.148 104.095C860.148 103.937 860.043 103.727 859.781 103.57C859.308 103.307 858.52 103.307 858.047 103.57C857.784 103.727 857.679 103.885 857.679 104.095C857.679 104.253 857.784 104.463 858.047 104.62C858.52 104.883 859.308 104.883 859.781 104.62Z" fill="#37474F"/>
<path d="M855.368 102.151C855.368 101.626 855.736 101.101 856.419 100.68C857.784 99.8924 860.043 99.8924 861.409 100.68C862.092 101.101 862.46 101.626 862.46 102.151C862.46 102.414 862.46 103.727 862.46 103.937C862.46 104.463 862.092 104.988 861.409 105.408C860.043 106.196 857.784 106.196 856.419 105.408C855.736 104.988 855.368 104.463 855.368 103.937C855.368 103.727 855.368 102.414 855.368 102.151Z" fill="#37474F"/>
<path d="M861.409 103.622C862.092 103.202 862.46 102.677 862.46 102.151C862.46 101.626 862.092 101.101 861.409 100.68C860.043 99.8924 857.784 99.8924 856.419 100.68C855.736 101.101 855.368 101.626 855.368 102.151C855.368 102.677 855.736 103.202 856.419 103.622C857.784 104.41 860.043 104.41 861.409 103.622Z" fill="#455A64"/>
<path opacity="0.2" d="M861.251 103.675V105.461C861.146 105.513 861.041 105.566 860.936 105.618V103.832C861.041 103.78 861.146 103.727 861.251 103.675ZM860.201 104.095V105.881C860.096 105.881 859.991 105.934 859.886 105.934V104.147C859.991 104.095 860.096 104.095 860.201 104.095ZM862.145 102.992V104.778C862.039 104.883 861.934 104.988 861.829 105.093V103.307C861.934 103.254 862.039 103.149 862.145 102.992ZM856.891 103.832V105.618C856.786 105.566 856.681 105.513 856.576 105.461V103.675C856.681 103.78 856.786 103.832 856.891 103.832ZM856.051 103.359V105.146C855.946 105.041 855.84 104.935 855.735 104.83V103.044C855.84 103.202 855.946 103.254 856.051 103.359ZM857.994 104.147V105.934C857.889 105.934 857.784 105.881 857.679 105.881V104.095C857.784 104.095 857.889 104.147 857.994 104.147ZM859.045 104.2V105.986H858.73V104.2C858.887 104.2 858.94 104.2 859.045 104.2Z" fill="black"/>
<path d="M869.605 126.895C872.441 131.781 877.747 134.04 881.793 131.728C886.678 128.891 888.412 122.64 885.575 117.702C882.738 112.816 876.434 111.082 871.548 113.919C867.503 116.283 866.768 121.957 869.605 126.895Z" fill="#455A64"/>
<path opacity="0.1" d="M879.691 117.491C879.166 117.964 878.43 118.332 877.852 118.7C876.959 119.277 876.434 120.013 875.803 120.853C875.068 121.852 874.438 123.112 873.229 123.533C872.021 123.953 870.603 123.217 870.025 122.062C869.447 120.906 869.394 119.277 869.815 118.069C871.075 114.654 875.488 112.658 878.903 114.287C880.006 114.812 880.637 116.651 879.691 117.491Z" fill="white"/>
<path d="M881.792 131.676C877.8 133.987 872.441 131.781 869.605 126.842C868.922 125.687 868.501 124.531 868.239 123.323C868.396 123.533 873.124 129.574 878.956 127.893C884.945 126.159 886.048 121.589 885.575 117.649C888.359 122.587 886.678 128.891 881.792 131.676Z" fill="#37474F"/>
<path d="M883.42 116.703L884.891 115.863C885.785 115.337 886.888 115.653 887.413 116.493C887.938 117.386 887.623 118.489 886.783 119.015L885.259 119.908C884.629 120.276 883.683 119.855 883.158 119.015C882.685 118.069 882.79 117.071 883.42 116.703Z" fill="#BA68C8"/>
<path opacity="0.2" d="M886.941 116.231C886.993 116.283 886.993 116.283 886.993 116.336C887.098 116.651 886.731 116.808 886.468 116.808C885.838 116.861 885.26 116.808 884.629 116.913C884.367 116.966 884.104 117.019 883.841 117.019C883.684 117.019 883.631 116.913 883.736 116.756C883.789 116.703 883.841 116.703 883.894 116.651C884.419 116.336 884.892 116.02 885.47 115.81C885.943 115.705 886.573 115.863 886.941 116.231Z" fill="white"/>
<path opacity="0.2" d="M883.211 118.962C882.948 118.489 882.843 118.017 882.895 117.596C882.948 117.806 883 118.017 883.105 118.227C883.368 118.647 883.788 118.962 884.261 119.015C884.839 119.067 885.312 118.752 885.785 118.542C886.205 118.332 886.625 118.122 886.94 117.754C887.308 117.386 887.518 116.808 887.361 116.335C887.413 116.388 887.413 116.441 887.466 116.493C887.991 117.386 887.676 118.489 886.835 119.015L885.312 119.908C884.629 120.275 883.683 119.855 883.211 118.962Z" fill="black"/>
<path d="M843.337 98.6316L841.603 95.5847C841.131 94.6916 839.975 94.3764 839.082 94.8492C838.189 95.322 837.874 96.4777 838.346 97.3708L840.132 100.47C840.5 101.101 841.551 101.258 842.391 100.733C843.337 100.208 843.705 99.262 843.337 98.6316Z" fill="#BA68C8"/>
<path opacity="0.2" d="M839.66 95.3746C839.608 95.4796 839.555 95.5322 839.502 95.6373C839.345 95.7949 839.187 95.8999 839.03 96.0575C838.872 96.2151 838.767 96.3727 838.714 96.5829C838.714 96.6354 838.609 96.7405 838.504 96.7405C838.452 96.7405 838.452 96.6879 838.452 96.6354C838.347 96.3727 838.452 96.0575 838.609 95.7948C838.714 95.5322 838.925 95.2695 839.187 95.1119C839.292 95.0594 839.397 95.0068 839.555 95.0068C839.66 95.0594 839.713 95.217 839.66 95.3746Z" fill="white"/>
<path opacity="0.2" d="M838.715 97.7384C838.82 97.5808 838.977 97.4232 839.135 97.2655C839.24 97.1605 839.345 97.1079 839.45 97.0029C839.713 96.7927 839.975 96.6352 840.238 96.425C840.553 96.1098 840.763 95.6895 840.553 95.2693C840.448 95.0066 840.238 94.9015 840.028 94.7965C839.818 94.7439 839.555 94.6914 839.345 94.7439C840.186 94.4287 841.131 94.7439 841.604 95.5845L842.234 96.6877C842.182 96.7402 842.182 96.8453 842.129 96.8978C841.867 97.1605 841.499 97.3706 841.184 97.5808C840.658 97.9485 840.133 98.3162 839.503 98.5264C839.398 98.5789 839.292 98.5789 839.187 98.6314C839.135 98.6314 839.135 98.684 839.082 98.684L838.61 97.8434C838.662 97.7909 838.662 97.7384 838.715 97.7384Z" fill="black"/>
<path d="M836.403 110.924C833.566 105.986 835.247 99.7346 840.185 96.8978C845.124 94.061 851.375 95.742 854.212 100.68L836.403 110.924Z" fill="#455A64"/>
<path opacity="0.1" d="M842.864 99.5769C842.917 100.05 842.654 100.523 842.339 100.943C841.604 101.888 840.71 102.624 839.87 103.464C838.819 104.515 837.979 105.723 837.348 107.089C837.243 107.352 837.033 107.667 836.77 107.615C836.455 107.615 836.35 107.247 836.245 106.984C835.877 105.251 836.087 103.412 836.823 101.783C837.401 100.47 838.452 98.9465 839.817 98.3686C841.709 97.5281 842.707 98.3161 842.864 99.5769Z" fill="white"/>
<path d="M841.866 96.1096C845.911 96.0571 847.54 97.5805 848.433 99.9446C849.799 103.412 839.817 108.928 839.817 108.928L854.159 100.628C851.69 96.2672 846.489 94.481 841.866 96.1096Z" fill="#37474F"/>
</g>
<defs>
<clipPath id="clip0_96_10135">
<rect width="1092" height="227" fill="white"/>
</clipPath>
</defs>
</svg>
