<svg width="1092" height="227" viewBox="0 0 1092 227" fill="none" xmlns="http://www.w3.org/2000/svg">
<g clip-path="url(#clip0_96_9366)">
<rect width="1092" height="227" fill="#E5F9F0"/>
<circle cx="946.656" cy="113.5" r="321.458" fill="#2FD395"/>
<path d="M54.1772 88.208H40.0652V65.072H54.1772V67.952H43.2012V75.184H53.0892V77.968H43.2012V85.296H54.1772V88.208ZM60.2574 88.208H57.2494V72.56H59.9374L60.2254 74.608C61.0254 73.136 62.6894 72.112 64.8974 72.112C67.3294 72.112 69.0574 73.328 69.8574 75.28C70.5934 73.328 72.4814 72.112 74.9134 72.112C78.4974 72.112 80.6734 74.352 80.6734 77.968V88.208H77.7294V78.704C77.7294 76.24 76.3534 74.832 74.2414 74.832C71.9694 74.832 70.4654 76.432 70.4654 78.928V88.208H67.4894V78.672C67.4894 76.208 66.1454 74.864 64.0334 74.864C61.7614 74.864 60.2574 76.432 60.2574 78.928V88.208ZM85.3552 68.848C84.2672 68.848 83.3712 67.952 83.3712 66.864C83.3712 65.744 84.2672 64.88 85.3552 64.88C86.4432 64.88 87.3392 65.744 87.3392 66.864C87.3392 67.952 86.4432 68.848 85.3552 68.848ZM83.8832 88.208V72.56H86.8912V88.208H83.8832ZM89.0182 83.664H91.8982C91.8982 85.264 93.1142 86.224 95.0982 86.224C97.2102 86.224 98.4262 85.36 98.4262 83.92C98.4262 82.864 97.9142 82.224 96.2822 81.808L93.5302 81.168C90.7462 80.496 89.4342 79.12 89.4342 76.816C89.4342 73.936 91.8662 72.112 95.3222 72.112C98.7462 72.112 100.986 74.032 101.05 77.008H98.1702C98.1062 75.44 97.0502 74.448 95.2262 74.448C93.3382 74.448 92.2822 75.28 92.2822 76.72C92.2822 77.776 93.0502 78.48 94.5862 78.864L97.3382 79.536C99.9942 80.176 101.306 81.392 101.306 83.728C101.306 86.704 98.7462 88.592 95.0342 88.592C91.3542 88.592 89.0182 86.64 89.0182 83.664ZM102.402 83.664H105.282C105.282 85.264 106.498 86.224 108.482 86.224C110.594 86.224 111.81 85.36 111.81 83.92C111.81 82.864 111.298 82.224 109.666 81.808L106.914 81.168C104.13 80.496 102.818 79.12 102.818 76.816C102.818 73.936 105.25 72.112 108.706 72.112C112.13 72.112 114.37 74.032 114.434 77.008H111.554C111.49 75.44 110.434 74.448 108.61 74.448C106.722 74.448 105.666 75.28 105.666 76.72C105.666 77.776 106.434 78.48 107.97 78.864L110.722 79.536C113.378 80.176 114.69 81.392 114.69 83.728C114.69 86.704 112.13 88.592 108.418 88.592C104.738 88.592 102.402 86.64 102.402 83.664ZM118.538 68.848C117.45 68.848 116.554 67.952 116.554 66.864C116.554 65.744 117.45 64.88 118.538 64.88C119.626 64.88 120.522 65.744 120.522 66.864C120.522 67.952 119.626 68.848 118.538 68.848ZM117.066 88.208V72.56H120.074V88.208H117.066ZM122.457 80.368C122.457 75.536 125.913 72.144 130.617 72.144C135.289 72.144 138.745 75.536 138.745 80.368C138.745 85.2 135.289 88.592 130.617 88.592C125.913 88.592 122.457 85.2 122.457 80.368ZM125.497 80.368C125.497 83.632 127.577 85.904 130.617 85.904C133.625 85.904 135.737 83.632 135.737 80.368C135.737 77.104 133.625 74.832 130.617 74.832C127.577 74.832 125.497 77.104 125.497 80.368ZM144.122 88.208H141.114V72.56H143.834L144.154 74.96C145.146 73.168 147.13 72.112 149.338 72.112C153.466 72.112 155.354 74.64 155.354 78.64V88.208H152.346V79.312C152.346 76.144 150.874 74.864 148.57 74.864C145.754 74.864 144.122 76.88 144.122 79.92V88.208ZM157.093 83.664H159.973C159.973 85.264 161.189 86.224 163.173 86.224C165.285 86.224 166.501 85.36 166.501 83.92C166.501 82.864 165.989 82.224 164.357 81.808L161.605 81.168C158.821 80.496 157.509 79.12 157.509 76.816C157.509 73.936 159.941 72.112 163.397 72.112C166.821 72.112 169.061 74.032 169.125 77.008H166.245C166.181 75.44 165.125 74.448 163.301 74.448C161.413 74.448 160.357 75.28 160.357 76.72C160.357 77.776 161.125 78.48 162.661 78.864L165.413 79.536C168.069 80.176 169.381 81.392 169.381 83.728C169.381 86.704 166.821 88.592 163.109 88.592C159.429 88.592 157.093 86.64 157.093 83.664Z" fill="#0E0E0E"/>
<path d="M43.7253 113.729V121.487L49.9353 113.729H51.4833L47.1093 119.183L51.5553 126.617H50.0433L46.2633 120.263L43.7253 123.413V126.617H42.4293V113.729H43.7253ZM55.785 126.833C53.229 126.833 51.519 124.997 51.519 122.261C51.519 119.543 53.211 117.671 55.695 117.671C58.053 117.671 59.655 119.345 59.655 121.811V122.423H52.725C52.815 124.547 53.931 125.771 55.803 125.771C57.225 125.771 58.143 125.159 58.467 124.007H59.655C59.187 125.843 57.837 126.833 55.785 126.833ZM55.695 118.733C54.057 118.733 52.977 119.813 52.761 121.523H58.413C58.413 119.849 57.333 118.733 55.695 118.733ZM64.7548 126.833C62.1988 126.833 60.4888 124.997 60.4888 122.261C60.4888 119.543 62.1808 117.671 64.6648 117.671C67.0228 117.671 68.6248 119.345 68.6248 121.811V122.423H61.6948C61.7848 124.547 62.9008 125.771 64.7728 125.771C66.1948 125.771 67.1128 125.159 67.4368 124.007H68.6248C68.1568 125.843 66.8068 126.833 64.7548 126.833ZM64.6648 118.733C63.0268 118.733 61.9468 119.813 61.7308 121.523H67.3828C67.3828 119.849 66.3028 118.733 64.6648 118.733ZM70.0705 130.415V117.905H71.1505L71.2765 119.669C71.8885 118.319 73.1125 117.671 74.5705 117.671C77.0905 117.671 78.6025 119.597 78.6025 122.225C78.6025 124.853 77.1445 126.833 74.5705 126.833C73.0945 126.833 71.9245 126.203 71.3125 124.943V130.415H70.0705ZM71.3305 122.261C71.3305 124.259 72.4465 125.717 74.3545 125.717C76.2445 125.717 77.3425 124.259 77.3425 122.261C77.3425 120.245 76.2445 118.805 74.3545 118.805C72.4465 118.805 71.3305 120.245 71.3305 122.261ZM86.4924 126.617H85.2684V118.949H83.5224V117.905H85.2684V115.151H86.4924V117.905H88.2384V118.949H86.4924V126.617ZM93.8698 117.797V118.913H93.1858C91.5838 118.913 90.5578 119.993 90.5578 121.649V126.617H89.3158V117.905H90.4858L90.5758 119.255C90.9178 118.319 91.8358 117.707 93.0598 117.707C93.3298 117.707 93.5638 117.725 93.8698 117.797ZM97.1313 126.833C95.2773 126.833 94.1793 125.789 94.1793 124.259C94.1793 122.657 95.4033 121.649 97.4373 121.487L100.317 121.253V120.965C100.317 119.255 99.2913 118.715 98.0133 118.715C96.5013 118.715 95.6013 119.399 95.6013 120.569H94.4673C94.4673 118.805 95.9073 117.671 98.0493 117.671C100.065 117.671 101.541 118.679 101.541 120.983V126.617H100.497L100.335 125.087C99.7953 126.185 98.6073 126.833 97.1313 126.833ZM97.4193 125.825C99.2553 125.825 100.317 124.547 100.317 122.657V122.189L97.7433 122.387C96.1053 122.531 95.4393 123.251 95.4393 124.223C95.4393 125.285 96.2313 125.825 97.4193 125.825ZM102.882 122.279C102.882 119.543 104.556 117.671 107.094 117.671C109.11 117.671 110.586 118.841 110.928 120.641H109.686C109.362 119.435 108.318 118.769 107.112 118.769C105.348 118.769 104.106 120.119 104.106 122.261C104.106 124.331 105.258 125.717 107.022 125.717C108.318 125.717 109.362 124.997 109.704 123.881H110.964C110.55 125.663 109.002 126.833 107.022 126.833C104.556 126.833 102.882 125.015 102.882 122.279ZM113.601 126.617H112.359V113.495H113.601V122.405L117.921 117.905H119.487L116.139 121.379L119.505 126.617H118.065L115.293 122.261L113.601 124.007V126.617ZM124.289 122.261C124.289 119.597 126.161 117.671 128.717 117.671C131.273 117.671 133.145 119.597 133.145 122.261C133.145 124.907 131.273 126.833 128.717 126.833C126.161 126.833 124.289 124.907 124.289 122.261ZM125.549 122.243C125.549 124.295 126.845 125.717 128.717 125.717C130.571 125.717 131.885 124.295 131.885 122.243C131.885 120.227 130.571 118.787 128.717 118.787C126.845 118.787 125.549 120.227 125.549 122.243ZM133.549 117.905H134.881V116.213C134.881 114.251 135.961 113.495 137.293 113.495C137.599 113.495 137.959 113.513 138.247 113.567V114.629H137.509C136.411 114.629 136.123 115.187 136.123 116.213V117.905H138.175V118.949H136.123V126.617H134.881V118.949H133.549V117.905ZM142.895 130.415V129.389H143.849C144.605 129.389 145.361 129.335 145.793 128.165L146.171 127.139L142.643 117.905H143.957L146.765 125.501L149.519 117.905H150.797L146.801 128.615C146.297 129.983 145.451 130.541 144.209 130.541C143.687 130.541 143.291 130.505 142.895 130.415ZM150.799 122.261C150.799 119.597 152.671 117.671 155.227 117.671C157.783 117.671 159.655 119.597 159.655 122.261C159.655 124.907 157.783 126.833 155.227 126.833C152.671 126.833 150.799 124.907 150.799 122.261ZM152.059 122.243C152.059 124.295 153.355 125.717 155.227 125.717C157.081 125.717 158.395 124.295 158.395 122.243C158.395 120.227 157.081 118.787 155.227 118.787C153.355 118.787 152.059 120.227 152.059 122.243ZM167.01 117.905H168.252V126.617H167.172L167.01 125.141C166.524 126.149 165.318 126.833 163.95 126.833C161.898 126.833 160.782 125.429 160.782 123.305V117.887H162.042V122.909C162.042 124.979 162.96 125.717 164.346 125.717C166.02 125.717 167.01 124.601 167.01 122.531V117.905ZM174.854 117.797V118.913H174.17C172.568 118.913 171.542 119.993 171.542 121.649V126.617H170.3V117.905H171.47L171.56 119.255C171.902 118.319 172.82 117.707 174.044 117.707C174.314 117.707 174.548 117.725 174.854 117.797ZM186.087 114.737C183.117 114.737 181.245 116.933 181.245 120.227C181.245 123.575 183.225 125.609 186.123 125.609C188.283 125.609 190.389 124.565 190.389 121.469V120.803H185.727V119.651H191.613V126.635H190.587L190.461 124.583C189.777 125.861 188.157 126.833 186.069 126.833C182.415 126.833 179.895 124.205 179.895 120.227C179.895 116.285 182.415 113.513 186.105 113.513C188.823 113.513 190.929 115.061 191.433 117.401H190.029C189.489 115.637 187.977 114.737 186.087 114.737ZM194.943 126.617H193.647V113.729H194.943V119.471H201.909V113.729H203.187V126.617H201.909V120.677H194.943V126.617ZM211.198 114.737C208.228 114.737 206.356 116.933 206.356 120.227C206.356 123.575 208.336 125.609 211.234 125.609C213.394 125.609 215.5 124.565 215.5 121.469V120.803H210.838V119.651H216.724V126.635H215.698L215.572 124.583C214.888 125.861 213.268 126.833 211.18 126.833C207.526 126.833 205.006 124.205 205.006 120.227C205.006 116.285 207.526 113.513 211.216 113.513C213.934 113.513 216.04 115.061 216.544 117.401H215.14C214.6 115.637 213.088 114.737 211.198 114.737ZM226.594 126.833C224.038 126.833 222.328 124.997 222.328 122.261C222.328 119.543 224.02 117.671 226.504 117.671C228.862 117.671 230.464 119.345 230.464 121.811V122.423H223.534C223.624 124.547 224.74 125.771 226.612 125.771C228.034 125.771 228.952 125.159 229.276 124.007H230.464C229.996 125.843 228.646 126.833 226.594 126.833ZM226.504 118.733C224.866 118.733 223.786 119.813 223.57 121.523H229.222C229.222 119.849 228.142 118.733 226.504 118.733ZM233.152 126.617H231.91V117.905H232.99L233.134 119.147C233.566 118.229 234.538 117.671 235.762 117.671C237.13 117.671 238.156 118.391 238.57 119.525C238.966 118.391 240.028 117.671 241.432 117.671C243.322 117.671 244.564 118.895 244.564 120.911V126.617H243.358V121.163C243.358 119.669 242.53 118.787 241.198 118.787C239.74 118.787 238.876 119.885 238.876 121.235V126.617H237.652V121.145C237.652 119.669 236.806 118.805 235.492 118.805C234.034 118.805 233.152 119.885 233.152 121.217V126.617ZM247.135 115.511C246.631 115.511 246.217 115.097 246.217 114.593C246.217 114.089 246.631 113.657 247.135 113.657C247.639 113.657 248.071 114.089 248.071 114.593C248.071 115.097 247.639 115.511 247.135 115.511ZM246.523 126.617V117.905H247.765V126.617H246.523ZM249.077 124.169H250.265C250.265 125.177 251.021 125.807 252.245 125.807C253.595 125.807 254.387 125.231 254.387 124.295C254.387 123.575 254.027 123.161 253.001 122.909L251.507 122.531C249.995 122.153 249.257 121.361 249.257 120.173C249.257 118.643 250.535 117.671 252.407 117.671C254.243 117.671 255.431 118.679 255.485 120.299H254.279C254.243 119.291 253.541 118.697 252.371 118.697C251.147 118.697 250.463 119.219 250.463 120.155C250.463 120.821 250.931 121.289 251.885 121.523L253.379 121.901C254.891 122.279 255.575 122.981 255.575 124.241C255.575 125.807 254.243 126.833 252.263 126.833C250.301 126.833 249.077 125.789 249.077 124.169ZM256.341 124.169H257.529C257.529 125.177 258.285 125.807 259.509 125.807C260.859 125.807 261.651 125.231 261.651 124.295C261.651 123.575 261.291 123.161 260.265 122.909L258.771 122.531C257.259 122.153 256.521 121.361 256.521 120.173C256.521 118.643 257.799 117.671 259.671 117.671C261.507 117.671 262.695 118.679 262.749 120.299H261.543C261.507 119.291 260.805 118.697 259.635 118.697C258.411 118.697 257.727 119.219 257.727 120.155C257.727 120.821 258.195 121.289 259.149 121.523L260.643 121.901C262.155 122.279 262.839 122.981 262.839 124.241C262.839 125.807 261.507 126.833 259.527 126.833C257.565 126.833 256.341 125.789 256.341 124.169ZM264.956 115.511C264.452 115.511 264.038 115.097 264.038 114.593C264.038 114.089 264.452 113.657 264.956 113.657C265.46 113.657 265.892 114.089 265.892 114.593C265.892 115.097 265.46 115.511 264.956 115.511ZM264.344 126.617V117.905H265.586V126.617H264.344ZM267.024 122.261C267.024 119.597 268.896 117.671 271.452 117.671C274.008 117.671 275.88 119.597 275.88 122.261C275.88 124.907 274.008 126.833 271.452 126.833C268.896 126.833 267.024 124.907 267.024 122.261ZM268.284 122.243C268.284 124.295 269.58 125.717 271.452 125.717C273.306 125.717 274.62 124.295 274.62 122.243C274.62 120.227 273.306 118.787 271.452 118.787C269.58 118.787 268.284 120.227 268.284 122.243ZM278.568 126.617H277.326V117.905H278.406L278.586 119.417C279.162 118.301 280.314 117.671 281.574 117.671C283.968 117.671 284.958 119.093 284.958 121.289V126.617H283.716V121.559C283.716 119.525 282.798 118.805 281.358 118.805C279.576 118.805 278.568 120.101 278.568 122.063V126.617ZM286.05 124.169H287.238C287.238 125.177 287.994 125.807 289.218 125.807C290.568 125.807 291.36 125.231 291.36 124.295C291.36 123.575 291 123.161 289.974 122.909L288.48 122.531C286.968 122.153 286.23 121.361 286.23 120.173C286.23 118.643 287.508 117.671 289.38 117.671C291.216 117.671 292.404 118.679 292.458 120.299H291.252C291.216 119.291 290.514 118.697 289.344 118.697C288.12 118.697 287.436 119.219 287.436 120.155C287.436 120.821 287.904 121.289 288.858 121.523L290.352 121.901C291.864 122.279 292.548 122.981 292.548 124.241C292.548 125.807 291.216 126.833 289.236 126.833C287.274 126.833 286.05 125.789 286.05 124.169ZM301.007 126.833C299.153 126.833 298.055 125.789 298.055 124.259C298.055 122.657 299.279 121.649 301.313 121.487L304.193 121.253V120.965C304.193 119.255 303.167 118.715 301.889 118.715C300.377 118.715 299.477 119.399 299.477 120.569H298.343C298.343 118.805 299.783 117.671 301.925 117.671C303.941 117.671 305.417 118.679 305.417 120.983V126.617H304.373L304.211 125.087C303.671 126.185 302.483 126.833 301.007 126.833ZM301.295 125.825C303.131 125.825 304.193 124.547 304.193 122.657V122.189L301.619 122.387C299.981 122.531 299.315 123.251 299.315 124.223C299.315 125.285 300.107 125.825 301.295 125.825ZM308.612 126.617H307.37V117.905H308.45L308.63 119.417C309.206 118.301 310.358 117.671 311.618 117.671C314.012 117.671 315.002 119.093 315.002 121.289V126.617H313.76V121.559C313.76 119.525 312.842 118.805 311.402 118.805C309.62 118.805 308.612 120.101 308.612 122.063V126.617ZM320.357 126.833C317.819 126.833 316.325 124.889 316.325 122.279C316.325 119.651 317.819 117.671 320.411 117.671C321.851 117.671 323.003 118.301 323.615 119.561V113.495H324.857V126.617H323.777L323.651 124.835C323.039 126.185 321.815 126.833 320.357 126.833ZM320.573 125.699C322.481 125.699 323.597 124.259 323.597 122.243C323.597 120.245 322.481 118.787 320.573 118.787C318.683 118.787 317.585 120.245 317.585 122.243C317.585 124.259 318.683 125.699 320.573 125.699ZM330.749 122.279C330.749 119.543 332.423 117.671 334.961 117.671C336.977 117.671 338.453 118.841 338.795 120.641H337.553C337.229 119.435 336.185 118.769 334.979 118.769C333.215 118.769 331.973 120.119 331.973 122.261C331.973 124.331 333.125 125.717 334.889 125.717C336.185 125.717 337.229 124.997 337.571 123.881H338.831C338.417 125.663 336.869 126.833 334.889 126.833C332.423 126.833 330.749 125.015 330.749 122.279ZM342.674 126.833C340.82 126.833 339.722 125.789 339.722 124.259C339.722 122.657 340.946 121.649 342.98 121.487L345.86 121.253V120.965C345.86 119.255 344.834 118.715 343.556 118.715C342.044 118.715 341.144 119.399 341.144 120.569H340.01C340.01 118.805 341.45 117.671 343.592 117.671C345.608 117.671 347.084 118.679 347.084 120.983V126.617H346.04L345.878 125.087C345.338 126.185 344.15 126.833 342.674 126.833ZM342.962 125.825C344.798 125.825 345.86 124.547 345.86 122.657V122.189L343.286 122.387C341.648 122.531 340.982 123.251 340.982 124.223C340.982 125.285 341.774 125.825 342.962 125.825ZM353.591 117.797V118.913H352.907C351.305 118.913 350.279 119.993 350.279 121.649V126.617H349.037V117.905H350.207L350.297 119.255C350.639 118.319 351.557 117.707 352.781 117.707C353.051 117.707 353.285 117.725 353.591 117.797ZM355.782 126.617H354.702V113.495H355.944V119.597C356.556 118.319 357.744 117.671 359.22 117.671C361.758 117.671 363.234 119.651 363.234 122.279C363.234 124.889 361.722 126.833 359.184 126.833C357.726 126.833 356.52 126.185 355.908 124.835L355.782 126.617ZM355.962 122.243C355.962 124.259 357.078 125.699 358.986 125.699C360.876 125.699 361.974 124.259 361.974 122.243C361.974 120.245 360.876 118.787 358.986 118.787C357.078 118.787 355.962 120.245 355.962 122.243ZM364.062 122.261C364.062 119.597 365.934 117.671 368.49 117.671C371.046 117.671 372.918 119.597 372.918 122.261C372.918 124.907 371.046 126.833 368.49 126.833C365.934 126.833 364.062 124.907 364.062 122.261ZM365.322 122.243C365.322 124.295 366.618 125.717 368.49 125.717C370.344 125.717 371.658 124.295 371.658 122.243C371.658 120.227 370.344 118.787 368.49 118.787C366.618 118.787 365.322 120.227 365.322 122.243ZM375.606 126.617H374.364V117.905H375.444L375.624 119.417C376.2 118.301 377.352 117.671 378.612 117.671C381.006 117.671 381.996 119.093 381.996 121.289V126.617H380.754V121.559C380.754 119.525 379.836 118.805 378.396 118.805C376.614 118.805 375.606 120.101 375.606 122.063V126.617ZM387.412 117.905H388.744V116.213C388.744 114.251 389.824 113.495 391.156 113.495C391.462 113.495 391.822 113.513 392.11 113.567V114.629H391.372C390.274 114.629 389.986 115.187 389.986 116.213V117.905H392.038V118.949H389.986V126.617H388.744V118.949H387.412V117.905ZM392.312 122.261C392.312 119.597 394.184 117.671 396.74 117.671C399.296 117.671 401.168 119.597 401.168 122.261C401.168 124.907 399.296 126.833 396.74 126.833C394.184 126.833 392.312 124.907 392.312 122.261ZM393.572 122.243C393.572 124.295 394.868 125.717 396.74 125.717C398.594 125.717 399.908 124.295 399.908 122.243C399.908 120.227 398.594 118.787 396.74 118.787C394.868 118.787 393.572 120.227 393.572 122.243ZM402.002 122.261C402.002 119.597 403.874 117.671 406.43 117.671C408.986 117.671 410.858 119.597 410.858 122.261C410.858 124.907 408.986 126.833 406.43 126.833C403.874 126.833 402.002 124.907 402.002 122.261ZM403.262 122.243C403.262 124.295 404.558 125.717 406.43 125.717C408.284 125.717 409.598 124.295 409.598 122.243C409.598 120.227 408.284 118.787 406.43 118.787C404.558 118.787 403.262 120.227 403.262 122.243ZM414.215 126.617H412.991V118.949H411.245V117.905H412.991V115.151H414.215V117.905H415.961V118.949H414.215V126.617ZM417.038 130.415V117.905H418.118L418.244 119.669C418.856 118.319 420.08 117.671 421.538 117.671C424.058 117.671 425.57 119.597 425.57 122.225C425.57 124.853 424.112 126.833 421.538 126.833C420.062 126.833 418.892 126.203 418.28 124.943V130.415H417.038ZM418.298 122.261C418.298 124.259 419.414 125.717 421.322 125.717C423.212 125.717 424.31 124.259 424.31 122.261C424.31 120.245 423.212 118.805 421.322 118.805C419.414 118.805 418.298 120.245 418.298 122.261ZM431.564 117.797V118.913H430.88C429.278 118.913 428.252 119.993 428.252 121.649V126.617H427.01V117.905H428.18L428.27 119.255C428.612 118.319 429.53 117.707 430.754 117.707C431.024 117.707 431.258 117.725 431.564 117.797ZM433.287 115.511C432.783 115.511 432.369 115.097 432.369 114.593C432.369 114.089 432.783 113.657 433.287 113.657C433.791 113.657 434.223 114.089 434.223 114.593C434.223 115.097 433.791 115.511 433.287 115.511ZM432.675 126.617V117.905H433.917V126.617H432.675ZM437.209 126.617H435.967V117.905H437.047L437.227 119.417C437.803 118.301 438.955 117.671 440.215 117.671C442.609 117.671 443.599 119.093 443.599 121.289V126.617H442.357V121.559C442.357 119.525 441.439 118.805 439.999 118.805C438.217 118.805 437.209 120.101 437.209 122.063V126.617ZM447.532 126.617H446.308V118.949H444.562V117.905H446.308V115.151H447.532V117.905H449.278V118.949H447.532V126.617ZM450.873 126.815C450.261 126.815 449.739 126.311 449.739 125.717C449.739 125.105 450.261 124.583 450.873 124.583C451.485 124.583 452.007 125.105 452.007 125.717C452.007 126.311 451.485 126.815 450.873 126.815ZM42.4293 154.617H41.1153L45.8493 141.729H47.4513L52.2393 154.617H50.8893L49.6293 151.197H43.6893L42.4293 154.617ZM46.4793 143.547L44.0853 150.063H49.2153L46.8033 143.547C46.7493 143.367 46.6593 143.151 46.6413 143.025C46.6233 143.133 46.5513 143.367 46.4793 143.547ZM52.31 150.279C52.31 147.543 53.984 145.671 56.522 145.671C58.538 145.671 60.014 146.841 60.356 148.641H59.114C58.79 147.435 57.746 146.769 56.54 146.769C54.776 146.769 53.534 148.119 53.534 150.261C53.534 152.331 54.686 153.717 56.45 153.717C57.746 153.717 58.79 152.997 59.132 151.881H60.392C59.978 153.663 58.43 154.833 56.45 154.833C53.984 154.833 52.31 153.015 52.31 150.279ZM62.9756 154.599H61.7336V141.495H62.9756V147.417C63.5336 146.373 64.5956 145.671 66.0536 145.671C68.3396 145.671 69.3656 147.093 69.3656 149.289V154.617H68.1236V149.559C68.1236 147.525 67.1696 146.805 65.8196 146.805C63.9476 146.805 62.9756 148.191 62.9756 149.865V154.599ZM71.913 143.511C71.409 143.511 70.995 143.097 70.995 142.593C70.995 142.089 71.409 141.657 71.913 141.657C72.417 141.657 72.849 142.089 72.849 142.593C72.849 143.097 72.417 143.511 71.913 143.511ZM71.301 154.617V145.905H72.543V154.617H71.301ZM78.247 154.833C75.691 154.833 73.981 152.997 73.981 150.261C73.981 147.543 75.673 145.671 78.157 145.671C80.515 145.671 82.117 147.345 82.117 149.811V150.423H75.187C75.277 152.547 76.393 153.771 78.265 153.771C79.687 153.771 80.605 153.159 80.929 152.007H82.117C81.649 153.843 80.299 154.833 78.247 154.833ZM78.157 146.733C76.519 146.733 75.439 147.813 75.223 149.523H80.875C80.875 147.849 79.795 146.733 78.157 146.733ZM85.7643 154.617L82.2003 145.905H83.5323L85.7823 151.521C86.0163 152.151 86.2503 152.745 86.4123 153.321C86.5743 152.727 86.8083 152.151 87.0603 151.521L89.3463 145.905H90.6243L87.0063 154.617H85.7643ZM94.8155 154.833C92.2595 154.833 90.5495 152.997 90.5495 150.261C90.5495 147.543 92.2415 145.671 94.7255 145.671C97.0835 145.671 98.6855 147.345 98.6855 149.811V150.423H91.7555C91.8455 152.547 92.9615 153.771 94.8335 153.771C96.2555 153.771 97.1735 153.159 97.4975 152.007H98.6855C98.2175 153.843 96.8675 154.833 94.8155 154.833ZM94.7255 146.733C93.0875 146.733 92.0075 147.813 91.7915 149.523H97.4435C97.4435 147.849 96.3635 146.733 94.7255 146.733ZM106.149 154.617H104.853V141.729H106.167L113.259 152.457V141.729H114.537V154.617H113.259L106.149 143.889V154.617ZM120.529 154.833C117.973 154.833 116.263 152.997 116.263 150.261C116.263 147.543 117.955 145.671 120.439 145.671C122.797 145.671 124.399 147.345 124.399 149.811V150.423H117.469C117.559 152.547 118.675 153.771 120.547 153.771C121.969 153.771 122.887 153.159 123.211 152.007H124.399C123.931 153.843 122.581 154.833 120.529 154.833ZM120.439 146.733C118.801 146.733 117.721 147.813 117.505 149.523H123.157C123.157 147.849 122.077 146.733 120.439 146.733ZM127.755 154.617H126.531V146.949H124.785V145.905H126.531V143.151H127.755V145.905H129.501V146.949H127.755V154.617ZM130.273 148.173C130.273 144.177 132.235 141.477 135.439 141.477C138.625 141.477 140.587 144.177 140.587 148.173C140.587 152.187 138.661 154.851 135.439 154.851C132.199 154.851 130.273 152.187 130.273 148.173ZM131.551 148.173C131.551 151.521 132.973 153.681 135.439 153.681C137.905 153.681 139.327 151.521 139.327 148.173C139.327 144.807 137.905 142.665 135.439 142.665C132.973 142.665 131.551 144.807 131.551 148.173ZM148.614 154.617L145.734 145.905H147.012L148.722 151.161C148.92 151.737 149.082 152.331 149.262 153.033C149.406 152.331 149.694 151.449 149.784 151.161L151.512 145.905H152.79L154.5 151.161C154.662 151.629 154.878 152.385 155.04 153.033C155.22 152.313 155.256 152.097 155.562 151.161L157.29 145.905H158.586L155.634 154.617H154.428L152.628 149.145C152.412 148.497 152.268 147.957 152.16 147.435C152.034 147.903 151.89 148.425 151.656 149.145L149.856 154.617H148.614ZM160.209 143.511C159.705 143.511 159.291 143.097 159.291 142.593C159.291 142.089 159.705 141.657 160.209 141.657C160.713 141.657 161.145 142.089 161.145 142.593C161.145 143.097 160.713 143.511 160.209 143.511ZM159.597 154.617V145.905H160.839V154.617H159.597ZM164.887 154.617H163.663V146.949H161.917V145.905H163.663V143.151H164.887V145.905H166.633V146.949H164.887V154.617ZM168.953 154.599H167.711V141.495H168.953V147.417C169.511 146.373 170.573 145.671 172.031 145.671C174.317 145.671 175.343 147.093 175.343 149.289V154.617H174.101V149.559C174.101 147.525 173.147 146.805 171.797 146.805C169.925 146.805 168.953 148.191 168.953 149.865V154.599ZM182 154.617H180.686L185.42 141.729H187.022L191.81 154.617H190.46L189.2 151.197H183.26L182 154.617ZM186.05 143.547L183.656 150.063H188.786L186.374 143.547C186.32 143.367 186.23 143.151 186.212 143.025C186.194 143.133 186.122 143.367 186.05 143.547ZM194.358 141.729V154.617H193.062V141.729H194.358ZM201.134 158.415V145.905H202.214L202.34 147.669C202.952 146.319 204.176 145.671 205.634 145.671C208.154 145.671 209.666 147.597 209.666 150.225C209.666 152.853 208.208 154.833 205.634 154.833C204.158 154.833 202.988 154.203 202.376 152.943V158.415H201.134ZM202.394 150.261C202.394 152.259 203.51 153.717 205.418 153.717C207.308 153.717 208.406 152.259 208.406 150.261C208.406 148.245 207.308 146.805 205.418 146.805C203.51 146.805 202.394 148.245 202.394 150.261ZM210.493 150.261C210.493 147.597 212.365 145.671 214.921 145.671C217.477 145.671 219.349 147.597 219.349 150.261C219.349 152.907 217.477 154.833 214.921 154.833C212.365 154.833 210.493 152.907 210.493 150.261ZM211.753 150.243C211.753 152.295 213.049 153.717 214.921 153.717C216.775 153.717 218.089 152.295 218.089 150.243C218.089 148.227 216.775 146.787 214.921 146.787C213.049 146.787 211.753 148.227 211.753 150.243ZM222.245 154.617L219.365 145.905H220.643L222.353 151.161C222.551 151.737 222.713 152.331 222.893 153.033C223.037 152.331 223.325 151.449 223.415 151.161L225.143 145.905H226.421L228.131 151.161C228.293 151.629 228.509 152.385 228.671 153.033C228.851 152.313 228.887 152.097 229.193 151.161L230.921 145.905H232.217L229.265 154.617H228.059L226.259 149.145C226.043 148.497 225.899 147.957 225.791 147.435C225.665 147.903 225.521 148.425 225.287 149.145L223.487 154.617H222.245ZM236.496 154.833C233.94 154.833 232.23 152.997 232.23 150.261C232.23 147.543 233.922 145.671 236.406 145.671C238.764 145.671 240.366 147.345 240.366 149.811V150.423H233.436C233.526 152.547 234.642 153.771 236.514 153.771C237.936 153.771 238.854 153.159 239.178 152.007H240.366C239.898 153.843 238.548 154.833 236.496 154.833ZM236.406 146.733C234.768 146.733 233.688 147.813 233.472 149.523H239.124C239.124 147.849 238.044 146.733 236.406 146.733ZM246.366 145.797V146.913H245.682C244.08 146.913 243.054 147.993 243.054 149.649V154.617H241.812V145.905H242.982L243.072 147.255C243.414 146.319 244.332 145.707 245.556 145.707C245.826 145.707 246.06 145.725 246.366 145.797ZM250.797 154.833C248.241 154.833 246.531 152.997 246.531 150.261C246.531 147.543 248.223 145.671 250.707 145.671C253.065 145.671 254.667 147.345 254.667 149.811V150.423H247.737C247.827 152.547 248.943 153.771 250.815 153.771C252.237 153.771 253.155 153.159 253.479 152.007H254.667C254.199 153.843 252.849 154.833 250.797 154.833ZM250.707 146.733C249.069 146.733 247.989 147.813 247.773 149.523H253.425C253.425 147.849 252.345 146.733 250.707 146.733ZM259.532 154.833C256.994 154.833 255.5 152.889 255.5 150.279C255.5 147.651 256.994 145.671 259.586 145.671C261.026 145.671 262.178 146.301 262.79 147.561V141.495H264.032V154.617H262.952L262.826 152.835C262.214 154.185 260.99 154.833 259.532 154.833ZM259.748 153.699C261.656 153.699 262.772 152.259 262.772 150.243C262.772 148.245 261.656 146.787 259.748 146.787C257.858 146.787 256.76 148.245 256.76 150.243C256.76 152.259 257.858 153.699 259.748 153.699ZM269.924 150.279C269.924 147.543 271.598 145.671 274.136 145.671C276.152 145.671 277.628 146.841 277.97 148.641H276.728C276.404 147.435 275.36 146.769 274.154 146.769C272.39 146.769 271.148 148.119 271.148 150.261C271.148 152.331 272.3 153.717 274.064 153.717C275.36 153.717 276.404 152.997 276.746 151.881H278.006C277.592 153.663 276.044 154.833 274.064 154.833C271.598 154.833 269.924 153.015 269.924 150.279ZM281.85 154.833C279.996 154.833 278.898 153.789 278.898 152.259C278.898 150.657 280.122 149.649 282.156 149.487L285.036 149.253V148.965C285.036 147.255 284.01 146.715 282.732 146.715C281.22 146.715 280.32 147.399 280.32 148.569H279.186C279.186 146.805 280.626 145.671 282.768 145.671C284.784 145.671 286.26 146.679 286.26 148.983V154.617H285.216L285.054 153.087C284.514 154.185 283.326 154.833 281.85 154.833ZM282.138 153.825C283.974 153.825 285.036 152.547 285.036 150.657V150.189L282.462 150.387C280.824 150.531 280.158 151.251 280.158 152.223C280.158 153.285 280.95 153.825 282.138 153.825ZM292.766 145.797V146.913H292.082C290.48 146.913 289.454 147.993 289.454 149.649V154.617H288.212V145.905H289.382L289.472 147.255C289.814 146.319 290.732 145.707 291.956 145.707C292.226 145.707 292.46 145.725 292.766 145.797ZM294.957 154.617H293.877V141.495H295.119V147.597C295.731 146.319 296.919 145.671 298.395 145.671C300.933 145.671 302.409 147.651 302.409 150.279C302.409 152.889 300.897 154.833 298.359 154.833C296.901 154.833 295.695 154.185 295.083 152.835L294.957 154.617ZM295.137 150.243C295.137 152.259 296.253 153.699 298.161 153.699C300.051 153.699 301.149 152.259 301.149 150.243C301.149 148.245 300.051 146.787 298.161 146.787C296.253 146.787 295.137 148.245 295.137 150.243ZM303.237 150.261C303.237 147.597 305.109 145.671 307.665 145.671C310.221 145.671 312.093 147.597 312.093 150.261C312.093 152.907 310.221 154.833 307.665 154.833C305.109 154.833 303.237 152.907 303.237 150.261ZM304.497 150.243C304.497 152.295 305.793 153.717 307.665 153.717C309.519 153.717 310.833 152.295 310.833 150.243C310.833 148.227 309.519 146.787 307.665 146.787C305.793 146.787 304.497 148.227 304.497 150.243ZM314.781 154.617H313.539V145.905H314.619L314.799 147.417C315.375 146.301 316.527 145.671 317.788 145.671C320.182 145.671 321.172 147.093 321.172 149.289V154.617H319.93V149.559C319.93 147.525 319.012 146.805 317.571 146.805C315.789 146.805 314.781 148.101 314.781 150.063V154.617ZM330.061 154.833C328.207 154.833 327.109 153.789 327.109 152.259C327.109 150.657 328.333 149.649 330.367 149.487L333.247 149.253V148.965C333.247 147.255 332.221 146.715 330.943 146.715C329.431 146.715 328.531 147.399 328.531 148.569H327.397C327.397 146.805 328.837 145.671 330.979 145.671C332.995 145.671 334.471 146.679 334.471 148.983V154.617H333.427L333.265 153.087C332.725 154.185 331.537 154.833 330.061 154.833ZM330.349 153.825C332.185 153.825 333.247 152.547 333.247 150.657V150.189L330.673 150.387C329.035 150.531 328.369 151.251 328.369 152.223C328.369 153.285 329.161 153.825 330.349 153.825ZM335.811 150.279C335.811 147.543 337.485 145.671 340.023 145.671C342.039 145.671 343.515 146.841 343.857 148.641H342.615C342.291 147.435 341.247 146.769 340.041 146.769C338.277 146.769 337.035 148.119 337.035 150.261C337.035 152.331 338.187 153.717 339.951 153.717C341.247 153.717 342.291 152.997 342.633 151.881H343.893C343.479 153.663 341.931 154.833 339.951 154.833C337.485 154.833 335.811 153.015 335.811 150.279ZM344.623 150.279C344.623 147.543 346.297 145.671 348.835 145.671C350.851 145.671 352.327 146.841 352.669 148.641H351.427C351.103 147.435 350.059 146.769 348.853 146.769C347.089 146.769 345.847 148.119 345.847 150.261C345.847 152.331 346.999 153.717 348.763 153.717C350.059 153.717 351.103 152.997 351.445 151.881H352.705C352.291 153.663 350.743 154.833 348.763 154.833C346.297 154.833 344.623 153.015 344.623 150.279ZM353.435 150.261C353.435 147.597 355.307 145.671 357.863 145.671C360.419 145.671 362.291 147.597 362.291 150.261C362.291 152.907 360.419 154.833 357.863 154.833C355.307 154.833 353.435 152.907 353.435 150.261ZM354.695 150.243C354.695 152.295 355.991 153.717 357.863 153.717C359.717 153.717 361.031 152.295 361.031 150.243C361.031 148.227 359.717 146.787 357.863 146.787C355.991 146.787 354.695 148.227 354.695 150.243ZM369.646 145.905H370.888V154.617H369.808L369.646 153.141C369.16 154.149 367.954 154.833 366.586 154.833C364.534 154.833 363.418 153.429 363.418 151.305V145.887H364.678V150.909C364.678 152.979 365.596 153.717 366.982 153.717C368.656 153.717 369.646 152.601 369.646 150.531V145.905ZM374.177 154.617H372.935V145.905H374.015L374.195 147.417C374.771 146.301 375.923 145.671 377.183 145.671C379.577 145.671 380.567 147.093 380.567 149.289V154.617H379.325V149.559C379.325 147.525 378.407 146.805 376.967 146.805C375.185 146.805 374.177 148.101 374.177 150.063V154.617ZM384.501 154.617H383.277V146.949H381.531V145.905H383.277V143.151H384.501V145.905H386.247V146.949H384.501V154.617ZM387.936 143.511C387.432 143.511 387.018 143.097 387.018 142.593C387.018 142.089 387.432 141.657 387.936 141.657C388.44 141.657 388.872 142.089 388.872 142.593C388.872 143.097 388.44 143.511 387.936 143.511ZM387.324 154.617V145.905H388.566V154.617H387.324ZM391.858 154.617H390.616V145.905H391.696L391.876 147.417C392.452 146.301 393.604 145.671 394.864 145.671C397.258 145.671 398.248 147.093 398.248 149.289V154.617H397.006V149.559C397.006 147.525 396.088 146.805 394.648 146.805C392.866 146.805 391.858 148.101 391.858 150.063V154.617ZM399.59 150.009C399.59 147.633 401.12 145.671 403.676 145.671C405.188 145.671 406.34 146.373 406.898 147.651L407.024 145.905H408.104V154.347C408.104 156.939 406.448 158.631 403.892 158.631C401.66 158.631 400.094 157.371 399.752 155.265H400.994C401.264 156.669 402.344 157.497 403.91 157.497C405.692 157.497 406.88 156.291 406.88 154.473V152.403C406.286 153.627 405.08 154.347 403.586 154.347C401.102 154.347 399.59 152.385 399.59 150.009ZM400.832 149.991C400.832 151.773 401.93 153.231 403.766 153.231C405.656 153.231 406.772 151.863 406.772 149.991C406.772 148.137 405.692 146.769 403.784 146.769C401.912 146.769 400.832 148.227 400.832 149.991ZM411.217 154.815C410.605 154.815 410.083 154.311 410.083 153.717C410.083 153.105 410.605 152.583 411.217 152.583C411.829 152.583 412.351 153.105 412.351 153.717C412.351 154.311 411.829 154.815 411.217 154.815Z" fill="#474747"/>
<g opacity="0.3">
<path d="M851.105 82.93C853.128 82.93 854.768 81.6686 854.768 80.1125C854.768 78.5564 853.128 77.2949 851.105 77.2949C849.082 77.2949 847.442 78.5564 847.442 80.1125C847.442 81.6686 849.082 82.93 851.105 82.93Z" fill="black"/>
<path d="M858.028 78.865C856.74 78.865 855.653 78.1405 855.653 77.2147C855.653 76.289 856.7 75.5645 858.028 75.5645C859.316 75.5645 860.403 76.289 860.403 77.2147C860.403 78.1405 859.316 78.865 858.028 78.865Z" fill="black"/>
<path d="M865.031 79.2274C864.106 79.2274 863.381 78.9054 863.381 78.5432C863.381 78.1406 864.106 77.8589 865.031 77.8589C865.957 77.8589 866.682 78.1809 866.682 78.5432C866.682 78.9054 865.957 79.2274 865.031 79.2274Z" fill="black"/>
<path d="M910.797 93.154C909.388 93.154 908.261 92.3892 908.261 91.4232C908.261 90.4571 909.388 89.6924 910.797 89.6924C912.205 89.6924 913.332 90.4571 913.332 91.4232C913.332 92.3892 912.205 93.154 910.797 93.154Z" fill="black"/>
<path d="M965.498 70.6537C967.343 70.6537 968.838 69.6625 968.838 68.4399C968.838 67.2172 967.343 66.2261 965.498 66.2261C963.652 66.2261 962.157 67.2172 962.157 68.4399C962.157 69.6625 963.652 70.6537 965.498 70.6537Z" fill="black"/>
<path d="M903.833 95.3676C902.787 95.3676 901.941 94.8041 901.941 94.1199C901.941 93.4356 902.787 92.8721 903.833 92.8721C904.88 92.8721 905.725 93.4356 905.725 94.1199C905.725 94.8041 904.88 95.3676 903.833 95.3676Z" fill="black"/>
<path d="M897.353 93.7977C895.501 93.7977 894.012 92.7914 894.012 91.5839C894.012 90.3764 895.501 89.3701 897.353 89.3701C899.204 89.3701 900.694 90.3764 900.694 91.5839C900.653 92.7914 899.164 93.7977 897.353 93.7977Z" fill="black"/>
<path d="M753.979 135.458V127.247H752.812V123.101H753.979V99.0712H754.663C753.979 97.8636 753.295 95.4486 754.583 91.4235C756.636 84.9029 758.849 87.4789 761.868 87.3179C764.887 87.1569 762.553 81.6023 768.067 77.6979C773.581 73.8339 778.492 78.2615 781.35 80.7973C784.208 83.3331 784.852 83.8161 788.474 78.1005C792.097 72.3848 797.37 72.3848 799.583 74.4376C801.797 76.4904 802.119 80.4753 802.763 82.045C803.407 83.6148 805.621 87.2777 809.727 83.9368C811.337 82.6086 813.47 81.8035 815.563 81.4815C815.764 81.24 815.966 80.9583 816.207 80.6765C819.387 77.0137 827.759 78.7847 830.939 80.6765C834.119 82.5683 836.654 81.9645 839.714 80.1532C842.773 78.3822 848.327 79.63 846.677 83.8161C845.027 88.0022 842.37 90.6587 835.648 90.1757C828.926 89.6525 824.74 84.5809 824.458 85.8689C824.217 86.9959 830.697 88.6462 828.967 92.631C831.704 92.5908 834.843 92.3493 834.602 96.2939C834.28 101.848 826.672 102.493 822.848 100.721C820.796 99.7554 818.703 96.6964 816.932 94.5631C816.167 95.2876 815.362 96.5354 814.033 96.4146C813.027 96.3341 812.182 95.8511 811.457 95.4083C811.095 95.8914 810.693 96.3744 810.25 96.8574V98.8699H809.606V115.453H830.094V118.19H829.208V153.893H838.144V113.119H860.242L860.121 128.978H885.881V100.44H890.228H891.879V128.978H921.946L926.172 76.6514H931.848L936.074 128.978H951.41L955.636 76.6514H955.797C954.71 76.0074 953.986 75.0011 953.986 73.8339C953.986 71.9018 955.918 70.332 958.333 70.332C959.46 70.332 960.466 70.654 961.231 71.2175C961.634 70.8553 962.318 70.654 963.083 70.654C964.371 70.654 965.377 71.2981 965.377 72.0628C965.377 72.8276 964.33 73.4716 963.083 73.4716C962.922 73.4716 962.801 73.4716 962.68 73.4313C962.68 73.5521 962.72 73.6729 962.72 73.7534C962.72 74.9206 961.996 75.9672 960.909 76.5709H961.352L969.845 181.505H954.63H947.183H940.341H917.68H747.418V135.458H753.979ZM768.51 91.9065C768.268 92.792 767.946 93.5568 767.624 94.1606C770.039 92.5908 772.535 92.5103 774.064 94.2813C774.266 94.5228 774.507 94.7643 774.708 94.9656C772.052 91.826 769.677 87.8009 768.51 91.9065ZM793.143 94.6033C793.465 95.9719 793.546 96.8574 795.8 96.1731C795.84 96.1731 795.88 96.1329 795.921 96.1329C794.874 95.5291 793.948 95.0058 793.143 94.6033ZM767.946 105.189V106.155H768.711V110.301H767.946V134.371H776.882V118.271H776.077V115.534H804.575V99.9164C803.93 99.9164 803.286 99.8762 802.562 99.6749C801.918 102.654 798.698 106.075 792.419 104.505C783.523 102.291 781.309 98.3064 780.545 100.842C779.74 103.378 777.204 104.948 774.668 103.539C772.132 102.13 770.723 97.3404 769.435 98.4674C768.147 99.5944 769.918 100.681 766.9 100.52C765.813 100.48 765.41 100.762 765.29 101.124H768.711V105.27H767.946V105.189ZM757.883 99.0712V123.101H758.97V127.247H757.883V134.894H763.478V110.261H762.553V106.115H763.478V105.149H762.553V101.003H763.921C763.841 100.56 763.921 100.238 763.921 100.238C763.921 100.238 762.231 99.7957 765.048 96.4549C763.841 96.8171 762.432 96.4146 761.063 95.4888C758.809 93.9593 756.837 97.2196 755.992 99.0309H757.883V99.0712Z" fill="black"/>
<path d="M885.922 96.9779C885.922 95.0459 887.854 93.4761 890.269 93.4761C891.396 93.4761 892.402 93.7981 893.167 94.3616C893.57 93.9993 894.254 93.7981 895.019 93.7981C896.307 93.7981 897.313 94.4421 897.313 95.2069C897.313 95.9716 896.266 96.6156 895.019 96.6156C894.858 96.6156 894.737 96.6156 894.616 96.5754C894.616 96.6961 894.656 96.8169 894.656 96.8974C894.656 98.8294 892.724 100.399 890.309 100.399C887.894 100.439 885.922 98.8697 885.922 96.9779Z" fill="black"/>
<path d="M971.978 69.688C973.025 69.688 973.87 70.2515 973.87 70.9358C973.87 71.62 973.025 72.1835 971.978 72.1835C970.931 72.1835 970.086 71.62 970.086 70.9358C970.086 70.2515 970.931 69.688 971.978 69.688Z" fill="black"/>
<path d="M978.942 66.5479C980.35 66.5479 981.477 67.3126 981.477 68.2786C981.477 69.2447 980.35 70.0094 978.942 70.0094C977.533 70.0094 976.406 69.2447 976.406 68.2786C976.406 67.3126 977.573 66.5479 978.942 66.5479Z" fill="black"/>
</g>
<path d="M1000.19 96.2134H956.964V181.545H1000.19V96.2134Z" fill="#263238" stroke="#263238" stroke-width="0.402509" stroke-miterlimit="10" stroke-linecap="round" stroke-linejoin="round"/>
<path d="M969.362 105.351H957.206" stroke="white" stroke-width="0.402509" stroke-miterlimit="10" stroke-linecap="round" stroke-linejoin="round"/>
<path d="M969.362 119.84H957.206" stroke="white" stroke-width="0.402509" stroke-miterlimit="10" stroke-linecap="round" stroke-linejoin="round"/>
<path d="M969.362 134.935H957.206" stroke="white" stroke-width="0.402509" stroke-miterlimit="10" stroke-linecap="round" stroke-linejoin="round"/>
<path d="M969.362 150.552H957.206" stroke="white" stroke-width="0.402509" stroke-miterlimit="10" stroke-linecap="round" stroke-linejoin="round"/>
<path d="M969.362 165.042H957.206" stroke="white" stroke-width="0.402509" stroke-miterlimit="10" stroke-linecap="round" stroke-linejoin="round"/>
<path d="M1000.19 96.2134H969.321V181.545H1000.19V96.2134Z" fill="white" stroke="#263238" stroke-width="0.402509" stroke-miterlimit="10" stroke-linecap="round" stroke-linejoin="round"/>
<path d="M1000.19 96.2134H969.321V101.003H1000.19V96.2134Z" fill="#263238" stroke="#263238" stroke-width="0.402509" stroke-miterlimit="10" stroke-linecap="round" stroke-linejoin="round"/>
<path d="M1000.19 111.146H969.321V115.936H1000.19V111.146Z" fill="#263238" stroke="#263238" stroke-width="0.402509" stroke-miterlimit="10" stroke-linecap="round" stroke-linejoin="round"/>
<path d="M1000.19 126.482H969.321V131.272H1000.19V126.482Z" fill="#263238" stroke="#263238" stroke-width="0.402509" stroke-miterlimit="10" stroke-linecap="round" stroke-linejoin="round"/>
<path d="M1000.19 141.415H969.321V146.205H1000.19V141.415Z" fill="#263238" stroke="#263238" stroke-width="0.402509" stroke-miterlimit="10" stroke-linecap="round" stroke-linejoin="round"/>
<path d="M1000.19 171.966H969.321V176.071H1000.19V171.966Z" fill="#263238" stroke="#263238" stroke-width="0.402509" stroke-miterlimit="10" stroke-linecap="round" stroke-linejoin="round"/>
<path d="M1000.19 156.348H969.321V161.138H1000.19V156.348Z" fill="#263238" stroke="#263238" stroke-width="0.402509" stroke-miterlimit="10" stroke-linecap="round" stroke-linejoin="round"/>
<path d="M990.171 173.173H977.854V181.585H990.171V173.173Z" fill="#263238" stroke="#263238" stroke-width="0.402509" stroke-miterlimit="10" stroke-linecap="round" stroke-linejoin="round"/>
<path d="M975.037 98.8296V172.69" stroke="#263238" stroke-width="0.402509" stroke-miterlimit="10" stroke-linecap="round" stroke-linejoin="round"/>
<path d="M984.496 98.8296V172.69" stroke="#263238" stroke-width="0.402509" stroke-miterlimit="10" stroke-linecap="round" stroke-linejoin="round"/>
<path d="M993.995 98.8296V172.69" stroke="#263238" stroke-width="0.402509" stroke-miterlimit="10" stroke-linecap="round" stroke-linejoin="round"/>
<path d="M960.305 98.8296V172.69" stroke="white" stroke-width="0.402509" stroke-miterlimit="10" stroke-linecap="round" stroke-linejoin="round"/>
<path d="M963.324 98.8296V172.69" stroke="white" stroke-width="0.402509" stroke-miterlimit="10" stroke-linecap="round" stroke-linejoin="round"/>
<path d="M966.343 98.8296V172.69" stroke="white" stroke-width="0.402509" stroke-miterlimit="10" stroke-linecap="round" stroke-linejoin="round"/>
<path d="M1001.6 95.2471H955.314V99.3124H1001.6V95.2471Z" fill="#263238" stroke="#263238" stroke-width="0.402509" stroke-miterlimit="10" stroke-linecap="round" stroke-linejoin="round"/>
<path d="M1001.6 95.2471H967.913V99.3124H1001.6V95.2471Z" fill="#BDBDBD" stroke="#263238" stroke-width="0.402509" stroke-miterlimit="10"/>
<path d="M1001.6 110.422H955.314V114.487H1001.6V110.422Z" fill="#263238" stroke="#263238" stroke-width="0.402509" stroke-miterlimit="10" stroke-linecap="round" stroke-linejoin="round"/>
<path d="M1001.6 110.422H967.913V114.487H1001.6V110.422Z" fill="#BDBDBD" stroke="#263238" stroke-width="0.402509" stroke-miterlimit="10"/>
<path d="M1001.6 125.597H955.314V129.662H1001.6V125.597Z" fill="#263238" stroke="#263238" stroke-width="0.402509" stroke-miterlimit="10" stroke-linecap="round" stroke-linejoin="round"/>
<path d="M1001.6 125.597H967.913V129.662H1001.6V125.597Z" fill="#BDBDBD" stroke="#263238" stroke-width="0.402509" stroke-miterlimit="10"/>
<path d="M1001.6 140.771H955.314V144.836H1001.6V140.771Z" fill="#263238" stroke="#263238" stroke-width="0.402509" stroke-miterlimit="10" stroke-linecap="round" stroke-linejoin="round"/>
<path d="M1001.6 140.771H967.913V144.836H1001.6V140.771Z" fill="#BDBDBD" stroke="#263238" stroke-width="0.402509" stroke-miterlimit="10"/>
<path d="M1001.6 155.946H955.314V160.011H1001.6V155.946Z" fill="#263238" stroke="#263238" stroke-width="0.402509" stroke-miterlimit="10" stroke-linecap="round" stroke-linejoin="round"/>
<path d="M1001.6 155.946H967.913V160.011H1001.6V155.946Z" fill="#BDBDBD" stroke="#263238" stroke-width="0.402509" stroke-miterlimit="10"/>
<path d="M1001.6 171.16H955.314V175.226H1001.6V171.16Z" fill="#263238" stroke="#263238" stroke-width="0.402509" stroke-miterlimit="10" stroke-linecap="round" stroke-linejoin="round"/>
<path d="M1001.6 171.16H967.913V175.226H1001.6V171.16Z" fill="#BDBDBD" stroke="#263238" stroke-width="0.402509" stroke-miterlimit="10"/>
<path d="M969.362 105.351H999.912" stroke="#263238" stroke-width="0.402509" stroke-miterlimit="10" stroke-linecap="round" stroke-linejoin="round"/>
<path d="M969.362 119.84H999.912" stroke="#263238" stroke-width="0.402509" stroke-miterlimit="10" stroke-linecap="round" stroke-linejoin="round"/>
<path d="M969.362 134.935H999.912" stroke="#263238" stroke-width="0.402509" stroke-miterlimit="10" stroke-linecap="round" stroke-linejoin="round"/>
<path d="M969.362 150.552H999.912" stroke="#263238" stroke-width="0.402509" stroke-miterlimit="10" stroke-linecap="round" stroke-linejoin="round"/>
<path d="M969.362 165.042H999.912" stroke="#263238" stroke-width="0.402509" stroke-miterlimit="10" stroke-linecap="round" stroke-linejoin="round"/>
<path d="M998.061 179.372H969.442V180.378H998.061V179.372Z" fill="white" stroke="#263238" stroke-width="0.402509" stroke-miterlimit="10" stroke-linecap="round" stroke-linejoin="round"/>
<path d="M1006.47 180.378H969.442V181.907H1006.47V180.378Z" fill="white" stroke="#263238" stroke-width="0.402509" stroke-miterlimit="10" stroke-linecap="round" stroke-linejoin="round"/>
<path d="M958.172 80.0322H903.109V181.545H958.172V80.0322Z" fill="#263238" stroke="#263238" stroke-width="0.402509" stroke-miterlimit="10" stroke-linecap="round" stroke-linejoin="round"/>
<path d="M958.172 80.0322H917.68V181.545H958.172V80.0322Z" fill="#BDBDBD" stroke="#263238" stroke-width="0.402509" stroke-miterlimit="10"/>
<path d="M958.172 171.845H927.259V181.545H958.172V171.845Z" fill="#263238" stroke="#263238" stroke-width="0.402509" stroke-miterlimit="10" stroke-linecap="round" stroke-linejoin="round"/>
<path d="M936.114 171.845H934.424V181.545H936.114V171.845Z" fill="white" stroke="#263238" stroke-width="0.402509" stroke-miterlimit="10" stroke-linecap="round" stroke-linejoin="round"/>
<path d="M944.768 171.845H943.078V181.545H944.768V171.845Z" fill="white" stroke="#263238" stroke-width="0.402509" stroke-miterlimit="10" stroke-linecap="round" stroke-linejoin="round"/>
<path d="M953.463 171.845H951.772V181.545H953.463V171.845Z" fill="white" stroke="#263238" stroke-width="0.402509" stroke-miterlimit="10" stroke-linecap="round" stroke-linejoin="round"/>
<path d="M933.096 171.845V80.2739" stroke="#263238" stroke-width="0.402509" stroke-miterlimit="10" stroke-linecap="round" stroke-linejoin="round"/>
<path d="M912.407 181.867V80.2739" stroke="white" stroke-width="0.402509" stroke-miterlimit="10" stroke-linecap="round" stroke-linejoin="round"/>
<path d="M907.416 181.867V80.2739" stroke="white" stroke-width="0.402509" stroke-miterlimit="10" stroke-linecap="round" stroke-linejoin="round"/>
<path d="M948.471 171.845V80.2739" stroke="#263238" stroke-width="0.402509" stroke-miterlimit="10" stroke-linecap="round" stroke-linejoin="round"/>
<path d="M917.881 90.6987H957.931" stroke="#263238" stroke-width="0.402509" stroke-miterlimit="10" stroke-linecap="round" stroke-linejoin="round"/>
<path d="M917.881 104.183H957.931" stroke="#263238" stroke-width="0.402509" stroke-miterlimit="10" stroke-linecap="round" stroke-linejoin="round"/>
<path d="M917.881 117.667H957.931" stroke="#263238" stroke-width="0.402509" stroke-miterlimit="10" stroke-linecap="round" stroke-linejoin="round"/>
<path d="M917.881 131.151H957.931" stroke="#263238" stroke-width="0.402509" stroke-miterlimit="10" stroke-linecap="round" stroke-linejoin="round"/>
<path d="M917.881 144.635H957.931" stroke="#263238" stroke-width="0.402509" stroke-miterlimit="10" stroke-linecap="round" stroke-linejoin="round"/>
<path d="M917.881 158.119H957.931" stroke="#263238" stroke-width="0.402509" stroke-miterlimit="10" stroke-linecap="round" stroke-linejoin="round"/>
<path d="M917.881 90.6987H903.028" stroke="white" stroke-width="0.402509" stroke-miterlimit="10" stroke-linecap="round" stroke-linejoin="round"/>
<path d="M917.881 104.183H903.028" stroke="white" stroke-width="0.402509" stroke-miterlimit="10" stroke-linecap="round" stroke-linejoin="round"/>
<path d="M917.881 117.667H903.028" stroke="white" stroke-width="0.402509" stroke-miterlimit="10" stroke-linecap="round" stroke-linejoin="round"/>
<path d="M917.881 131.151H903.028" stroke="white" stroke-width="0.402509" stroke-miterlimit="10" stroke-linecap="round" stroke-linejoin="round"/>
<path d="M917.881 144.635H903.028" stroke="white" stroke-width="0.402509" stroke-miterlimit="10" stroke-linecap="round" stroke-linejoin="round"/>
<path d="M917.881 158.119H903.028" stroke="white" stroke-width="0.402509" stroke-miterlimit="10" stroke-linecap="round" stroke-linejoin="round"/>
<path d="M903.27 171.604H957.931" stroke="#263238" stroke-width="0.402509" stroke-miterlimit="10" stroke-linecap="round" stroke-linejoin="round"/>
<path opacity="0.3" d="M858.108 70.3722C857.666 65.7031 857.102 59.3837 860.362 55.4794C864.428 50.5688 874.772 53.1449 880.528 52.7423C881.092 52.7021 881.655 52.6618 882.219 52.6216C882.742 52.5411 883.265 52.5008 883.829 52.4606C886.002 52.2593 887.814 51.9776 889.343 51.6556C889.383 51.6556 889.424 51.6556 889.424 51.6556C889.705 51.6153 889.947 51.5348 890.188 51.4946C890.229 51.4946 890.309 51.4543 890.349 51.4543C890.591 51.4141 890.792 51.3336 891.034 51.2933C891.074 51.2933 891.154 51.2531 891.195 51.2531C891.396 51.2128 891.597 51.1323 891.798 51.0921C891.839 51.0921 891.919 51.0518 891.959 51.0518C892.161 51.0116 892.322 50.9311 892.523 50.8908C892.563 50.8908 892.644 50.8506 892.684 50.8506C892.845 50.7701 893.046 50.7298 893.207 50.6493C893.247 50.6493 893.288 50.609 893.368 50.609C893.529 50.5285 893.69 50.4883 893.851 50.4078C893.891 50.4078 893.932 50.3675 893.972 50.3675C894.133 50.287 894.294 50.2468 894.455 50.1663C894.495 50.1663 894.495 50.126 894.535 50.126C894.696 50.0455 894.857 49.965 895.018 49.8845C895.018 49.8845 895.059 49.8845 895.059 49.8443C897.031 48.7978 898.319 47.5902 900.01 46.1814C900.01 46.1814 900.01 46.1814 900.05 46.1412C900.171 46.0204 900.332 45.8997 900.452 45.8192C900.493 45.7789 900.533 45.7387 900.573 45.7387C900.694 45.6582 900.815 45.5374 900.935 45.4569C900.976 45.4167 901.056 45.3764 901.096 45.3362C901.217 45.2557 901.338 45.1752 901.459 45.0544C901.539 45.0142 901.579 44.9739 901.66 44.8934C901.781 44.8129 901.901 44.7324 902.022 44.6519C902.103 44.6117 902.183 44.5312 902.264 44.4909C902.384 44.4104 902.505 44.3299 902.626 44.2494C902.706 44.2092 902.787 44.1287 902.867 44.0884C903.028 44.0079 903.149 43.8871 903.31 43.8066C903.391 43.7664 903.431 43.7261 903.511 43.6859C903.753 43.5249 903.954 43.4041 904.236 43.2431C904.679 42.9614 905.162 42.7199 905.645 42.4784C905.806 42.3979 905.967 42.3174 906.087 42.2369C906.409 42.0759 906.731 41.9149 907.094 41.7538C907.295 41.6733 907.456 41.5928 907.657 41.5123C907.979 41.3916 908.301 41.2708 908.664 41.1098C908.825 41.0293 909.026 40.9891 909.187 40.9086C909.67 40.7476 910.113 40.5866 910.596 40.4658C910.837 40.3853 911.079 40.3451 911.28 40.3048C911.521 40.2243 911.803 40.1841 912.045 40.1036C912.326 40.0231 912.608 39.9828 912.89 39.9426C913.091 39.9023 913.292 39.8621 913.453 39.8621C913.775 39.8218 914.097 39.7816 914.419 39.7413C914.54 39.7413 914.621 39.7413 914.741 39.7011C915.949 39.5803 917.116 39.54 918.283 39.6608C918.324 39.6608 918.324 39.6608 918.364 39.6608C918.766 39.7011 919.169 39.7413 919.531 39.8218C921.101 40.0633 922.59 40.5463 923.838 41.3111C929.191 39.2583 935.108 38.9363 939.174 41.1903C946.459 38.4935 954.59 39.057 957.81 44.7727C961.714 51.6556 959.903 53.4669 963.807 53.4669C967.712 53.4669 969.483 51.3738 972.179 52.5813C974.876 53.7889 976.366 55.8819 977.251 55.8819C978.137 55.8819 980.552 53.1851 982.926 54.6744C985.301 56.1637 986.831 60.068 986.831 60.068C986.831 60.068 988.038 64.8579 982.363 63.9723C979.706 63.5698 978.539 61.5573 976.285 60.7925C973.87 59.9473 972.501 61.3963 970.891 62.8856C971.213 62.5636 971.576 62.2416 971.898 61.9598C971.696 62.8453 971.093 63.7711 969.603 64.0126C969.402 64.1736 969.161 64.3346 968.959 64.4956C965.78 66.5082 961.513 65.6629 958.132 64.0126C957.407 63.6503 956.683 63.2881 955.999 62.8856C955.918 63.0466 955.757 63.2076 955.636 63.3283L955.596 63.3686C955.435 63.4893 955.274 63.6101 955.073 63.7308C954.751 64.0126 954.389 64.2944 954.026 64.5359C950.846 66.5484 946.58 65.7031 943.199 64.0529C942.354 63.6503 941.508 63.1673 940.703 62.6843C940.703 62.6843 940.703 62.6843 940.663 62.7246C940.502 62.8453 940.381 63.0063 940.22 63.1271C940.18 63.1673 940.14 63.2076 940.059 63.2478C939.938 63.3686 939.818 63.4491 939.697 63.5698C939.657 63.6101 939.576 63.6906 939.536 63.7308C939.415 63.8113 939.294 63.9321 939.174 64.0126C939.133 64.0529 939.053 64.0931 939.013 64.1334C938.892 64.2541 938.731 64.3346 938.61 64.4151C938.369 64.6566 938.127 64.8981 937.886 65.0994C934.142 68.2389 928.91 69.9295 924.08 69.8892C921.705 69.849 919.531 69.2452 917.398 68.3194C914.741 69.366 911.884 69.9295 909.106 69.8892C906.651 69.849 904.357 69.1647 902.143 68.1987C901.539 68.4402 900.895 68.6817 900.251 68.883C900.09 68.9232 899.929 69.0037 899.728 69.044C899.325 69.1647 898.923 69.2452 898.52 69.366C898.198 69.4465 897.917 69.4867 897.595 69.5672C897.393 69.6075 897.192 69.6477 896.991 69.688C896.508 69.7685 896.025 69.8087 895.542 69.849C895.421 69.849 895.3 69.849 895.179 69.8892C894.656 69.9295 894.093 69.9295 893.569 69.9295C893.288 69.9295 893.006 69.8892 892.724 69.8892C892.281 75.4036 892.08 81.1192 892.08 81.1192H888.699C888.699 81.1192 889.665 80.2337 888.78 70.654C888.739 70.1307 888.699 69.6075 888.619 69.044C888.498 69.0037 888.337 68.9635 888.216 68.9232C888.136 68.883 888.015 68.8427 887.934 68.8025C887.572 68.6817 887.25 68.5207 886.888 68.3999C886.848 68.3999 886.807 68.3597 886.767 68.3597C886.365 68.1987 885.962 67.9974 885.559 67.7962H885.519C885.117 67.5949 884.714 67.3937 884.312 67.1924C884.312 67.1924 884.312 67.1924 884.271 67.1924C882.299 66.1861 880.407 65.0189 878.435 64.0126C878.395 64.2541 878.355 64.4956 878.314 64.7371C877.429 71.0163 877.107 81.1997 877.107 81.1997H873.726C873.726 81.1997 874.692 80.3142 873.806 70.7345C873.565 68.0779 873.283 64.9384 873.645 62.0001C873.404 61.9196 873.162 61.839 872.88 61.7585C867.205 60.2693 863.623 58.458 862.697 64.7371C861.811 71.0163 861.489 81.1997 861.489 81.1997H858.108C858.028 80.8375 859.034 79.952 858.108 70.3722Z" fill="black"/>
<path d="M863.14 80.2339H857.545L854.728 150.19H865.958L863.14 80.2339Z" fill="#92E3A9" stroke="#263238" stroke-width="0.402509" stroke-miterlimit="10"/>
<path d="M863.1 80.8374H857.585C857.263 80.8374 856.982 80.5557 856.982 80.2336C856.982 79.9116 857.263 79.6299 857.585 79.6299H863.14C863.462 79.6299 863.744 79.9116 863.744 80.2336C863.704 80.5557 863.462 80.8374 863.1 80.8374Z" fill="white" stroke="#263238" stroke-width="0.402509" stroke-miterlimit="10"/>
<path d="M857.384 83.4131L857.303 85.9489H863.381L863.261 83.4131H857.384Z" fill="white" stroke="#263238" stroke-width="0.402509" stroke-miterlimit="10"/>
<path d="M865.555 140.529L865.474 138.034H855.21L855.09 140.529H865.555Z" fill="white" stroke="#263238" stroke-width="0.402509" stroke-miterlimit="10"/>
<path d="M855.854 122.417L855.734 124.952H864.951L864.83 122.417H855.854Z" fill="white" stroke="#263238" stroke-width="0.402509" stroke-miterlimit="10"/>
<path d="M855.533 130.225L855.412 132.761H865.273L865.153 130.225H855.533Z" fill="white" stroke="#263238" stroke-width="0.402509" stroke-miterlimit="10"/>
<path d="M856.136 114.607L856.056 117.143H864.629L864.549 114.607H856.136Z" fill="white" stroke="#263238" stroke-width="0.402509" stroke-miterlimit="10"/>
<path d="M857.102 91.2217L856.981 93.7575H863.703L863.583 91.2217H857.102Z" fill="white" stroke="#263238" stroke-width="0.402509" stroke-miterlimit="10"/>
<path d="M856.458 106.839L856.378 109.335H864.307L864.227 106.839H856.458Z" fill="white" stroke="#263238" stroke-width="0.402509" stroke-miterlimit="10"/>
<path d="M856.78 99.0303L856.659 101.566H864.025L863.905 99.0303H856.78Z" fill="white" stroke="#263238" stroke-width="0.402509" stroke-miterlimit="10"/>
<path d="M878.274 80.2339H872.679L869.862 150.19H881.092L878.274 80.2339Z" fill="#92E3A9" stroke="#263238" stroke-width="0.402509" stroke-miterlimit="10"/>
<path d="M878.234 80.8374H872.679C872.357 80.8374 872.076 80.5557 872.076 80.2336C872.076 79.9116 872.357 79.6299 872.679 79.6299H878.234C878.556 79.6299 878.838 79.9116 878.838 80.2336C878.838 80.5557 878.596 80.8374 878.234 80.8374Z" fill="white" stroke="#263238" stroke-width="0.402509" stroke-miterlimit="10"/>
<path d="M872.559 83.4131L872.438 85.9489H878.516L878.435 83.4131H872.559Z" fill="white" stroke="#263238" stroke-width="0.402509" stroke-miterlimit="10"/>
<path d="M880.729 140.529L880.609 138.034H870.345L870.264 140.529H880.729Z" fill="white" stroke="#263238" stroke-width="0.402509" stroke-miterlimit="10"/>
<path d="M870.989 122.417L870.868 124.952H880.085L879.965 122.417H870.989Z" fill="white" stroke="#263238" stroke-width="0.402509" stroke-miterlimit="10"/>
<path d="M870.667 130.225L870.546 132.761H880.408L880.287 130.225H870.667Z" fill="white" stroke="#263238" stroke-width="0.402509" stroke-miterlimit="10"/>
<path d="M871.271 114.607L871.19 117.143H879.764L879.683 114.607H871.271Z" fill="white" stroke="#263238" stroke-width="0.402509" stroke-miterlimit="10"/>
<path d="M872.237 91.2217L872.116 93.7575H878.838L878.717 91.2217H872.237Z" fill="white" stroke="#263238" stroke-width="0.402509" stroke-miterlimit="10"/>
<path d="M871.592 106.839L871.512 109.335H879.441L879.361 106.839H871.592Z" fill="white" stroke="#263238" stroke-width="0.402509" stroke-miterlimit="10"/>
<path d="M871.914 99.0303L871.794 101.566H879.16L879.039 99.0303H871.914Z" fill="white" stroke="#263238" stroke-width="0.402509" stroke-miterlimit="10"/>
<path d="M893.409 80.2339H887.814L884.996 150.19H896.226L893.409 80.2339Z" fill="#92E3A9" stroke="#263238" stroke-width="0.402509" stroke-miterlimit="10"/>
<path d="M893.409 80.8374H887.854C887.532 80.8374 887.25 80.5557 887.25 80.2336C887.25 79.9116 887.532 79.6299 887.854 79.6299H893.409C893.731 79.6299 894.012 79.9116 894.012 80.2336C894.012 80.5557 893.731 80.8374 893.409 80.8374Z" fill="white" stroke="#263238" stroke-width="0.402509" stroke-miterlimit="10"/>
<path d="M887.693 83.4131L887.572 85.9489H893.65L893.569 83.4131H887.693Z" fill="white" stroke="#263238" stroke-width="0.402509" stroke-miterlimit="10"/>
<path d="M895.864 140.529L895.743 138.034H885.479L885.399 140.529H895.864Z" fill="white" stroke="#263238" stroke-width="0.402509" stroke-miterlimit="10"/>
<path d="M886.123 122.417L886.002 124.952H895.22L895.139 122.417H886.123Z" fill="white" stroke="#263238" stroke-width="0.402509" stroke-miterlimit="10"/>
<path d="M885.801 130.225L885.68 132.761H895.542L895.421 130.225H885.801Z" fill="white" stroke="#263238" stroke-width="0.402509" stroke-miterlimit="10"/>
<path d="M886.445 114.607L886.324 117.143H894.898L894.817 114.607H886.445Z" fill="white" stroke="#263238" stroke-width="0.402509" stroke-miterlimit="10"/>
<path d="M887.371 91.2217L887.25 93.7575H893.972L893.851 91.2217H887.371Z" fill="white" stroke="#263238" stroke-width="0.402509" stroke-miterlimit="10"/>
<path d="M886.727 106.839L886.646 109.335H894.616L894.495 106.839H886.727Z" fill="white" stroke="#263238" stroke-width="0.402509" stroke-miterlimit="10"/>
<path d="M887.049 99.0303L886.969 101.566H894.294L894.173 99.0303H887.049Z" fill="white" stroke="#263238" stroke-width="0.402509" stroke-miterlimit="10"/>
<path d="M895.3 141.576H823.01V181.867H895.3V141.576Z" fill="#263238" stroke="#263238" stroke-width="0.402509" stroke-miterlimit="10" stroke-linecap="round" stroke-linejoin="round"/>
<path d="M931.405 141.576H854.848V181.867H931.405V141.576Z" fill="#BDBDBD" stroke="#263238" stroke-width="0.402509" stroke-miterlimit="10"/>
<path d="M877.228 157.032H864.629V181.867H877.228V157.032Z" fill="#696969" stroke="#263238" stroke-width="0.402509" stroke-miterlimit="10"/>
<path d="M875.175 157.032H864.629V181.867H875.175V157.032Z" fill="#263238" stroke="#263238" stroke-width="0.402509" stroke-miterlimit="10" stroke-linecap="round" stroke-linejoin="round"/>
<path d="M899.808 157.032H887.21V181.867H899.808V157.032Z" fill="#696969" stroke="#263238" stroke-width="0.402509" stroke-miterlimit="10"/>
<path d="M897.756 157.032H887.21V181.867H897.756V157.032Z" fill="#263238" stroke="#263238" stroke-width="0.402509" stroke-miterlimit="10" stroke-linecap="round" stroke-linejoin="round"/>
<path d="M922.389 157.032H909.791V181.867H922.389V157.032Z" fill="#696969" stroke="#263238" stroke-width="0.402509" stroke-miterlimit="10"/>
<path d="M920.336 157.032H909.791V181.867H920.336V157.032Z" fill="#263238" stroke="#263238" stroke-width="0.402509" stroke-miterlimit="10" stroke-linecap="round" stroke-linejoin="round"/>
<path d="M832.791 146.205H825.908V152.524H832.791V146.205Z" fill="#D6D6D6" stroke="#263238" stroke-width="0.402509" stroke-miterlimit="10"/>
<path d="M842.089 146.205H835.206V152.524H842.089V146.205Z" fill="#D6D6D6" stroke="#263238" stroke-width="0.402509" stroke-miterlimit="10"/>
<path d="M851.387 146.205H844.504V152.524H851.387V146.205Z" fill="#D6D6D6" stroke="#263238" stroke-width="0.402509" stroke-miterlimit="10"/>
<path d="M875.899 146.205H865.635V152.524H875.899V146.205Z" fill="#263238" stroke="#263238" stroke-width="0.402509" stroke-miterlimit="10" stroke-linecap="round" stroke-linejoin="round"/>
<path d="M875.295 146.205H865.031V152.524H875.295V146.205Z" fill="#D6D6D6" stroke="#263238" stroke-width="0.402509" stroke-miterlimit="10"/>
<path d="M898.48 146.205H888.216V152.524H898.48V146.205Z" fill="#263238" stroke="#263238" stroke-width="0.402509" stroke-miterlimit="10" stroke-linecap="round" stroke-linejoin="round"/>
<path d="M897.877 146.205H887.613V152.524H897.877V146.205Z" fill="#D6D6D6" stroke="#263238" stroke-width="0.402509" stroke-miterlimit="10"/>
<path d="M921.061 146.205H910.797V152.524H921.061V146.205Z" fill="#263238" stroke="#263238" stroke-width="0.402509" stroke-miterlimit="10" stroke-linecap="round" stroke-linejoin="round"/>
<path d="M920.457 146.205H910.193V152.524H920.457V146.205Z" fill="#D6D6D6" stroke="#263238" stroke-width="0.402509" stroke-miterlimit="10"/>
<path d="M822.004 152.444H812.867V157.757H822.004V152.444Z" fill="#D6D6D6" stroke="#263238" stroke-width="0.402509" stroke-miterlimit="10"/>
<path d="M824.861 152.444H815.724V157.757H824.861V152.444Z" fill="#D6D6D6" stroke="#263238" stroke-width="0.402509" stroke-miterlimit="10"/>
<path d="M833.193 155.422H810.612V181.867H833.193V155.422Z" fill="#263238" stroke="#263238" stroke-width="0.402509" stroke-miterlimit="10" stroke-linecap="round" stroke-linejoin="round"/>
<path d="M849.938 155.422H827.357V181.867H849.938V155.422Z" fill="#BDBDBD" stroke="#263238" stroke-width="0.402509" stroke-miterlimit="10"/>
<path d="M841.686 172.166H835.608V181.866H841.686V172.166Z" fill="#263238" stroke="#263238" stroke-width="0.402509" stroke-miterlimit="10" stroke-linecap="round" stroke-linejoin="round"/>
<path d="M825.183 158.562H821.44V176.513H825.183V158.562Z" fill="#9E9E9E"/>
<path d="M820.393 158.562H816.65V176.513H820.393V158.562Z" fill="#9E9E9E"/>
<path d="M815.563 158.562H811.82V176.513H815.563V158.562Z" fill="#9E9E9E"/>
<path d="M862.737 145.722H857.344V181.746H862.737V145.722Z" fill="#263238" stroke="#263238" stroke-width="0.402509" stroke-miterlimit="10" stroke-linecap="round" stroke-linejoin="round"/>
<path d="M863.583 145.722H858.189V181.746H863.583V145.722Z" fill="#92E3A9" stroke="#263238" stroke-width="0.402509" stroke-miterlimit="10"/>
<path d="M884.795 145.722H879.401V181.746H884.795V145.722Z" fill="#263238" stroke="#263238" stroke-width="0.402509" stroke-miterlimit="10" stroke-linecap="round" stroke-linejoin="round"/>
<path d="M885.64 145.722H880.246V181.746H885.64V145.722Z" fill="#92E3A9" stroke="#263238" stroke-width="0.402509" stroke-miterlimit="10"/>
<path d="M907.336 145.722H901.942V181.746H907.336V145.722Z" fill="#263238" stroke="#263238" stroke-width="0.402509" stroke-miterlimit="10" stroke-linecap="round" stroke-linejoin="round"/>
<path d="M908.181 145.722H902.787V181.746H908.181V145.722Z" fill="#92E3A9" stroke="#263238" stroke-width="0.402509" stroke-miterlimit="10"/>
<path d="M929.916 145.722H924.522V181.746H929.916V145.722Z" fill="#263238" stroke="#263238" stroke-width="0.402509" stroke-miterlimit="10" stroke-linecap="round" stroke-linejoin="round"/>
<path d="M930.802 145.722H925.408V181.746H930.802V145.722Z" fill="#92E3A9" stroke="#263238" stroke-width="0.402509" stroke-miterlimit="10"/>
<g opacity="0.4">
<path d="M761.064 175.749C761.064 177.319 759.775 178.607 758.206 178.607C756.636 178.607 755.348 177.319 755.348 175.749C755.348 174.18 756.636 172.892 758.206 172.892C759.775 172.892 761.064 174.18 761.064 175.749Z" fill="black"/>
<path d="M755.348 173.777C755.348 175.145 754.221 176.272 752.852 176.272C751.484 176.272 750.357 175.145 750.357 173.777C750.357 172.408 751.484 171.281 752.852 171.281C754.221 171.281 755.348 172.408 755.348 173.777Z" fill="black"/>
<path d="M747.056 174.904C747.056 175.307 746.734 175.629 746.332 175.629C745.929 175.629 745.607 175.307 745.607 174.904C745.607 174.502 745.929 174.18 746.332 174.18C746.734 174.22 747.056 174.542 747.056 174.904Z" fill="black"/>
<path d="M749.029 170.355C749.029 171.161 748.385 171.845 747.539 171.845C746.694 171.845 746.09 171.161 746.09 170.355C746.09 169.55 746.734 168.866 747.58 168.866C748.425 168.866 749.029 169.51 749.029 170.355Z" fill="black"/>
</g>
<path d="M760.339 174.783H793.103V173.495H798.336L801.556 175.387L801.637 178.325H794.432V176.393H782.195C782.195 176.393 782.638 177.681 782.517 178.567H781.914C781.914 178.567 781.793 176.876 781.431 176.433H779.257V179.895H768.51V176.554H766.699C766.497 176.916 766.175 177.601 766.216 178.607H765.612C765.612 178.607 765.491 177.601 766.014 176.554H761.064L760.339 174.783Z" fill="#263238" stroke="#263238" stroke-width="0.402509" stroke-miterlimit="10" stroke-linecap="round" stroke-linejoin="round"/>
<path d="M794.472 166.169C794.472 166.169 794.512 165.646 794.754 165.324C794.995 165.002 795.72 164.841 795.961 164.801C796.163 164.76 801.435 164.841 802.2 165.123C802.965 165.404 803.126 165.686 803.126 165.807C803.126 165.928 804.656 169.752 804.656 169.752C804.656 169.752 805.018 170.315 805.139 170.758C805.259 171.201 805.098 174.863 804.978 174.944C804.857 175.024 804.414 175.024 804.414 175.024L804.454 175.548C804.454 175.548 805.259 175.548 805.3 175.709C805.34 175.87 805.3 178.889 805.3 178.889H801.113V176.312C801.113 176.312 800.671 174.501 798.457 174.139C796.243 173.777 795.358 174.018 795.358 174.018H794.311V166.773L794.472 166.169Z" fill="white" stroke="#263238" stroke-width="0.402509" stroke-miterlimit="10" stroke-linecap="round" stroke-linejoin="round"/>
<path d="M797.974 166.652V169.55H803.247L802.079 166.531H798.175L797.974 166.652Z" stroke="#263238" stroke-width="0.402509" stroke-miterlimit="10"/>
<path d="M797.611 166.37V172.81" stroke="#263238" stroke-width="0.402509" stroke-miterlimit="10"/>
<path d="M801.315 175.065C801.315 175.065 799.222 173.213 798.296 172.972C797.33 172.73 795.197 172.972 795.197 172.972" stroke="#263238" stroke-width="0.402509" stroke-miterlimit="10"/>
<path d="M759.08 175.45H794.3V161.081H759.08V175.45Z" fill="#92E3A9" stroke="#263238" stroke-width="0.402509" stroke-miterlimit="10"/>
<path d="M759.08 175.449H794.3V174.282H759.08V175.449Z" fill="white" stroke="#263238" stroke-width="0.402509" stroke-miterlimit="10" stroke-linecap="round" stroke-linejoin="round"/>
<path d="M783.244 179.053H791.978V175.631H783.244V179.053Z" fill="#595959" stroke="#263238" stroke-width="0.402509" stroke-miterlimit="10"/>
<path d="M800.269 179.584C800.647 177.984 799.655 176.379 798.054 176.001C796.453 175.623 794.849 176.615 794.471 178.216C794.093 179.816 795.084 181.421 796.685 181.799C798.286 182.177 799.891 181.185 800.269 179.584Z" fill="#424242" stroke="#263238" stroke-width="0.402509" stroke-miterlimit="10"/>
<path d="M795.76 178.888C795.76 178.003 796.484 177.278 797.37 177.278C798.255 177.278 798.98 178.003 798.98 178.888C798.98 179.774 798.255 180.498 797.37 180.498C796.484 180.498 795.76 179.774 795.76 178.888Z" fill="white" stroke="#263238" stroke-width="0.402509" stroke-miterlimit="10" stroke-linecap="round" stroke-linejoin="round"/>
<path d="M781.357 179.609C781.77 178.016 780.813 176.391 779.221 175.979C777.628 175.566 776.003 176.522 775.591 178.115C775.178 179.707 776.134 181.333 777.727 181.745C779.319 182.158 780.944 181.201 781.357 179.609Z" fill="#424242" stroke="#263238" stroke-width="0.402509" stroke-miterlimit="10"/>
<path d="M776.842 178.888C776.842 178.003 777.566 177.278 778.452 177.278C779.337 177.278 780.062 178.003 780.062 178.888C780.062 179.774 779.337 180.498 778.452 180.498C777.566 180.498 776.842 179.774 776.842 178.888Z" fill="white" stroke="#263238" stroke-width="0.402509" stroke-miterlimit="10" stroke-linecap="round" stroke-linejoin="round"/>
<path d="M772.147 180.994C773.31 179.831 773.31 177.945 772.147 176.782C770.983 175.618 769.097 175.618 767.934 176.782C766.771 177.945 766.771 179.831 767.934 180.994C769.097 182.157 770.983 182.157 772.147 180.994Z" fill="#424242" stroke="#263238" stroke-width="0.402509" stroke-miterlimit="10"/>
<path d="M768.429 178.888C768.429 178.003 769.154 177.278 770.039 177.278C770.925 177.278 771.65 178.003 771.65 178.888C771.65 179.774 770.925 180.498 770.039 180.498C769.154 180.498 768.429 179.774 768.429 178.888Z" fill="white" stroke="#263238" stroke-width="0.402509" stroke-miterlimit="10" stroke-linecap="round" stroke-linejoin="round"/>
<path d="M803.931 175.829V178.647" stroke="#263238" stroke-width="0.402509" stroke-miterlimit="10" stroke-linecap="round" stroke-linejoin="round"/>
<path d="M802.662 170.434H803.225V166.61H802.662V170.434Z" fill="#424242" stroke="#263238" stroke-width="0.402509" stroke-miterlimit="10"/>
<path d="M1026.64 181.867H742.146" stroke="#263238" stroke-width="0.402509" stroke-miterlimit="10"/>
</g>
<defs>
<clipPath id="clip0_96_9366">
<rect width="1092" height="227" fill="white"/>
</clipPath>
</defs>
</svg>
