<svg width="81" height="85" viewBox="0 0 81 85" fill="none" xmlns="http://www.w3.org/2000/svg">
<g clip-path="url(#clip0_96_10113)">
<path d="M74.5568 20.6019C78.341 22.494 80.0228 25.5423 79.9177 29.9571C79.8126 39.1021 79.9177 48.3521 79.9177 57.4971C79.9177 61.7016 77.2898 65.0653 73.4006 66.0113C72.4546 66.2216 70.9829 66.7471 70.6676 65.3806C70.2471 63.909 71.8239 64.2244 72.6648 64.0142C76.1336 63.0681 77.7103 61.071 77.8154 57.392C77.8154 47.8265 77.8154 38.2611 77.8154 28.8009C77.8154 25.0167 75.2926 22.1787 71.5085 22.1787C54.0595 22.0735 36.6106 22.0735 19.2667 22.1787C15.0621 22.1787 12.7496 24.8065 12.7496 29.1162C12.7496 38.3663 12.7496 47.7214 12.7496 56.9715C12.7496 59.3891 12.8547 61.8068 11.1729 64.2244C12.8547 64.2244 14.3263 64.2244 15.6928 64.2244C21.5792 64.2244 27.4656 64.2244 33.2469 64.2244C34.4032 64.2244 36.5054 63.4886 36.5054 65.1704C36.6106 67.0625 34.5083 66.2216 33.352 66.2216C24.9429 66.3267 16.5337 66.2216 8.12457 66.2216C7.80922 66.2216 7.38877 66.2216 7.07342 66.2216C2.55351 66.1164 0.0307617 63.6988 0.0307617 59.1789C0.0307617 42.5708 0.0307617 26.0679 0.0307617 9.45982C0.0307617 5.88593 1.81771 4.2041 5.39159 4.2041C8.96548 4.2041 12.5394 4.2041 16.1133 4.2041C18.4258 4.2041 20.2127 4.9399 21.2639 7.04219C22.2099 8.93425 23.7866 9.56493 25.994 9.45982C37.3464 9.3547 48.6987 9.3547 59.9459 9.3547C64.9914 7.35753 71.1932 10.511 72.0341 15.8718C72.3494 17.869 72.9801 19.4457 74.5568 20.6019Z" fill="#285FCD"/>
<path d="M53.639 76.734C46.281 76.734 39.9741 70.4272 39.9741 62.9641C39.9741 55.606 46.281 49.4043 53.7441 49.4043C61.1021 49.4043 67.3039 55.8163 67.1987 63.2794C67.1987 70.5323 60.997 76.6289 53.639 76.734Z" fill="#285FCD"/>
<path d="M74.5567 20.6027C72.5595 20.2873 71.2982 19.6567 71.2982 17.1339C71.2982 12.9293 68.0396 9.88102 63.7299 9.56567C62.5737 9.35544 61.2072 9.46056 59.9458 9.35544C60.8918 4.6253 63.4146 1.36675 68.3549 0.210496C72.5595 -0.735533 76.7641 1.05141 79.392 4.83553C81.7045 8.40942 81.3891 12.9293 78.9715 16.5032C77.8152 18.2902 75.9232 19.1311 74.5567 20.6027Z" fill="#E6EEF8"/>
<path d="M28.4113 76.734C28.4113 80.6232 25.0477 84.092 21.0533 84.092C17.1641 84.092 13.6953 80.7283 13.6953 76.734C13.6953 72.8448 17.059 69.376 21.0533 69.376C24.9425 69.376 28.4113 72.7396 28.4113 76.734Z" fill="#E6EEF8"/>
<path d="M45.2299 33.6379C41.3406 33.6379 37.5565 33.6379 33.6673 33.6379C32.8264 33.6379 31.6701 33.743 31.7752 32.4816C31.7752 31.4305 32.8264 31.5356 33.5622 31.5356C41.2355 31.5356 48.9089 31.5356 56.5822 31.5356C57.4231 31.5356 58.5794 31.3254 58.5794 32.5867C58.5794 34.0583 57.2129 33.6379 56.372 33.6379C52.693 33.6379 49.014 33.6379 45.2299 33.6379Z" fill="#285FCD"/>
<path d="M2.1333 34.1613C2.1333 26.1726 2.1333 18.184 2.1333 10.3004C2.1333 6.93672 2.76399 6.30604 6.12765 6.30604C9.17596 6.30604 12.2243 6.41115 15.2726 6.30604C17.2698 6.20092 18.8465 6.83161 19.8976 8.61855C21.159 10.826 22.9459 11.6669 25.5738 11.5618C37.8722 11.4566 50.0654 11.4566 62.3638 11.5618C66.5684 11.5618 68.8809 13.664 69.4065 17.4482C69.6167 19.2351 69.4065 20.076 67.1991 20.076C51.7473 19.9709 36.4006 20.1811 20.9488 19.9709C14.8521 19.8658 10.2271 23.4397 10.4373 30.3772C10.8578 39.8375 10.5424 49.4029 10.5424 58.9683C10.5424 62.1217 9.07085 64.1189 6.65322 64.1189C3.81513 64.1189 2.1333 62.2269 2.1333 58.8632C2.1333 50.5592 2.1333 42.3603 2.1333 34.1613Z" fill="#E6EEF8"/>
<path d="M53.8494 70.3219C51.3266 70.7424 50.2755 69.9015 50.4857 67.3787C50.5908 65.802 51.3267 63.8048 48.2783 63.91C47.2272 63.91 47.2272 62.7537 47.963 61.9128C49.4346 60.1258 50.9062 58.3389 52.4829 56.5519C53.2187 55.711 53.9545 55.3957 54.7954 56.4468C56.267 58.3389 57.7386 60.0207 59.3153 61.9128C60.1563 62.8588 60.0511 64.0151 58.7898 64.0151C56.0568 63.91 56.7926 65.802 56.7926 67.1685C56.8977 69.3759 56.5824 71.0577 53.8494 70.3219Z" fill="#FDFEFE"/>
<path d="M10.3317 11.5619C9.28056 11.0364 6.75781 12.6131 6.75781 10.4057C6.75781 8.61873 9.17544 9.77499 10.5419 9.45965C11.3828 9.24942 12.2238 9.45965 13.1698 9.45965C13.9056 9.45965 14.6414 9.56476 14.6414 10.5108C14.6414 11.4568 13.9056 11.5619 13.1698 11.5619C12.2238 11.5619 11.3828 11.5619 10.3317 11.5619Z" fill="#2A60CE"/>
</g>
<defs>
<clipPath id="clip0_96_10113">
<rect width="80.938" height="84.0915" fill="white" transform="translate(0.0307617)"/>
</clipPath>
</defs>
</svg>
