<svg width="1092" height="227" viewBox="0 0 1092 227" fill="none" xmlns="http://www.w3.org/2000/svg">
<g clip-path="url(#clip0_96_5940)">
<rect width="1092" height="227" fill="#D9E1FF"/>
<circle cx="946.656" cy="113.5" r="321.458" fill="#4747FF"/>
<path d="M43.201 65.072V88.208H40.065V65.072H43.201ZM50.1322 88.208H47.1242V72.56H49.8442L50.1642 74.96C51.1562 73.168 53.1402 72.112 55.3482 72.112C59.4762 72.112 61.3642 74.64 61.3642 78.64V88.208H58.3562V79.312C58.3562 76.144 56.8842 74.864 54.5802 74.864C51.7642 74.864 50.1322 76.88 50.1322 79.92V88.208ZM68.642 88.208L62.338 72.56H65.538L68.962 81.296C69.506 82.768 69.954 84.08 70.21 85.04C70.466 84.016 70.978 82.672 71.522 81.296L75.01 72.56H78.146L71.618 88.208H68.642ZM77.8365 80.368C77.8365 75.536 81.2925 72.144 85.9965 72.144C90.6685 72.144 94.1245 75.536 94.1245 80.368C94.1245 85.2 90.6685 88.592 85.9965 88.592C81.2925 88.592 77.8365 85.2 77.8365 80.368ZM80.8765 80.368C80.8765 83.632 82.9565 85.904 85.9965 85.904C89.0045 85.904 91.1165 83.632 91.1165 80.368C91.1165 77.104 89.0045 74.832 85.9965 74.832C82.9565 74.832 80.8765 77.104 80.8765 80.368ZM97.9662 68.848C96.8782 68.848 95.9822 67.952 95.9822 66.864C95.9822 65.744 96.8782 64.88 97.9662 64.88C99.0542 64.88 99.9502 65.744 99.9502 66.864C99.9502 67.952 99.0542 68.848 97.9662 68.848ZM96.4942 88.208V72.56H99.5022V88.208H96.4942ZM101.885 80.4C101.885 75.504 104.989 72.112 109.565 72.112C113.501 72.112 116.253 74.352 116.797 77.84H113.789C113.277 75.856 111.677 74.8 109.661 74.8C106.813 74.8 104.861 76.976 104.861 80.368C104.861 83.728 106.685 85.904 109.533 85.904C111.677 85.904 113.277 84.784 113.821 82.928H116.829C116.221 86.32 113.309 88.592 109.533 88.592C104.925 88.592 101.885 85.328 101.885 80.4ZM125.795 88.592C121.187 88.592 118.019 85.264 118.019 80.4C118.019 75.504 121.123 72.112 125.667 72.112C130.115 72.112 133.027 75.184 133.027 79.824V80.944L120.931 80.976C121.155 84.272 122.883 86.096 125.859 86.096C128.195 86.096 129.731 85.136 130.243 83.344H133.059C132.291 86.704 129.667 88.592 125.795 88.592ZM125.667 74.64C123.043 74.64 121.379 76.208 120.995 78.96H130.019C130.019 76.368 128.323 74.64 125.667 74.64ZM153.329 88.56C146.737 88.56 142.353 83.824 142.353 76.656C142.353 69.52 146.865 64.688 153.489 64.688C158.705 64.688 162.705 67.792 163.569 72.528H160.209C159.345 69.52 156.753 67.696 153.393 67.696C148.721 67.696 145.649 71.216 145.649 76.624C145.649 82.032 148.721 85.552 153.393 85.552C156.785 85.552 159.473 83.728 160.337 80.88H163.665C162.673 85.488 158.545 88.56 153.329 88.56ZM172.79 88.592C168.182 88.592 165.014 85.264 165.014 80.4C165.014 75.504 168.118 72.112 172.662 72.112C177.11 72.112 180.022 75.184 180.022 79.824V80.944L167.926 80.976C168.15 84.272 169.878 86.096 172.854 86.096C175.19 86.096 176.726 85.136 177.238 83.344H180.054C179.286 86.704 176.662 88.592 172.79 88.592ZM172.662 74.64C170.038 74.64 168.374 76.208 167.99 78.96H177.014C177.014 76.368 175.318 74.64 172.662 74.64ZM185.43 88.208H182.422V72.56H185.142L185.462 74.96C186.454 73.168 188.438 72.112 190.646 72.112C194.774 72.112 196.662 74.64 196.662 78.64V88.208H193.654V79.312C193.654 76.144 192.182 74.864 189.878 74.864C187.062 74.864 185.43 76.88 185.43 79.92V88.208ZM204.284 88.208H201.276V75.088H198.204V72.56H201.276V67.664H204.284V72.56H207.356V75.088H204.284V88.208ZM218.055 72.432V75.184H216.711C213.863 75.184 212.103 76.912 212.103 79.92V88.208H209.095V72.592H211.911L212.103 74.96C212.743 73.328 214.311 72.24 216.455 72.24C216.999 72.24 217.447 72.304 218.055 72.432ZM226.106 88.592C221.498 88.592 218.33 85.264 218.33 80.4C218.33 75.504 221.434 72.112 225.978 72.112C230.426 72.112 233.338 75.184 233.338 79.824V80.944L221.242 80.976C221.466 84.272 223.194 86.096 226.17 86.096C228.506 86.096 230.042 85.136 230.554 83.344H233.37C232.602 86.704 229.978 88.592 226.106 88.592ZM225.978 74.64C223.354 74.64 221.69 76.208 221.306 78.96H230.33C230.33 76.368 228.634 74.64 225.978 74.64Z" fill="#0E0E0E"/>
<path d="M43.7073 126.617H42.4293V113.729H43.7073L48.4053 125.087L53.1033 113.729H54.3993V126.617H53.1213V120.497C53.1213 118.247 53.1573 117.257 53.2293 116.375L49.0353 126.617H47.7933L43.5993 116.429C43.6713 116.915 43.7073 118.337 43.7073 120.299V126.617ZM60.3729 126.833C57.8169 126.833 56.1069 124.997 56.1069 122.261C56.1069 119.543 57.7989 117.671 60.2829 117.671C62.6409 117.671 64.2429 119.345 64.2429 121.811V122.423H57.3129C57.4029 124.547 58.5189 125.771 60.3909 125.771C61.8129 125.771 62.7309 125.159 63.0549 124.007H64.2429C63.7749 125.843 62.4249 126.833 60.3729 126.833ZM60.2829 118.733C58.6449 118.733 57.5649 119.813 57.3489 121.523H63.0009C63.0009 119.849 61.9209 118.733 60.2829 118.733ZM68.1028 126.833C66.2488 126.833 65.1508 125.789 65.1508 124.259C65.1508 122.657 66.3748 121.649 68.4088 121.487L71.2888 121.253V120.965C71.2888 119.255 70.2628 118.715 68.9848 118.715C67.4728 118.715 66.5728 119.399 66.5728 120.569H65.4388C65.4388 118.805 66.8788 117.671 69.0208 117.671C71.0368 117.671 72.5128 118.679 72.5128 120.983V126.617H71.4688L71.3068 125.087C70.7668 126.185 69.5788 126.833 68.1028 126.833ZM68.3908 125.825C70.2268 125.825 71.2888 124.547 71.2888 122.657V122.189L68.7148 122.387C67.0768 122.531 66.4108 123.251 66.4108 124.223C66.4108 125.285 67.2028 125.825 68.3908 125.825ZM73.7271 124.169H74.9151C74.9151 125.177 75.6711 125.807 76.8951 125.807C78.2451 125.807 79.0371 125.231 79.0371 124.295C79.0371 123.575 78.6771 123.161 77.6511 122.909L76.1571 122.531C74.6451 122.153 73.9071 121.361 73.9071 120.173C73.9071 118.643 75.1851 117.671 77.0571 117.671C78.8931 117.671 80.0811 118.679 80.1351 120.299H78.9291C78.8931 119.291 78.1911 118.697 77.0211 118.697C75.7971 118.697 75.1131 119.219 75.1131 120.155C75.1131 120.821 75.5811 121.289 76.5351 121.523L78.0291 121.901C79.5411 122.279 80.2251 122.981 80.2251 124.241C80.2251 125.807 78.8931 126.833 76.9131 126.833C74.9511 126.833 73.7271 125.789 73.7271 124.169ZM87.8498 117.905H89.0918V126.617H88.0118L87.8498 125.141C87.3638 126.149 86.1578 126.833 84.7898 126.833C82.7378 126.833 81.6218 125.429 81.6218 123.305V117.887H82.8818V122.909C82.8818 124.979 83.7998 125.717 85.1858 125.717C86.8598 125.717 87.8498 124.601 87.8498 122.531V117.905ZM95.693 117.797V118.913H95.009C93.407 118.913 92.381 119.993 92.381 121.649V126.617H91.139V117.905H92.309L92.399 119.255C92.741 118.319 93.659 117.707 94.883 117.707C95.153 117.707 95.387 117.725 95.693 117.797ZM100.124 126.833C97.5681 126.833 95.8581 124.997 95.8581 122.261C95.8581 119.543 97.5501 117.671 100.034 117.671C102.392 117.671 103.994 119.345 103.994 121.811V122.423H97.0641C97.1541 124.547 98.2701 125.771 100.142 125.771C101.564 125.771 102.482 125.159 102.806 124.007H103.994C103.526 125.843 102.176 126.833 100.124 126.833ZM100.034 118.733C98.3961 118.733 97.3161 119.813 97.1001 121.523H102.752C102.752 119.849 101.672 118.733 100.034 118.733ZM113.15 121.235L108.776 113.729H110.234L113.42 119.291C113.564 119.561 113.672 119.777 113.798 120.065C113.96 119.741 113.96 119.741 114.194 119.291L117.344 113.729H118.766L114.446 121.235V126.617H113.15V121.235ZM117.406 122.261C117.406 119.597 119.278 117.671 121.834 117.671C124.39 117.671 126.262 119.597 126.262 122.261C126.262 124.907 124.39 126.833 121.834 126.833C119.278 126.833 117.406 124.907 117.406 122.261ZM118.666 122.243C118.666 124.295 119.962 125.717 121.834 125.717C123.688 125.717 125.002 124.295 125.002 122.243C125.002 120.227 123.688 118.787 121.834 118.787C119.962 118.787 118.666 120.227 118.666 122.243ZM133.618 117.905H134.86V126.617H133.78L133.618 125.141C133.132 126.149 131.926 126.833 130.558 126.833C128.506 126.833 127.39 125.429 127.39 123.305V117.887H128.65V122.909C128.65 124.979 129.568 125.717 130.954 125.717C132.628 125.717 133.618 124.601 133.618 122.531V117.905ZM141.461 117.797V118.913H140.777C139.175 118.913 138.149 119.993 138.149 121.649V126.617H136.907V117.905H138.077L138.167 119.255C138.509 118.319 139.427 117.707 140.651 117.707C140.921 117.707 141.155 117.725 141.461 117.797ZM152.55 126.815C148.95 126.815 146.502 124.133 146.502 120.173C146.502 116.213 148.986 113.513 152.622 113.513C155.394 113.513 157.572 115.187 158.094 117.743H156.708C156.168 115.889 154.584 114.755 152.568 114.755C149.742 114.755 147.852 116.915 147.852 120.173C147.852 123.413 149.742 125.573 152.568 125.573C154.602 125.573 156.222 124.475 156.78 122.747H158.166C157.572 125.177 155.322 126.815 152.55 126.815ZM161.924 126.833C160.07 126.833 158.972 125.789 158.972 124.259C158.972 122.657 160.196 121.649 162.23 121.487L165.11 121.253V120.965C165.11 119.255 164.084 118.715 162.806 118.715C161.294 118.715 160.394 119.399 160.394 120.569H159.26C159.26 118.805 160.7 117.671 162.842 117.671C164.858 117.671 166.334 118.679 166.334 120.983V126.617H165.29L165.128 125.087C164.588 126.185 163.4 126.833 161.924 126.833ZM162.212 125.825C164.048 125.825 165.11 124.547 165.11 122.657V122.189L162.536 122.387C160.898 122.531 160.232 123.251 160.232 124.223C160.232 125.285 161.024 125.825 162.212 125.825ZM172.84 117.797V118.913H172.156C170.554 118.913 169.528 119.993 169.528 121.649V126.617H168.286V117.905H169.456L169.546 119.255C169.888 118.319 170.806 117.707 172.03 117.707C172.3 117.707 172.534 117.725 172.84 117.797ZM175.031 126.617H173.951V113.495H175.193V119.597C175.805 118.319 176.993 117.671 178.469 117.671C181.007 117.671 182.483 119.651 182.483 122.279C182.483 124.889 180.971 126.833 178.433 126.833C176.975 126.833 175.769 126.185 175.157 124.835L175.031 126.617ZM175.211 122.243C175.211 124.259 176.327 125.699 178.235 125.699C180.125 125.699 181.223 124.259 181.223 122.243C181.223 120.245 180.125 118.787 178.235 118.787C176.327 118.787 175.211 120.245 175.211 122.243ZM183.311 122.261C183.311 119.597 185.183 117.671 187.739 117.671C190.295 117.671 192.167 119.597 192.167 122.261C192.167 124.907 190.295 126.833 187.739 126.833C185.183 126.833 183.311 124.907 183.311 122.261ZM184.571 122.243C184.571 124.295 185.867 125.717 187.739 125.717C189.593 125.717 190.907 124.295 190.907 122.243C190.907 120.227 189.593 118.787 187.739 118.787C185.867 118.787 184.571 120.227 184.571 122.243ZM194.855 126.617H193.613V117.905H194.693L194.873 119.417C195.449 118.301 196.601 117.671 197.861 117.671C200.255 117.671 201.245 119.093 201.245 121.289V126.617H200.003V121.559C200.003 119.525 199.085 118.805 197.645 118.805C195.863 118.805 194.855 120.101 194.855 122.063V126.617ZM214.473 120.947H209.199V126.617H207.903V113.729H215.499V114.917H209.199V119.777H214.473V120.947ZM215.569 122.261C215.569 119.597 217.441 117.671 219.997 117.671C222.553 117.671 224.425 119.597 224.425 122.261C224.425 124.907 222.553 126.833 219.997 126.833C217.441 126.833 215.569 124.907 215.569 122.261ZM216.829 122.243C216.829 124.295 218.125 125.717 219.997 125.717C221.851 125.717 223.165 124.295 223.165 122.243C223.165 120.227 221.851 118.787 219.997 118.787C218.125 118.787 216.829 120.227 216.829 122.243ZM225.259 122.261C225.259 119.597 227.131 117.671 229.687 117.671C232.243 117.671 234.115 119.597 234.115 122.261C234.115 124.907 232.243 126.833 229.687 126.833C227.131 126.833 225.259 124.907 225.259 122.261ZM226.519 122.243C226.519 124.295 227.815 125.717 229.687 125.717C231.541 125.717 232.855 124.295 232.855 122.243C232.855 120.227 231.541 118.787 229.687 118.787C227.815 118.787 226.519 120.227 226.519 122.243ZM237.472 126.617H236.248V118.949H234.502V117.905H236.248V115.151H237.472V117.905H239.218V118.949H237.472V126.617ZM240.295 130.415V117.905H241.375L241.501 119.669C242.113 118.319 243.337 117.671 244.795 117.671C247.315 117.671 248.827 119.597 248.827 122.225C248.827 124.853 247.369 126.833 244.795 126.833C243.319 126.833 242.149 126.203 241.537 124.943V130.415H240.295ZM241.555 122.261C241.555 124.259 242.671 125.717 244.579 125.717C246.469 125.717 247.567 124.259 247.567 122.261C247.567 120.245 246.469 118.805 244.579 118.805C242.671 118.805 241.555 120.245 241.555 122.261ZM254.821 117.797V118.913H254.137C252.535 118.913 251.509 119.993 251.509 121.649V126.617H250.267V117.905H251.437L251.527 119.255C251.869 118.319 252.787 117.707 254.011 117.707C254.281 117.707 254.515 117.725 254.821 117.797ZM256.544 115.511C256.04 115.511 255.626 115.097 255.626 114.593C255.626 114.089 256.04 113.657 256.544 113.657C257.048 113.657 257.48 114.089 257.48 114.593C257.48 115.097 257.048 115.511 256.544 115.511ZM255.932 126.617V117.905H257.174V126.617H255.932ZM260.466 126.617H259.224V117.905H260.304L260.484 119.417C261.06 118.301 262.212 117.671 263.472 117.671C265.866 117.671 266.856 119.093 266.856 121.289V126.617H265.614V121.559C265.614 119.525 264.696 118.805 263.256 118.805C261.474 118.805 260.466 120.101 260.466 122.063V126.617ZM270.789 126.617H269.565V118.949H267.819V117.905H269.565V115.151H270.789V117.905H272.535V118.949H270.789V126.617ZM274.855 119.921C274.243 119.921 273.721 119.399 273.721 118.805C273.721 118.193 274.243 117.689 274.855 117.689C275.467 117.689 275.989 118.193 275.989 118.805C275.989 119.399 275.467 119.921 274.855 119.921ZM274.855 126.815C274.243 126.815 273.721 126.311 273.721 125.717C273.721 125.105 274.243 124.583 274.855 124.583C275.467 124.583 275.989 125.105 275.989 125.717C275.989 126.311 275.467 126.815 274.855 126.815ZM282.785 122.135V113.729H284.081V122.081C284.081 124.349 285.323 125.573 287.573 125.573C289.769 125.573 291.011 124.313 291.011 122.081V113.729H292.307V122.135C292.307 125.051 290.507 126.833 287.573 126.833C284.585 126.833 282.785 125.069 282.785 122.135ZM294.545 130.415V117.905H295.625L295.751 119.669C296.363 118.319 297.587 117.671 299.045 117.671C301.565 117.671 303.077 119.597 303.077 122.225C303.077 124.853 301.619 126.833 299.045 126.833C297.569 126.833 296.399 126.203 295.787 124.943V130.415H294.545ZM295.805 122.261C295.805 124.259 296.921 125.717 298.829 125.717C300.719 125.717 301.817 124.259 301.817 122.261C301.817 120.245 300.719 118.805 298.829 118.805C296.921 118.805 295.805 120.245 295.805 122.261ZM305.813 126.617H304.571V113.495H305.813V126.617ZM307.302 122.261C307.302 119.597 309.174 117.671 311.73 117.671C314.287 117.671 316.159 119.597 316.159 122.261C316.159 124.907 314.287 126.833 311.73 126.833C309.174 126.833 307.302 124.907 307.302 122.261ZM308.562 122.243C308.562 124.295 309.858 125.717 311.73 125.717C313.585 125.717 314.898 124.295 314.898 122.243C314.898 120.227 313.585 118.787 311.73 118.787C309.858 118.787 308.562 120.227 308.562 122.243ZM320.107 126.833C318.253 126.833 317.155 125.789 317.155 124.259C317.155 122.657 318.379 121.649 320.413 121.487L323.293 121.253V120.965C323.293 119.255 322.267 118.715 320.989 118.715C319.477 118.715 318.577 119.399 318.577 120.569H317.443C317.443 118.805 318.883 117.671 321.025 117.671C323.041 117.671 324.517 118.679 324.517 120.983V126.617H323.473L323.311 125.087C322.771 126.185 321.583 126.833 320.107 126.833ZM320.395 125.825C322.231 125.825 323.293 124.547 323.293 122.657V122.189L320.719 122.387C319.081 122.531 318.415 123.251 318.415 124.223C318.415 125.285 319.207 125.825 320.395 125.825ZM329.889 126.833C327.351 126.833 325.857 124.889 325.857 122.279C325.857 119.651 327.351 117.671 329.943 117.671C331.383 117.671 332.535 118.301 333.147 119.561V113.495H334.389V126.617H333.309L333.183 124.835C332.571 126.185 331.347 126.833 329.889 126.833ZM330.105 125.699C332.013 125.699 333.129 124.259 333.129 122.243C333.129 120.245 332.013 118.787 330.105 118.787C328.215 118.787 327.117 120.245 327.117 122.243C327.117 124.259 328.215 125.699 330.105 125.699ZM342.459 113.729V126.617H341.163V113.729H342.459ZM346.025 126.617H344.783V117.905H345.863L346.043 119.417C346.619 118.301 347.771 117.671 349.031 117.671C351.425 117.671 352.415 119.093 352.415 121.289V126.617H351.173V121.559C351.173 119.525 350.255 118.805 348.815 118.805C347.033 118.805 346.025 120.101 346.025 122.063V126.617ZM356.605 126.617L353.041 117.905H354.373L356.623 123.521C356.857 124.151 357.091 124.745 357.253 125.321C357.415 124.727 357.649 124.151 357.901 123.521L360.187 117.905H361.465L357.847 126.617H356.605ZM361.39 122.261C361.39 119.597 363.262 117.671 365.818 117.671C368.374 117.671 370.246 119.597 370.246 122.261C370.246 124.907 368.374 126.833 365.818 126.833C363.262 126.833 361.39 124.907 361.39 122.261ZM362.65 122.243C362.65 124.295 363.946 125.717 365.818 125.717C367.672 125.717 368.986 124.295 368.986 122.243C368.986 120.227 367.672 118.787 365.818 118.787C363.946 118.787 362.65 120.227 362.65 122.243ZM372.304 115.511C371.8 115.511 371.386 115.097 371.386 114.593C371.386 114.089 371.8 113.657 372.304 113.657C372.808 113.657 373.24 114.089 373.24 114.593C373.24 115.097 372.808 115.511 372.304 115.511ZM371.692 126.617V117.905H372.934V126.617H371.692ZM374.372 122.279C374.372 119.543 376.046 117.671 378.584 117.671C380.6 117.671 382.076 118.841 382.418 120.641H381.176C380.852 119.435 379.808 118.769 378.602 118.769C376.838 118.769 375.596 120.119 375.596 122.261C375.596 124.331 376.748 125.717 378.512 125.717C379.808 125.717 380.852 124.997 381.194 123.881H382.454C382.04 125.663 380.492 126.833 378.512 126.833C376.046 126.833 374.372 125.015 374.372 122.279ZM387.45 126.833C384.894 126.833 383.184 124.997 383.184 122.261C383.184 119.543 384.876 117.671 387.36 117.671C389.718 117.671 391.32 119.345 391.32 121.811V122.423H384.39C384.48 124.547 385.596 125.771 387.468 125.771C388.89 125.771 389.808 125.159 390.132 124.007H391.32C390.852 125.843 389.502 126.833 387.45 126.833ZM387.36 118.733C385.722 118.733 384.642 119.813 384.426 121.523H390.078C390.078 119.849 388.998 118.733 387.36 118.733ZM392.028 124.169H393.216C393.216 125.177 393.972 125.807 395.196 125.807C396.546 125.807 397.338 125.231 397.338 124.295C397.338 123.575 396.978 123.161 395.952 122.909L394.458 122.531C392.946 122.153 392.208 121.361 392.208 120.173C392.208 118.643 393.486 117.671 395.358 117.671C397.194 117.671 398.382 118.679 398.436 120.299H397.23C397.194 119.291 396.492 118.697 395.322 118.697C394.098 118.697 393.414 119.219 393.414 120.155C393.414 120.821 393.882 121.289 394.836 121.523L396.33 121.901C397.842 122.279 398.526 122.981 398.526 124.241C398.526 125.807 397.194 126.833 395.214 126.833C393.252 126.833 392.028 125.789 392.028 124.169ZM406.984 126.833C405.13 126.833 404.032 125.789 404.032 124.259C404.032 122.657 405.256 121.649 407.29 121.487L410.17 121.253V120.965C410.17 119.255 409.144 118.715 407.866 118.715C406.354 118.715 405.454 119.399 405.454 120.569H404.32C404.32 118.805 405.76 117.671 407.902 117.671C409.918 117.671 411.394 118.679 411.394 120.983V126.617H410.35L410.188 125.087C409.648 126.185 408.46 126.833 406.984 126.833ZM407.272 125.825C409.108 125.825 410.17 124.547 410.17 122.657V122.189L407.596 122.387C405.958 122.531 405.292 123.251 405.292 124.223C405.292 125.285 406.084 125.825 407.272 125.825ZM414.589 126.617H413.347V117.905H414.427L414.607 119.417C415.183 118.301 416.335 117.671 417.595 117.671C419.989 117.671 420.979 119.093 420.979 121.289V126.617H419.737V121.559C419.737 119.525 418.819 118.805 417.379 118.805C415.597 118.805 414.589 120.101 414.589 122.063V126.617ZM426.334 126.833C423.796 126.833 422.302 124.889 422.302 122.279C422.302 119.651 423.796 117.671 426.388 117.671C427.828 117.671 428.98 118.301 429.592 119.561V113.495H430.834V126.617H429.754L429.628 124.835C429.016 126.185 427.792 126.833 426.334 126.833ZM426.55 125.699C428.458 125.699 429.574 124.259 429.574 122.243C429.574 120.245 428.458 118.787 426.55 118.787C424.66 118.787 423.562 120.245 423.562 122.243C423.562 124.259 424.66 125.699 426.55 125.699ZM50.1513 154.617H42.4293V141.729H50.1333V142.917H43.7253V147.561H49.5393V148.731H43.7253V153.429H50.1513V154.617ZM53.2148 154.617H51.9728V145.905H53.0528L53.2328 147.417C53.8088 146.301 54.9608 145.671 56.2208 145.671C58.6148 145.671 59.6048 147.093 59.6048 149.289V154.617H58.3628V149.559C58.3628 147.525 57.4448 146.805 56.0048 146.805C54.2228 146.805 53.2148 148.101 53.2148 150.063V154.617ZM62.7822 154.599H61.5402V141.495H62.7822V147.417C63.3402 146.373 64.4022 145.671 65.8602 145.671C68.1462 145.671 69.1722 147.093 69.1722 149.289V154.617H67.9302V149.559C67.9302 147.525 66.9762 146.805 65.6262 146.805C63.7542 146.805 62.7822 148.191 62.7822 149.865V154.599ZM73.6096 154.833C71.7556 154.833 70.6576 153.789 70.6576 152.259C70.6576 150.657 71.8816 149.649 73.9156 149.487L76.7956 149.253V148.965C76.7956 147.255 75.7696 146.715 74.4916 146.715C72.9796 146.715 72.0796 147.399 72.0796 148.569H70.9456C70.9456 146.805 72.3856 145.671 74.5276 145.671C76.5436 145.671 78.0196 146.679 78.0196 148.983V154.617H76.9756L76.8136 153.087C76.2736 154.185 75.0856 154.833 73.6096 154.833ZM73.8976 153.825C75.7336 153.825 76.7956 152.547 76.7956 150.657V150.189L74.2216 150.387C72.5836 150.531 71.9176 151.251 71.9176 152.223C71.9176 153.285 72.7096 153.825 73.8976 153.825ZM81.2139 154.617H79.9719V145.905H81.0519L81.2319 147.417C81.8079 146.301 82.9599 145.671 84.2199 145.671C86.6139 145.671 87.6039 147.093 87.6039 149.289V154.617H86.3619V149.559C86.3619 147.525 85.4439 146.805 84.0039 146.805C82.2219 146.805 81.2139 148.101 81.2139 150.063V154.617ZM88.9274 150.279C88.9274 147.543 90.6014 145.671 93.1394 145.671C95.1554 145.671 96.6314 146.841 96.9734 148.641H95.7314C95.4074 147.435 94.3634 146.769 93.1574 146.769C91.3934 146.769 90.1514 148.119 90.1514 150.261C90.1514 152.331 91.3034 153.717 93.0674 153.717C94.3634 153.717 95.4074 152.997 95.7494 151.881H97.0094C96.5954 153.663 95.0474 154.833 93.0674 154.833C90.6014 154.833 88.9274 153.015 88.9274 150.279ZM102.005 154.833C99.4489 154.833 97.7389 152.997 97.7389 150.261C97.7389 147.543 99.4309 145.671 101.915 145.671C104.273 145.671 105.875 147.345 105.875 149.811V150.423H98.9449C99.0349 152.547 100.151 153.771 102.023 153.771C103.445 153.771 104.363 153.159 104.687 152.007H105.875C105.407 153.843 104.057 154.833 102.005 154.833ZM101.915 146.733C100.277 146.733 99.1969 147.813 98.9809 149.523H104.633C104.633 147.849 103.553 146.733 101.915 146.733ZM113.339 141.729V154.617H112.043V141.729H113.339ZM116.905 154.617H115.663V145.905H116.743L116.887 147.147C117.319 146.229 118.291 145.671 119.515 145.671C120.883 145.671 121.909 146.391 122.323 147.525C122.719 146.391 123.781 145.671 125.185 145.671C127.075 145.671 128.317 146.895 128.317 148.911V154.617H127.111V149.163C127.111 147.669 126.283 146.787 124.951 146.787C123.493 146.787 122.629 147.885 122.629 149.235V154.617H121.405V149.145C121.405 147.669 120.559 146.805 119.245 146.805C117.787 146.805 116.905 147.885 116.905 149.217V154.617ZM130.275 158.415V145.905H131.355L131.481 147.669C132.093 146.319 133.317 145.671 134.775 145.671C137.295 145.671 138.807 147.597 138.807 150.225C138.807 152.853 137.349 154.833 134.775 154.833C133.299 154.833 132.129 154.203 131.517 152.943V158.415H130.275ZM131.535 150.261C131.535 152.259 132.651 153.717 134.559 153.717C136.449 153.717 137.547 152.259 137.547 150.261C137.547 148.245 136.449 146.805 134.559 146.805C132.651 146.805 131.535 148.245 131.535 150.261ZM142.749 154.833C140.895 154.833 139.797 153.789 139.797 152.259C139.797 150.657 141.021 149.649 143.055 149.487L145.935 149.253V148.965C145.935 147.255 144.909 146.715 143.631 146.715C142.119 146.715 141.219 147.399 141.219 148.569H140.085C140.085 146.805 141.525 145.671 143.667 145.671C145.683 145.671 147.159 146.679 147.159 148.983V154.617H146.115L145.953 153.087C145.413 154.185 144.225 154.833 142.749 154.833ZM143.037 153.825C144.873 153.825 145.935 152.547 145.935 150.657V150.189L143.361 150.387C141.723 150.531 141.057 151.251 141.057 152.223C141.057 153.285 141.849 153.825 143.037 153.825ZM148.499 150.279C148.499 147.543 150.173 145.671 152.711 145.671C154.727 145.671 156.203 146.841 156.545 148.641H155.303C154.979 147.435 153.935 146.769 152.729 146.769C150.965 146.769 149.723 148.119 149.723 150.261C149.723 152.331 150.875 153.717 152.639 153.717C153.935 153.717 154.979 152.997 155.321 151.881H156.581C156.167 153.663 154.619 154.833 152.639 154.833C150.173 154.833 148.499 153.015 148.499 150.279ZM159.92 154.617H158.696V146.949H156.95V145.905H158.696V143.151H159.92V145.905H161.666V146.949H159.92V154.617ZM169.032 154.617L166.152 145.905H167.43L169.14 151.161C169.338 151.737 169.5 152.331 169.68 153.033C169.824 152.331 170.112 151.449 170.202 151.161L171.93 145.905H173.208L174.918 151.161C175.08 151.629 175.296 152.385 175.458 153.033C175.638 152.313 175.674 152.097 175.98 151.161L177.708 145.905H179.004L176.052 154.617H174.846L173.046 149.145C172.83 148.497 172.686 147.957 172.578 147.435C172.452 147.903 172.308 148.425 172.074 149.145L170.274 154.617H169.032ZM180.627 143.511C180.123 143.511 179.709 143.097 179.709 142.593C179.709 142.089 180.123 141.657 180.627 141.657C181.131 141.657 181.563 142.089 181.563 142.593C181.563 143.097 181.131 143.511 180.627 143.511ZM180.015 154.617V145.905H181.257V154.617H180.015ZM185.305 154.617H184.081V146.949H182.335V145.905H184.081V143.151H185.305V145.905H187.051V146.949H185.305V154.617ZM189.371 154.599H188.129V141.495H189.371V147.417C189.929 146.373 190.991 145.671 192.449 145.671C194.735 145.671 195.761 147.093 195.761 149.289V154.617H194.519V149.559C194.519 147.525 193.565 146.805 192.215 146.805C190.343 146.805 189.371 148.191 189.371 149.865V154.599ZM201.644 145.077C201.644 142.917 203.372 141.495 205.964 141.495C208.286 141.495 209.816 142.791 210.014 144.951H208.7C208.556 143.493 207.566 142.665 205.946 142.665C204.128 142.665 202.94 143.601 202.94 145.059C202.94 146.193 203.606 146.913 204.956 147.255L207.17 147.795C209.186 148.281 210.23 149.433 210.23 151.179C210.23 153.411 208.502 154.833 205.838 154.833C203.336 154.833 201.644 153.519 201.482 151.413H202.814C202.886 152.763 204.074 153.645 205.838 153.645C207.728 153.645 208.934 152.727 208.934 151.251C208.934 150.099 208.286 149.343 206.9 149.019L204.722 148.479C202.706 147.993 201.644 146.841 201.644 145.077ZM217.871 145.905H219.113V154.617H218.033L217.871 153.141C217.385 154.149 216.179 154.833 214.811 154.833C212.759 154.833 211.643 153.429 211.643 151.305V145.887H212.903V150.909C212.903 152.979 213.821 153.717 215.207 153.717C216.881 153.717 217.871 152.601 217.871 150.531V145.905ZM220.246 152.169H221.434C221.434 153.177 222.19 153.807 223.414 153.807C224.764 153.807 225.556 153.231 225.556 152.295C225.556 151.575 225.196 151.161 224.17 150.909L222.676 150.531C221.164 150.153 220.426 149.361 220.426 148.173C220.426 146.643 221.704 145.671 223.576 145.671C225.412 145.671 226.6 146.679 226.654 148.299H225.448C225.412 147.291 224.71 146.697 223.54 146.697C222.316 146.697 221.632 147.219 221.632 148.155C221.632 148.821 222.1 149.289 223.054 149.523L224.548 149.901C226.06 150.279 226.744 150.981 226.744 152.241C226.744 153.807 225.412 154.833 223.432 154.833C221.47 154.833 220.246 153.789 220.246 152.169ZM230.247 154.617H229.023V146.949H227.277V145.905H229.023V143.151H230.247V145.905H231.993V146.949H230.247V154.617ZM235.432 154.833C233.578 154.833 232.48 153.789 232.48 152.259C232.48 150.657 233.704 149.649 235.738 149.487L238.618 149.253V148.965C238.618 147.255 237.592 146.715 236.314 146.715C234.802 146.715 233.902 147.399 233.902 148.569H232.768C232.768 146.805 234.208 145.671 236.35 145.671C238.366 145.671 239.842 146.679 239.842 148.983V154.617H238.798L238.636 153.087C238.096 154.185 236.908 154.833 235.432 154.833ZM235.72 153.825C237.556 153.825 238.618 152.547 238.618 150.657V150.189L236.044 150.387C234.406 150.531 233.74 151.251 233.74 152.223C233.74 153.285 234.532 153.825 235.72 153.825ZM242.406 143.511C241.902 143.511 241.488 143.097 241.488 142.593C241.488 142.089 241.902 141.657 242.406 141.657C242.91 141.657 243.342 142.089 243.342 142.593C243.342 143.097 242.91 143.511 242.406 143.511ZM241.794 154.617V145.905H243.036V154.617H241.794ZM246.328 154.617H245.086V145.905H246.166L246.346 147.417C246.922 146.301 248.074 145.671 249.334 145.671C251.728 145.671 252.718 147.093 252.718 149.289V154.617H251.476V149.559C251.476 147.525 250.558 146.805 249.118 146.805C247.336 146.805 246.328 148.101 246.328 150.063V154.617ZM257.155 154.833C255.301 154.833 254.203 153.789 254.203 152.259C254.203 150.657 255.427 149.649 257.461 149.487L260.341 149.253V148.965C260.341 147.255 259.315 146.715 258.037 146.715C256.525 146.715 255.625 147.399 255.625 148.569H254.491C254.491 146.805 255.931 145.671 258.073 145.671C260.089 145.671 261.565 146.679 261.565 148.983V154.617H260.521L260.359 153.087C259.819 154.185 258.631 154.833 257.155 154.833ZM257.443 153.825C259.279 153.825 260.341 152.547 260.341 150.657V150.189L257.767 150.387C256.129 150.531 255.463 151.251 255.463 152.223C255.463 153.285 256.255 153.825 257.443 153.825ZM264.598 154.617H263.518V141.495H264.76V147.597C265.372 146.319 266.56 145.671 268.036 145.671C270.574 145.671 272.05 147.651 272.05 150.279C272.05 152.889 270.538 154.833 268 154.833C266.542 154.833 265.336 154.185 264.724 152.835L264.598 154.617ZM264.778 150.243C264.778 152.259 265.894 153.699 267.802 153.699C269.692 153.699 270.79 152.259 270.79 150.243C270.79 148.245 269.692 146.787 267.802 146.787C265.894 146.787 264.778 148.245 264.778 150.243ZM274.102 143.511C273.598 143.511 273.184 143.097 273.184 142.593C273.184 142.089 273.598 141.657 274.102 141.657C274.606 141.657 275.038 142.089 275.038 142.593C275.038 143.097 274.606 143.511 274.102 143.511ZM273.49 154.617V145.905H274.732V154.617H273.49ZM278.078 154.617H276.836V141.495H278.078V154.617ZM280.791 143.511C280.287 143.511 279.873 143.097 279.873 142.593C279.873 142.089 280.287 141.657 280.791 141.657C281.295 141.657 281.727 142.089 281.727 142.593C281.727 143.097 281.295 143.511 280.791 143.511ZM280.179 154.617V145.905H281.421V154.617H280.179ZM285.469 154.617H284.245V146.949H282.499V145.905H284.245V143.151H285.469V145.905H287.215V146.949H285.469V154.617ZM287.41 158.415V157.389H288.364C289.12 157.389 289.876 157.335 290.308 156.165L290.686 155.139L287.158 145.905H288.472L291.28 153.501L294.034 145.905H295.312L291.316 156.615C290.812 157.983 289.966 158.541 288.724 158.541C288.202 158.541 287.806 158.505 287.41 158.415ZM304.871 154.617H300.947V141.729H304.835C308.723 141.729 311.315 144.321 311.315 148.173C311.315 152.025 308.741 154.617 304.871 154.617ZM304.781 142.917H302.243V153.429H304.817C307.967 153.429 309.983 151.377 309.983 148.173C309.983 144.951 307.967 142.917 304.781 142.917ZM315.348 154.833C313.494 154.833 312.396 153.789 312.396 152.259C312.396 150.657 313.62 149.649 315.654 149.487L318.534 149.253V148.965C318.534 147.255 317.508 146.715 316.23 146.715C314.718 146.715 313.818 147.399 313.818 148.569H312.684C312.684 146.805 314.124 145.671 316.266 145.671C318.282 145.671 319.758 146.679 319.758 148.983V154.617H318.714L318.552 153.087C318.012 154.185 316.824 154.833 315.348 154.833ZM315.636 153.825C317.472 153.825 318.534 152.547 318.534 150.657V150.189L315.96 150.387C314.322 150.531 313.656 151.251 313.656 152.223C313.656 153.285 314.448 153.825 315.636 153.825ZM323.55 154.617H322.326V146.949H320.58V145.905H322.326V143.151H323.55V145.905H325.296V146.949H323.55V154.617ZM328.735 154.833C326.881 154.833 325.783 153.789 325.783 152.259C325.783 150.657 327.007 149.649 329.041 149.487L331.921 149.253V148.965C331.921 147.255 330.895 146.715 329.617 146.715C328.105 146.715 327.205 147.399 327.205 148.569H326.071C326.071 146.805 327.511 145.671 329.653 145.671C331.669 145.671 333.145 146.679 333.145 148.983V154.617H332.101L331.939 153.087C331.399 154.185 330.211 154.833 328.735 154.833ZM329.023 153.825C330.859 153.825 331.921 152.547 331.921 150.657V150.189L329.347 150.387C327.709 150.531 327.043 151.251 327.043 152.223C327.043 153.285 327.835 153.825 329.023 153.825ZM336.159 154.815C335.547 154.815 335.025 154.311 335.025 153.717C335.025 153.105 335.547 152.583 336.159 152.583C336.771 152.583 337.293 153.105 337.293 153.717C337.293 154.311 336.771 154.815 336.159 154.815Z" fill="#474747"/>
<g clip-path="url(#clip1_96_5940)">
<path d="M946.728 30.2695H834.23V174.286H946.728V30.2695Z" fill="#EDFAFF"/>
<path d="M946.728 38.3467H834.23V46.7089H946.728V38.3467Z" fill="#263238"/>
<path d="M834.23 46.708H895.625L890.408 55.785H834.23V46.708Z" fill="#263238"/>
<path d="M834.23 36.6309H895.625L893.052 39.9901H834.23V36.6309Z" fill="#7EC1FF"/>
<path d="M834.23 41.5625H867.036L864.463 44.9217H834.23V41.5625Z" fill="#7EC1FF"/>
<path d="M902.558 50.2112C902.558 49.9254 902.773 49.7109 903.058 49.7109C903.344 49.7109 903.559 49.9254 903.559 50.2112V55.2858C903.559 55.5717 903.344 55.7861 903.058 55.7861C902.773 55.7861 902.558 55.5717 902.558 55.2858V50.2112Z" fill="#263238"/>
<path d="M906.06 55.2852C906.06 55.5711 905.846 55.7855 905.632 55.7855C905.346 55.7855 905.131 55.5711 905.131 55.2852V50.2821C905.131 50.1392 905.203 49.9963 905.346 49.8533C905.56 49.7104 905.846 49.7818 905.989 49.9248L908.776 53.7843V50.2821C908.776 50.0677 908.991 49.8533 909.205 49.8533C909.491 49.8533 909.706 50.0677 909.706 50.2821V55.2852C909.706 55.5711 909.491 55.7855 909.205 55.7855C909.062 55.7855 908.919 55.714 908.848 55.6426C908.848 55.6426 908.848 55.6426 908.776 55.5711L906.06 51.7831V55.2852Z" fill="#263238"/>
<path d="M913.708 55.6429C913.636 55.5714 913.636 55.5714 913.565 55.4999C913.565 55.4999 913.565 55.4285 913.493 55.4285L911.421 50.4254C911.349 50.211 911.421 49.9251 911.707 49.7821C911.921 49.7107 912.207 49.7821 912.35 49.9966L913.994 53.999L915.638 49.9966C915.709 49.7821 915.995 49.6392 916.281 49.7821C916.495 49.8536 916.638 50.1395 916.567 50.4254L914.423 55.4285V55.4999C914.423 55.4999 914.423 55.4999 914.351 55.5714C914.351 55.5714 914.351 55.5714 914.28 55.6429C914.28 55.6429 914.208 55.6429 914.208 55.7144H914.137H914.065H913.994H913.922C913.779 55.7144 913.708 55.7144 913.708 55.6429Z" fill="#263238"/>
<path d="M922.57 50.4965C923.071 51.0683 923.428 51.783 923.428 52.6407C923.428 53.4984 923.071 54.2846 922.57 54.7849C922.07 55.3566 921.284 55.714 920.498 55.714C919.64 55.714 918.925 55.3566 918.425 54.7849C917.925 54.2131 917.567 53.4984 917.567 52.6407C917.567 51.783 917.853 51.0683 918.425 50.4965C918.925 49.9247 919.712 49.5674 920.498 49.5674C921.284 49.5674 922.07 49.9247 922.57 50.4965ZM922.428 52.6407C922.428 52.0689 922.213 51.4971 921.856 51.1398C921.498 50.7824 920.998 50.4965 920.498 50.4965C919.926 50.4965 919.497 50.7109 919.14 51.1398C918.782 51.4971 918.568 52.0689 918.568 52.6407C918.568 53.2125 918.782 53.7843 919.14 54.1416C919.497 54.499 919.997 54.7849 920.498 54.7849C920.998 54.7849 921.498 54.5704 921.856 54.1416C922.213 53.7843 922.428 53.2839 922.428 52.6407Z" fill="#263238"/>
<path d="M924.715 50.2112C924.715 49.9254 924.929 49.7109 925.215 49.7109C925.501 49.7109 925.715 49.9254 925.715 50.2112V55.2858C925.715 55.5717 925.501 55.7861 925.215 55.7861C924.929 55.7861 924.715 55.5717 924.715 55.2858V50.2112Z" fill="#263238"/>
<path d="M927.001 52.6407C927.001 50.9254 928.431 49.5674 930.146 49.5674C930.932 49.5674 931.576 49.7818 932.147 50.2106C932.362 50.3536 932.362 50.7109 932.219 50.9254C932.076 51.1398 931.719 51.1398 931.504 50.9968C931.147 50.7109 930.647 50.4965 930.146 50.4965C929.574 50.4965 929.003 50.7109 928.574 51.1398C928.216 51.5686 927.931 52.0689 927.931 52.6407C927.931 53.2125 928.145 53.7843 928.574 54.1416C929.003 54.499 929.503 54.7849 930.146 54.7849C930.647 54.7849 931.147 54.6419 931.504 54.2846C931.719 54.1416 932.005 54.1416 932.219 54.356C932.362 54.5704 932.362 54.8563 932.147 55.0708C931.576 55.4996 930.932 55.714 930.146 55.714C928.431 55.7855 927.073 54.356 927.001 52.6407Z" fill="#263238"/>
<path d="M933.935 55.2858V50.2112C933.935 49.9254 934.149 49.7109 934.435 49.7109H937.222C937.437 49.7109 937.723 49.9254 937.723 50.2112C937.723 50.4971 937.508 50.7115 937.222 50.7115H934.864V52.2839H936.865C937.151 52.2839 937.365 52.4984 937.365 52.7842C937.365 53.0701 937.151 53.2846 936.865 53.2846H934.864V54.8569H937.222C937.437 54.8569 937.723 55.0714 937.723 55.3572C937.723 55.6431 937.508 55.8576 937.222 55.8576H934.435C934.149 55.7861 933.935 55.5717 933.935 55.2858Z" fill="#263238"/>
<path d="M936.436 89.0918H844.522V96.1676H936.436V89.0918Z" fill="white"/>
<path d="M936.436 82.0156H844.522V89.0914H936.436V82.0156Z" fill="#7EC1FF"/>
<path d="M936.436 96.167H844.522V103.243H936.436V96.167Z" fill="#DBDBDB"/>
<path d="M936.436 103.243H844.522V110.319H936.436V103.243Z" fill="white"/>
<path d="M936.436 110.318H844.522V117.394H936.436V110.318Z" fill="#DBDBDB"/>
<path d="M936.436 117.323H844.522V124.399H936.436V117.323Z" fill="white"/>
<path d="M936.436 124.398H844.522V131.474H936.436V124.398Z" fill="#DBDBDB"/>
<path d="M936.364 131.475H872.039V138.55H936.364V131.475Z" fill="#7EC1FF"/>
<path d="M872.111 82.0156H844.522V131.474H872.111V82.0156Z" fill="#C7C7C7"/>
<path d="M844.522 96.1672L890.408 96.0957L936.364 96.1672L890.408 96.2387L844.522 96.1672Z" fill="#263238"/>
<path d="M844.522 103.243L890.408 103.1L936.364 103.243L890.408 103.314L844.522 103.243Z" fill="#263238"/>
<path d="M844.522 110.319L890.408 110.176L936.364 110.319L890.408 110.39L844.522 110.319Z" fill="#263238"/>
<path d="M844.522 117.322L890.408 117.251L936.364 117.322L890.408 117.465L844.522 117.322Z" fill="#263238"/>
<path d="M844.522 124.399L890.408 124.327L936.364 124.399L890.408 124.542L844.522 124.399Z" fill="#263238"/>
<path d="M844.522 131.475L890.408 131.403L936.364 131.475L890.408 131.546L844.522 131.475Z" fill="#263238"/>
<path d="M849.383 85.5883C852.313 85.4453 855.244 85.4453 858.174 85.4453C861.104 85.4453 864.035 85.4453 866.965 85.5883C864.035 85.7312 861.104 85.7312 858.174 85.7312C855.315 85.7312 852.313 85.7312 849.383 85.5883Z" fill="#263238"/>
<path d="M849.383 92.5922C851.598 92.4492 853.814 92.4492 856.03 92.4492C858.245 92.4492 860.461 92.4492 862.677 92.5922C860.461 92.7351 858.245 92.7351 856.03 92.7351C853.886 92.8066 851.598 92.7351 849.383 92.5922Z" fill="#263238"/>
<path d="M849.383 99.6683C852.313 99.5254 855.244 99.5254 858.174 99.5254C861.104 99.5254 864.035 99.5254 866.965 99.6683C864.035 99.8113 861.104 99.8113 858.174 99.8113C855.315 99.8113 852.313 99.8113 849.383 99.6683Z" fill="#263238"/>
<path d="M849.383 106.744C851.813 106.601 854.243 106.601 856.602 106.601C859.032 106.601 861.462 106.601 863.82 106.744C861.39 106.886 858.96 106.886 856.602 106.886C854.243 106.886 851.813 106.886 849.383 106.744Z" fill="#263238"/>
<path d="M849.383 113.82C852.313 113.677 855.244 113.677 858.174 113.677C861.104 113.677 864.035 113.677 866.965 113.82C864.035 113.963 861.104 113.963 858.174 113.963C855.315 113.963 852.313 113.963 849.383 113.82Z" fill="#263238"/>
<path d="M849.383 120.896C852.313 120.753 855.244 120.753 858.174 120.753C861.104 120.753 864.035 120.753 866.965 120.896C864.035 121.039 861.104 121.039 858.174 121.039C855.315 121.039 852.313 121.039 849.383 120.896Z" fill="#263238"/>
<path d="M849.383 127.971C851.17 127.828 852.956 127.828 854.743 127.828C856.53 127.828 858.317 127.9 860.104 127.971C858.317 128.114 856.53 128.114 854.743 128.114C852.956 128.114 851.17 128.114 849.383 127.971Z" fill="#263238"/>
<path d="M878.472 85.5883C880.688 85.4453 882.903 85.4453 885.119 85.4453C887.335 85.4453 889.55 85.4453 891.766 85.5883C889.55 85.7312 887.335 85.7312 885.119 85.7312C882.903 85.7312 880.688 85.7312 878.472 85.5883Z" fill="#263238"/>
<path d="M878.472 92.5922C880.688 92.4492 882.903 92.4492 885.119 92.4492C887.335 92.4492 889.55 92.4492 891.766 92.5922C889.55 92.7351 887.335 92.7351 885.119 92.7351C882.903 92.8066 880.688 92.7351 878.472 92.5922Z" fill="#263238"/>
<path d="M878.472 99.6683C880.688 99.5254 882.903 99.5254 885.119 99.5254C887.335 99.5254 889.55 99.5254 891.766 99.6683C889.55 99.8113 887.335 99.8113 885.119 99.8113C882.903 99.8113 880.688 99.8113 878.472 99.6683Z" fill="#263238"/>
<path d="M878.472 106.744C880.687 106.601 882.903 106.601 885.119 106.601C887.334 106.601 889.55 106.601 891.766 106.744C889.55 106.886 887.334 106.886 885.119 106.886C882.903 106.886 880.687 106.886 878.472 106.744Z" fill="#263238"/>
<path d="M878.472 113.82C880.688 113.677 882.903 113.677 885.119 113.677C887.335 113.677 889.55 113.677 891.766 113.82C889.55 113.963 887.335 113.963 885.119 113.963C882.903 113.963 880.688 113.963 878.472 113.82Z" fill="#263238"/>
<path d="M878.472 120.896C880.688 120.753 882.903 120.753 885.119 120.753C887.335 120.753 889.55 120.753 891.766 120.896C889.55 121.039 887.335 121.039 885.119 121.039C882.903 121.039 880.688 121.039 878.472 120.896Z" fill="#263238"/>
<path d="M878.472 127.971C880.688 127.828 882.903 127.828 885.119 127.828C887.335 127.828 889.55 127.828 891.766 127.971C889.55 128.114 887.335 128.114 885.119 128.114C882.903 128.114 880.688 128.114 878.472 127.971Z" fill="#263238"/>
<path d="M897.626 85.5883C899.842 85.4453 902.058 85.4453 904.273 85.4453C906.489 85.4453 908.705 85.4453 910.92 85.5883C908.705 85.7312 906.489 85.7312 904.273 85.7312C901.986 85.7312 899.842 85.7312 897.626 85.5883Z" fill="#263238"/>
<path d="M902.129 127.971C902.844 127.828 903.559 127.828 904.274 127.828C904.988 127.828 905.703 127.9 906.418 127.971C905.703 128.114 904.988 128.114 904.274 128.114C903.487 128.114 902.844 128.114 902.129 127.971Z" fill="#263238"/>
<path d="M902.129 120.896C902.844 120.753 903.559 120.753 904.274 120.753C904.988 120.753 905.703 120.824 906.418 120.896C905.703 121.039 904.988 121.039 904.274 121.039C903.487 121.039 902.844 121.039 902.129 120.896Z" fill="#263238"/>
<path d="M902.129 113.82C902.844 113.677 903.559 113.677 904.274 113.677C904.988 113.677 905.703 113.748 906.418 113.82C905.703 113.963 904.988 113.963 904.274 113.963C903.487 113.963 902.844 113.963 902.129 113.82Z" fill="#263238"/>
<path d="M902.129 106.744C902.844 106.601 903.559 106.601 904.274 106.601C904.988 106.601 905.703 106.672 906.418 106.744C905.703 106.886 904.988 106.886 904.274 106.886C903.487 106.958 902.844 106.886 902.129 106.744Z" fill="#263238"/>
<path d="M902.129 99.6683C902.844 99.5254 903.559 99.5254 904.274 99.5254C904.988 99.5254 905.703 99.5969 906.418 99.6683C905.703 99.8113 904.988 99.8113 904.274 99.8113C903.487 99.8828 902.844 99.8113 902.129 99.6683Z" fill="#263238"/>
<path d="M902.129 92.5922C902.844 92.4492 903.559 92.4492 904.274 92.4492C904.988 92.4492 905.703 92.5207 906.418 92.5922C905.703 92.7351 904.988 92.7351 904.274 92.7351C903.487 92.8066 902.844 92.7351 902.129 92.5922Z" fill="#263238"/>
<path d="M903.344 135.047C904.559 134.904 905.846 134.904 907.061 134.904C908.276 134.904 909.562 134.976 910.777 135.047C909.562 135.19 908.276 135.19 907.061 135.19C905.846 135.19 904.631 135.19 903.344 135.047Z" fill="#263238"/>
<path d="M916.709 85.5883C918.925 85.4453 921.141 85.4453 923.356 85.4453C925.572 85.4453 927.788 85.4453 930.003 85.5883C927.788 85.7312 925.572 85.7312 923.356 85.7312C921.141 85.7312 918.925 85.7312 916.709 85.5883Z" fill="#263238"/>
<path d="M916.709 92.5922C918.925 92.4492 921.141 92.4492 923.356 92.4492C925.572 92.4492 927.788 92.4492 930.003 92.5922C927.788 92.7351 925.572 92.7351 923.356 92.7351C921.141 92.8066 918.925 92.7351 916.709 92.5922Z" fill="#263238"/>
<path d="M916.709 99.6683C918.925 99.5254 921.141 99.5254 923.356 99.5254C925.572 99.5254 927.788 99.5254 930.003 99.6683C927.788 99.8113 925.572 99.8113 923.356 99.8113C921.141 99.8113 918.925 99.8113 916.709 99.6683Z" fill="#263238"/>
<path d="M916.71 106.744C918.926 106.601 921.141 106.601 923.357 106.601C925.573 106.601 927.788 106.601 930.004 106.744C927.788 106.886 925.573 106.886 923.357 106.886C921.141 106.886 918.926 106.886 916.71 106.744Z" fill="#263238"/>
<path d="M916.709 113.82C918.925 113.677 921.141 113.677 923.356 113.677C925.572 113.677 927.788 113.677 930.003 113.82C927.788 113.963 925.572 113.963 923.356 113.963C921.141 113.963 918.925 113.963 916.709 113.82Z" fill="#263238"/>
<path d="M916.709 120.896C918.925 120.753 921.141 120.753 923.356 120.753C925.572 120.753 927.788 120.753 930.003 120.896C927.788 121.039 925.572 121.039 923.356 121.039C921.141 121.039 918.925 121.039 916.709 120.896Z" fill="#263238"/>
<path d="M916.709 127.971C918.925 127.828 921.141 127.828 923.356 127.828C925.572 127.828 927.788 127.828 930.003 127.971C927.788 128.114 925.572 128.114 923.356 128.114C921.141 128.114 918.925 128.114 916.709 127.971Z" fill="#263238"/>
<path d="M916.709 135.047C918.925 134.904 921.141 134.904 923.356 134.904C925.572 134.904 927.788 134.904 930.003 135.047C927.788 135.19 925.572 135.19 923.356 135.19C921.141 135.19 918.925 135.19 916.709 135.047Z" fill="#263238"/>
<path d="M844.522 51.9257C847.238 51.7828 849.954 51.7113 852.67 51.6398C855.386 51.5684 858.102 51.5684 860.818 51.5684C863.534 51.5684 866.25 51.5684 868.966 51.6398L873.04 51.7113C874.398 51.7828 875.756 51.7828 877.114 51.8542C875.756 51.9257 874.398 51.9972 873.04 51.9972L868.966 52.0687C866.25 52.1401 863.534 52.1401 860.818 52.1401C858.102 52.1401 855.386 52.1401 852.67 52.0687C849.954 52.1401 847.238 52.0687 844.522 51.9257Z" fill="white"/>
<path d="M844.522 48.4951C847.596 48.3521 850.741 48.2806 853.814 48.2092C856.887 48.1377 860.032 48.1377 863.105 48.1377C866.179 48.1377 869.323 48.1377 872.397 48.2092L877.042 48.2806C878.615 48.3521 880.116 48.3521 881.688 48.4236C880.116 48.4951 878.615 48.5665 877.042 48.5665L872.397 48.638C869.323 48.7095 866.179 48.7095 863.105 48.7095C860.032 48.7095 856.887 48.7095 853.814 48.638C850.669 48.7095 847.596 48.638 844.522 48.4951Z" fill="white"/>
<path d="M844.522 69.5789C847.024 69.4359 849.597 69.4359 852.099 69.3644C854.6 69.293 857.173 69.293 859.675 69.293C862.176 69.293 864.749 69.293 867.251 69.3644C869.752 69.4359 872.325 69.4359 874.827 69.5789C872.325 69.7218 869.752 69.7218 867.251 69.7933C864.749 69.8647 862.176 69.8647 859.675 69.8647C857.173 69.8647 854.6 69.8647 852.099 69.7933C849.597 69.7218 847.024 69.6503 844.522 69.5789Z" fill="#263238"/>
<path d="M844.522 72.5808C846.095 72.4379 847.739 72.4379 849.311 72.3664C850.883 72.2949 852.527 72.2949 854.1 72.2949C855.672 72.2949 857.316 72.2949 858.888 72.3664C860.461 72.4379 862.105 72.4379 863.677 72.5808C862.105 72.7238 860.461 72.7238 858.888 72.7952C857.316 72.8667 855.672 72.8667 854.1 72.8667C852.527 72.8667 850.883 72.8667 849.311 72.7952C847.667 72.7238 846.095 72.6523 844.522 72.5808Z" fill="#263238"/>
<path d="M844.522 75.5828C846.738 75.4398 848.954 75.4398 851.169 75.3683C853.385 75.2969 855.601 75.2969 857.816 75.2969C860.032 75.2969 862.248 75.2969 864.463 75.3683C866.679 75.4398 868.895 75.4398 871.11 75.5828C868.895 75.7257 866.679 75.7257 864.463 75.7972C862.248 75.8687 860.032 75.8687 857.816 75.8687C855.601 75.8687 853.385 75.8687 851.169 75.7972C848.882 75.7257 846.738 75.6542 844.522 75.5828Z" fill="#263238"/>
<path d="M844.522 143.982C846.166 143.839 847.81 143.839 849.383 143.768C851.026 143.696 852.67 143.696 854.243 143.696C855.887 143.696 857.53 143.696 859.103 143.768C860.747 143.839 862.391 143.839 863.963 143.982C862.319 144.125 860.675 144.125 859.103 144.197C857.459 144.268 855.815 144.268 854.243 144.268C852.599 144.268 850.955 144.268 849.383 144.197C847.739 144.197 846.095 144.125 844.522 143.982Z" fill="#263238"/>
<path d="M844.522 147.055C846.381 146.912 848.31 146.912 850.169 146.841C852.027 146.77 853.957 146.77 855.815 146.77C857.673 146.77 859.603 146.77 861.461 146.841C863.32 146.912 865.249 146.912 867.108 147.055C865.249 147.198 863.32 147.198 861.461 147.27C859.603 147.341 857.673 147.341 855.815 147.341C853.957 147.341 852.027 147.341 850.169 147.27C848.239 147.198 846.381 147.127 844.522 147.055Z" fill="#263238"/>
<path d="M844.522 158.991C847.453 158.848 850.455 158.848 853.385 158.777L862.248 158.705L871.11 158.777C874.041 158.848 877.042 158.848 879.973 158.991C877.042 159.134 874.041 159.134 871.11 159.205L862.248 159.277L853.385 159.205C850.383 159.205 847.453 159.134 844.522 158.991Z" fill="#263238"/>
<path d="M844.522 150.057C845.666 149.914 846.81 149.914 847.953 149.843C849.097 149.771 850.24 149.771 851.384 149.771C852.527 149.771 853.671 149.771 854.814 149.843C855.958 149.914 857.102 149.914 858.245 150.057C857.102 150.2 855.958 150.2 854.814 150.272C853.671 150.343 852.527 150.343 851.384 150.343C850.24 150.343 849.097 150.343 847.953 150.272C846.81 150.2 845.666 150.129 844.522 150.057Z" fill="#263238"/>
<path d="M902.129 152.987C904.988 152.844 907.847 152.844 910.706 152.773L919.282 152.701L927.859 152.773C930.718 152.844 933.577 152.844 936.436 152.987C933.577 153.13 930.718 153.13 927.859 153.201L919.282 153.273L910.706 153.201C907.847 153.13 904.988 153.13 902.129 152.987Z" fill="#263238"/>
<path d="M902.129 150.057C904.417 149.914 906.775 149.914 909.062 149.843C911.349 149.771 913.708 149.771 915.995 149.771C918.282 149.771 920.641 149.771 922.928 149.843C925.215 149.914 927.574 149.914 929.861 150.057C927.574 150.2 925.215 150.2 922.928 150.272C920.641 150.343 918.282 150.343 915.995 150.343C913.708 150.343 911.349 150.343 909.062 150.272C906.775 150.2 904.417 150.129 902.129 150.057Z" fill="#263238"/>
<path d="M902.129 155.989C904.345 155.846 906.489 155.846 908.704 155.775C910.92 155.703 913.064 155.703 915.28 155.703C917.495 155.703 919.64 155.703 921.855 155.775C924.071 155.846 926.215 155.846 928.431 155.989C926.215 156.132 924.071 156.132 921.855 156.203C919.64 156.275 917.495 156.275 915.28 156.275C913.064 156.275 910.92 156.275 908.704 156.203C906.489 156.203 904.273 156.132 902.129 155.989Z" fill="#263238"/>
<path d="M902.129 158.991C903.701 158.848 905.274 158.848 906.846 158.777C908.418 158.705 909.991 158.705 911.563 158.705C913.136 158.705 914.708 158.705 916.28 158.777C917.853 158.848 919.425 158.848 920.998 158.991C919.425 159.134 917.853 159.134 916.28 159.205C914.708 159.277 913.136 159.277 911.563 159.277C909.991 159.277 908.418 159.277 906.846 159.205C905.202 159.205 903.701 159.134 902.129 158.991Z" fill="#263238"/>
<path d="M845.452 156.561C846.309 155.99 847.167 155.418 848.096 154.918C849.025 154.417 849.883 153.917 850.955 153.631C851.098 153.56 851.241 153.56 851.312 153.56C851.455 153.488 851.67 153.56 851.741 153.703C851.884 153.988 851.884 154.274 851.956 154.489C851.956 154.989 851.884 155.561 851.813 156.061C851.598 157.062 851.384 158.062 851.098 159.063C850.526 161.064 849.883 162.994 849.025 164.924C848.811 165.424 848.596 165.853 848.311 166.353C848.239 166.496 848.168 166.568 848.025 166.71C847.953 166.782 847.882 166.853 847.739 166.853C847.667 166.853 847.596 166.853 847.524 166.782L847.453 166.71C847.238 166.425 847.238 166.139 847.238 165.853C847.238 164.781 847.524 163.78 847.81 162.779C848.096 161.779 848.525 160.778 848.954 159.849C849.454 158.92 849.954 157.991 850.812 157.276C851.241 156.919 851.741 156.704 852.242 156.561C852.527 156.49 852.813 156.561 853.028 156.633C853.314 156.776 853.457 156.99 853.6 157.205C853.742 157.419 853.885 157.633 854.028 157.848C854.171 157.991 854.386 158.134 854.672 158.062C855.172 157.919 855.529 157.633 855.958 157.276C856.173 157.133 856.387 156.99 856.601 156.776C856.744 156.704 856.816 156.633 856.959 156.561C857.102 156.49 857.245 156.418 857.388 156.561C857.602 156.847 857.53 157.062 857.673 157.348C857.745 157.562 857.959 157.705 858.174 157.705C858.603 157.491 858.96 157.062 859.317 156.704C859.675 156.347 860.032 155.918 860.318 155.561C860.961 154.775 861.676 153.988 862.319 153.202C862.676 152.845 863.034 152.416 863.391 152.059C863.606 151.844 863.749 151.701 863.963 151.558C864.106 151.487 864.177 151.415 864.32 151.344C864.392 151.344 864.463 151.272 864.535 151.272C864.606 151.272 864.749 151.344 864.749 151.415C864.892 151.701 864.892 151.987 864.821 152.273C864.821 152.559 864.749 152.773 864.678 153.059C864.535 153.56 864.392 154.06 864.249 154.56C863.892 155.561 863.534 156.49 863.034 157.419C862.891 157.633 862.748 157.848 862.534 158.062C862.462 158.134 862.248 158.277 862.105 158.277C861.962 158.277 861.819 158.205 861.676 158.134C861.176 157.848 860.747 157.419 860.604 156.847C860.604 156.704 860.604 156.561 860.675 156.347C860.747 156.276 860.818 156.204 860.89 156.133C860.961 156.061 861.104 156.061 861.176 156.061C861.461 156.061 861.747 156.204 861.962 156.276C862.462 156.418 862.962 156.633 863.391 156.847C863.892 157.062 864.32 157.276 864.821 157.491C865.035 157.562 865.321 157.705 865.535 157.776C865.678 157.776 865.75 157.848 865.893 157.848C865.964 157.848 866.107 157.848 866.179 157.776C866.536 157.562 866.822 157.133 867.251 156.704C867.465 156.49 867.68 156.347 868.037 156.276C868.108 156.276 868.251 156.276 868.323 156.347C868.394 156.49 868.466 156.561 868.466 156.633C868.466 156.776 868.394 156.919 868.394 157.062C868.323 157.276 868.323 157.562 868.394 157.633C868.466 157.705 868.752 157.633 868.966 157.633C869.466 157.491 869.824 157.276 870.253 156.919C870.467 156.776 870.681 156.633 870.896 156.49C871.11 156.347 871.396 156.204 871.753 156.276C872.397 156.418 872.683 156.919 873.111 157.205C873.326 157.348 873.469 157.562 873.683 157.705C873.755 157.776 873.826 157.776 873.898 157.776C873.969 157.705 874.112 157.633 874.184 157.562C874.612 157.276 874.97 156.919 875.327 156.561C876.042 155.847 876.757 155.132 877.328 154.274C877.614 153.845 877.829 153.417 877.829 152.916C877.829 152.487 877.328 152.273 876.828 152.13C875.827 151.916 874.827 151.987 873.826 152.202C873.326 152.273 872.826 152.416 872.325 152.63C872.111 152.702 871.896 152.845 871.682 152.988C871.468 153.131 871.325 153.345 871.396 153.488C871.468 153.703 871.682 153.845 871.896 153.917C872.111 154.06 872.397 154.131 872.611 154.203C873.111 154.346 873.612 154.489 874.112 154.632C876.113 155.132 878.186 155.132 880.259 155.203V155.275C878.186 155.203 876.113 155.275 874.041 154.846C873.54 154.703 873.04 154.56 872.54 154.417C872.325 154.346 872.039 154.274 871.825 154.131C871.611 153.988 871.325 153.845 871.182 153.56C871.11 153.202 871.325 152.916 871.539 152.773C871.753 152.63 871.968 152.487 872.254 152.345C872.754 152.13 873.254 151.987 873.755 151.916C874.755 151.701 875.827 151.63 876.899 151.844C877.185 151.916 877.4 151.916 877.686 152.13C877.972 152.273 878.115 152.559 878.115 152.916C878.115 153.488 877.829 153.988 877.614 154.489C877.042 155.418 876.328 156.133 875.542 156.847C875.184 157.205 874.755 157.562 874.326 157.848C874.184 157.919 874.112 157.991 873.969 158.062C873.755 158.134 873.54 158.062 873.469 157.991C873.183 157.848 873.04 157.633 872.826 157.491C872.468 157.133 872.111 156.704 871.682 156.633C871.325 156.561 870.824 156.919 870.467 157.205C870.038 157.491 869.609 157.776 869.038 157.919C868.752 157.991 868.537 158.134 868.108 157.919C867.894 157.776 867.894 157.562 867.894 157.419C867.894 157.276 867.965 157.133 867.965 156.99C867.965 156.847 868.037 156.776 868.037 156.633C868.037 156.561 868.037 156.561 868.037 156.561C868.037 156.561 868.037 156.561 867.965 156.561C867.751 156.561 867.608 156.704 867.394 156.847C867.036 157.205 866.822 157.705 866.25 157.991C866.107 158.062 865.964 158.062 865.75 158.062C865.607 158.062 865.464 157.991 865.321 157.991C865.035 157.919 864.821 157.848 864.606 157.705C864.106 157.491 863.677 157.276 863.177 157.062C862.676 156.847 862.248 156.633 861.747 156.49C861.533 156.418 861.247 156.347 861.033 156.347C860.89 156.347 860.747 156.49 860.818 156.704C860.89 157.133 861.247 157.562 861.676 157.776C861.747 157.848 861.89 157.848 862.033 157.848C862.105 157.848 862.176 157.848 862.248 157.776C862.391 157.633 862.534 157.419 862.676 157.205C863.177 156.347 863.606 155.346 863.892 154.417C864.034 153.917 864.177 153.417 864.32 152.916C864.392 152.702 864.392 152.416 864.463 152.13C864.463 151.916 864.535 151.63 864.392 151.415C864.32 151.272 864.034 151.487 863.82 151.558C863.606 151.701 863.391 151.844 863.248 152.059C862.891 152.416 862.534 152.773 862.176 153.202C861.461 153.988 860.818 154.775 860.103 155.561C859.746 155.918 859.389 156.347 859.031 156.704C858.674 157.062 858.317 157.491 857.816 157.705C857.53 157.776 857.245 157.562 857.173 157.276C857.102 157.062 857.102 156.704 856.959 156.561C856.887 156.49 856.744 156.561 856.673 156.633C856.53 156.704 856.458 156.776 856.387 156.847C856.173 156.99 855.958 157.133 855.744 157.348C855.315 157.633 854.957 157.991 854.386 158.134C854.1 158.205 853.814 158.062 853.6 157.919C853.385 157.705 853.242 157.491 853.171 157.276C853.028 157.062 852.885 156.847 852.67 156.776C852.456 156.704 852.17 156.704 851.956 156.704C851.455 156.776 851.027 157.062 850.598 157.348C849.883 158.062 849.311 158.92 848.882 159.849C848.453 160.778 848.025 161.707 847.739 162.708C847.453 163.709 847.238 164.709 847.238 165.71C847.238 165.924 847.31 166.21 847.381 166.353L847.453 166.425C847.453 166.425 847.453 166.425 847.524 166.353C847.596 166.282 847.667 166.21 847.739 166.067C848.025 165.638 848.239 165.21 848.453 164.709C849.311 162.851 849.954 160.85 850.598 158.92C850.884 157.919 851.169 156.919 851.312 155.918C851.384 155.418 851.455 154.918 851.455 154.417C851.455 154.203 851.455 153.917 851.312 153.703C851.241 153.631 851.169 153.631 851.027 153.631C850.884 153.631 850.812 153.631 850.669 153.703C849.669 153.988 848.739 154.417 847.81 154.918C847.167 155.489 846.309 155.99 845.452 156.561Z" fill="#263238"/>
<path d="M905.274 168.783L914.494 192.726H830.014L840.091 168.855L905.274 168.783Z" fill="#7EC1FF"/>
<path d="M905.917 170.499L914.494 192.727V196.729H830.014V192.727L839.377 170.571L905.917 170.499Z" fill="#7EC1FF"/>
<path opacity="0.1" d="M905.274 168.783L914.494 192.726H830.014L840.091 168.855L905.274 168.783Z" fill="black"/>
<path d="M862.748 186.293L862.248 190.867H851.956L852.957 186.293H862.748Z" fill="white"/>
<path d="M863.392 181.075L862.82 185.649H853.1L854.1 181.075H863.392Z" fill="white"/>
<path d="M863.963 175.858L863.463 180.433H854.243L855.244 175.858H863.963Z" fill="#7EC1FF"/>
<path d="M864.607 170.641L864.035 175.215H855.315L856.316 170.641H864.607Z" fill="#7EC1FF"/>
<path d="M874.041 186.293V190.867H863.749L864.178 186.293H874.041Z" fill="#37474F"/>
<path d="M874.041 181.075V185.649H864.249L864.749 181.075H874.041Z" fill="#37474F"/>
<path d="M874.041 175.858V180.433H864.821L865.25 175.858H874.041Z" fill="#37474F"/>
<path d="M874.113 170.641V175.215H865.393L865.822 170.641H874.113Z" fill="white"/>
<path d="M885.262 186.293L885.763 190.867H875.542L875.471 186.293H885.262Z" fill="#37474F"/>
<path d="M884.69 181.075L885.191 185.649H875.47L875.399 181.075H884.69Z" fill="#37474F"/>
<path d="M884.047 175.858L884.619 180.433H875.399L875.327 175.858H884.047Z" fill="#37474F"/>
<path d="M883.475 170.641L883.975 175.215H875.327L875.256 170.641H883.475Z" fill="white"/>
<path d="M896.483 186.293L897.555 190.867H887.263L886.691 186.293H896.483Z" fill="#37474F"/>
<path d="M895.34 181.075L896.34 185.649H886.62L886.048 181.075H895.34Z" fill="#37474F"/>
<path d="M894.125 175.858L895.197 180.433H885.977L885.333 175.858H894.125Z" fill="#37474F"/>
<path d="M892.91 170.641L893.982 175.215H885.262L884.69 170.641H892.91Z" fill="white"/>
<path d="M907.776 186.222L909.348 190.867H899.056L897.913 186.222H907.776Z" fill="#37474F"/>
<path d="M905.989 181.075L907.562 185.649H897.77L896.698 181.075H905.989Z" fill="#37474F"/>
<path d="M904.202 175.858L905.775 180.433H896.555L895.411 175.858H904.202Z" fill="white"/>
<path d="M902.415 170.641L903.988 175.215H895.268L894.125 170.641H902.415Z" fill="white"/>
<path d="M856.388 189.223C855.959 189.223 855.673 189.08 855.673 188.937C855.673 188.723 856.102 188.651 856.459 188.651C856.888 188.651 857.174 188.794 857.174 188.937C857.174 189.08 856.816 189.223 856.388 189.223ZM856.459 188.794C856.245 188.794 856.03 188.866 856.03 188.937C856.03 189.009 856.173 189.08 856.459 189.08C856.673 189.08 856.888 189.009 856.888 188.937C856.888 188.866 856.673 188.794 856.459 188.794ZM858.389 189.009L855.887 188.151C855.816 188.151 855.816 188.08 855.816 188.08C855.816 188.008 855.887 188.008 855.959 188.008C856.03 188.008 856.03 188.008 856.03 188.008L858.532 188.866C858.603 188.866 858.603 188.937 858.603 188.937C858.603 189.009 858.532 189.009 858.46 189.009H858.389ZM858.031 188.437C857.603 188.437 857.317 188.294 857.317 188.151C857.317 187.937 857.674 187.865 858.103 187.865C858.532 187.865 858.818 188.008 858.818 188.151C858.746 188.294 858.389 188.437 858.031 188.437ZM858.103 187.937C857.888 187.937 857.674 188.008 857.674 188.08C857.674 188.151 857.817 188.223 858.031 188.223C858.246 188.223 858.46 188.151 858.46 188.08C858.532 188.008 858.317 187.937 858.103 187.937Z" fill="#37474F"/>
<path d="M858.746 179.289C857.96 179.289 857.46 179.003 857.531 178.574C857.531 178.431 857.674 178.288 857.889 178.145C857.96 178.074 858.103 178.074 858.174 178.145C858.246 178.217 858.246 178.288 858.174 178.288C858.031 178.36 857.96 178.503 857.889 178.574C857.889 178.717 857.96 178.86 858.103 178.932C858.246 179.003 858.46 179.075 858.746 179.075C859.032 179.075 859.247 179.003 859.461 178.932C859.675 178.86 859.747 178.717 859.818 178.574C859.818 178.431 859.747 178.36 859.675 178.288C859.604 178.217 859.675 178.145 859.747 178.145C859.818 178.145 859.961 178.145 860.033 178.145C860.176 178.288 860.247 178.431 860.247 178.574C860.176 179.003 859.532 179.289 858.746 179.289Z" fill="#37474F"/>
<path d="M860.176 177.788H857.96C857.817 177.788 857.746 177.717 857.746 177.717L857.889 177.073C857.889 177.002 858.031 177.002 858.103 177.002C858.246 177.002 858.317 177.073 858.317 177.073L858.246 177.574H858.961L859.032 177.145C859.032 177.073 859.175 177.073 859.247 177.073C859.389 177.073 859.461 177.145 859.461 177.145L859.389 177.574H860.104L860.176 177.073C860.176 177.002 860.319 177.002 860.39 177.002C860.533 177.002 860.604 177.073 860.604 177.073L860.533 177.717C860.39 177.717 860.247 177.788 860.176 177.788Z" fill="#37474F"/>
<path d="M859.747 173.571C859.032 173.571 858.532 173.285 858.603 172.856C858.603 172.714 858.746 172.571 858.96 172.428C859.032 172.356 859.175 172.356 859.246 172.428C859.318 172.499 859.318 172.571 859.246 172.571C859.103 172.642 859.032 172.785 859.032 172.856C859.032 172.999 859.103 173.142 859.246 173.214C859.389 173.285 859.604 173.357 859.818 173.357C860.032 173.357 860.318 173.285 860.461 173.214C860.604 173.142 860.747 172.999 860.747 172.856C860.747 172.714 860.747 172.642 860.604 172.571C860.533 172.499 860.604 172.428 860.676 172.428C860.747 172.428 860.89 172.428 860.962 172.428C861.105 172.571 861.176 172.714 861.176 172.856C861.033 173.214 860.461 173.571 859.747 173.571Z" fill="#37474F"/>
<path d="M867.894 188.151L870.324 188.652C870.396 188.652 870.467 188.723 870.467 188.723C870.467 188.723 870.467 188.723 870.467 188.795C870.396 188.866 870.253 188.866 870.181 188.866L868.037 188.437V188.938C868.037 189.009 867.894 189.009 867.823 189.009C867.68 189.009 867.608 188.938 867.608 188.938L867.68 188.294C867.68 188.294 867.68 188.294 867.751 188.223C867.751 188.151 867.823 188.151 867.894 188.151C867.823 188.151 867.823 188.151 867.894 188.151Z" fill="white"/>
<path d="M869.681 182.934C870.181 182.934 870.61 183.148 870.61 183.362C870.61 183.648 870.181 183.791 869.681 183.791C869.324 183.791 869.038 183.72 868.895 183.577C868.752 183.648 868.68 183.648 868.466 183.648C868.109 183.648 867.823 183.505 867.823 183.362C867.823 183.219 868.109 183.077 868.466 183.077C868.609 183.077 868.752 183.077 868.823 183.148C869.109 183.005 869.395 182.934 869.681 182.934ZM869.681 183.148C869.395 183.148 869.181 183.291 869.181 183.362C869.181 183.505 869.395 183.577 869.681 183.648C869.967 183.648 870.181 183.505 870.181 183.362C870.181 183.219 869.967 183.148 869.681 183.148ZM868.537 183.505C868.68 183.505 868.752 183.434 868.752 183.362C868.752 183.291 868.68 183.291 868.537 183.291C868.395 183.291 868.323 183.362 868.323 183.362C868.323 183.434 868.395 183.505 868.537 183.505Z" fill="white"/>
<path d="M869.11 178.646C868.609 178.646 868.18 178.431 868.252 178.217C868.252 178.003 868.609 177.788 869.11 177.788C869.181 177.788 869.253 177.788 869.324 177.788C869.538 177.788 869.824 177.788 870.11 177.86C870.325 177.931 870.611 178.003 870.753 178.074C870.825 178.145 870.896 178.217 870.896 178.36C870.896 178.431 870.825 178.431 870.682 178.503C870.539 178.503 870.468 178.431 870.468 178.431C870.468 178.36 870.396 178.288 870.396 178.217C870.325 178.145 870.253 178.145 870.11 178.074H870.039C870.11 178.145 870.11 178.217 870.11 178.288C870.039 178.431 869.61 178.646 869.11 178.646ZM869.11 178.431C869.396 178.431 869.61 178.288 869.61 178.145C869.61 178.003 869.396 177.86 869.11 177.86C868.824 177.86 868.609 178.003 868.609 178.145C868.609 178.288 868.824 178.431 869.11 178.431Z" fill="white"/>
<path d="M869.824 173.357C869.681 173.357 869.609 173.285 869.609 173.214V172.642C869.609 172.57 869.681 172.499 869.824 172.499C869.967 172.499 870.038 172.57 870.038 172.642V173.214C870.038 173.285 869.967 173.357 869.824 173.357Z" fill="#37474F"/>
<path d="M881.046 188.008C881.188 188.008 881.26 188.079 881.26 188.079H881.546C881.689 188.079 881.76 188.151 881.76 188.151C881.76 188.222 881.689 188.222 881.546 188.222H881.26L881.331 188.794C881.331 188.794 881.331 188.865 881.26 188.865C881.188 188.937 881.046 188.937 880.903 188.865L878.901 188.151H880.617C880.831 188.079 880.974 188.008 881.046 188.008ZM879.831 188.365L880.903 188.723V188.365H879.831Z" fill="white"/>
<path d="M879.759 183.077C879.973 183.005 880.188 182.934 880.474 182.934C880.688 182.934 880.974 183.005 881.188 183.077C881.403 183.148 881.474 183.291 881.474 183.434C881.474 183.577 881.403 183.649 881.188 183.791C881.117 183.863 880.974 183.863 880.903 183.791C880.831 183.72 880.831 183.649 880.903 183.649C880.974 183.577 881.046 183.506 881.046 183.434C881.046 183.363 880.974 183.291 880.903 183.22C880.831 183.148 880.688 183.148 880.545 183.148C880.402 183.148 880.259 183.148 880.188 183.22C880.116 183.291 880.045 183.363 880.045 183.434C880.045 183.506 880.116 183.577 880.188 183.649C880.259 183.72 880.259 183.791 880.188 183.791C880.188 183.791 880.188 183.791 880.116 183.791H880.045L879.044 183.72C878.973 183.72 878.901 183.72 878.901 183.649C878.901 183.649 878.901 183.649 878.901 183.577V183.005C878.901 182.934 878.973 182.862 879.116 182.862C879.259 182.862 879.33 182.934 879.33 183.005V183.506H879.759C879.759 183.434 879.688 183.434 879.688 183.363C879.473 183.291 879.616 183.22 879.759 183.077Z" fill="white"/>
<path d="M880.116 177.716C880.617 177.716 881.045 177.93 881.045 178.145C881.045 178.359 880.688 178.573 880.259 178.573C880.188 178.573 880.116 178.573 880.045 178.573C879.759 178.573 879.544 178.573 879.259 178.502C878.973 178.431 878.758 178.359 878.615 178.288C878.472 178.216 878.472 178.145 878.401 178.002C878.401 177.93 878.472 177.93 878.615 177.859C878.758 177.859 878.83 177.93 878.83 177.93C878.83 178.002 878.901 178.073 878.973 178.145C879.044 178.216 879.116 178.216 879.259 178.288H879.33C879.259 178.216 879.259 178.145 879.259 178.073C879.259 177.93 879.616 177.716 880.116 177.716ZM880.188 177.93C879.902 177.93 879.687 178.073 879.687 178.216C879.687 178.359 879.902 178.502 880.188 178.502C880.474 178.502 880.688 178.359 880.688 178.216C880.617 178.002 880.402 177.93 880.188 177.93Z" fill="white"/>
<path d="M879.616 173.285C879.616 173.357 879.544 173.357 879.473 173.357C879.401 173.357 879.258 173.285 879.258 173.285L879.187 172.499C879.187 172.428 879.258 172.428 879.33 172.428C879.401 172.428 879.544 172.499 879.544 172.499L879.616 173.285ZM878.687 172.785C878.83 172.785 878.972 172.857 878.972 172.928C878.972 173 878.901 173.071 878.758 173.071C878.615 173.071 878.544 173 878.544 172.928C878.472 172.857 878.544 172.785 878.687 172.785ZM880.116 172.785C880.259 172.785 880.402 172.857 880.402 172.928C880.402 173 880.33 173.071 880.188 173.071C880.045 173.071 879.973 173 879.973 172.928C879.902 172.857 880.045 172.785 880.116 172.785Z" fill="#37474F"/>
<path d="M890.694 188.365H893.124C893.267 188.365 893.338 188.437 893.338 188.437C893.338 188.508 893.267 188.508 893.124 188.508H891.051L891.194 188.58L891.266 188.651C891.266 188.723 891.266 188.723 891.194 188.723C891.123 188.723 890.98 188.723 890.908 188.723L890.551 188.508C890.622 188.365 890.622 188.365 890.694 188.365Z" fill="white"/>
<path d="M892.124 182.934C892.267 182.934 892.338 183.005 892.338 183.005L892.481 183.649C892.481 183.649 892.481 183.72 892.409 183.72C892.338 183.791 892.195 183.791 892.124 183.72L890.98 183.148C890.837 183.077 890.694 183.077 890.551 183.077C890.408 183.077 890.337 183.077 890.194 183.148C890.122 183.22 890.051 183.291 890.051 183.363C890.051 183.434 890.122 183.506 890.194 183.506L890.337 183.577C890.408 183.649 890.408 183.72 890.337 183.72C890.265 183.791 890.122 183.791 890.051 183.72L889.908 183.649C889.694 183.577 889.622 183.434 889.622 183.363C889.622 183.22 889.694 183.077 889.908 183.005C890.051 182.934 890.265 182.862 890.551 182.862C890.837 182.862 891.052 182.934 891.266 183.005L891.981 183.363L891.909 182.934C891.909 183.005 891.981 182.934 892.124 182.934Z" fill="white"/>
<path d="M889.765 177.859C889.908 177.787 890.122 177.716 890.408 177.716C890.623 177.716 890.909 177.787 891.123 177.859C891.337 177.93 891.409 178.073 891.48 178.216C891.48 178.359 891.409 178.431 891.266 178.574C891.195 178.645 891.052 178.645 890.98 178.574C890.909 178.502 890.909 178.431 890.98 178.431C891.052 178.359 891.123 178.288 891.123 178.216C891.123 178.145 891.052 178.073 890.909 178.002C890.766 177.93 890.694 177.93 890.551 177.93C890.408 177.93 890.265 177.93 890.194 178.002C890.122 178.073 890.051 178.145 890.051 178.216C890.051 178.216 890.051 178.288 889.979 178.288C889.908 178.359 889.765 178.359 889.694 178.288L889.265 178.073L889.336 178.359C889.336 178.431 889.265 178.431 889.122 178.431C888.979 178.431 888.907 178.359 888.907 178.359L888.836 177.787C888.836 177.716 888.907 177.645 889.05 177.645C889.122 177.645 889.122 177.645 889.122 177.645H889.193L889.694 177.859C889.622 177.93 889.694 177.93 889.765 177.859Z" fill="white"/>
<path d="M888.907 172.641L889.551 172.856L890.122 172.641C890.194 172.641 890.337 172.641 890.408 172.641L890.48 172.713C890.48 172.713 890.48 172.784 890.408 172.784L889.979 172.999L890.48 173.213C890.551 173.213 890.551 173.285 890.551 173.285V173.356C890.48 173.428 890.408 173.428 890.265 173.356L889.622 173.142L889.05 173.356C888.979 173.356 888.836 173.356 888.764 173.356C888.693 173.285 888.693 173.285 888.764 173.213L889.193 172.999L888.693 172.784C888.621 172.713 888.55 172.713 888.621 172.641C888.693 172.57 888.764 172.57 888.907 172.641Z" fill="#37474F"/>
<path d="M904.273 188.508C904.273 188.437 904.345 188.365 904.559 188.365C904.702 188.365 904.917 188.437 904.917 188.508C904.917 188.58 904.845 188.651 904.631 188.651C904.488 188.651 904.273 188.58 904.273 188.508Z" fill="white"/>
<path d="M902.058 183.934C901.701 183.934 901.343 183.863 901.057 183.791C900.772 183.72 900.557 183.577 900.486 183.434C900.414 183.291 900.629 183.148 900.843 183.077C901.057 183.005 901.415 182.934 901.772 182.934C902.13 182.934 902.487 183.005 902.773 183.077C903.059 183.148 903.273 183.291 903.345 183.434C903.416 183.577 903.273 183.72 902.987 183.791C902.773 183.863 902.415 183.934 902.058 183.934ZM901.844 183.148C901.558 183.148 901.343 183.219 901.2 183.219C901.057 183.291 900.986 183.362 900.986 183.362C900.986 183.434 901.129 183.505 901.272 183.577C901.486 183.648 901.701 183.648 901.987 183.648C902.273 183.648 902.487 183.577 902.63 183.577C902.773 183.505 902.844 183.434 902.844 183.362C902.844 183.291 902.701 183.219 902.558 183.219C902.415 183.219 902.13 183.148 901.844 183.148Z" fill="white"/>
<path d="M900.2 178.573C900.057 178.573 899.986 178.502 899.986 178.431L899.843 177.859C899.843 177.787 899.914 177.716 900.057 177.716C900.2 177.716 900.272 177.787 900.272 177.859L900.415 178.431C900.415 178.502 900.343 178.573 900.2 178.573ZM900.915 178.573C900.772 178.573 900.7 178.502 900.629 178.431L900.486 177.859C900.486 177.787 900.557 177.716 900.7 177.716C900.843 177.716 900.915 177.787 900.986 177.859L901.129 178.431C901.129 178.502 901.058 178.573 900.915 178.573Z" fill="#37474F"/>
<path d="M899.056 173L899.128 173.286C899.128 173.357 899.056 173.357 898.985 173.357C898.914 173.357 898.771 173.286 898.771 173.286L898.699 173H898.199C898.056 173 897.984 172.928 897.984 172.857C897.984 172.785 898.056 172.714 898.127 172.714H898.628L898.556 172.428C898.556 172.356 898.628 172.356 898.699 172.356C898.842 172.356 898.914 172.428 898.914 172.428L898.985 172.714H899.485C899.628 172.714 899.7 172.785 899.7 172.857C899.7 172.928 899.628 173 899.557 173H899.056Z" fill="#37474F"/>
<path d="M857.102 182.72C857.174 182.72 857.245 182.791 857.245 182.791L857.174 183.006C857.746 183.077 859.175 183.363 859.604 183.434C859.675 183.434 859.675 183.434 859.747 183.506L859.818 183.577C859.818 183.577 859.818 183.649 859.747 183.649C859.747 183.649 859.175 183.935 858.961 184.006C858.675 184.149 858.532 184.078 858.532 184.078C858.532 184.078 858.532 184.078 858.532 184.006C858.532 184.006 858.532 183.935 858.603 183.935C858.675 183.935 858.746 183.863 858.818 183.863C858.889 183.863 858.961 183.792 858.961 183.792C859.032 183.792 859.032 183.72 859.104 183.72C859.175 183.72 859.175 183.649 859.246 183.649C858.889 183.577 857.317 183.292 856.959 183.22H856.888L856.816 183.149L856.888 182.863C856.959 182.72 857.031 182.72 857.102 182.72Z" fill="#37474F"/>
<path d="M851.527 170.641L846.023 190.867H835.16L842.879 170.641H851.527Z" fill="#455A64"/>
<path d="M842.307 179.789H846.095C846.309 179.789 846.452 179.861 846.381 179.932C846.381 180.003 846.166 180.075 845.952 180.075H842.807L842.879 180.218V180.289C842.879 180.361 842.807 180.432 842.664 180.432C842.45 180.504 842.235 180.432 842.235 180.361L841.878 180.003C842.235 179.789 842.235 179.789 842.307 179.789C842.235 179.789 842.235 179.789 842.307 179.789Z" fill="white"/>
<path d="M846.595 177.931C846.81 177.931 846.881 178.002 846.881 178.074L846.524 179.217C846.524 179.289 846.452 179.289 846.381 179.36C846.238 179.432 846.024 179.432 845.881 179.36L844.523 178.431C844.38 178.36 844.165 178.288 843.951 178.288C843.737 178.288 843.522 178.288 843.379 178.36C843.165 178.431 843.022 178.574 843.022 178.646C843.022 178.717 843.022 178.86 843.165 178.931L843.308 179.003C843.451 179.074 843.379 179.217 843.165 179.217C843.022 179.289 842.807 179.289 842.664 179.217L842.521 179.146C842.307 179.003 842.236 178.789 842.307 178.646C842.379 178.431 842.593 178.217 843.022 178.074C843.379 177.931 843.737 177.859 844.094 177.859C844.523 177.859 844.88 177.931 845.094 178.145L845.952 178.717L846.167 178.002C846.238 178.002 846.381 177.931 846.595 177.931Z" fill="white"/>
<path d="M844.88 176.286C845.237 176.143 845.666 176.071 846.023 176.071C846.381 176.071 846.809 176.143 847.024 176.286C847.238 176.429 847.381 176.643 847.31 176.858C847.238 177.072 847.024 177.287 846.666 177.429C846.524 177.501 846.309 177.501 846.166 177.429C846.023 177.358 846.095 177.215 846.238 177.144C846.452 177.072 846.524 176.929 846.595 176.858C846.595 176.715 846.595 176.643 846.452 176.572C846.309 176.5 846.095 176.429 845.88 176.429C845.666 176.429 845.451 176.5 845.237 176.572C845.023 176.643 844.951 176.786 844.88 176.858C844.88 176.929 844.808 176.929 844.737 177.001C844.594 177.072 844.379 177.072 844.236 177.001L843.736 176.643L843.593 177.144C843.593 177.215 843.379 177.287 843.164 177.287C842.95 177.287 842.878 177.215 842.878 177.144L843.236 176.214C843.307 176.143 843.45 176 843.665 176C843.736 176 843.808 176 843.808 176H843.879L844.522 176.429C844.594 176.429 844.737 176.357 844.88 176.286Z" fill="white"/>
<path d="M847.096 173.856C847.31 173.856 847.381 173.928 847.381 173.999H847.81C848.025 173.999 848.096 174.071 848.096 174.142C848.096 174.214 847.882 174.285 847.739 174.285H847.31L847.024 175.286C847.024 175.357 846.953 175.357 846.953 175.429C846.81 175.5 846.595 175.5 846.452 175.429L844.094 174.214C844.094 174.214 844.094 174.214 844.165 174.214C844.165 174.214 844.165 174.214 844.237 174.214H846.667C846.738 173.928 846.881 173.856 847.096 173.856ZM845.094 174.428L846.381 175.071L846.595 174.428H845.094Z" fill="white"/>
<path d="M846.166 172.212C846.524 172.07 846.881 171.998 847.238 171.998C847.596 171.998 847.953 172.07 848.167 172.212C848.382 172.355 848.453 172.57 848.453 172.784C848.382 172.999 848.167 173.213 847.882 173.356C847.739 173.427 847.524 173.427 847.381 173.356C847.238 173.285 847.31 173.142 847.453 173.07C847.667 172.999 847.739 172.856 847.81 172.784C847.81 172.641 847.81 172.57 847.667 172.498C847.524 172.427 847.381 172.355 847.167 172.355C846.952 172.355 846.738 172.427 846.595 172.498C846.381 172.57 846.309 172.713 846.238 172.784C846.166 172.927 846.238 172.999 846.381 173.07C846.452 173.142 846.452 173.285 846.309 173.356H846.238C846.238 173.356 846.238 173.356 846.166 173.356C846.095 173.356 846.095 173.356 846.095 173.356L844.594 173.285C844.522 173.285 844.451 173.213 844.379 173.213V173.142L844.737 172.212C844.808 172.141 844.951 171.998 845.166 171.998C845.309 171.998 845.451 172.07 845.451 172.212L845.166 172.999L845.737 173.07C845.737 172.999 845.737 172.927 845.737 172.856C845.666 172.57 845.88 172.427 846.166 172.212Z" fill="white"/>
</g>
</g>
<defs>
<clipPath id="clip0_96_5940">
<rect width="1092" height="227" fill="white"/>
</clipPath>
<clipPath id="clip1_96_5940">
<rect width="116.643" height="166.459" fill="white" transform="translate(830.014 30.2705)"/>
</clipPath>
</defs>
</svg>
