<svg width="24" height="25" viewBox="0 0 24 25" fill="none" xmlns="http://www.w3.org/2000/svg">
<path d="M17 10.252V8.25195C17 5.49053 14.7614 3.25195 12 3.25195C9.23858 3.25195 7 5.49053 7 8.25195V10.252M12 14.752V16.752M8.8 21.252H15.2C16.8802 21.252 17.7202 21.252 18.362 20.925C18.9265 20.6374 19.3854 20.1784 19.673 19.6139C20 18.9722 20 18.1321 20 16.452V15.052C20 13.3718 20 12.5317 19.673 11.89C19.3854 11.3255 18.9265 10.8666 18.362 10.5789C17.7202 10.252 16.8802 10.252 15.2 10.252H8.8C7.11984 10.252 6.27976 10.252 5.63803 10.5789C5.07354 10.8666 4.6146 11.3255 4.32698 11.89C4 12.5317 4 13.3718 4 15.052V16.452C4 18.1321 4 18.9722 4.32698 19.6139C4.6146 20.1784 5.07354 20.6374 5.63803 20.925C6.27976 21.252 7.11984 21.252 8.8 21.252Z" stroke="#5D5D5D" stroke-width="1.5" stroke-linecap="round" stroke-linejoin="round"/>
</svg>
