<svg width="23" height="21" viewBox="0 0 23 21" fill="none" xmlns="http://www.w3.org/2000/svg">
<path d="M15.5 5.5C15.5 4.57003 15.5 4.10504 15.3978 3.72354C15.1204 2.68827 14.3117 1.87962 13.2765 1.60222C12.895 1.5 12.43 1.5 11.5 1.5C10.57 1.5 10.105 1.5 9.72354 1.60222C8.68827 1.87962 7.87962 2.68827 7.60222 3.72354C7.5 4.10504 7.5 4.57003 7.5 5.5M4.7 19.5H18.3C19.4201 19.5 19.9802 19.5 20.408 19.282C20.7843 19.0903 21.0903 18.7843 21.282 18.408C21.5 17.9802 21.5 17.4201 21.5 16.3V8.7C21.5 7.57989 21.5 7.01984 21.282 6.59202C21.0903 6.21569 20.7843 5.90973 20.408 5.71799C19.9802 5.5 19.4201 5.5 18.3 5.5H4.7C3.57989 5.5 3.01984 5.5 2.59202 5.71799C2.21569 5.90973 1.90973 6.21569 1.71799 6.59202C1.5 7.01984 1.5 7.57989 1.5 8.7V16.3C1.5 17.4201 1.5 17.9802 1.71799 18.408C1.90973 18.7843 2.21569 19.0903 2.59202 19.282C3.01984 19.5 3.5799 19.5 4.7 19.5Z" stroke="#767676" stroke-width="1.5" stroke-linecap="round" stroke-linejoin="round"/>
</svg>
