<svg width="21" height="20" viewBox="0 0 21 20" fill="none" xmlns="http://www.w3.org/2000/svg">
<path d="M9.45117 1.95996H6.25117C4.57101 1.95996 3.73094 1.95996 3.0892 2.28694C2.52471 2.57456 2.06577 3.0335 1.77815 3.59799C1.45117 4.23972 1.45117 5.0798 1.45117 6.75996V14.16C1.45117 15.8401 1.45117 16.6802 1.77815 17.3219C2.06577 17.8864 2.52471 18.3454 3.0892 18.633C3.73094 18.96 4.57101 18.96 6.25117 18.96H13.6512C15.3313 18.96 16.1714 18.96 16.8131 18.633C17.3776 18.3454 17.8366 17.8864 18.1242 17.3219C18.4512 16.6802 18.4512 15.8401 18.4512 14.16V10.96M11.4512 14.96H5.45117M13.4512 10.96H5.45117M18.5725 1.83864C19.7441 3.01021 19.7441 4.90971 18.5725 6.08128C17.4009 7.25285 15.5014 7.25285 14.3299 6.08128C13.1583 4.90971 13.1583 3.01021 14.3299 1.83864C15.5014 0.667068 17.4009 0.667068 18.5725 1.83864Z" stroke="#0E0E0E" stroke-width="1.5" stroke-linecap="round" stroke-linejoin="round"/>
</svg>
