<svg width="23" height="23" viewBox="0 0 23 23" fill="none" xmlns="http://www.w3.org/2000/svg">
<path d="M11.5 14.5C8.18629 14.5 5.5 11.8137 5.5 8.5V2.94444C5.5 2.5306 5.5 2.32367 5.56031 2.15798C5.66141 1.88021 5.88021 1.66141 6.15798 1.56031C6.32367 1.5 6.5306 1.5 6.94444 1.5H16.0556C16.4694 1.5 16.6763 1.5 16.842 1.56031C17.1198 1.66141 17.3386 1.88021 17.4397 2.15798C17.5 2.32367 17.5 2.5306 17.5 2.94444V8.5C17.5 11.8137 14.8137 14.5 11.5 14.5ZM11.5 14.5V17.5M17.5 3.5H20C20.4659 3.5 20.6989 3.5 20.8827 3.57612C21.1277 3.67761 21.3224 3.87229 21.4239 4.11732C21.5 4.30109 21.5 4.53406 21.5 5V5.5C21.5 6.42997 21.5 6.89496 21.3978 7.27646C21.1204 8.31173 20.3117 9.12038 19.2765 9.39778C18.895 9.5 18.43 9.5 17.5 9.5M5.5 3.5H3C2.53406 3.5 2.30109 3.5 2.11732 3.57612C1.87229 3.67761 1.67761 3.87229 1.57612 4.11732C1.5 4.30109 1.5 4.53406 1.5 5V5.5C1.5 6.42997 1.5 6.89496 1.60222 7.27646C1.87962 8.31173 2.68827 9.12038 3.72354 9.39778C4.10504 9.5 4.57003 9.5 5.5 9.5M6.94444 21.5H16.0556C16.301 21.5 16.5 21.301 16.5 21.0556C16.5 19.0919 14.9081 17.5 12.9444 17.5H10.0556C8.09188 17.5 6.5 19.0919 6.5 21.0556C6.5 21.301 6.69898 21.5 6.94444 21.5Z" stroke="#4747FF" stroke-width="1.5" stroke-linecap="round" stroke-linejoin="round"/>
</svg>
