<svg width="17" height="23" viewBox="0 0 17 23" fill="none" xmlns="http://www.w3.org/2000/svg">
<path d="M4.36866 14.9599L3.5 21.5L8.0884 18.747C8.23805 18.6572 8.31288 18.6123 8.39276 18.5947C8.46341 18.5792 8.53659 18.5792 8.60724 18.5947C8.68712 18.6123 8.76195 18.6572 8.9116 18.747L13.5 21.5L12.6319 14.9571M12.9259 3.74888C13.0803 4.1224 13.3768 4.4193 13.75 4.5743L15.0589 5.11648C15.4325 5.27121 15.7292 5.56799 15.884 5.94154C16.0387 6.31509 16.0387 6.73481 15.884 7.10836L15.3422 8.41635C15.1874 8.79007 15.1872 9.21021 15.3427 9.58374L15.8835 10.8913C15.9602 11.0764 15.9997 11.2747 15.9997 11.475C15.9998 11.6752 15.9603 11.8736 15.8837 12.0586C15.8071 12.2436 15.6947 12.4118 15.5531 12.5534C15.4114 12.695 15.2433 12.8073 15.0582 12.8839L13.7503 13.4256C13.3768 13.5801 13.0799 13.8765 12.9249 14.2498L12.3827 15.5588C12.228 15.9323 11.9312 16.2291 11.5577 16.3838C11.1841 16.5386 10.7644 16.5386 10.3909 16.3838L9.08296 15.842C8.70942 15.6877 8.28987 15.688 7.91656 15.8429L6.60767 16.3843C6.23434 16.5387 5.81501 16.5386 5.44178 16.384C5.06854 16.2293 4.77194 15.9329 4.61711 15.5598L4.07479 14.2504C3.92035 13.8769 3.62391 13.58 3.25064 13.425L1.94175 12.8828C1.56838 12.7282 1.27169 12.4316 1.11691 12.0582C0.962131 11.6849 0.961921 11.2654 1.11633 10.8919L1.6581 9.58391C1.81244 9.21035 1.81213 8.79079 1.65722 8.41746L1.11623 7.10759C1.03953 6.92257 1.00003 6.72426 1 6.52397C0.999968 6.32369 1.0394 6.12536 1.11604 5.94032C1.19268 5.75529 1.30504 5.58716 1.44668 5.44556C1.58832 5.30396 1.75647 5.19166 1.94152 5.11508L3.24947 4.57329C3.62265 4.41898 3.91936 4.1229 4.07448 3.75004L4.61664 2.44111C4.77136 2.06756 5.06813 1.77078 5.44167 1.61605C5.8152 1.46132 6.2349 1.46132 6.60844 1.61605L7.91638 2.15784C8.28993 2.31218 8.70948 2.31187 9.08279 2.15696L10.3922 1.61689C10.7657 1.46224 11.1853 1.46228 11.5588 1.61697C11.9322 1.77167 12.229 2.06837 12.3837 2.44182L12.926 3.75115L12.9259 3.74888Z" stroke="#4747FF" stroke-width="1.5" stroke-linecap="round" stroke-linejoin="round"/>
</svg>
