<svg width="1092" height="227" viewBox="0 0 1092 227" fill="none" xmlns="http://www.w3.org/2000/svg">
<g clip-path="url(#clip0_96_10737)">
<rect width="1092" height="227" fill="#F2E5FF"/>
<circle cx="946.656" cy="113.5" r="321.458" fill="#BD80FF"/>
<path d="M60.929 76.624C60.929 83.664 56.321 88.592 49.761 88.592C43.233 88.592 38.689 83.664 38.689 76.624C38.689 69.616 43.265 64.656 49.793 64.656C56.353 64.656 60.929 69.584 60.929 76.624ZM57.633 76.624C57.633 71.248 54.497 67.696 49.793 67.696C45.089 67.696 41.985 71.248 41.985 76.624C41.985 82 45.089 85.584 49.793 85.584C54.497 85.584 57.633 81.968 57.633 76.624ZM72.428 72.432V75.184H71.084C68.236 75.184 66.476 76.912 66.476 79.92V88.208H63.468V72.592H66.284L66.476 74.96C67.116 73.328 68.684 72.24 70.828 72.24C71.372 72.24 71.82 72.304 72.428 72.432ZM72.9535 79.984C72.9535 75.568 75.8015 72.112 80.3455 72.112C82.8735 72.112 84.8255 73.264 85.8175 75.216L86.0415 72.56H88.7295V87.568C88.7295 92.496 85.6895 95.632 80.8895 95.632C76.6335 95.632 73.7215 93.232 73.1455 89.264H76.1535C76.5375 91.568 78.2655 92.912 80.8895 92.912C83.8335 92.912 85.7535 90.992 85.7535 88.016V84.88C84.7295 86.704 82.6815 87.792 80.2175 87.792C75.7695 87.792 72.9535 84.368 72.9535 79.984ZM75.9615 79.92C75.9615 82.864 77.7855 85.168 80.7295 85.168C83.7695 85.168 85.6255 82.992 85.6255 79.92C85.6255 76.912 83.8335 74.736 80.7615 74.736C77.7535 74.736 75.9615 77.04 75.9615 79.92ZM96.6865 88.592C93.3265 88.592 91.3425 86.704 91.3425 83.856C91.3425 80.976 93.4865 79.184 97.1665 78.896L102.094 78.512V78.064C102.094 75.44 100.526 74.512 98.4145 74.512C95.8865 74.512 94.4465 75.632 94.4465 77.52H91.8225C91.8225 74.256 94.5105 72.112 98.5425 72.112C102.414 72.112 105.038 74.16 105.038 78.384V88.208H102.478L102.158 85.68C101.358 87.472 99.2145 88.592 96.6865 88.592ZM97.5505 86.256C100.398 86.256 102.126 84.4 102.126 81.456V80.624L98.1265 80.944C95.4705 81.2 94.3825 82.224 94.3825 83.76C94.3825 85.424 95.5985 86.256 97.5505 86.256ZM111.252 88.208H108.244V72.56H110.964L111.284 74.96C112.276 73.168 114.26 72.112 116.468 72.112C120.596 72.112 122.484 74.64 122.484 78.64V88.208H119.476V79.312C119.476 76.144 118.004 74.864 115.7 74.864C112.884 74.864 111.252 76.88 111.252 79.92V88.208ZM127.162 68.848C126.074 68.848 125.178 67.952 125.178 66.864C125.178 65.744 126.074 64.88 127.162 64.88C128.25 64.88 129.146 65.744 129.146 66.864C129.146 67.952 128.25 68.848 127.162 68.848ZM125.69 88.208V72.56H128.698V88.208H125.69ZM143.337 88.208H131.145V85.776L139.593 75.088H131.145V72.56H143.337V75.024L134.825 85.68H143.337V88.208ZM150.346 88.592C146.986 88.592 145.002 86.704 145.002 83.856C145.002 80.976 147.146 79.184 150.826 78.896L155.754 78.512V78.064C155.754 75.44 154.186 74.512 152.074 74.512C149.546 74.512 148.106 75.632 148.106 77.52H145.482C145.482 74.256 148.17 72.112 152.202 72.112C156.074 72.112 158.698 74.16 158.698 78.384V88.208H156.138L155.818 85.68C155.018 87.472 152.874 88.592 150.346 88.592ZM151.21 86.256C154.058 86.256 155.786 84.4 155.786 81.456V80.624L151.786 80.944C149.13 81.2 148.042 82.224 148.042 83.76C148.042 85.424 149.258 86.256 151.21 86.256ZM166.07 88.208H163.062V75.088H159.99V72.56H163.062V67.664H166.07V72.56H169.142V75.088H166.07V88.208ZM172.354 68.848C171.266 68.848 170.37 67.952 170.37 66.864C170.37 65.744 171.266 64.88 172.354 64.88C173.442 64.88 174.338 65.744 174.338 66.864C174.338 67.952 173.442 68.848 172.354 68.848ZM170.882 88.208V72.56H173.89V88.208H170.882ZM176.273 80.368C176.273 75.536 179.729 72.144 184.433 72.144C189.105 72.144 192.561 75.536 192.561 80.368C192.561 85.2 189.105 88.592 184.433 88.592C179.729 88.592 176.273 85.2 176.273 80.368ZM179.313 80.368C179.313 83.632 181.393 85.904 184.433 85.904C187.441 85.904 189.553 83.632 189.553 80.368C189.553 77.104 187.441 74.832 184.433 74.832C181.393 74.832 179.313 77.104 179.313 80.368ZM197.938 88.208H194.93V72.56H197.65L197.97 74.96C198.962 73.168 200.946 72.112 203.154 72.112C207.282 72.112 209.17 74.64 209.17 78.64V88.208H206.162V79.312C206.162 76.144 204.69 74.864 202.386 74.864C199.57 74.864 197.938 76.88 197.938 79.92V88.208Z" fill="#0E0E0E"/>
<path d="M43.7073 126.617H42.4293V113.729H43.7073L48.4053 125.087L53.1033 113.729H54.3993V126.617H53.1213V120.497C53.1213 118.247 53.1573 117.257 53.2293 116.375L49.0353 126.617H47.7933L43.5993 116.429C43.6713 116.915 43.7073 118.337 43.7073 120.299V126.617ZM59.2209 126.833C57.3669 126.833 56.2689 125.789 56.2689 124.259C56.2689 122.657 57.4929 121.649 59.5269 121.487L62.4069 121.253V120.965C62.4069 119.255 61.3809 118.715 60.1029 118.715C58.5909 118.715 57.6909 119.399 57.6909 120.569H56.5569C56.5569 118.805 57.9969 117.671 60.1389 117.671C62.1549 117.671 63.6309 118.679 63.6309 120.983V126.617H62.5869L62.4249 125.087C61.8849 126.185 60.6969 126.833 59.2209 126.833ZM59.5089 125.825C61.3449 125.825 62.4069 124.547 62.4069 122.657V122.189L59.8329 122.387C58.1949 122.531 57.5289 123.251 57.5289 124.223C57.5289 125.285 58.3209 125.825 59.5089 125.825ZM66.8252 126.617H65.5832V117.905H66.6632L66.8432 119.417C67.4192 118.301 68.5712 117.671 69.8312 117.671C72.2252 117.671 73.2152 119.093 73.2152 121.289V126.617H71.9732V121.559C71.9732 119.525 71.0552 118.805 69.6152 118.805C67.8332 118.805 66.8252 120.101 66.8252 122.063V126.617ZM77.6526 126.833C75.7986 126.833 74.7006 125.789 74.7006 124.259C74.7006 122.657 75.9246 121.649 77.9586 121.487L80.8386 121.253V120.965C80.8386 119.255 79.8126 118.715 78.5346 118.715C77.0226 118.715 76.1226 119.399 76.1226 120.569H74.9886C74.9886 118.805 76.4286 117.671 78.5706 117.671C80.5866 117.671 82.0626 118.679 82.0626 120.983V126.617H81.0186L80.8566 125.087C80.3166 126.185 79.1286 126.833 77.6526 126.833ZM77.9406 125.825C79.7766 125.825 80.8386 124.547 80.8386 122.657V122.189L78.2646 122.387C76.6266 122.531 75.9606 123.251 75.9606 124.223C75.9606 125.285 76.7526 125.825 77.9406 125.825ZM83.4209 122.009C83.4209 119.633 84.9509 117.671 87.5069 117.671C89.0189 117.671 90.1709 118.373 90.7289 119.651L90.8549 117.905H91.9349V126.347C91.9349 128.939 90.2789 130.631 87.7229 130.631C85.4909 130.631 83.9249 129.371 83.5829 127.265H84.8249C85.0949 128.669 86.1749 129.497 87.7409 129.497C89.5229 129.497 90.7109 128.291 90.7109 126.473V124.403C90.1169 125.627 88.9109 126.347 87.4169 126.347C84.9329 126.347 83.4209 124.385 83.4209 122.009ZM84.6629 121.991C84.6629 123.773 85.7609 125.231 87.5969 125.231C89.4869 125.231 90.6029 123.863 90.6029 121.991C90.6029 120.137 89.5229 118.769 87.6149 118.769C85.7429 118.769 84.6629 120.227 84.6629 121.991ZM97.6406 126.833C95.0846 126.833 93.3746 124.997 93.3746 122.261C93.3746 119.543 95.0666 117.671 97.5506 117.671C99.9086 117.671 101.511 119.345 101.511 121.811V122.423H94.5806C94.6706 124.547 95.7866 125.771 97.6586 125.771C99.0806 125.771 99.9986 125.159 100.323 124.007H101.511C101.043 125.843 99.6926 126.833 97.6406 126.833ZM97.5506 118.733C95.9126 118.733 94.8326 119.813 94.6166 121.523H100.269C100.269 119.849 99.1886 118.733 97.5506 118.733ZM106.527 130.415V129.389H107.481C108.237 129.389 108.993 129.335 109.425 128.165L109.803 127.139L106.275 117.905H107.589L110.397 125.501L113.151 117.905H114.429L110.433 128.615C109.929 129.983 109.083 130.541 107.841 130.541C107.319 130.541 106.923 130.505 106.527 130.415ZM114.43 122.261C114.43 119.597 116.302 117.671 118.858 117.671C121.414 117.671 123.286 119.597 123.286 122.261C123.286 124.907 121.414 126.833 118.858 126.833C116.302 126.833 114.43 124.907 114.43 122.261ZM115.69 122.243C115.69 124.295 116.986 125.717 118.858 125.717C120.712 125.717 122.026 124.295 122.026 122.243C122.026 120.227 120.712 118.787 118.858 118.787C116.986 118.787 115.69 120.227 115.69 122.243ZM130.642 117.905H131.884V126.617H130.804L130.642 125.141C130.156 126.149 128.95 126.833 127.582 126.833C125.53 126.833 124.414 125.429 124.414 123.305V117.887H125.674V122.909C125.674 124.979 126.592 125.717 127.978 125.717C129.652 125.717 130.642 124.601 130.642 122.531V117.905ZM138.485 117.797V118.913H137.801C136.199 118.913 135.173 119.993 135.173 121.649V126.617H133.931V117.905H135.101L135.191 119.255C135.533 118.319 136.451 117.707 137.675 117.707C137.945 117.707 138.179 117.725 138.485 117.797ZM144.318 126.617H143.004L147.738 113.729H149.34L154.128 126.617H152.778L151.518 123.197H145.578L144.318 126.617ZM148.368 115.547L145.974 122.063H151.104L148.692 115.547C148.638 115.367 148.548 115.151 148.53 115.025C148.512 115.133 148.44 115.367 148.368 115.547ZM154.199 122.279C154.199 119.543 155.873 117.671 158.411 117.671C160.427 117.671 161.903 118.841 162.245 120.641H161.003C160.679 119.435 159.635 118.769 158.429 118.769C156.665 118.769 155.423 120.119 155.423 122.261C155.423 124.331 156.575 125.717 158.339 125.717C159.635 125.717 160.679 124.997 161.021 123.881H162.281C161.867 125.663 160.319 126.833 158.339 126.833C155.873 126.833 154.199 125.015 154.199 122.279ZM163.011 122.279C163.011 119.543 164.685 117.671 167.223 117.671C169.239 117.671 170.715 118.841 171.057 120.641H169.815C169.491 119.435 168.447 118.769 167.241 118.769C165.477 118.769 164.235 120.119 164.235 122.261C164.235 124.331 165.387 125.717 167.151 125.717C168.447 125.717 169.491 124.997 169.833 123.881H171.093C170.679 125.663 169.131 126.833 167.151 126.833C164.685 126.833 163.011 125.015 163.011 122.279ZM171.822 122.261C171.822 119.597 173.694 117.671 176.25 117.671C178.806 117.671 180.678 119.597 180.678 122.261C180.678 124.907 178.806 126.833 176.25 126.833C173.694 126.833 171.822 124.907 171.822 122.261ZM173.082 122.243C173.082 124.295 174.378 125.717 176.25 125.717C178.104 125.717 179.418 124.295 179.418 122.243C179.418 120.227 178.104 118.787 176.25 118.787C174.378 118.787 173.082 120.227 173.082 122.243ZM188.034 117.905H189.276V126.617H188.196L188.034 125.141C187.548 126.149 186.342 126.833 184.974 126.833C182.922 126.833 181.806 125.429 181.806 123.305V117.887H183.066V122.909C183.066 124.979 183.984 125.717 185.37 125.717C187.044 125.717 188.034 124.601 188.034 122.531V117.905ZM192.565 126.617H191.323V117.905H192.403L192.583 119.417C193.159 118.301 194.311 117.671 195.571 117.671C197.965 117.671 198.955 119.093 198.955 121.289V126.617H197.713V121.559C197.713 119.525 196.795 118.805 195.355 118.805C193.573 118.805 192.565 120.101 192.565 122.063V126.617ZM202.888 126.617H201.664V118.949H199.918V117.905H201.664V115.151H202.888V117.905H204.634V118.949H202.888V126.617ZM206.229 126.815C205.617 126.815 205.095 126.311 205.095 125.717C205.095 125.105 205.617 124.583 206.229 124.583C206.841 124.583 207.363 125.105 207.363 125.717C207.363 126.311 206.841 126.815 206.229 126.815Z" fill="#474747"/>
<mask id="mask0_96_10737" style="mask-type:luminance" maskUnits="userSpaceOnUse" x="913" y="80" width="74" height="114">
<path d="M913.954 80.8027H986.56V193.616H913.954V80.8027Z" fill="white"/>
</mask>
<g mask="url(#mask0_96_10737)">
<mask id="mask1_96_10737" style="mask-type:luminance" maskUnits="userSpaceOnUse" x="862" y="149" width="111" height="101">
<path d="M862.602 236.874L879.529 249.131C879.529 249.131 888.999 242.752 889.287 233.618C889.87 214.99 906.147 216.799 913.086 216.544C923.543 216.149 932.577 211.25 925.137 200.875C917.698 190.501 938.562 182.436 955.529 184.237C972.135 185.996 984.853 157.486 949.257 150.376C927.998 146.125 918.248 164.869 911.072 173.163C903.895 181.458 890.208 172.662 886.886 186.736C884.05 198.754 886.484 210.781 876.315 213.091C866.137 215.393 860.407 222.093 862.602 236.874Z" fill="white"/>
</mask>
<g mask="url(#mask1_96_10737)">
<path d="M862.602 236.874L879.529 249.131C879.529 249.131 888.999 242.752 889.287 233.619C889.87 214.991 906.147 216.799 913.086 216.544C923.543 216.15 931.36 211.53 926.51 201.344C921.019 189.819 938.562 182.428 955.529 184.229C972.135 185.988 984.853 157.479 949.257 150.368C927.998 146.118 918.248 164.861 911.072 173.156C903.895 181.45 890.208 172.654 886.886 186.728C884.05 198.747 886.484 210.773 876.315 213.083C866.137 215.394 860.407 222.093 862.602 236.874Z" fill="url(#paint0_linear_96_10737)"/>
</g>
<mask id="mask2_96_10737" style="mask-type:luminance" maskUnits="userSpaceOnUse" x="862" y="149" width="111" height="101">
<path d="M862.602 236.874L879.529 249.131C879.529 249.131 888.999 242.752 889.287 233.618C889.87 214.99 906.147 216.799 913.086 216.544C923.543 216.149 932.577 211.25 925.137 200.875C917.698 190.501 938.562 182.436 955.529 184.237C972.135 185.996 984.853 157.486 949.257 150.376C927.998 146.125 918.248 164.869 911.072 173.163C903.895 181.458 890.208 172.662 886.886 186.736C884.05 198.754 886.484 210.781 876.315 213.091C866.137 215.393 860.407 222.093 862.602 236.874Z" fill="white"/>
</mask>
<g mask="url(#mask2_96_10737)">
<g opacity="0.9">
<path d="M868.79 243.754L869.184 243.943C869.299 243.697 881.178 219.051 900.308 198.162C917.941 178.917 945.522 159.031 976.81 173.533L976.999 173.13C963.073 166.677 948.712 166.381 934.309 172.25C922.808 176.944 911.258 185.56 899.979 197.866C880.808 218.804 868.913 243.507 868.79 243.754Z" fill="#BEB8F2"/>
<path d="M928.399 174.964L928.785 175.177C935.863 162.312 952.494 148.797 952.658 148.666L952.379 148.32C952.223 148.46 935.518 162.024 928.399 174.964Z" fill="#BEB8F2"/>
<path d="M938.106 171.314C955.559 172.53 964.199 184.261 964.281 184.376L964.643 184.122C964.56 183.998 955.805 172.103 938.139 170.878L938.106 171.314Z" fill="#BEB8F2"/>
</g>
</g>
<path d="M929.576 175.916C931.409 180.273 929.182 184.284 927.126 186.94C926.674 186.907 926.403 186.997 925.943 187.063C921.758 187.647 919.851 186.997 915.642 186.923C914.738 186.907 912.091 186.044 911.03 185.624L909.065 184.81C909.065 184.81 906.114 174.337 911.852 172.011C917.59 169.684 916.045 159.376 915.905 153.818C915.815 150.407 916.867 148.812 917.04 147.554C918.823 134.22 915.083 129.954 918.322 125.975C921.906 121.585 927.488 125.523 931.64 120.952C936.325 115.789 932.346 107.297 937.871 103.401C938.816 102.735 939.811 102.069 941.324 101.748C945.056 100.951 947.867 103.302 950.695 100.491C956.384 94.843 965.164 93.3962 969.948 100.129C974.675 106.771 967.77 118.593 951.821 127.192C941.176 134.598 940.871 137.073 941.315 143.181C941.628 147.464 945.311 158.858 938.898 162.73C932.462 166.577 927.48 170.934 929.576 175.916Z" fill="url(#paint1_linear_96_10737)"/>
<mask id="mask3_96_10737" style="mask-type:luminance" maskUnits="userSpaceOnUse" x="908" y="95" width="64" height="96">
<path d="M924.241 190.13L909.37 185.206C909.37 185.206 906.098 174.33 911.836 172.003C917.574 169.677 916.029 159.368 915.889 153.811C915.494 138.726 932.766 141.587 933.917 122.219C934.221 117.073 932.963 107.084 937.855 103.385C943.428 99.1679 947.037 104.084 950.671 100.475C956.359 94.8274 965.139 93.3806 969.924 100.113C974.651 106.756 967.745 118.577 951.797 127.176C941.151 134.583 940.847 137.057 941.291 143.165C941.603 147.448 945.286 158.842 938.874 162.714C932.462 166.586 927.472 170.935 929.568 175.916C932.758 183.496 924.241 190.13 924.241 190.13Z" fill="white"/>
</mask>
<g mask="url(#mask3_96_10737)">
<g opacity="0.5">
<path d="M917.807 187.262L917.503 187.196C917.832 185.511 918.185 183.817 918.547 182.165C921.268 169.908 925.124 158.374 930.015 147.885C934.158 138.998 939.091 130.736 944.681 123.329C949.177 117.369 954.126 111.927 959.379 107.159C963.07 103.805 966.885 100.813 970.699 98.2644C971.365 97.8205 972.072 97.4012 972.754 96.9984C973.667 96.4558 974.612 95.905 975.459 95.2803L975.656 95.5104C974.793 96.1434 973.848 96.7024 972.927 97.245C972.245 97.6478 971.538 98.0671 970.88 98.5028C967.074 101.043 963.276 104.027 959.593 107.373C954.348 112.133 949.416 117.558 944.927 123.51C939.345 130.901 934.421 139.154 930.286 148.016C925.411 158.489 921.556 169.998 918.843 182.239C918.489 183.891 918.136 185.585 917.807 187.262Z" fill="#FCFDFE"/>
<path d="M938.548 132.799L938.277 132.651C944.557 121.947 940.825 100.845 940.784 100.631L941.088 100.59C941.121 100.804 944.878 122.005 938.548 132.799Z" fill="#FCFDFE"/>
<path d="M923.842 164.283L923.554 164.168C926.892 156.391 943.358 151.59 943.522 151.541L943.621 151.821C943.457 151.862 927.13 156.63 923.842 164.283Z" fill="#FCFDFE"/>
<path d="M922.362 168.863L922.057 168.797C923.225 163.404 921.72 155.364 917.807 146.149C917.61 145.688 917.61 145.688 917.618 145.631L917.922 145.697L917.774 145.664L917.922 145.639C917.931 145.672 918.005 145.845 918.095 146.05C922.025 155.315 923.537 163.42 922.362 168.863Z" fill="#FCFDFE"/>
<path d="M918.456 184.201L918.185 184.053C921.251 178.776 930.763 177.403 930.861 177.395L930.919 177.682C930.82 177.69 921.449 179.039 918.456 184.201Z" fill="#FCFDFE"/>
<path d="M917.339 187.243C916.452 182.36 914.051 177.502 909.99 172.397L910.237 172.232C914.331 177.379 916.747 182.278 917.644 187.211L917.339 187.243Z" fill="#FCFDFE"/>
<path d="M956.559 110.233L956.296 110.076C960.152 104.322 962.741 97.3835 963.588 95.1064C963.793 94.5556 963.867 94.3583 963.908 94.3008L964.18 94.4487C964.155 94.4981 964.032 94.8105 963.884 95.2133C963.029 97.4904 960.431 104.445 956.559 110.233Z" fill="#FCFDFE"/>
<path d="M948.774 118.675L948.569 118.453C953.764 114.351 967.6 115.691 968.184 115.748L968.159 116.036C968.019 116.011 953.871 114.647 948.774 118.675Z" fill="#FCFDFE"/>
</g>
</g>
<path d="M899.553 218.928C898.55 218.542 901.09 213.502 899.766 205.931C899.438 204.04 898.353 193.592 890.757 191.43C889.285 191.01 887.805 190.591 886.334 190.172C885.882 186.514 886.128 182.987 890.954 182.814C898.451 182.56 901.345 170.862 900.383 166.233C899.191 160.503 896.692 147.12 908.267 146.545C917.91 146.068 924.305 147.654 927.495 136.795C930.676 125.944 938.609 120.641 948.984 123.897C959.901 127.325 972.224 115.585 980.214 122.499C994.132 134.559 974.18 155.275 953.324 157.552C932.468 159.829 941.972 169.127 940.401 178.26C940.204 179.099 939.842 180.389 939.119 181.828C934.688 190.673 924.503 189.876 915.616 195.828C903.482 203.933 901.238 219.577 899.553 218.928Z" fill="url(#paint2_linear_96_10737)"/>
<mask id="mask4_96_10737" style="mask-type:luminance" maskUnits="userSpaceOnUse" x="886" y="120" width="99" height="80">
<path d="M910.632 199.158L886.537 193.017C885.913 189.425 885.559 183.005 890.952 182.815C898.449 182.561 901.343 170.863 900.381 166.234C899.189 160.504 896.69 147.121 908.265 146.546C917.908 146.069 924.303 147.655 927.493 136.796C930.674 125.945 938.607 120.642 948.982 123.898C959.899 127.326 972.222 115.586 980.212 122.5C994.13 134.56 974.178 155.276 953.322 157.553C932.467 159.83 941.97 169.128 940.399 178.261C938.254 190.732 921.336 183.777 915.581 187.46C911.068 190.354 910.534 195.747 910.632 199.158Z" fill="white"/>
</mask>
<g mask="url(#mask4_96_10737)">
<g opacity="0.5">
<path d="M900.152 192.672L899.659 192.442C915.583 158.811 948.778 133.376 986.305 126.052L986.429 126.553C949.066 133.845 916.01 159.181 900.152 192.672Z" fill="#FCFDFE"/>
<path d="M903.261 186.564L902.858 186.211C913.085 175.318 941.167 180.448 941.446 180.497L941.364 180.999C941.085 180.958 913.29 175.877 903.261 186.564Z" fill="#FCFDFE"/>
<path d="M936.332 148.914L935.897 148.593C943.18 139.287 939.76 121.309 939.727 121.128L940.253 121.054C940.295 121.235 943.756 139.435 936.332 148.914Z" fill="#FCFDFE"/>
<path d="M956.949 136.369L956.777 135.875C970.111 131.979 987.374 140.306 987.547 140.389L987.317 140.841C987.144 140.759 970.078 132.53 956.949 136.369Z" fill="#FCFDFE"/>
</g>
</g>
</g>
<mask id="mask5_96_10737" style="mask-type:luminance" maskUnits="userSpaceOnUse" x="764" y="65" width="71" height="123">
<path d="M828.224 185.507L807.458 187.891C807.458 187.891 802.329 177.69 806.554 169.592C815.178 153.069 800.101 146.665 794.19 143.039C785.271 137.572 779.796 128.867 791.371 123.474C802.945 118.081 788.715 100.818 773.038 94.0685C757.699 87.459 760.592 56.3848 795.103 67.6307C815.712 74.347 815.03 95.466 817.216 106.21C819.403 116.955 835.647 116.001 831.644 129.894C828.224 141.757 820.209 151.046 827.936 158.05C835.68 165.054 837.39 173.702 828.224 185.507Z" fill="white"/>
</mask>
<g mask="url(#mask5_96_10737)">
<path d="M828.224 185.507L807.458 187.891C807.458 187.891 802.329 177.69 806.554 169.592C815.178 153.069 800.101 146.665 794.19 143.039C785.271 137.572 780.716 129.713 789.94 123.211C800.38 115.862 788.707 100.818 773.038 94.0685C757.699 87.459 760.592 56.3848 795.103 67.6307C815.712 74.347 815.03 95.466 817.216 106.21C819.403 116.955 835.647 116.001 831.644 129.894C828.224 141.757 820.209 151.046 827.936 158.05C835.68 165.054 837.39 173.702 828.224 185.507Z" fill="url(#paint3_linear_96_10737)"/>
</g>
<mask id="mask6_96_10737" style="mask-type:luminance" maskUnits="userSpaceOnUse" x="764" y="65" width="71" height="123">
<path d="M828.224 185.507L807.458 187.891C807.458 187.891 802.329 177.69 806.554 169.592C815.178 153.069 800.101 146.665 794.19 143.039C785.271 137.572 779.796 128.867 791.371 123.474C802.945 118.081 788.715 100.818 773.038 94.0685C757.699 87.459 760.592 56.3848 795.103 67.6307C815.712 74.347 815.03 95.466 817.216 106.21C819.403 116.955 835.647 116.001 831.644 129.894C828.224 141.757 820.209 151.046 827.936 158.05C835.68 165.054 837.39 173.702 828.224 185.507Z" fill="white"/>
</mask>
<g mask="url(#mask6_96_10737)">
<g opacity="0.9">
<path d="M819.461 188.469L819.017 188.436C819.033 188.164 820.768 160.863 814.331 133.275C808.396 107.865 794.108 76.9958 759.729 74.2994L759.762 73.8555C775.069 75.0557 787.729 81.846 797.396 94.0209C805.124 103.754 810.96 116.924 814.758 133.176C821.22 160.839 819.477 188.197 819.461 188.469Z" fill="#BEB8F2"/>
<path d="M801.225 99.2901L800.782 99.2819C800.921 84.5997 793.054 64.6644 792.972 64.4671L793.383 64.3027C793.465 64.5083 801.373 84.5257 801.225 99.2901Z" fill="#BEB8F2"/>
<path d="M794.559 91.3573C778.751 83.86 765.466 89.8447 765.335 89.9105L765.146 89.5077C765.277 89.4419 778.743 83.3668 794.74 90.9545L794.559 91.3573Z" fill="#BEB8F2"/>
<path d="M817.561 151.541C810.294 131.442 781.603 129.592 781.324 129.6L781.283 129.164C781.554 129.132 810.639 131.113 817.972 151.393L817.561 151.541Z" fill="#BEB8F2"/>
<path d="M816.697 142.769L816.261 142.728C817.503 129.139 830.845 118.362 830.985 118.255L831.256 118.6C831.116 118.707 817.914 129.377 816.697 142.769Z" fill="#BEB8F2"/>
<path d="M819.197 184.136C817.643 176.162 805.427 171.115 805.304 171.065L805.468 170.654C805.978 170.86 818.029 175.842 819.624 184.054L819.197 184.136Z" fill="#BEB8F2"/>
<path d="M819.698 177.673L819.254 177.649C819.607 171.236 828.305 163.139 831.166 160.484C831.568 160.106 831.922 159.785 831.971 159.711L832.333 159.966C832.259 160.064 832.029 160.278 831.47 160.804C828.642 163.435 820.043 171.442 819.698 177.673Z" fill="#BEB8F2"/>
</g>
</g>
<path d="M819.471 104.955C815.738 107.857 815.706 112.444 816.207 115.765C816.618 115.954 816.807 116.168 817.177 116.456C820.539 119.012 822.52 119.39 826.228 121.388C827.025 121.816 829.755 122.366 830.881 122.523L832.994 122.777C832.994 122.777 840.705 115.099 836.841 110.257C832.977 105.415 839.381 97.1946 842.226 92.4183C843.977 89.4835 843.837 87.5845 844.305 86.4008C849.287 73.9053 854.639 72.0227 853.767 66.9588C852.797 61.3769 845.999 62.0757 844.626 56.0499C843.072 49.2514 850.709 43.801 847.799 37.6931C847.298 36.649 846.763 35.5886 845.604 34.561C842.743 32.0372 839.143 32.7031 838.058 28.8722C835.871 21.1612 828.933 15.5958 821.452 19.1143C814.078 22.5834 814.3 36.2709 823.984 51.5861C829.631 63.2677 828.686 65.5613 825.299 70.6663C822.932 74.2423 814.127 82.3726 817.826 88.8916C821.526 95.4024 823.737 101.642 819.471 104.955Z" fill="url(#paint4_linear_96_10737)"/>
<mask id="mask7_96_10737" style="mask-type:luminance" maskUnits="userSpaceOnUse" x="815" y="18" width="34" height="105">
<path d="M817.154 119.959L832.527 122.959C832.527 122.959 840.706 115.084 836.843 110.242C832.979 105.4 839.383 97.1791 842.227 92.4029C849.963 79.447 833.513 73.4706 842.005 56.0344C844.266 51.398 850.259 43.317 847.809 37.694C845.014 31.2819 839.465 33.8056 838.059 28.8732C835.872 21.1622 828.934 15.5968 821.453 19.1152C814.079 22.5844 814.301 36.2718 823.985 51.587C829.633 63.2687 828.688 65.5622 825.301 70.6673C822.933 74.2433 814.129 82.3736 817.828 88.8926C821.519 95.4116 823.73 101.643 819.464 104.964C812.978 110.003 817.154 119.959 817.154 119.959Z" fill="white"/>
</mask>
<g mask="url(#mask7_96_10737)">
<g opacity="0.5">
<path d="M824.166 120.617L824.462 120.715C825.005 119.088 825.523 117.444 826.016 115.816C829.65 103.797 831.943 91.8524 832.831 80.3188C833.579 70.5444 833.332 60.9261 832.091 51.7272C831.096 44.3285 829.452 37.1601 827.208 30.4273C825.63 25.6922 823.78 21.2201 821.7 17.1262C821.338 16.411 820.927 15.704 820.525 15.0135C819.99 14.0928 819.448 13.1474 819.012 12.1855L818.724 12.2924C819.168 13.2625 819.719 14.2161 820.253 15.145C820.648 15.8273 821.059 16.5343 821.421 17.2413C823.492 21.3188 825.342 25.7826 826.912 30.5013C829.148 37.2176 830.784 44.3696 831.779 51.7518C833.02 60.9343 833.267 70.5361 832.519 80.2941C831.639 91.8113 829.345 103.731 825.72 115.734C825.227 117.345 824.709 118.989 824.166 120.617Z" fill="#FCFDFE"/>
<path d="M832.798 62.9807L833.11 62.9889C832.88 50.5756 846.485 34.0191 846.625 33.8547L846.378 33.6738C846.23 33.83 832.568 50.4687 832.798 62.9807Z" fill="#FCFDFE"/>
<path d="M830.175 97.6303L830.48 97.6714C831.384 89.2617 819.39 76.9964 819.267 76.873L819.045 77.0621C819.168 77.1854 831.063 89.3521 830.175 97.6303Z" fill="#FCFDFE"/>
<path d="M829.222 102.349L829.518 102.439C831.138 97.1699 836.399 90.8975 844.324 84.7813C844.719 84.4772 844.719 84.4772 844.743 84.4196L844.447 84.3292L844.595 84.3785L844.472 84.2881C844.447 84.3127 844.299 84.4278 844.127 84.5594C836.153 90.7002 830.867 97.022 829.222 102.349Z" fill="#FCFDFE"/>
<path d="M825.104 117.632L825.416 117.64C825.334 111.532 817.713 105.679 817.631 105.621L817.442 105.843C817.524 105.901 825.021 111.672 825.104 117.632Z" fill="#FCFDFE"/>
<path d="M824.586 120.83C827.751 117.008 832.223 113.958 838.273 111.492L838.142 111.229C832.05 113.711 827.537 116.794 824.339 120.649L824.586 120.83Z" fill="#FCFDFE"/>
<path d="M828.161 34.48L828.474 34.4718C827.939 27.5664 829.082 20.2499 829.452 17.8495C829.542 17.2658 829.575 17.0603 829.575 16.9863H829.263C829.263 17.0439 829.213 17.3727 829.148 17.8002C828.77 20.2088 827.619 27.5417 828.161 34.48Z" fill="#FCFDFE"/>
<path d="M830.808 45.6514L831.096 45.5528C828.58 39.4283 815.871 33.8136 815.328 33.5752L815.205 33.8383C815.337 33.904 828.334 39.6421 830.808 45.6514Z" fill="#FCFDFE"/>
</g>
</g>
<path d="M812.579 149.726C813.64 149.882 813.903 144.242 818.769 138.291C819.986 136.803 826.053 128.228 833.731 130.07C835.219 130.423 836.715 130.785 838.203 131.138C840.39 128.171 841.911 124.973 837.784 122.466C831.372 118.561 834.586 106.953 837.702 103.385C841.549 98.9791 850.296 88.5388 840.48 82.3568C832.309 77.2106 825.954 75.4596 828.503 64.4357C831.051 53.4199 826.735 44.9115 816.098 42.659C804.901 40.2914 799.919 24.0144 789.561 26.1272C771.517 29.81 778.751 57.6536 795.809 69.8613C812.875 82.0691 800.026 85.5136 796.919 94.2522C796.672 95.0825 796.36 96.3813 796.286 97.9844C795.809 107.866 805.074 112.165 809.908 121.709C816.501 134.723 810.787 149.462 812.579 149.726Z" fill="url(#paint5_linear_96_10737)"/>
<mask id="mask8_96_10737" style="mask-type:luminance" maskUnits="userSpaceOnUse" x="779" y="25" width="66" height="109">
<path d="M812.619 127.055L836.632 133.517C838.934 130.689 842.395 125.271 837.783 122.46C831.371 118.555 834.585 106.947 837.701 103.38C841.548 98.9732 850.295 88.5329 840.479 82.3509C832.308 77.2048 825.953 75.4538 828.502 64.4298C831.05 53.4141 826.734 44.9056 816.097 42.6531C804.9 40.2856 799.918 24.0086 789.56 26.1213C771.516 29.8042 778.75 57.6477 795.808 69.8555C812.874 82.0632 800.025 85.5077 796.918 94.2463C792.668 106.166 810.827 108.402 814.033 114.436C816.549 119.172 814.37 124.137 812.619 127.055Z" fill="white"/>
</mask>
<g mask="url(#mask8_96_10737)">
<g opacity="0.5">
<path d="M824.935 126.545L825.47 126.586C828.084 89.4696 811.618 51.0214 782.5 26.2441L782.146 26.6223C811.141 51.2926 827.533 89.5847 824.935 126.545Z" fill="#FCFDFE"/>
<path d="M824.523 106.158L825.041 106.297C829.094 92.24 845.042 84.7756 845.198 84.7016L844.96 84.2412C844.795 84.3234 828.642 91.8865 824.523 106.158Z" fill="#FCFDFE"/>
<path d="M825.214 119.697L825.74 119.59C822.172 105.08 795.176 95.7828 794.904 95.6924L794.732 96.1692C795.003 96.2678 821.712 105.467 825.214 119.697Z" fill="#FCFDFE"/>
<path d="M814.848 70.6682L815.382 70.6024C813.598 58.9208 825.386 44.9291 825.51 44.7894L825.091 44.4688C824.967 44.6085 813.031 58.7728 814.848 70.6682Z" fill="#FCFDFE"/>
<path d="M803.033 49.6248L803.428 49.2795C793.719 39.3489 774.589 38.1405 774.392 38.124L774.368 38.6337C774.557 38.6501 793.472 39.8504 803.033 49.6248Z" fill="#FCFDFE"/>
</g>
</g>
<path d="M791.833 59.6552C791.833 54.1473 795.055 49.5437 799.084 49.3711L947.665 43.1645C947.829 43.1563 947.994 43.1562 948.158 43.1562C951.282 43.2138 953.962 45.0799 955.614 47.9407C956.658 49.741 957.209 51.9442 957.209 54.3446V62.6558V193.069C957.209 193.867 957.193 194.639 957.061 195.379C957.028 195.568 957.02 195.749 956.979 195.93C956.823 196.653 956.617 197.344 956.346 197.993C955.195 200.755 953.082 202.77 950.517 203.485C949.613 203.74 948.651 203.846 947.648 203.756L832.928 193.028L799.084 189.838C795.055 189.46 791.833 184.668 791.833 179.16V66.8155V59.6552Z" fill="#B7C0CE"/>
<path d="M794.973 49.2825L944.097 43.0676C949.432 42.8457 953.789 47.8603 953.789 54.2642V193.211C953.789 199.623 949.432 204.407 944.097 203.906L794.981 189.972C790.937 189.594 787.681 184.817 787.681 179.293V59.583C787.673 54.0669 790.929 49.4551 794.973 49.2825Z" fill="white"/>
<path d="M944.096 200.239C947.713 200.568 950.673 197.296 950.673 192.956V54.3708C950.673 50.0303 947.713 46.6105 944.096 46.7502L794.981 52.5047C792.227 52.6116 789.999 55.7601 789.999 59.517V179.498C789.999 183.255 792.227 186.519 794.981 186.765L944.096 200.239Z" fill="#F4F7FA"/>
<path d="M794.973 49.2825L944.097 43.0676C949.432 42.8457 953.789 47.8603 953.789 54.2642V62.5918L787.673 66.7515V59.583C787.673 54.0669 790.929 49.4551 794.973 49.2825Z" fill="#D8DEE8"/>
<path d="M936.609 53.3673C936.609 55.2499 937.998 56.7378 939.724 56.6885C941.451 56.6392 942.856 55.069 942.856 53.1783C942.856 51.2875 941.451 49.7995 939.724 49.8571C937.998 49.9146 936.609 51.4848 936.609 53.3673Z" fill="white"/>
<path d="M925.798 53.688C925.798 55.5541 927.163 57.0256 928.856 56.9763C930.55 56.9269 931.931 55.3732 931.931 53.4989C931.931 51.6246 930.55 50.1531 928.856 50.2106C927.163 50.2682 925.798 51.8219 925.798 53.688Z" fill="white"/>
<path d="M915.185 54.0096C915.185 55.8593 916.525 57.3143 918.185 57.2732C919.854 57.2321 921.202 55.6866 921.202 53.8287C921.202 51.9709 919.846 50.5076 918.185 50.5651C916.525 50.6144 915.185 52.1599 915.185 54.0096Z" fill="white"/>
<path d="M796.198 164.808L942.494 174.936V169.058L796.198 159.662V164.808Z" fill="#D8DEE8"/>
<path d="M796.198 177.443L942.494 189.339V183.469L796.198 172.289V177.443Z" fill="#D8DEE8"/>
<g opacity="0.3">
<path d="M850.749 117.507C868.037 86.8353 898.561 97.3578 918.266 62.5924C921.858 56.2625 924.3 49.801 925.977 43.8327L944.087 43.0764C949.422 42.8545 953.779 47.8691 953.779 54.273V193.219C953.779 199.632 949.422 204.416 944.087 203.915L828.964 193.162C832.253 187.457 835.286 181.028 837.867 173.777C847.814 145.827 840.44 135.798 850.749 117.507Z" fill="white"/>
</g>
<path d="M807.089 177.73C820.809 179.309 832.318 168.901 832.318 154.49C832.318 140.079 820.809 127.757 807.089 127.033C793.821 126.343 783.339 136.824 783.339 150.396C783.331 163.961 793.813 176.201 807.089 177.73Z" fill="url(#paint6_linear_96_10737)"/>
<path d="M805.428 178.232C819.131 179.81 830.624 169.419 830.624 155.017C830.624 140.614 819.131 128.299 805.428 127.576C792.176 126.877 781.711 137.359 781.711 150.915C781.711 164.471 792.176 176.703 805.428 178.232Z" fill="url(#paint7_linear_96_10737)"/>
<path d="M783.298 151.045C783.298 163.714 793.056 175.083 805.428 176.48C818.186 177.919 828.832 168.26 828.832 154.86C828.832 141.46 818.186 130.017 805.428 129.318C793.056 128.644 783.298 138.386 783.298 151.045Z" fill="white"/>
<mask id="mask9_96_10737" style="mask-type:luminance" maskUnits="userSpaceOnUse" x="784" y="131" width="44" height="44">
<path d="M784.896 151.186C784.896 162.942 793.955 173.473 805.423 174.739C817.228 176.046 827.052 167.102 827.052 154.721C827.052 142.341 817.228 131.744 805.423 131.07C793.963 130.421 784.896 139.431 784.896 151.186Z" fill="white"/>
</mask>
<g mask="url(#mask9_96_10737)">
<path d="M808.17 136.767C812.215 137.006 816.07 139.669 817.78 143.056C819.852 147.142 817.09 148.819 818.438 155.272C819.679 161.216 822.589 162.498 822.104 166.28C821.578 170.415 817.608 172.667 816.046 173.547C809.033 177.517 798.166 176.169 792.691 169.568C792.23 169.017 788.465 164.479 789.484 160.764C790.397 157.434 794.302 157.796 795.107 154.319C795.806 151.318 793.134 150.068 793.389 145.654C793.439 144.791 793.677 140.697 796.653 139.069C798.642 137.984 800.829 138.543 801.626 138.798C802.596 138.074 804.948 136.578 808.17 136.767Z" fill="url(#paint8_linear_96_10737)"/>
<path d="M828.837 171.245C828.837 171.245 808.244 156.842 783.302 166.535C783.302 166.535 786.451 177.263 805.433 180.008C825.343 182.869 828.837 171.245 828.837 171.245Z" fill="url(#paint9_linear_96_10737)"/>
<path d="M809.042 153.209L809.807 159.153C810.07 161.184 811.41 162.992 813.276 163.831L819.54 166.634C819.54 166.634 807.579 171.336 792.658 163.913L799.44 162.145C801.372 161.586 802.688 159.819 802.778 157.682L802.975 152.708L809.042 153.209Z" fill="url(#paint10_linear_96_10737)"/>
<path d="M799.802 147.273C799.802 152.206 802.679 157.763 806.247 158.092C809.856 158.42 812.799 153.299 812.799 148.284C812.799 143.27 809.856 140.327 806.247 140.08C802.671 139.842 799.802 142.341 799.802 147.273Z" fill="url(#paint11_linear_96_10737)"/>
<path d="M803.386 143.081C805.326 143.328 808.269 144.026 810.316 146.394C813.76 150.381 812.124 156.135 813.653 156.612C815.018 157.04 817.139 153.028 817.106 148.408C817.081 144.544 815.791 139.9 812.453 138.535C810.497 137.737 809.921 138.781 803.632 139.003C799.982 139.127 801.413 140.919 800.599 141.494C796.965 144.035 797.426 153.258 799.382 153.546C800.311 153.677 801.594 151.384 803.386 143.081Z" fill="url(#paint12_linear_96_10737)"/>
</g>
<path d="M867.504 180.493C881.972 182.129 894.114 171.459 894.114 156.653C894.114 141.848 881.972 129.18 867.504 128.44C853.512 127.716 842.464 138.477 842.464 152.403C842.464 166.329 853.512 178.907 867.504 180.493Z" fill="url(#paint13_linear_96_10737)"/>
<path d="M865.752 181.002C880.204 182.638 892.321 171.984 892.321 157.187C892.321 142.39 880.196 129.738 865.752 128.982C851.785 128.258 840.753 139.011 840.753 152.92C840.753 166.83 851.777 179.424 865.752 181.002Z" fill="url(#paint14_linear_96_10737)"/>
<path d="M842.422 153.068C842.422 166.073 852.706 177.755 865.744 179.21C879.201 180.706 890.431 170.8 890.431 157.039C890.431 143.277 879.201 131.514 865.744 130.79C852.706 130.083 842.422 140.071 842.422 153.068Z" fill="white"/>
<mask id="mask10_96_10737" style="mask-type:luminance" maskUnits="userSpaceOnUse" x="844" y="132" width="45" height="46">
<path d="M844.105 153.21C844.105 165.278 853.658 176.096 865.742 177.42C878.188 178.776 888.555 169.602 888.555 156.885C888.555 144.167 878.197 133.283 865.742 132.584C853.658 131.902 844.105 141.15 844.105 153.21Z" fill="white"/>
</mask>
<g mask="url(#mask10_96_10737)">
<path d="M891.186 192.991C893.192 187.886 890.364 179.246 888.58 175.324C883.401 163.914 873.947 163.223 866.252 162.656C858.747 162.105 851.537 161.571 846.301 169.858C842.889 175.25 839.757 185.239 841.845 190.722C844.04 196.501 850.164 192.382 864.863 192.991C881.247 193.665 888.687 199.353 891.186 192.991Z" fill="url(#paint15_linear_96_10737)"/>
<path d="M859.158 163.584C859.158 164.982 862.545 166.774 866.746 166.922C870.955 167.07 874.383 165.5 874.383 164.094C874.383 162.688 870.955 163.198 866.746 163.058C862.553 162.927 859.158 162.187 859.158 163.584Z" fill="url(#paint16_linear_96_10737)"/>
<path d="M869.548 154.148C870.707 154.181 868.035 162.27 872.253 163.536C872.664 163.66 872.729 164.211 872.36 164.4C871.225 164.975 869.104 165.682 865.635 165.559C863.383 165.485 861.747 164.572 860.892 163.964C860.604 163.758 860.629 163.323 860.941 163.167C862.232 162.542 864.024 160.47 863.489 154.165L869.548 154.148Z" fill="url(#paint17_linear_96_10737)"/>
<path d="M873.076 145.936C873.06 146.034 872.706 153.499 871.005 157.182C870.52 158.234 868.094 158.028 866.532 157.856C865.176 157.699 863.055 158.135 862.455 157.173C860.055 153.326 860.466 143.995 860.466 143.995C860.466 143.995 861.69 140.913 866.746 141.118C871.818 141.324 873.076 145.936 873.076 145.936Z" fill="url(#paint18_linear_96_10737)"/>
<path d="M871.884 149.913C871.884 149.913 872.944 148.705 873.947 148.565C874.95 148.425 875.608 151.048 874.235 152.708C872.862 154.361 871.284 152.914 871.284 152.914L871.884 149.913Z" fill="url(#paint19_linear_96_10737)"/>
<path d="M861.568 149.627C861.568 149.627 860.515 148.369 859.521 148.172C858.526 147.983 857.885 150.548 859.233 152.266C860.589 153.992 862.151 152.636 862.151 152.636L861.568 149.627Z" fill="url(#paint20_linear_96_10737)"/>
<path d="M872.714 149.84C872.582 150.087 872.426 150.309 872.319 150.276C871.892 150.152 873.552 146.001 872.023 144.488C871.234 143.707 870.346 144.382 867.124 144.151C863.885 143.921 863.055 143.124 862.085 143.691C861.197 144.209 860.399 145.738 861.057 150.342C860.876 150.292 860.687 150.243 860.506 150.202C860.753 148.706 860.482 147.752 860.177 147.144C859.955 146.7 859.544 146.133 859.577 145.319C859.594 144.817 859.766 144.801 859.791 144.39C859.873 143.181 858.5 142.828 858.435 141.636C858.385 140.715 859.166 140.526 859.026 139.564C858.903 138.742 858.295 138.578 858.385 137.994C858.492 137.361 859.314 136.909 859.89 136.753C860.482 136.597 860.695 136.786 861.041 136.555C861.6 136.177 861.328 135.487 861.731 135.24C862.454 134.804 863.885 136.654 864.806 136.218C865.365 135.955 865.151 135.133 865.644 134.944C866.606 134.582 868.308 137.32 868.99 136.975C869.319 136.81 868.998 136.144 869.459 135.668C870.001 135.109 871.3 135.141 871.892 135.758C872.443 136.333 871.974 136.999 872.558 137.723C873.084 138.372 873.692 138.126 874.284 138.652C875.295 139.548 874.942 141.512 874.818 142.219C874.391 144.636 873.043 145.097 873.347 146.757C873.421 147.185 873.602 147.662 873.478 148.344C873.355 149.018 873.002 149.519 872.714 149.84Z" fill="url(#paint21_linear_96_10737)"/>
<g opacity="0.3">
<path d="M860.399 144.291C860.514 143.108 859.602 142.532 859.758 141.694C859.881 141.02 860.646 140.428 861.361 140.313C862.89 140.074 863.885 142.368 865.414 142.154C866.598 141.99 866.466 140.551 867.798 140.008C869.919 139.145 872.147 141.99 873.561 141.25C873.988 141.028 874.416 140.436 874.449 138.816C875.262 139.77 874.942 141.562 874.827 142.22C874.399 144.637 873.051 145.097 873.355 146.758C873.429 147.185 873.61 147.662 873.487 148.344C873.363 149.018 873.01 149.52 872.722 149.849C872.591 150.095 872.434 150.317 872.328 150.284C871.9 150.161 873.561 146.01 872.032 144.497C871.242 143.716 870.355 144.39 867.132 144.16C863.893 143.93 863.063 143.132 862.093 143.7C861.205 144.217 860.408 145.746 861.065 150.35C860.884 150.301 860.695 150.251 860.514 150.21C860.761 148.714 860.49 147.761 860.186 147.152C860.095 146.971 859.972 146.766 859.857 146.536C859.881 146.141 859.947 145.705 860.087 145.253C860.243 144.719 860.358 144.67 860.399 144.291Z" fill="url(#paint22_linear_96_10737)"/>
</g>
</g>
<path d="M867.675 102.954C884.453 103.62 898.552 89.9735 898.552 72.5127C898.552 55.0602 884.453 41.2247 867.675 41.6604C851.48 42.0797 838.713 55.7343 838.713 72.1099C838.713 88.4856 851.48 102.313 867.675 102.954Z" fill="url(#paint23_linear_96_10737)"/>
<path d="M865.579 102.938C882.325 103.596 896.398 89.9662 896.398 72.5301C896.398 55.0857 882.325 41.2667 865.579 41.7024C849.417 42.1217 836.667 55.768 836.667 72.1273C836.667 88.4865 849.417 102.297 865.579 102.938Z" fill="url(#paint24_linear_96_10737)"/>
<path d="M838.606 72.1348C838.606 87.4253 850.485 100.266 865.579 100.825C881.173 101.409 894.203 88.7406 894.203 72.5129C894.203 56.2853 881.173 43.4445 865.579 43.8144C850.485 44.1679 838.606 56.8443 838.606 72.1348Z" fill="white"/>
<mask id="mask11_96_10737" style="mask-type:luminance" maskUnits="userSpaceOnUse" x="840" y="45" width="53" height="54">
<path d="M840.558 72.1458C840.558 86.3347 851.598 98.2219 865.59 98.7151C880.009 99.2166 892.036 87.4856 892.036 72.4993C892.036 57.5129 880.009 45.6176 865.59 45.9217C851.59 46.2259 840.558 57.9568 840.558 72.1458Z" fill="white"/>
</mask>
<g mask="url(#mask11_96_10737)">
<path d="M839.258 108.209C841.954 111.982 847.75 109.68 865.194 110.001C883.756 110.338 890.333 112.878 893.325 108.85C896.088 105.134 893.802 91.7015 890.514 87.9282C886.79 83.6616 881.479 82.3134 874.607 81.7873C871.927 81.5818 869.009 81.4996 865.852 81.4174C862.843 81.3434 860.179 81.2694 857.787 81.3187C851.852 81.4338 847.577 82.2723 844.001 85.4866C839.332 89.6874 836.356 104.156 839.258 108.209Z" fill="url(#paint25_linear_96_10737)"/>
<path d="M857.787 81.3187C857.804 81.5818 857.837 81.8366 857.894 82.0832C858.815 85.7497 860.829 93.4278 862.843 98.7384C864.232 102.413 865.63 104.953 866.658 104.271C867.463 103.737 868.433 101.854 869.411 99.3714C871.409 94.3403 873.489 86.843 874.475 83.1108C874.591 82.6916 874.623 82.2312 874.599 81.7873C871.919 81.5818 869 81.4996 865.844 81.4174C862.851 81.3434 860.188 81.2694 857.787 81.3187Z" fill="#F9F9F9"/>
<path d="M870.423 72.9668C870.423 72.9668 869.231 81.5574 870.875 82.3713L866.197 87.4846L861.479 81.4423C861.479 81.4423 863.263 80.0859 862.794 73.0079L870.423 72.9668Z" fill="url(#paint26_linear_96_10737)"/>
<path d="M868.021 85.652L864.528 85.5205L865.621 88.6855H867.421L868.021 85.652Z" fill="url(#paint27_linear_96_10737)"/>
<path d="M862.852 98.871C864.241 102.546 865.638 105.028 866.666 104.338C867.472 103.803 868.442 102.011 869.42 99.5369L867.422 88.6855H865.63L862.852 98.871Z" fill="url(#paint28_linear_96_10737)"/>
<path d="M859.251 66.7025C859.251 72.0049 862.366 77.7347 866.247 77.7923C870.16 77.8416 873.357 72.0953 873.357 66.7107C873.357 61.3262 870.16 58.4078 866.247 58.4407C862.366 58.4736 859.251 61.4002 859.251 66.7025Z" fill="url(#paint29_linear_96_10737)"/>
<path d="M873.571 68.0666C873.176 68.0009 872.782 67.9351 872.395 67.8775C872.576 67.4336 873.316 65.4853 872.395 63.7754C871.507 62.1395 869.428 61.3503 867.833 61.4654C866.032 61.5969 864.947 62.4519 864.051 61.8024C863.541 61.4325 863.377 60.7666 863.32 60.2487C863.278 60.5858 863.188 61.079 862.958 61.6216C862.292 63.1917 861.157 63.5206 860.541 64.5564C860.13 65.2551 859.859 66.4225 860.541 68.4777C860.196 68.453 859.859 68.4365 859.522 68.4119C859.16 67.261 858.732 65.6251 858.461 63.6274C858.066 60.6598 857.787 58.6128 858.921 57.6099C859.143 57.4126 860.146 56.6152 862.53 57.3304C863.089 56.7303 864.273 55.6205 866.098 55.045C866.731 54.8477 869.863 53.8612 872.65 55.8753C874.549 57.2482 876.045 59.8377 875.56 61.9997C875.305 63.1424 874.615 63.6603 874.006 65.8635C873.743 66.7842 873.628 67.5734 873.571 68.0666Z" fill="url(#paint30_linear_96_10737)"/>
<path d="M860.22 68.6582C860.22 68.6582 859.768 66.3317 858.411 66.5619C857.055 66.7921 858.995 70.5983 860.22 71.0586V68.6582Z" fill="url(#paint31_linear_96_10737)"/>
<path d="M872.469 68.6916C872.469 68.6916 872.929 66.3322 874.335 66.5706C875.749 66.809 873.727 70.6728 872.469 71.1331V68.6916Z" fill="url(#paint32_linear_96_10737)"/>
</g>
<path d="M928.165 183.551C943.406 184.06 956.197 172.165 956.197 157.014C956.197 141.863 943.406 129.878 928.165 130.289C913.433 130.683 901.809 142.587 901.809 156.833C901.817 171.08 913.441 183.057 928.165 183.551Z" fill="url(#paint33_linear_96_10737)"/>
<path d="M926.331 183.476C941.548 183.986 954.314 172.099 954.314 156.956C954.314 141.814 941.539 129.844 926.331 130.255C911.624 130.65 900.017 142.545 900.017 156.775C900.017 171.005 911.624 182.983 926.331 183.476Z" fill="url(#paint34_linear_96_10737)"/>
<path d="M901.784 156.783C901.784 170.084 912.602 181.207 926.331 181.642C940.503 182.086 952.333 171.038 952.333 156.956C952.333 142.865 940.503 131.743 926.331 132.096C912.602 132.433 901.784 143.482 901.784 156.783Z" fill="white"/>
<mask id="mask12_96_10737" style="mask-type:luminance" maskUnits="userSpaceOnUse" x="903" y="133" width="48" height="47">
<path d="M903.561 156.791C903.561 169.13 913.615 179.431 926.34 179.809C939.444 180.195 950.361 169.96 950.361 156.947C950.361 143.934 939.444 133.633 926.34 133.929C913.607 134.217 903.561 144.452 903.561 156.791Z" fill="white"/>
</mask>
<g mask="url(#mask12_96_10737)">
<path d="M945.248 173.932C946.629 170.084 941.45 168.58 940.785 159.504C940.743 158.888 939.864 146.507 937.915 144.09C937.661 143.77 937.365 143.515 937.365 143.515C936.395 142.759 934.89 142.808 929.547 140.498C924.984 138.533 925.247 138.591 924.655 138.476C921.236 137.785 916.205 140.728 914.552 144.773C913.072 148.39 914.848 151.563 912.193 157.909C908.913 167.034 907.277 171.589 908.757 174.54C913.278 183.533 942.149 182.547 945.248 173.932Z" fill="url(#paint35_linear_96_10737)"/>
<path d="M952.335 174.162C952.335 174.162 929.465 160.762 901.786 173.036C901.786 173.036 905.271 184.043 926.333 185.326C948.455 186.682 952.335 174.162 952.335 174.162Z" fill="url(#paint36_linear_96_10737)"/>
<path d="M930.344 156.882L931.191 163.064C931.478 165.177 932.966 166.961 935.046 167.684L942.001 170.109C942.001 170.109 928.716 176.053 912.16 169.517L919.682 167.092C921.827 166.344 923.291 164.38 923.381 162.119L923.595 156.874L930.344 156.882Z" fill="url(#paint37_linear_96_10737)"/>
<path d="M920.084 151.424C920.084 156.603 923.274 162.201 927.244 162.242C931.248 162.283 934.52 156.652 934.52 151.383C934.52 146.113 931.248 143.269 927.244 143.318C923.274 143.376 920.084 146.245 920.084 151.424Z" fill="url(#paint38_linear_96_10737)"/>
<path d="M934.758 154.786C934.068 154.745 935.063 149.278 932.383 147.766C930.607 146.763 927.524 147.684 925.798 149.459C923.077 152.263 924.598 156.299 922.542 157.154C921.235 157.696 919.501 156.529 918.662 155.682C916.065 153.044 916.418 147.462 919.493 144.305C921.942 141.781 925.288 141.666 926.077 141.666C930.64 141.65 934.849 144.946 935.811 148.859C936.551 151.86 935.276 154.811 934.758 154.786Z" fill="url(#paint39_linear_96_10737)"/>
</g>
<path d="M806.176 125.029C806.472 125.037 806.735 124.79 806.735 124.478V115.147L928.204 116.742V126.574C928.204 126.895 928.434 127.166 928.763 127.174C929.092 127.182 929.322 126.919 929.322 126.599V116.134C929.322 115.805 929.248 115.632 928.919 115.624L806.053 114.07C805.757 114.07 805.625 114.227 805.625 114.539V124.461C805.617 124.765 805.88 125.02 806.176 125.029Z" fill="url(#paint40_linear_96_10737)"/>
<path d="M865.931 126.08C866.244 126.089 866.49 125.834 866.49 125.521V105.134C866.49 104.822 866.244 104.559 865.931 104.559C865.619 104.559 865.372 104.813 865.372 105.126V125.505C865.372 125.817 865.619 126.08 865.931 126.08Z" fill="url(#paint41_linear_96_10737)"/>
</g>
<defs>
<linearGradient id="paint0_linear_96_10737" x1="963.889" y1="160.038" x2="860.848" y2="231.421" gradientUnits="userSpaceOnUse">
<stop offset="0.00359712" stop-color="#E38DDD"/>
<stop offset="1" stop-color="#9571F6"/>
</linearGradient>
<linearGradient id="paint1_linear_96_10737" x1="958.639" y1="91.7165" x2="899.396" y2="199.752" gradientUnits="userSpaceOnUse">
<stop offset="0.00359712" stop-color="#E38DDD"/>
<stop offset="1" stop-color="#9571F6"/>
</linearGradient>
<linearGradient id="paint2_linear_96_10737" x1="942.746" y1="144.621" x2="862.1" y2="224.694" gradientUnits="userSpaceOnUse">
<stop stop-color="#FCB148"/>
<stop offset="0.0520724" stop-color="#FDBA46"/>
<stop offset="0.1424" stop-color="#FFC244"/>
<stop offset="0.3183" stop-color="#FFC444"/>
<stop offset="0.4849" stop-color="#FDB946"/>
<stop offset="0.7754" stop-color="#F99C4D"/>
<stop offset="0.8658" stop-color="#F8924F"/>
<stop offset="1" stop-color="#F8924F"/>
</linearGradient>
<linearGradient id="paint3_linear_96_10737" x1="777.628" y1="68.8808" x2="832.43" y2="181.617" gradientUnits="userSpaceOnUse">
<stop offset="0.00359712" stop-color="#E38DDD"/>
<stop offset="1" stop-color="#9571F6"/>
</linearGradient>
<linearGradient id="paint4_linear_96_10737" x1="835.418" y1="17.3219" x2="834.094" y2="140.528" gradientUnits="userSpaceOnUse">
<stop offset="0.00359712" stop-color="#E38DDD"/>
<stop offset="1" stop-color="#9571F6"/>
</linearGradient>
<linearGradient id="paint5_linear_96_10737" x1="811.364" y1="63.7815" x2="842.403" y2="173.106" gradientUnits="userSpaceOnUse">
<stop stop-color="#FCB148"/>
<stop offset="0.0520724" stop-color="#FDBA46"/>
<stop offset="0.1424" stop-color="#FFC244"/>
<stop offset="0.3183" stop-color="#FFC444"/>
<stop offset="0.4849" stop-color="#FDB946"/>
<stop offset="0.7754" stop-color="#F99C4D"/>
<stop offset="0.8658" stop-color="#F8924F"/>
<stop offset="1" stop-color="#F8924F"/>
</linearGradient>
<linearGradient id="paint6_linear_96_10737" x1="832.318" y1="152.447" x2="783.334" y2="152.447" gradientUnits="userSpaceOnUse">
<stop stop-color="#444B8C"/>
<stop offset="0.9964" stop-color="#26264F"/>
</linearGradient>
<linearGradient id="paint7_linear_96_10737" x1="830.619" y1="152.968" x2="781.707" y2="152.968" gradientUnits="userSpaceOnUse">
<stop offset="0.00359712" stop-color="#E38DDD"/>
<stop offset="1" stop-color="#9571F6"/>
</linearGradient>
<linearGradient id="paint8_linear_96_10737" x1="797.917" y1="135.492" x2="804.943" y2="157.273" gradientUnits="userSpaceOnUse">
<stop stop-color="#AB316D"/>
<stop offset="1" stop-color="#792D3D"/>
</linearGradient>
<linearGradient id="paint9_linear_96_10737" x1="828.836" y1="171.817" x2="783.303" y2="171.817" gradientUnits="userSpaceOnUse">
<stop stop-color="#FF9085"/>
<stop offset="1" stop-color="#FB6FBB"/>
</linearGradient>
<linearGradient id="paint10_linear_96_10737" x1="806.154" y1="154.779" x2="806.063" y2="172.557" gradientUnits="userSpaceOnUse">
<stop offset="0.003597" stop-color="#F36F56"/>
<stop offset="1" stop-color="#FFC444"/>
</linearGradient>
<linearGradient id="paint11_linear_96_10737" x1="803.589" y1="129.567" x2="807.64" y2="156.872" gradientUnits="userSpaceOnUse">
<stop offset="0.003597" stop-color="#F36F56"/>
<stop offset="1" stop-color="#FFC444"/>
</linearGradient>
<linearGradient id="paint12_linear_96_10737" x1="802.822" y1="133.807" x2="810.104" y2="156.382" gradientUnits="userSpaceOnUse">
<stop stop-color="#AB316D"/>
<stop offset="1" stop-color="#792D3D"/>
</linearGradient>
<linearGradient id="paint13_linear_96_10737" x1="894.114" y1="154.53" x2="842.462" y2="154.53" gradientUnits="userSpaceOnUse">
<stop stop-color="#444B8C"/>
<stop offset="0.9964" stop-color="#26264F"/>
</linearGradient>
<linearGradient id="paint14_linear_96_10737" x1="892.321" y1="155.064" x2="840.747" y2="155.064" gradientUnits="userSpaceOnUse">
<stop offset="0.00359712" stop-color="#E38DDD"/>
<stop offset="1" stop-color="#9571F6"/>
</linearGradient>
<linearGradient id="paint15_linear_96_10737" x1="875.844" y1="188.702" x2="851.376" y2="172.39" gradientUnits="userSpaceOnUse">
<stop offset="0.00359712" stop-color="#E38DDD"/>
<stop offset="1" stop-color="#9571F6"/>
</linearGradient>
<linearGradient id="paint16_linear_96_10737" x1="866.71" y1="167.529" x2="866.904" y2="155.662" gradientUnits="userSpaceOnUse">
<stop stop-color="#AA80F9"/>
<stop offset="0.9964" stop-color="#6165D7"/>
</linearGradient>
<linearGradient id="paint17_linear_96_10737" x1="866.608" y1="168.695" x2="866.672" y2="158.426" gradientUnits="userSpaceOnUse">
<stop stop-color="#AB316D"/>
<stop offset="1" stop-color="#792D3D"/>
</linearGradient>
<linearGradient id="paint18_linear_96_10737" x1="867.475" y1="155.461" x2="865.78" y2="135.059" gradientUnits="userSpaceOnUse">
<stop stop-color="#AB316D"/>
<stop offset="1" stop-color="#792D3D"/>
</linearGradient>
<linearGradient id="paint19_linear_96_10737" x1="873.444" y1="155.078" x2="871.766" y2="134.873" gradientUnits="userSpaceOnUse">
<stop stop-color="#AB316D"/>
<stop offset="1" stop-color="#792D3D"/>
</linearGradient>
<linearGradient id="paint20_linear_96_10737" x1="860.68" y1="155.815" x2="858.986" y2="135.423" gradientUnits="userSpaceOnUse">
<stop stop-color="#AB316D"/>
<stop offset="1" stop-color="#792D3D"/>
</linearGradient>
<linearGradient id="paint21_linear_96_10737" x1="867.934" y1="145.688" x2="863.403" y2="131.634" gradientUnits="userSpaceOnUse">
<stop stop-color="#311944"/>
<stop offset="1" stop-color="#6B3976"/>
</linearGradient>
<linearGradient id="paint22_linear_96_10737" x1="867.921" y1="145.65" x2="863.358" y2="131.497" gradientUnits="userSpaceOnUse">
<stop stop-color="#311944"/>
<stop offset="1" stop-color="#6B3976"/>
</linearGradient>
<linearGradient id="paint23_linear_96_10737" x1="898.551" y1="72.3089" x2="838.715" y2="72.3089" gradientUnits="userSpaceOnUse">
<stop stop-color="#444B8C"/>
<stop offset="0.9964" stop-color="#26264F"/>
</linearGradient>
<linearGradient id="paint24_linear_96_10737" x1="896.398" y1="72.3219" x2="836.671" y2="72.3219" gradientUnits="userSpaceOnUse">
<stop stop-color="#FF9085"/>
<stop offset="1" stop-color="#FB6FBB"/>
</linearGradient>
<linearGradient id="paint25_linear_96_10737" x1="844.234" y1="57.2292" x2="875.596" y2="118.963" gradientUnits="userSpaceOnUse">
<stop stop-color="#444B8C"/>
<stop offset="0.9964" stop-color="#3E4177"/>
</linearGradient>
<linearGradient id="paint26_linear_96_10737" x1="867.726" y1="73.2537" x2="863.924" y2="92.1694" gradientUnits="userSpaceOnUse">
<stop stop-color="#FFC444"/>
<stop offset="0.9964" stop-color="#F36F56"/>
</linearGradient>
<linearGradient id="paint27_linear_96_10737" x1="868.019" y1="87.1052" x2="864.529" y2="87.1052" gradientUnits="userSpaceOnUse">
<stop stop-color="#444B8C"/>
<stop offset="0.9964" stop-color="#3E4177"/>
</linearGradient>
<linearGradient id="paint28_linear_96_10737" x1="869.42" y1="96.5684" x2="862.85" y2="96.5684" gradientUnits="userSpaceOnUse">
<stop stop-color="#444B8C"/>
<stop offset="0.9964" stop-color="#3E4177"/>
</linearGradient>
<linearGradient id="paint29_linear_96_10737" x1="863.437" y1="49.0785" x2="868.069" y2="77.6838" gradientUnits="userSpaceOnUse">
<stop offset="0.003597" stop-color="#F36F56"/>
<stop offset="1" stop-color="#FFC444"/>
</linearGradient>
<linearGradient id="paint30_linear_96_10737" x1="865.875" y1="54.9727" x2="868.138" y2="68.9461" gradientUnits="userSpaceOnUse">
<stop stop-color="#444B8C"/>
<stop offset="0.9964" stop-color="#26264F"/>
</linearGradient>
<linearGradient id="paint31_linear_96_10737" x1="856.23" y1="50.4161" x2="860.822" y2="78.7791" gradientUnits="userSpaceOnUse">
<stop offset="0.003597" stop-color="#F36F56"/>
<stop offset="1" stop-color="#FFC444"/>
</linearGradient>
<linearGradient id="paint32_linear_96_10737" x1="870.188" y1="47.791" x2="874.859" y2="76.6399" gradientUnits="userSpaceOnUse">
<stop offset="0.003597" stop-color="#F36F56"/>
<stop offset="1" stop-color="#FFC444"/>
</linearGradient>
<linearGradient id="paint33_linear_96_10737" x1="956.198" y1="156.925" x2="901.815" y2="156.925" gradientUnits="userSpaceOnUse">
<stop stop-color="#444B8C"/>
<stop offset="0.9964" stop-color="#26264F"/>
</linearGradient>
<linearGradient id="paint34_linear_96_10737" x1="954.319" y1="156.87" x2="900.021" y2="156.87" gradientUnits="userSpaceOnUse">
<stop offset="0.00359712" stop-color="#E38DDD"/>
<stop offset="1" stop-color="#9571F6"/>
</linearGradient>
<linearGradient id="paint35_linear_96_10737" x1="893.311" y1="102.397" x2="957.543" y2="224.04" gradientUnits="userSpaceOnUse">
<stop stop-color="#AB316D"/>
<stop offset="1" stop-color="#792D3D"/>
</linearGradient>
<linearGradient id="paint36_linear_96_10737" x1="927.034" y1="173.123" x2="929.469" y2="216.653" gradientUnits="userSpaceOnUse">
<stop stop-color="#444B8C"/>
<stop offset="0.9964" stop-color="#26264F"/>
</linearGradient>
<linearGradient id="paint37_linear_96_10737" x1="927.139" y1="158.972" x2="927.045" y2="177.145" gradientUnits="userSpaceOnUse">
<stop offset="0.003597" stop-color="#F36F56"/>
<stop offset="1" stop-color="#FFC444"/>
</linearGradient>
<linearGradient id="paint38_linear_96_10737" x1="924.479" y1="132.447" x2="928.704" y2="160.919" gradientUnits="userSpaceOnUse">
<stop offset="0.003597" stop-color="#F36F56"/>
<stop offset="1" stop-color="#FFC444"/>
</linearGradient>
<linearGradient id="paint39_linear_96_10737" x1="914.047" y1="127.276" x2="938.56" y2="173.7" gradientUnits="userSpaceOnUse">
<stop stop-color="#AB316D"/>
<stop offset="1" stop-color="#792D3D"/>
</linearGradient>
<linearGradient id="paint40_linear_96_10737" x1="929.32" y1="120.624" x2="805.617" y2="120.624" gradientUnits="userSpaceOnUse">
<stop stop-color="#444B8C"/>
<stop offset="0.9964" stop-color="#26264F"/>
</linearGradient>
<linearGradient id="paint41_linear_96_10737" x1="866.49" y1="115.32" x2="865.373" y2="115.32" gradientUnits="userSpaceOnUse">
<stop stop-color="#444B8C"/>
<stop offset="0.9964" stop-color="#26264F"/>
</linearGradient>
<clipPath id="clip0_96_10737">
<rect width="1092" height="227" fill="white"/>
</clipPath>
</defs>
</svg>
