<svg width="24" height="25" viewBox="0 0 24 25" fill="none" xmlns="http://www.w3.org/2000/svg">
<path d="M16 6.25195V5.45195C16 4.33185 16 3.7718 15.782 3.34397C15.5903 2.96765 15.2843 2.66169 14.908 2.46994C14.4802 2.25195 13.9201 2.25195 12.8 2.25195H11.2C10.0799 2.25195 9.51984 2.25195 9.09202 2.46994C8.71569 2.66169 8.40973 2.96765 8.21799 3.34397C8 3.7718 8 4.33185 8 5.45195V6.25195M10 11.752V16.752M14 11.752V16.752M3 6.25195H21M19 6.25195V17.452C19 19.1321 19 19.9722 18.673 20.6139C18.3854 21.1784 17.9265 21.6374 17.362 21.925C16.7202 22.252 15.8802 22.252 14.2 22.252H9.8C8.11984 22.252 7.27976 22.252 6.63803 21.925C6.07354 21.6374 5.6146 21.1784 5.32698 20.6139C5 19.9722 5 19.1321 5 17.452V6.25195" stroke="#FF331E" stroke-width="1.5" stroke-linecap="round" stroke-linejoin="round"/>
</svg>
