<svg width="38" height="38" viewBox="0 0 38 38" fill="none" xmlns="http://www.w3.org/2000/svg">
<path d="M11.5726 8.34718C12.0224 11.9458 12.1724 15.5944 12.2223 19.2429C12.2723 21.4921 13.4718 23.6912 15.671 24.8908C18.4699 26.3902 22.0185 25.5905 23.9178 23.0415C25.7671 20.4925 25.5172 17.1438 23.5679 14.9446C21.7186 12.8454 19.9193 10.7462 18.27 8.49712L12.4722 0.700154C11.8725 -0.0995352 10.573 0.400271 10.6729 1.44986L11.5726 8.34718ZM22.2184 21.3921C21.0189 23.3414 18.4699 23.8911 16.5207 22.6916C14.7214 21.5421 14.1216 19.2429 15.0212 17.3937C15.0712 17.2437 15.1712 17.1438 15.2212 16.9938C15.3211 16.8439 15.4711 16.644 15.571 16.494C16.4707 15.3944 17.8701 14.8946 19.2196 15.0946C19.5695 15.1445 19.9193 15.2445 20.2192 15.3445C20.4191 15.4444 20.669 15.5444 20.869 15.6943C22.8682 16.8939 23.418 19.4429 22.2184 21.3921Z" fill="#FFFFFF"/>
<path d="M21.169 0.799455C20.2193 0.649513 19.6196 1.79907 20.2193 2.54877C21.5188 4.09817 22.3685 5.74753 22.9183 7.39689C23.0183 7.69677 23.2182 7.8967 23.5181 8.04664C24.1678 8.34652 24.8176 8.69638 25.4173 9.09623C30.7652 12.6448 32.4146 19.942 29.0659 25.4399C25.5173 31.2876 17.9202 33.0369 12.2225 29.4383C7.12443 26.1896 5.27515 19.7921 7.57426 14.4441C7.7242 14.1443 7.67422 13.7944 7.52428 13.4945C6.67461 11.9951 6.02486 10.3957 5.62502 8.69638C5.42509 7.79673 4.27554 7.54683 3.72575 8.29654C3.57581 8.49646 3.42587 8.74636 3.27593 8.94629C-2.32189 17.443 0.0271928 28.9885 8.52389 34.6363C17.2205 40.3341 28.866 37.8351 34.4138 29.0885C39.9117 20.4418 37.3127 8.99627 28.6661 3.49841C26.317 2.04897 23.768 1.14932 21.169 0.799455Z" fill="#FFFFFF"/>
</svg>
