<svg width="25" height="25" viewBox="0 0 25 25" fill="none" xmlns="http://www.w3.org/2000/svg">
<path d="M9.54117 9.95996C9.77628 9.29163 10.2403 8.72807 10.8511 8.36909C11.4619 8.01012 12.1801 7.8789 12.8783 7.99867C13.5766 8.11845 14.21 8.48149 14.6662 9.02349C15.1225 9.56549 15.3722 10.2515 15.3712 10.96C15.3712 12.96 12.3712 13.96 12.3712 13.96M12.4512 17.96H12.4612M22.4512 12.96C22.4512 18.4828 17.974 22.96 12.4512 22.96C6.92832 22.96 2.45117 18.4828 2.45117 12.96C2.45117 7.43711 6.92832 2.95996 12.4512 2.95996C17.974 2.95996 22.4512 7.43711 22.4512 12.96Z" stroke="#0E0E0E" stroke-width="1.5" stroke-linecap="round" stroke-linejoin="round"/>
</svg>
