<svg width="25" height="25" viewBox="0 0 25 25" fill="none" xmlns="http://www.w3.org/2000/svg">
<path d="M20.4512 21.96C20.4512 20.5644 20.4512 19.8666 20.2789 19.2988C19.8911 18.0204 18.8907 17.02 17.6123 16.6322C17.0445 16.46 16.3467 16.46 14.9512 16.46H9.95118C8.55561 16.46 7.85783 16.46 7.29003 16.6322C6.01163 17.02 5.01121 18.0204 4.62341 19.2988C4.45117 19.8666 4.45117 20.5644 4.45117 21.96M16.9512 8.45996C16.9512 10.9452 14.9365 12.96 12.4512 12.96C9.96589 12.96 7.95117 10.9452 7.95117 8.45996C7.95117 5.97468 9.96589 3.95996 12.4512 3.95996C14.9365 3.95996 16.9512 5.97468 16.9512 8.45996Z" stroke="black" stroke-width="1.5" stroke-linecap="round" stroke-linejoin="round"/>
</svg>
