<svg width="179" height="38" viewBox="0 0 179 38" fill="none" xmlns="http://www.w3.org/2000/svg">
<path d="M11.5726 8.34718C12.0224 11.9458 12.1724 15.5944 12.2223 19.2429C12.2723 21.4921 13.4718 23.6912 15.671 24.8908C18.4699 26.3902 22.0185 25.5905 23.9178 23.0415C25.7671 20.4925 25.5172 17.1438 23.5679 14.9446C21.7186 12.8454 19.9193 10.7462 18.27 8.49712L12.4722 0.700154C11.8725 -0.0995352 10.573 0.400271 10.6729 1.44986L11.5726 8.34718ZM22.2184 21.3921C21.0189 23.3414 18.4699 23.8911 16.5207 22.6916C14.7214 21.5421 14.1216 19.2429 15.0212 17.3937C15.0712 17.2437 15.1712 17.1438 15.2212 16.9938C15.3211 16.8439 15.4711 16.644 15.571 16.494C16.4707 15.3944 17.8701 14.8946 19.2196 15.0946C19.5695 15.1445 19.9193 15.2445 20.2192 15.3445C20.4191 15.4444 20.669 15.5444 20.869 15.6943C22.8682 16.8939 23.418 19.4429 22.2184 21.3921Z" fill="#0E0E0E"/>
<path d="M21.169 0.799455C20.2193 0.649513 19.6196 1.79907 20.2193 2.54877C21.5188 4.09817 22.3685 5.74753 22.9183 7.39689C23.0183 7.69677 23.2182 7.8967 23.5181 8.04664C24.1678 8.34652 24.8176 8.69638 25.4173 9.09623C30.7652 12.6448 32.4146 19.942 29.0659 25.4399C25.5173 31.2876 17.9202 33.0369 12.2225 29.4383C7.12443 26.1896 5.27515 19.7921 7.57426 14.4441C7.7242 14.1443 7.67422 13.7944 7.52428 13.4945C6.67461 11.9951 6.02486 10.3957 5.62502 8.69638C5.42509 7.79673 4.27554 7.54683 3.72575 8.29654C3.57581 8.49646 3.42587 8.74636 3.27593 8.94629C-2.32189 17.443 0.0271928 28.9885 8.52389 34.6363C17.2205 40.3341 28.866 37.8351 34.4138 29.0885C39.9117 20.4418 37.3127 8.99627 28.6661 3.49841C26.317 2.04897 23.768 1.14932 21.169 0.799455Z" fill="#0E0E0E"/>
<path d="M60.4622 28.2819C55.458 28.2819 52.2158 24.8048 52.2158 19.4247C52.2158 14.0916 55.5755 10.544 60.6032 10.544C64.6676 10.544 67.6984 12.9169 68.2857 16.6054H65.114C64.5267 14.6084 62.8116 13.4337 60.5327 13.4337C57.361 13.4337 55.364 15.7361 55.364 19.4012C55.364 23.0428 57.3845 25.3922 60.5327 25.3922C62.8586 25.3922 64.6441 24.1705 65.208 22.2675H68.3327C67.6749 25.8855 64.5267 28.2819 60.4622 28.2819ZM73.126 28.3054C70.6591 28.3054 69.1555 26.8723 69.1555 24.6873C69.1555 22.5494 70.7061 21.2102 73.4549 20.9988L76.932 20.7404V20.4819C76.932 18.9078 75.9923 18.2735 74.5357 18.2735C72.8441 18.2735 71.9043 18.9783 71.9043 20.2H69.461C69.461 17.6861 71.5284 16.0416 74.6766 16.0416C77.8013 16.0416 79.7278 17.7331 79.7278 20.9518V28H77.214L77.0025 26.2849C76.5091 27.4831 74.9351 28.3054 73.126 28.3054ZM74.0658 26.144C75.8278 26.144 76.9555 25.0867 76.9555 23.3012V22.6904L74.5357 22.8783C72.7501 23.0428 72.0688 23.6301 72.0688 24.5699C72.0688 25.6271 72.7736 26.144 74.0658 26.144ZM89.1219 16.347V19.0018H88.0647C85.9972 19.0018 84.7051 20.106 84.7051 22.3614V28H81.8388V16.4175H84.5406L84.7051 18.109C85.1984 16.9578 86.3026 16.1825 87.8532 16.1825C88.2526 16.1825 88.652 16.2295 89.1219 16.347ZM93.012 28H90.3572V10.5205H93.2235V18.0855C93.9753 16.7934 95.5259 16.0181 97.2879 16.0181C100.601 16.0181 102.621 18.6024 102.621 22.2675C102.621 25.8386 100.436 28.3054 97.1 28.3054C95.3614 28.3054 93.8813 27.5301 93.2 26.191L93.012 28ZM93.247 22.15C93.247 24.241 94.5391 25.6741 96.5126 25.6741C98.5331 25.6741 99.7313 24.2175 99.7313 22.15C99.7313 20.0825 98.5331 18.6024 96.5126 18.6024C94.5391 18.6024 93.247 20.059 93.247 22.15ZM103.517 22.1735C103.517 18.5554 106.125 16.0651 109.72 16.0651C113.314 16.0651 115.922 18.5554 115.922 22.1735C115.922 25.7916 113.314 28.2819 109.72 28.2819C106.125 28.2819 103.517 25.7916 103.517 22.1735ZM106.383 22.1735C106.383 24.288 107.746 25.7211 109.72 25.7211C111.693 25.7211 113.056 24.288 113.056 22.1735C113.056 20.059 111.693 18.6259 109.72 18.6259C107.746 18.6259 106.383 20.059 106.383 22.1735ZM116.925 15.6187C116.925 12.6114 119.416 10.5205 123.034 10.5205C126.511 10.5205 128.719 12.447 128.813 15.5482H125.806C125.735 14.0681 124.678 13.1988 122.987 13.1988C121.131 13.1988 119.932 14.0916 119.932 15.5247C119.932 16.7464 120.59 17.4277 122.023 17.7566L124.725 18.344C127.662 18.9783 129.095 20.4819 129.095 23.0428C129.095 26.238 126.605 28.3054 122.822 28.3054C119.157 28.3054 116.761 26.3554 116.69 23.2777H119.697C119.721 24.7343 120.896 25.6036 122.822 25.6036C124.819 25.6036 126.088 24.7343 126.088 23.3012C126.088 22.15 125.501 21.4687 124.091 21.1633L121.366 20.5524C118.452 19.9181 116.925 18.25 116.925 15.6187ZM135.88 28.3054C132.426 28.3054 130.007 25.7916 130.007 22.197C130.007 18.5554 132.379 16.0416 135.786 16.0416C139.263 16.0416 141.472 18.3675 141.472 21.9855V22.8548L132.732 22.8783C132.943 24.9223 134.024 25.956 135.927 25.956C137.501 25.956 138.535 25.3452 138.864 24.241H141.519C141.025 26.7783 138.911 28.3054 135.88 28.3054ZM135.81 18.391C134.118 18.391 133.084 19.3072 132.802 21.0458H138.629C138.629 19.4482 137.525 18.391 135.81 18.391ZM145.927 28H143.061V16.394H145.716L145.951 17.8976C146.679 16.7229 148.088 16.0416 149.663 16.0416C152.576 16.0416 154.079 17.8506 154.079 20.8578V28H151.213V21.5392C151.213 19.5892 150.25 18.6494 148.77 18.6494C147.008 18.6494 145.927 19.8711 145.927 21.7506V28ZM155.16 24.4759H157.886C157.909 25.4861 158.661 26.1205 159.977 26.1205C161.316 26.1205 162.044 25.5801 162.044 24.7343C162.044 24.147 161.739 23.7241 160.705 23.4892L158.614 22.9958C156.523 22.5259 155.513 21.5392 155.513 19.6831C155.513 17.4042 157.439 16.0416 160.118 16.0416C162.725 16.0416 164.487 17.5452 164.511 19.8006H161.786C161.762 18.8139 161.104 18.1795 160 18.1795C158.872 18.1795 158.215 18.6964 158.215 19.5657C158.215 20.2235 158.731 20.6464 159.718 20.8813L161.809 21.3747C163.759 21.8211 164.746 22.7139 164.746 24.4994C164.746 26.8488 162.749 28.3054 159.883 28.3054C156.993 28.3054 155.16 26.7548 155.16 24.4759ZM171.416 28.3054C167.962 28.3054 165.542 25.7916 165.542 22.197C165.542 18.5554 167.915 16.0416 171.322 16.0416C174.799 16.0416 177.007 18.3675 177.007 21.9855V22.8548L168.267 22.8783C168.479 24.9223 169.56 25.956 171.463 25.956C173.037 25.956 174.07 25.3452 174.399 24.241H177.054C176.561 26.7783 174.446 28.3054 171.416 28.3054ZM171.345 18.391C169.654 18.391 168.62 19.3072 168.338 21.0458H174.164C174.164 19.4482 173.06 18.391 171.345 18.391Z" fill="#3D3D3D"/>
</svg>
