<svg width="48" height="50" viewBox="0 0 48 50" fill="none" xmlns="http://www.w3.org/2000/svg">
<path d="M43.3669 12.8257C45.5557 13.9201 46.5285 15.6833 46.4677 18.237C46.4069 23.5266 46.4677 28.8771 46.4677 34.1667C46.4677 36.5988 44.9477 38.5444 42.6981 39.0916C42.1509 39.2132 41.2997 39.5172 41.1173 38.7268C40.8741 37.8756 41.7861 38.058 42.2725 37.9364C44.2789 37.3892 45.1909 36.2339 45.2517 34.1059C45.2517 28.5731 45.2517 23.0402 45.2517 17.5682C45.2517 15.3793 43.7925 13.7377 41.6037 13.7377C31.5108 13.6769 21.4179 13.6769 11.3858 13.7377C8.95376 13.7377 7.61615 15.2577 7.61615 17.7506C7.61615 23.101 7.61615 28.5123 7.61615 33.8627C7.61615 35.2611 7.67695 36.6595 6.70414 38.058C7.67695 38.058 8.52816 38.058 9.31857 38.058C12.7234 38.058 16.1282 38.058 19.4723 38.058C20.1411 38.058 21.3571 37.6324 21.3571 38.6052C21.4179 39.6996 20.2019 39.2132 19.5331 39.2132C14.669 39.274 9.80497 39.2132 4.94092 39.2132C4.75852 39.2132 4.51532 39.2132 4.33292 39.2132C1.71849 39.1524 0.259277 37.754 0.259277 35.1395C0.259277 25.533 0.259277 15.9873 0.259277 6.38085C0.259277 4.31363 1.29289 3.34082 3.36011 3.34082C5.42733 3.34082 7.49455 3.34082 9.56177 3.34082C10.8994 3.34082 11.933 3.76642 12.541 4.98244C13.0882 6.07685 14.0002 6.44165 15.277 6.38085C21.8435 6.32005 28.41 6.32005 34.9156 6.32005C37.8341 5.16484 41.4213 6.98886 41.9077 10.0897C42.0901 11.2449 42.4549 12.1569 43.3669 12.8257Z" fill="#285FCD"/>
<path d="M31.2676 45.2935C27.0116 45.2935 23.3635 41.6455 23.3635 37.3286C23.3635 33.0726 27.0116 29.4854 31.3284 29.4854C35.5844 29.4854 39.1717 33.1942 39.1109 37.511C39.1109 41.7063 35.5236 45.2327 31.2676 45.2935Z" fill="#285FCD"/>
<path d="M43.3668 12.8264C42.2116 12.644 41.482 12.2792 41.482 10.82C41.482 8.38794 39.5972 6.62473 37.1043 6.44232C36.4355 6.32072 35.6451 6.38152 34.9155 6.32072C35.4627 3.58469 36.9219 1.69988 39.7796 1.03107C42.2116 0.483864 44.6436 1.51747 46.1636 3.7063C47.5013 5.77352 47.3188 8.38794 45.9204 10.4552C45.2516 11.4888 44.1572 11.9752 43.3668 12.8264Z" fill="#E6EEF8"/>
<path d="M16.6752 45.2941C16.6752 47.5438 14.7296 49.5502 12.4191 49.5502C10.1695 49.5502 8.16309 47.6046 8.16309 45.2941C8.16309 43.0445 10.1087 41.0381 12.4191 41.0381C14.6688 41.0381 16.6752 42.9837 16.6752 45.2941Z" fill="#E6EEF8"/>
<path d="M26.4035 20.3662C24.1539 20.3662 21.9651 20.3662 19.7155 20.3662C19.2291 20.3662 18.5603 20.427 18.6211 19.6974C18.6211 19.0894 19.2291 19.1502 19.6547 19.1502C24.0931 19.1502 28.5316 19.1502 32.97 19.1502C33.4564 19.1502 34.1252 19.0286 34.1252 19.7582C34.1252 20.6094 33.3348 20.3662 32.8484 20.3662C30.7204 20.3662 28.5924 20.3662 26.4035 20.3662Z" fill="#285FCD"/>
<path d="M1.47534 20.6684C1.47534 16.0475 1.47534 11.4267 1.47534 6.86666C1.47534 4.92104 1.84015 4.55623 3.78576 4.55623C5.54898 4.55623 7.3122 4.61703 9.07542 4.55623C10.2306 4.49543 11.1426 4.86024 11.7506 5.89385C12.4803 7.17066 13.5139 7.65706 15.0339 7.59626C22.1475 7.53546 29.2004 7.53546 36.3141 7.59626C38.7461 7.59626 40.0837 8.81228 40.3877 11.0011C40.5093 12.0347 40.3877 12.5211 39.1109 12.5211C30.1732 12.4603 21.2963 12.5819 12.3587 12.4603C8.83221 12.3995 6.15699 14.4667 6.27859 18.4796C6.52179 23.9516 6.33939 29.4845 6.33939 35.0173C6.33939 36.8414 5.48818 37.9966 4.08977 37.9966C2.44815 37.9966 1.47534 36.9022 1.47534 34.9565C1.47534 30.1533 1.47534 25.4108 1.47534 20.6684Z" fill="#E6EEF8"/>
<path d="M31.3888 41.5845C29.9296 41.8277 29.3216 41.3413 29.4432 39.8821C29.504 38.9701 29.9296 37.8149 28.1664 37.8757C27.5584 37.8757 27.5584 37.2069 27.984 36.7205C28.8352 35.6868 29.6864 34.6532 30.5984 33.6196C31.024 33.1332 31.4496 32.9508 31.936 33.5588C32.7873 34.6532 33.6385 35.626 34.5505 36.7205C35.0369 37.2677 34.9761 37.9365 34.2465 37.9365C32.6657 37.8757 33.0913 38.9701 33.0913 39.7605C33.1521 41.0373 32.9697 42.0101 31.3888 41.5845Z" fill="#FDFEFE"/>
<path d="M6.21761 7.59721C5.60961 7.2932 4.15039 8.20521 4.15039 6.9284C4.15039 5.89479 5.5488 6.5636 6.33921 6.38119C6.82562 6.25959 7.31202 6.38119 7.85923 6.38119C8.28483 6.38119 8.71044 6.44199 8.71044 6.9892C8.71044 7.53641 8.28483 7.59721 7.85923 7.59721C7.31202 7.59721 6.82562 7.59721 6.21761 7.59721Z" fill="#2A60CE"/>
</svg>
