<svg width="38" height="38" viewBox="0 0 38 38" fill="none" xmlns="http://www.w3.org/2000/svg">
<path d="M11.5726 8.34718C12.0224 11.9458 12.1724 15.5944 12.2223 19.2429C12.2723 21.4921 13.4718 23.6912 15.671 24.8908C18.4699 26.3902 22.0185 25.5905 23.9178 23.0415C25.7671 20.4925 25.5172 17.1438 23.5679 14.9446C21.7186 12.8454 19.9193 10.7462 18.27 8.49712L12.4722 0.700154C11.8725 -0.0995352 10.573 0.400271 10.6729 1.44986L11.5726 8.34718ZM22.2184 21.3921C21.0189 23.3414 18.4699 23.8911 16.5207 22.6916C14.7214 21.5421 14.1216 19.2429 15.0212 17.3937C15.0712 17.2437 15.1712 17.1438 15.2212 16.9938C15.3211 16.8439 15.4711 16.644 15.571 16.494C16.4707 15.3944 17.8701 14.8946 19.2196 15.0946C19.5695 15.1445 19.9193 15.2445 20.2192 15.3445C20.4191 15.4444 20.669 15.5444 20.869 15.6943C22.8682 16.8939 23.418 19.4429 22.2184 21.3921Z" fill="#0E0E0E"/>
<path d="M21.169 0.799699C20.2193 0.649757 19.6196 1.79931 20.2193 2.54902C21.5188 4.09842 22.3685 5.74778 22.9183 7.39713C23.0183 7.69702 23.2182 7.89694 23.5181 8.04688C24.1678 8.34676 24.8176 8.69663 25.4173 9.09647C30.7652 12.6451 32.4146 19.9423 29.0659 25.4401C25.5173 31.2878 17.9202 33.0372 12.2225 29.4386C7.12443 26.1898 5.27515 19.7923 7.57426 14.4444C7.7242 14.1445 7.67422 13.7946 7.52428 13.4948C6.67461 11.9953 6.02486 10.396 5.62502 8.69663C5.42509 7.79698 4.27554 7.54708 3.72575 8.29678C3.57581 8.49671 3.42587 8.74661 3.27593 8.94653C-2.32189 17.4432 0.0271928 28.9887 8.52389 34.6365C17.2205 40.3343 28.866 37.8353 34.4138 29.0887C39.9117 20.4421 37.3127 8.99651 28.6661 3.49865C26.317 2.04921 23.768 1.14956 21.169 0.799699Z" fill="#0E0E0E"/>
</svg>
