<svg width="142" height="30" viewBox="0 0 142 30" fill="none" xmlns="http://www.w3.org/2000/svg">
<path d="M8.98114 6.52148C9.33747 9.37212 9.45625 12.2624 9.49584 15.1526C9.53543 16.9342 10.4856 18.6763 12.2277 19.6265C14.4449 20.8143 17.2559 20.1808 18.7604 18.1616C20.2253 16.1424 20.0274 13.4897 18.4833 11.7477C17.0184 10.0848 15.5931 8.42191 14.2865 6.64026L9.6938 0.463864C9.2187 -0.169613 8.1893 0.22631 8.26848 1.05775L8.98114 6.52148ZM17.4143 16.8551C16.4641 18.3992 14.4449 18.8347 12.9008 17.8845C11.4755 16.9738 11.0003 15.1526 11.713 13.6877C11.7526 13.5689 11.8318 13.4897 11.8714 13.3709C11.9506 13.2522 12.0693 13.0938 12.1485 12.975C12.8612 12.104 13.9698 11.7081 15.0388 11.8664C15.3159 11.906 15.5931 11.9852 15.8306 12.0644C15.989 12.1436 16.1869 12.2228 16.3453 12.3415C17.929 13.2918 18.3645 15.311 17.4143 16.8551Z" fill="#0E0E0E"/>
<path d="M16.583 0.542291C15.8308 0.423515 15.3557 1.33414 15.8308 1.92802C16.8602 3.15538 17.5332 4.46193 17.9688 5.76847C18.0479 6.00602 18.2063 6.16439 18.4439 6.28317C18.9586 6.52072 19.4733 6.79787 19.9484 7.11461C24.1847 9.92566 25.4913 15.7061 22.8386 20.0613C20.0275 24.6936 14.0095 26.0793 9.49601 23.2287C5.45759 20.6552 3.99268 15.5874 5.81392 11.351C5.9327 11.1134 5.89311 10.8363 5.77433 10.5987C5.10126 9.41096 4.58656 8.14401 4.26983 6.79787C4.11146 6.08521 3.20084 5.88725 2.76532 6.48113C2.64654 6.6395 2.52777 6.83746 2.40899 6.99583C-2.02534 13.7265 -0.164507 22.8723 6.56618 27.3463C13.4552 31.8598 22.6802 29.8802 27.075 22.9515C31.4301 16.1021 29.3713 7.03542 22.5219 2.68027C20.661 1.5321 18.6418 0.819437 16.583 0.542291Z" fill="#0E0E0E"/>
<path d="M47.7093 21.6833C43.7452 21.6833 41.1769 18.9289 41.1769 14.667C41.1769 10.4424 43.8382 7.63211 47.8209 7.63211C51.0406 7.63211 53.4414 9.51181 53.9067 12.4337H51.3942C50.9289 10.8518 49.5704 9.92125 47.7651 9.92125C45.2526 9.92125 43.6707 11.7451 43.6707 14.6484C43.6707 17.5331 45.2713 19.3942 47.7651 19.3942C49.6076 19.3942 51.022 18.4264 51.4687 16.9189H53.9439C53.4228 19.785 50.9289 21.6833 47.7093 21.6833ZM57.7409 21.7019C55.7868 21.7019 54.5957 20.5666 54.5957 18.8358C54.5957 17.1422 55.824 16.0814 58.0015 15.9139L60.7559 15.7092V15.5045C60.7559 14.2576 60.0115 13.7551 58.8576 13.7551C57.5176 13.7551 56.7732 14.3134 56.7732 15.2812H54.8377C54.8377 13.2898 56.4754 11.987 58.9693 11.987C61.4445 11.987 62.9706 13.327 62.9706 15.8767V21.46H60.9792L60.8117 20.1014C60.4209 21.0505 59.174 21.7019 57.7409 21.7019ZM58.4854 19.9897C59.8812 19.9897 60.7745 19.1522 60.7745 17.7378V17.2539L58.8576 17.4028C57.4432 17.5331 56.9035 17.9983 56.9035 18.7428C56.9035 19.5803 57.4618 19.9897 58.4854 19.9897ZM70.4122 12.229V14.332H69.5747C67.9369 14.332 66.9133 15.2067 66.9133 16.9934V21.46H64.6428V12.2848H66.783L66.9133 13.6248C67.3041 12.7129 68.1789 12.0987 69.4072 12.0987C69.7236 12.0987 70.0399 12.1359 70.4122 12.229ZM73.4937 21.46H71.3907V7.6135H73.6612V13.6062C74.2567 12.5826 75.4851 11.9684 76.8809 11.9684C79.505 11.9684 81.1055 14.0156 81.1055 16.9189C81.1055 19.7478 79.3747 21.7019 76.732 21.7019C75.3548 21.7019 74.1823 21.0877 73.6426 20.0269L73.4937 21.46ZM73.6798 16.8259C73.6798 18.4822 74.7034 19.6175 76.2667 19.6175C77.8672 19.6175 78.8164 18.4636 78.8164 16.8259C78.8164 15.1881 77.8672 14.0156 76.2667 14.0156C74.7034 14.0156 73.6798 15.1695 73.6798 16.8259ZM81.8154 16.8445C81.8154 13.9784 83.8812 12.0057 86.7286 12.0057C89.5761 12.0057 91.6419 13.9784 91.6419 16.8445C91.6419 19.7105 89.5761 21.6833 86.7286 21.6833C83.8812 21.6833 81.8154 19.7105 81.8154 16.8445ZM84.0859 16.8445C84.0859 18.5194 85.1653 19.6547 86.7286 19.6547C88.2919 19.6547 89.3714 18.5194 89.3714 16.8445C89.3714 15.1695 88.2919 14.0342 86.7286 14.0342C85.1653 14.0342 84.0859 15.1695 84.0859 16.8445ZM92.4366 11.6521C92.4366 9.26987 94.4094 7.6135 97.2754 7.6135C100.03 7.6135 101.779 9.13959 101.854 11.5962H99.4715C99.4157 10.4237 98.5782 9.73514 97.2382 9.73514C95.768 9.73514 94.8188 10.4424 94.8188 11.5776C94.8188 12.5454 95.3399 13.0851 96.4752 13.3456L98.6154 13.8109C100.942 14.3134 102.077 15.5045 102.077 17.5331C102.077 20.0641 100.104 21.7019 97.1079 21.7019C94.2046 21.7019 92.3063 20.1572 92.2505 17.7192H94.6327C94.6513 18.8731 95.5818 19.5617 97.1079 19.5617C98.6899 19.5617 99.6948 18.8731 99.6948 17.7378C99.6948 16.8259 99.2296 16.2862 98.1129 16.0442L95.9541 15.5603C93.6463 15.0578 92.4366 13.7365 92.4366 11.6521ZM107.452 21.7019C104.716 21.7019 102.799 19.7105 102.799 16.8631C102.799 13.9784 104.679 11.987 107.377 11.987C110.132 11.987 111.881 13.8295 111.881 16.6956V17.3842L104.958 17.4028C105.125 19.0219 105.982 19.8408 107.489 19.8408C108.736 19.8408 109.555 19.3569 109.815 18.4822H111.918C111.528 20.4922 109.853 21.7019 107.452 21.7019ZM107.396 13.8481C106.056 13.8481 105.237 14.574 105.014 15.9512H109.629C109.629 14.6856 108.755 13.8481 107.396 13.8481ZM115.411 21.46H113.14V12.2662H115.243L115.429 13.4573C116.006 12.5268 117.123 11.987 118.37 11.987C120.677 11.987 121.868 13.4201 121.868 15.8023V21.46H119.598V16.342C119.598 14.7973 118.835 14.0529 117.662 14.0529C116.267 14.0529 115.411 15.0206 115.411 16.5095V21.46ZM122.725 18.6683H124.884C124.902 19.4686 125.498 19.9711 126.54 19.9711C127.601 19.9711 128.178 19.543 128.178 18.8731C128.178 18.4078 127.936 18.0728 127.117 17.8867L125.461 17.4959C123.804 17.1236 123.004 16.342 123.004 14.8717C123.004 13.0665 124.53 11.987 126.652 11.987C128.717 11.987 130.113 13.1781 130.132 14.9648H127.973C127.954 14.1831 127.433 13.6806 126.559 13.6806C125.665 13.6806 125.144 14.0901 125.144 14.7787C125.144 15.2998 125.554 15.6348 126.335 15.8209L127.992 16.2117C129.536 16.5653 130.318 17.2725 130.318 18.6869C130.318 20.548 128.736 21.7019 126.466 21.7019C124.176 21.7019 122.725 20.4736 122.725 18.6683ZM135.601 21.7019C132.866 21.7019 130.949 19.7105 130.949 16.8631C130.949 13.9784 132.828 11.987 135.527 11.987C138.281 11.987 140.031 13.8295 140.031 16.6956V17.3842L133.108 17.4028C133.275 19.0219 134.131 19.8408 135.639 19.8408C136.886 19.8408 137.704 19.3569 137.965 18.4822H140.068C139.677 20.4922 138.002 21.7019 135.601 21.7019ZM135.546 13.8481C134.206 13.8481 133.387 14.574 133.163 15.9512H137.779C137.779 14.6856 136.904 13.8481 135.546 13.8481Z" fill="#0E0E0E"/>
</svg>
