<svg width="281" height="263" viewBox="0 0 281 263" fill="none" xmlns="http://www.w3.org/2000/svg">
<path d="M14.856 44.639C14.6973 44.5596 14.5881 44.4009 14.5881 44.2223C14.5881 43.617 14.608 43.0117 14.6377 42.4065C14.6477 42.1584 14.866 41.9699 15.114 41.9897C15.7292 42.0294 15.5109 42.6248 15.501 44.2421C15.501 44.4902 15.2926 44.6886 15.0446 44.6787C14.9751 44.6787 14.9156 44.6589 14.856 44.639Z" fill="#91B3FA"/>
<path d="M15.2827 36.7908C15.4911 35.6596 15.7391 34.5186 16.0368 33.3973C16.0963 33.1592 16.3444 33.0203 16.5925 33.0897C17.2573 33.2783 16.781 33.6156 16.1856 36.9694C16.146 37.2175 15.9078 37.3762 15.6598 37.3266C15.4018 37.2671 15.2331 37.0289 15.2827 36.7908ZM17.8229 28.0591C18.2594 26.9874 18.7456 25.9059 19.2616 24.9037C19.5295 24.358 20.3432 24.7946 20.0852 25.3105C19.5791 26.3226 19.1128 27.3546 18.6762 28.4063C18.5869 28.6346 18.319 28.7437 18.0808 28.6445C17.8427 28.5453 17.7335 28.2773 17.8229 28.0591ZM22.1093 20.0318C22.7543 19.0792 23.4489 18.1366 24.1732 17.2337C24.5503 16.7673 25.2647 17.3329 24.8976 17.7992C24.1931 18.6823 23.5084 19.6051 22.8734 20.5378C22.536 21.034 21.772 20.5279 22.1093 20.0318ZM27.9834 13.7112C27.8048 13.5326 27.8048 13.2448 27.9834 13.0762C28.8169 12.2724 29.6901 11.4985 30.593 10.7642C31.0495 10.3872 31.6448 11.0817 31.1785 11.4588C30.2954 12.1732 29.442 12.9372 28.6185 13.7211C28.4498 13.8997 28.1521 13.8898 27.9834 13.7112ZM35.0681 8.09509C34.9291 7.88672 34.9887 7.60889 35.207 7.4799C36.1893 6.86471 37.2113 6.28921 38.2432 5.7534C38.7691 5.47557 39.2057 6.27929 38.6798 6.54719C37.6677 7.07308 36.6656 7.63866 35.7031 8.24393C35.4848 8.363 35.207 8.30346 35.0681 8.09509ZM43.4228 4.27495C43.3235 4.22534 43.2342 4.13604 43.1846 4.02689C43.0953 3.79867 43.2045 3.53077 43.4426 3.45139C44.5341 3.05449 45.6652 2.68736 46.7865 2.36984C47.0246 2.30039 47.2826 2.4393 47.3521 2.67744C47.4215 2.91558 47.2925 3.16364 47.0445 3.23309C45.9431 3.54069 44.8417 3.8979 43.77 4.2948C43.651 4.33449 43.5319 4.32456 43.4228 4.27495ZM52.2537 2.02256C52.1247 1.96302 52.0255 1.83403 51.9958 1.68519C51.9561 1.43713 52.1247 1.20892 52.3728 1.16923C53.5337 1.00055 54.7046 0.871553 55.8754 0.782251C56.1235 0.762406 56.3517 0.950932 56.3716 1.19899C56.3914 1.44705 56.2128 1.66535 55.9548 1.67527C54.8137 1.75465 53.6528 1.88364 52.5216 2.05232C52.4323 2.07217 52.3331 2.06225 52.2537 2.02256ZM61.1442 1.16923C61.1542 0.921166 61.3625 0.732639 61.6205 0.742562C62.7914 0.812019 63.9821 0.921166 65.143 1.07C65.7483 1.14938 65.6391 2.0424 65.0338 1.96302C63.8928 1.81419 62.7318 1.70504 61.5808 1.63558C61.3328 1.62566 61.1343 1.41729 61.1442 1.16923ZM89.5224 13.2746C86.9624 10.9726 86.3473 10.9528 86.7739 10.4169C86.9228 10.2185 87.2105 10.1887 87.409 10.3475C88.3417 11.0619 89.2545 11.8259 90.1277 12.6197C90.5742 13.0166 89.9689 13.6814 89.5224 13.2746ZM70.2332 2.50876C70.2927 2.27062 70.5408 2.12178 70.7889 2.19124C71.9299 2.48891 73.071 2.8362 74.1823 3.22317C74.7578 3.42162 74.4701 4.26503 73.8946 4.06658C72.8031 3.68953 71.6819 3.35217 70.5706 3.05449C70.3225 2.99496 70.1737 2.7469 70.2332 2.50876ZM82.1699 7.88672C79.2031 6.14037 78.5879 6.24952 78.8955 5.63433C79.084 5.24735 79.5603 5.43588 79.5008 5.43588C80.5625 5.95185 81.6143 6.51743 82.6263 7.11277C82.8446 7.24176 82.9141 7.51959 82.795 7.72796C82.676 7.93633 82.408 8.01571 82.1699 7.88672Z" fill="#91B3FA"/>
<path d="M94.6325 18.7127C93.6799 17.5121 93.0647 17.0755 93.5311 16.6885C93.7196 16.5298 94.0074 16.5596 94.176 16.7481C95.2179 17.9487 95.7438 18.4448 95.2774 18.802C95.1286 18.9013 94.7813 18.9112 94.6325 18.7127Z" fill="#91B3FA"/>
<path d="M104.148 52.3301C103.97 52.2507 103.86 52.0622 103.89 51.8538C103.97 51.2684 104.039 50.6731 104.089 50.0876C104.108 49.8396 104.337 49.661 104.585 49.6907C104.833 49.7205 105.021 49.9388 105.001 50.1869C104.942 50.7822 104.872 51.3875 104.793 51.9828C104.763 52.2309 104.525 52.3996 104.277 52.3599C104.227 52.3599 104.188 52.35 104.148 52.3301Z" fill="#91B3FA"/>
<path d="M39.6621 84.9043C38.531 84.3288 37.4097 83.7036 36.3282 83.0388C36.1099 82.9098 36.0404 82.632 36.1793 82.4137C36.5465 81.8184 36.7548 82.4236 40.0689 84.1005C40.2972 84.2196 40.3865 84.4875 40.2773 84.7058C40.0789 85.0928 39.6125 84.9043 39.6621 84.9043ZM45.0897 86.7697C45.3179 86.1148 45.6751 86.6605 49.2472 87.5932C49.4953 87.6528 49.6441 87.9008 49.5846 88.139C49.525 88.3771 49.277 88.526 49.0289 88.4565C47.8085 88.139 46.5781 87.7619 45.3775 87.3353C45.1294 87.2559 45.0103 86.9979 45.0897 86.7697ZM31.2777 79.437C30.2953 78.6333 29.3428 77.7799 28.4299 76.8968C28.2513 76.7182 28.2414 76.4404 28.42 76.2618C28.9161 75.7657 28.9856 76.4007 31.8532 78.7523C32.0516 78.9111 32.0814 79.1989 31.9226 79.3874C31.7639 79.566 31.4761 79.5958 31.2777 79.437ZM54.9625 89.5876C54.7939 89.5083 54.6748 89.3197 54.7045 89.1312C54.7343 88.8832 54.9526 88.7145 55.2106 88.7442C56.441 88.8931 57.6912 88.9923 58.9315 89.0419C59.1796 89.0518 59.3879 89.2602 59.378 89.5083C59.3681 89.7563 59.1597 89.9548 58.9117 89.9449C57.6515 89.8953 56.3715 89.796 55.1114 89.6373C55.0518 89.6174 55.0121 89.6075 54.9625 89.5876ZM64.8254 89.7166C64.6865 89.6472 64.5873 89.5182 64.5675 89.3594C64.5377 89.1114 64.7163 88.8931 64.9644 88.8633C66.1947 88.7442 67.435 88.5756 68.6456 88.3473C68.8936 88.2977 69.1318 88.4664 69.1814 88.7046C69.231 88.9526 69.0723 89.1808 68.8242 89.2304C67.5839 89.4587 66.3237 89.6273 65.0636 89.7563C64.9842 89.7663 64.9048 89.7464 64.8254 89.7166ZM74.4502 87.7024C74.3411 87.6528 74.2518 87.5635 74.2121 87.4345C74.1327 87.1963 74.2518 86.9483 74.4899 86.8689C75.6608 86.4918 76.8217 86.0553 77.9528 85.579C78.1811 85.4798 78.449 85.5889 78.5581 85.8171C78.6573 86.0453 78.5581 86.3132 78.3299 86.4025C77.1789 86.8887 75.9882 87.3353 74.7975 87.7222C74.6685 87.7619 74.5494 87.752 74.4502 87.7024ZM83.3507 83.6639C83.2713 83.6243 83.2018 83.5647 83.1522 83.4853C83.0232 83.2671 83.0828 82.9991 83.301 82.8702C84.3528 82.245 85.3947 81.5703 86.3869 80.8559C86.5854 80.7071 86.8731 80.7567 87.022 80.9551C87.1708 81.1536 87.1311 81.4413 86.9327 81.5802C85.9206 82.3046 84.8589 82.9991 83.7872 83.6342C83.6483 83.7235 83.4896 83.7334 83.3507 83.6639ZM90.9909 77.7006C90.4948 77.1945 91.1299 77.1548 93.5509 74.4262C93.9478 73.9796 94.6325 74.5849 94.2455 75.0215C93.4219 75.9542 92.5488 76.8572 91.6458 77.7105C91.4573 77.8891 91.1695 77.8792 90.9909 77.7006ZM97.3016 70.3282C96.7063 69.9412 97.3115 69.7626 99.048 66.5676C99.3258 66.0516 100.139 66.4783 99.8517 67.0042C99.2563 68.0956 98.6114 69.1673 97.9267 70.2091C97.7977 70.4175 97.51 70.4671 97.3016 70.3282ZM101.767 61.7254C101.548 61.6262 101.449 61.3781 101.529 61.1598C101.955 60.0188 102.342 58.8479 102.67 57.6771C102.739 57.4389 102.987 57.3 103.235 57.3695C103.483 57.4389 103.622 57.687 103.553 57.9251C103.215 59.1158 102.828 60.3065 102.382 61.4774C102.293 61.7056 102.035 61.8246 101.796 61.7353C101.787 61.7353 101.777 61.7353 101.767 61.7254Z" fill="#91B3FA"/>
<path d="M24.2724 72.2734C23.2901 71.0231 22.784 70.5072 23.2702 70.1797C23.7763 69.8324 23.9846 70.4476 24.9967 71.7376C25.1555 71.936 25.1158 72.2138 24.9174 72.3627C24.7189 72.5115 24.4312 72.4718 24.2724 72.2734Z" fill="#91B3FA"/>
<path d="M30.1762 61.3699L36.7151 61.0921C38.5011 63.5727 40.6841 65.7953 43.2441 67.6508C42.9861 73.9119 42.5296 74.3286 43.1746 74.6064L50.4279 77.7022C50.6363 77.7915 50.8843 77.7419 51.0332 77.5732L55.3792 72.8204C58.4849 73.376 61.6006 73.4157 64.617 72.9891L68.9531 77.9007C69.102 78.0694 69.35 78.1289 69.5584 78.0495L76.8216 75.2216C77.03 75.1422 77.1689 74.9339 77.1491 74.7057L76.7522 68.2561C79.2328 66.5395 81.4554 64.426 83.291 61.9355L89.82 62.4415C90.0482 62.4614 90.2665 62.3324 90.3459 62.124L93.3524 55.0294C93.4417 54.8211 93.3822 54.5829 93.2135 54.4242L88.3118 50.0583C88.8278 47.0022 88.8079 43.9361 88.3118 40.9495C93.015 36.7523 93.6203 36.8019 93.3623 36.1669C90.2963 29.1517 90.5444 28.596 89.8299 28.6258L83.291 28.9036C81.505 26.423 79.3221 24.2004 76.7621 22.3449C77.0201 16.0838 77.4765 15.6671 76.8315 15.3893C69.5683 12.4423 69.4294 11.9164 68.963 12.4225L64.617 17.1753C61.5113 16.6197 58.3956 16.58 55.3792 17.0066C51.0927 12.353 51.0828 11.6882 50.4279 11.9462C43.2937 14.8733 42.7975 14.5955 42.8372 15.29L43.2341 21.7396C40.7535 23.4562 38.5309 25.5697 36.6952 28.0602C30.454 27.703 29.9083 27.2168 29.6305 27.8717C26.7827 34.9464 26.2271 35.0952 26.7629 35.5715L31.6646 39.9374C31.1486 42.9935 31.1684 46.0596 31.6646 49.0462C26.9812 53.2236 26.3461 53.1938 26.614 53.8288C29.7098 60.844 29.4618 61.3997 30.1762 61.3699Z" fill="white" fill-opacity="0.2"/>
<path d="M52.4422 43.7674C53.0574 39.6595 56.9569 36.8713 61.1343 37.546C65.3117 38.2306 68.209 42.1202 67.5938 46.2281C66.9786 50.336 63.0791 53.1242 58.9017 52.4495C54.7244 51.7649 51.827 47.8753 52.4422 43.7674ZM60.9359 38.8855C57.5424 38.3299 54.3077 40.5723 53.8016 43.9956C53.2956 47.3692 55.677 50.5642 59.1101 51.1199C62.5433 51.6756 65.7482 49.3835 66.2444 46.0098C66.7504 42.6362 64.3591 39.4412 60.9359 38.8855Z" fill="#BDD0FB"/>
<path d="M51.9065 62.3418C50.8745 61.8556 49.8922 61.2801 48.9694 60.6352C48.6916 60.4367 48.6023 60.0795 48.7412 59.7917C48.7611 59.762 48.7809 59.7223 48.8007 59.6925C49.019 59.3948 49.4457 59.3254 49.7533 59.5338C50.815 60.2779 51.966 60.913 53.1666 61.4289C62.2357 65.2987 72.6543 61.419 76.7424 52.7865C76.8515 52.5682 76.9507 52.34 77.04 52.1118C80.9197 42.9534 76.4546 32.376 67.1672 28.407C57.8897 24.448 47.1735 28.5856 43.2938 37.7242C40.9918 43.1617 42.3015 47.0414 42.0336 47.5971C41.7459 48.2023 40.833 48.0535 40.7338 47.3887C40.198 43.7769 40.6941 39.9667 42.3512 36.4641C49.5152 21.3423 71.801 22.2055 78.32 37.8433C80.3244 42.6557 80.3244 47.9146 78.3101 52.6575C78.2109 52.9056 78.1017 53.1437 77.9827 53.3818C75.9089 57.7676 72.2673 61.1412 67.6732 62.9372C62.8212 64.8323 57.4829 64.7331 52.6407 62.6693C52.3927 62.5601 52.1446 62.451 51.9065 62.3418Z" fill="#BDD0FB"/>
<path d="M109.1 34.3919C110.191 35.7017 111.501 36.8527 112.989 37.7755L113.019 41.427C113.019 41.8338 113.366 41.675 117.385 43.1039C117.752 43.2328 117.722 42.8756 119.945 40.1073C121.691 40.266 123.428 40.137 125.094 39.7501L127.704 42.3101C127.992 42.5978 128.131 42.2406 131.971 40.4049C132.09 40.3454 132.149 40.2263 132.139 40.0974L131.663 36.4757C132.973 35.3842 134.124 34.0744 135.047 32.5861C138.539 32.4769 138.857 32.725 138.986 32.3479C140.286 28.2103 140.583 28.1011 140.276 27.8531L137.378 25.6304C137.537 23.8841 137.408 22.1476 137.021 20.4807L139.581 17.8711C139.869 17.5833 139.512 17.4444 137.676 13.6044C137.507 13.2571 137.299 13.525 133.747 13.912C132.655 12.6023 131.346 11.4512 129.857 10.5285L129.828 6.877C129.828 6.47018 129.48 6.62894 125.462 5.20011C125.094 5.08104 125.134 5.40848 122.902 8.19668C121.155 8.03792 119.419 8.16692 117.752 8.55389L115.142 5.9939C115.053 5.9046 114.914 5.88475 114.795 5.94429L110.876 7.89901C110.757 7.95854 110.697 8.07761 110.707 8.20661L111.183 11.8283C109.873 12.9198 108.722 14.2295 107.8 15.7179C104.307 15.827 103.989 15.579 103.86 15.956C102.561 20.0937 102.263 20.2028 102.571 20.4509L105.468 22.6735C105.309 24.4199 105.438 26.1563 105.825 27.8233C103.434 30.3634 103.027 30.423 103.206 30.7802L105.16 34.6995C105.349 35.0567 105.567 34.7789 109.1 34.3919Z" fill="white" fill-opacity="0.2"/>
<path d="M116.859 23.8043C117.047 21.2839 119.24 19.3987 121.77 19.5872C124.291 19.7757 126.176 21.9686 125.987 24.4988C125.799 27.0191 123.596 28.9044 121.076 28.7159C118.556 28.5273 116.67 26.3246 116.859 23.8043ZM118.218 23.9134C118.089 25.6796 119.409 27.2275 121.175 27.3565C124.013 27.5748 125.71 24.221 123.854 22.0579C121.999 19.9047 118.436 21.0557 118.218 23.9134Z" fill="#BDD0FB"/>
<path d="M98.3835 30.7493C98.2148 30.1539 98.066 29.5487 97.9469 28.9533C97.8973 28.7052 98.0561 28.4671 98.3041 28.4175C98.9193 28.2885 98.83 28.9831 99.2666 30.5012C99.3361 30.7393 99.1972 30.9973 98.959 31.0668C98.701 31.1263 98.453 30.9874 98.3835 30.7493Z" fill="#91B3FA"/>
<path d="M97.5003 22.8924C97.5599 21.6918 97.7186 20.4317 97.9865 19.1814C98.1155 18.596 98.9986 18.7845 98.8796 19.37C98.1949 22.6146 98.691 23.4183 97.9369 23.3687C97.669 23.3489 97.4805 23.1405 97.5003 22.8924ZM100.189 14.0515C99.9611 13.9424 99.8718 13.6646 99.9909 13.4463C100.547 12.3349 101.201 11.2534 101.926 10.2413C102.273 9.75511 103.017 10.281 102.67 10.7672C101.975 11.7396 101.35 12.7815 100.814 13.8531C100.596 14.2401 100.13 14.0416 100.189 14.0515ZM106.143 6.53032C106.083 6.50055 106.034 6.46086 105.994 6.41125C105.835 6.22272 105.855 5.93497 106.053 5.76629C107.006 4.96257 108.038 4.23823 109.1 3.59327C109.318 3.46428 109.596 3.53374 109.725 3.75203C109.854 3.97033 109.784 4.24815 109.566 4.37714C108.544 4.99234 107.552 5.69683 106.629 6.47078C106.49 6.58985 106.302 6.6097 106.143 6.53032ZM114.587 2.00568C114.478 1.95607 114.378 1.85684 114.349 1.72785C114.279 1.48971 114.418 1.23173 114.656 1.16227C115.847 0.814986 117.087 0.54708 118.318 0.388321C118.566 0.358554 118.794 0.527235 118.824 0.785219C118.853 1.03328 118.685 1.2615 118.427 1.29126C117.236 1.45002 116.055 1.69808 114.904 2.03545C114.795 2.06522 114.686 2.05529 114.587 2.00568ZM123.884 0.765374C123.914 0.517313 124.142 0.338709 124.39 0.368476C125.63 0.527235 126.861 0.775297 128.061 1.11266C128.637 1.27142 128.389 2.15452 127.813 1.98584C126.662 1.65839 125.482 1.41033 124.281 1.2615C124.023 1.24165 123.854 1.01344 123.884 0.765374Z" fill="#91B3FA"/>
<path d="M134.69 5.29933C133.33 4.33685 132.725 4.23763 133.033 3.71174C133.162 3.49345 133.439 3.42399 133.658 3.55298C134.184 3.8705 134.71 4.20786 135.216 4.56507C135.424 4.71391 135.474 4.99174 135.325 5.20011C135.176 5.38863 134.898 5.43825 134.69 5.29933Z" fill="#91B3FA"/>
<path d="M144.314 21.4555C144.116 19.7885 143.798 19.2824 144.394 19.1634C144.642 19.1138 144.88 19.2725 144.93 19.5206C145.049 20.1258 145.148 20.741 145.217 21.3463C145.247 21.5944 145.068 21.8226 144.82 21.8524C144.572 21.8821 144.344 21.7035 144.314 21.4555Z" fill="#91B3FA"/>
<path d="M113.346 46.231C113.594 45.5166 114.12 46.2608 117.355 46.8363C117.95 46.9355 117.792 47.8385 117.196 47.7293C115.986 47.511 114.785 47.2034 113.634 46.8065C113.396 46.7371 113.257 46.4791 113.346 46.231ZM122.673 47.6301C122.654 47.382 122.842 47.1637 123.09 47.1439C126.394 46.9058 126.97 46.2211 127.139 46.9653C127.198 47.2133 127.039 47.4515 126.801 47.511C125.611 47.7889 124.38 47.9675 123.16 48.0568C122.902 48.0667 122.693 47.8782 122.673 47.6301ZM131.792 45.2487C131.445 44.574 132.338 44.7129 134.997 42.7681C135.483 42.4109 136.019 43.1451 135.533 43.5024C134.541 44.2267 133.489 44.8816 132.397 45.4372C132.179 45.5662 131.911 45.4769 131.792 45.2487ZM139.254 39.4738C138.668 38.9876 139.552 38.7693 141.238 35.9415C141.546 35.4255 142.33 35.8918 142.022 36.4078C141.397 37.4596 140.683 38.4717 139.899 39.4143C139.73 39.6128 139.442 39.6326 139.254 39.4738ZM143.53 30.6726C144.463 27.4974 144.027 26.7136 144.771 26.8128C145.019 26.8426 145.197 27.0708 145.158 27.3188C144.999 28.5393 144.741 29.7498 144.394 30.9207C144.324 31.1588 144.066 31.2977 143.828 31.2283C143.6 31.1688 143.461 30.9207 143.53 30.6726Z" fill="#91B3FA"/>
<path d="M108.246 44.1693C107.73 43.8319 107.224 43.4648 106.738 43.0877C106.54 42.929 106.5 42.6511 106.659 42.4527C107.046 41.9566 107.423 42.5321 108.742 43.4152C108.951 43.5541 109.01 43.8319 108.871 44.0403C108.732 44.2486 108.445 44.2983 108.246 44.1693Z" fill="#91B3FA"/>
<path d="M115.767 33.796C115.39 33.5777 115.321 33.1511 115.509 32.8435C115.698 32.516 116.125 32.4168 116.442 32.6053C117.047 32.9625 117.692 33.2602 118.357 33.4785C118.506 33.4983 121.949 34.9173 125.918 32.9526C133.777 29.0332 132.973 17.4934 124.638 14.7052C119.846 13.0978 114.666 15.3899 112.553 19.8451C110.419 24.3399 112.751 26.7114 111.302 27.0289C110.935 27.1083 110.568 26.8801 110.489 26.5129C110.052 24.5285 110.161 22.4547 110.806 20.5198C112.771 14.6457 119.161 11.4407 125.055 13.4153C131.405 15.5387 134.57 22.7722 131.653 28.9439C129.292 33.9151 123.477 36.6438 117.911 34.7783C117.176 34.5303 116.452 34.2028 115.767 33.796Z" fill="#BDD0FB"/>
<path d="M123.011 207.568L117.97 252.696H176.354L168.753 207.568H123.011Z" fill="url(#paint0_linear_96_9251)"/>
<path d="M0.547852 74.0135V198.163C0.547852 208.373 8.68426 216.728 18.8945 216.986C64.24 218.157 222.83 220.995 265.993 220.35C273.415 220.241 279.418 214.307 279.637 206.885C280.47 178.04 281.819 108.692 276.819 76.4941C275.767 69.7171 270.041 64.6467 263.185 64.4284C225.192 63.2178 57.076 59.358 13.9332 60.3205C6.4914 60.4991 0.547852 66.5716 0.547852 74.0135Z" fill="url(#paint1_linear_96_9251)"/>
<path d="M8.33704 73.417V191.365C8.33704 197.328 13.1197 202.19 19.083 202.28L259.782 205.257C265.696 205.346 270.538 200.593 270.558 194.679L270.964 77.7828C270.984 73.5559 267.611 70.0929 263.384 69.9937L16.9596 65.0027C12.2266 64.8837 8.33704 68.684 8.33704 73.417Z" fill="#4747FF"/>
<path d="M15.1636 77.1585V187.863C15.1636 193.46 19.718 198.024 25.3936 198.103L254.582 200.891C260.208 200.971 264.822 196.516 264.842 190.959L265.229 81.2466C265.249 77.2776 262.034 74.0329 258.015 73.9337L23.3694 69.2602C18.8746 69.1511 15.1636 72.7232 15.1636 77.1585Z" fill="#91B3FA"/>
<path d="M30.1357 84.0943V181.543C30.1357 186.469 34.1448 190.486 39.1408 190.556L240.885 193.011C245.837 193.08 249.899 189.159 249.916 184.268L250.257 87.6928C250.274 84.1991 247.444 81.343 243.907 81.2556L37.359 77.1418C33.4024 77.0457 30.1357 80.1901 30.1357 84.0943Z" fill="#BDD0FB"/>
<path d="M272.373 210.109L8.32709 205.614C8.11872 205.614 7.95996 205.445 7.95996 205.237C7.95996 205.028 8.13857 204.86 8.33701 204.87L272.373 209.364C272.582 209.364 272.74 209.533 272.74 209.741C272.74 209.95 272.572 210.109 272.373 210.109Z" fill="#91B3FA"/>
<path d="M142.965 215.606C141.248 215.606 139.849 214.207 139.849 212.491C139.849 210.774 141.248 209.375 142.965 209.375C144.681 209.375 146.08 210.774 146.08 212.491C146.08 214.207 144.681 215.606 142.965 215.606ZM142.965 210.109C141.655 210.109 140.583 211.181 140.583 212.491C140.583 213.8 141.655 214.872 142.965 214.872C144.274 214.872 145.346 213.8 145.346 212.491C145.336 211.181 144.274 210.109 142.965 210.109Z" fill="#91B3FA"/>
<path d="M188.926 261.933H103.483C101.161 261.933 99.4151 260.276 99.8716 258.51L100.963 254.174C101.29 252.874 102.729 251.911 104.436 251.862L186.802 249.292C188.578 249.232 190.156 250.185 190.543 251.534L192.517 258.44C193.033 260.226 191.287 261.933 188.926 261.933Z" fill="url(#paint2_linear_96_9251)"/>
<path d="M149.484 253.112C149.285 253.112 149.117 252.953 149.117 252.745C149.117 252.537 149.275 252.378 149.484 252.368L153.016 252.318C153.215 252.328 153.383 252.477 153.393 252.685C153.393 252.894 153.234 253.053 153.026 253.063L149.484 253.112Z" fill="#91B3FA"/>
<path d="M103.037 259.631C103.017 259.631 102.997 259.631 102.977 259.631C102.779 259.601 102.64 259.413 102.67 259.204L103.176 256.049C103.454 254.313 104.932 253.033 106.688 253.003L144.126 252.457C144.334 252.457 144.493 252.616 144.503 252.824C144.503 253.033 144.344 253.191 144.136 253.201L106.698 253.747C105.299 253.767 104.118 254.789 103.9 256.168L103.394 259.323C103.374 259.502 103.216 259.631 103.037 259.631Z" fill="#91B3FA"/>
<path opacity="0.2" d="M111.63 161.874L23.6571 162.915C20.2735 162.955 17.5945 165.148 17.7632 167.758L19.2317 190.798C19.3904 193.258 22.0199 195.183 25.2149 195.183H111.729C115.043 195.183 117.722 193.119 117.722 190.569V166.488C117.712 163.908 114.973 161.834 111.63 161.874Z" fill="white"/>
<path d="M121.013 255.711L121.013 255.712C121.149 258.812 118.685 261.404 115.584 261.431L115.584 261.431L25.7362 262.324C22.8408 262.351 20.478 259.999 20.4958 257.093C20.4958 257.093 20.4958 257.092 20.4958 257.092L21.4385 142.717L21.4385 142.716C21.4666 137.914 25.4069 134.037 30.2218 134.074C30.2218 134.074 30.2219 134.074 30.222 134.074L108.609 134.719C112.669 134.757 115.984 137.96 116.161 142.02L121.013 255.711Z" fill="url(#paint3_linear_96_9251)" stroke="#0F0570"/>
<path d="M38.8684 261.05L28.817 260.841C25.4334 260.772 22.7047 257.954 22.7345 254.57L22.8635 239.389C22.8635 239.25 22.9826 239.131 23.1215 239.131C23.2604 239.141 23.3795 239.25 23.3795 239.389L23.2505 254.57C23.2207 257.676 25.7311 260.256 28.8368 260.325L38.8882 260.534C39.0271 260.534 39.1462 260.653 39.1363 260.792C39.1264 260.94 39.0073 261.05 38.8684 261.05Z" fill="#BDD0FB"/>
<path d="M23.1411 234.942C23.0022 234.942 22.8931 234.822 22.8931 234.684L22.9129 232.223C22.9129 232.084 23.032 231.965 23.1709 231.965C23.3098 231.965 23.4289 232.084 23.419 232.223L23.3991 234.684C23.409 234.832 23.29 234.942 23.1411 234.942C23.1511 234.942 23.1511 234.942 23.1411 234.942Z" fill="#BDD0FB"/>
<path d="M30.4739 132.664C41.1703 134.202 77.9329 138.994 108.395 136.911C109.784 136.812 110.975 137.873 111.044 139.272L116.164 253.47C116.234 255.037 115.033 256.367 113.465 256.446C100.655 257.101 47.9275 259.592 29.1343 257.468C27.9933 257.339 27.13 256.367 27.13 255.216L27.4178 135.313C27.4178 133.676 28.8565 132.426 30.4739 132.664Z" fill="white"/>
<path opacity="0.6" d="M31.5951 135.631C41.8847 137.11 77.2681 141.724 106.579 139.719C107.919 139.63 109.07 140.652 109.129 141.991L114.061 251.892C114.13 253.401 112.969 254.681 111.461 254.75C99.1372 255.375 48.3839 257.776 30.3052 255.732C29.2038 255.603 28.3802 254.671 28.3802 253.569L28.6581 138.181C28.6482 136.613 30.0373 135.413 31.5951 135.631Z" fill="white"/>
<g opacity="0.6">
<path d="M105.071 149.364C105.815 149.374 106.4 149.017 106.381 148.58C106.351 148.144 105.726 147.777 104.981 147.767L39.6223 146.715C38.8781 146.705 38.64 147.171 39.1064 147.757C39.5628 148.342 40.5451 148.828 41.2893 148.828L105.071 149.364Z" fill="#99E9D8"/>
</g>
<g opacity="0.6">
<path d="M39.5826 151.102C38.8385 151.092 38.6003 151.558 39.0667 152.144C39.5231 152.729 40.5054 153.215 41.2496 153.215L105.031 153.741C105.775 153.751 106.361 153.394 106.341 152.957C106.311 152.521 105.686 152.153 104.942 152.144L39.5826 151.102Z" fill="#99E9D8"/>
</g>
<path d="M50.1401 191.087C50.1302 191.087 50.1203 191.087 50.1203 191.087L41.2992 191.216C40.0292 191.236 38.9575 190.382 38.8087 189.241L37.8561 181.859C37.7966 181.422 37.9256 180.986 38.2133 180.629C38.5309 180.232 39.027 179.974 39.5628 179.924C40.307 179.855 41.329 179.745 42.4502 179.616C44.9011 179.349 47.6794 179.041 49.3066 178.981C49.3166 178.981 49.3265 178.981 49.3463 178.981C50.5172 178.952 51.5392 179.646 51.8468 180.668C52.3528 182.355 52.3826 185.58 52.3826 189.003C52.3727 190.134 51.3705 191.057 50.1401 191.087ZM39.6223 180.638C39.275 180.668 38.9675 180.827 38.769 181.075C38.6102 181.273 38.5309 181.522 38.5706 181.77L39.5231 189.152C39.6223 189.936 40.3864 190.511 41.2893 190.501L50.1104 190.372C50.1203 190.372 50.1203 190.372 50.1302 190.372C50.9736 190.353 51.6583 189.737 51.6583 189.003C51.6583 185.629 51.6285 182.464 51.1522 180.867C50.9438 180.162 50.16 179.646 49.3364 179.696C47.729 179.755 44.8415 180.073 42.5296 180.321C41.3985 180.46 40.3665 180.569 39.6223 180.638Z" fill="white"/>
<path opacity="0.6" d="M40.5848 181.355C42.4304 181.186 46.4489 180.68 48.364 180.611C49.1776 180.581 49.892 181.057 50.1004 181.752C50.4973 183.101 50.5171 185.82 50.5171 188.33C50.5171 189.084 49.8424 189.7 48.999 189.71L41.9541 189.809C41.0908 189.819 40.3566 189.243 40.2573 188.479L39.4933 182.585C39.404 181.98 39.9001 181.424 40.5848 181.355Z" fill="white"/>
<g opacity="0.6">
<path d="M58.3262 183.229C57.582 183.229 57.1454 183.814 57.3538 184.529L57.8697 186.305C58.0781 187.019 58.8521 187.585 59.5962 187.575L102.749 186.533C103.493 186.513 104.069 185.888 104.039 185.144L104.009 184.558C103.979 183.814 103.334 183.209 102.59 183.209L58.3262 183.229Z" fill="#99E9D8"/>
</g>
<path d="M40.9917 182.505C41.6367 182.108 42.49 182.317 42.867 182.972L44.6828 186.048C44.8615 186.355 45.3179 186.325 45.4568 185.998L49.5349 176.284C49.7433 175.798 50.4577 175.947 50.4577 176.472C50.4875 179.41 49.8425 185.016 45.2584 189.808C45.2584 189.808 42.6487 188.866 40.4559 184.341C40.1483 183.686 40.3765 182.892 40.9917 182.505Z" fill="#00C79D"/>
<path d="M50.4874 171.284C50.4775 171.284 50.4676 171.284 50.4676 171.284L41.6465 171.413C40.3764 171.433 39.3048 170.58 39.156 169.438L38.2034 162.056C38.1439 161.62 38.2729 161.183 38.5606 160.826C38.8782 160.429 39.3743 160.171 39.9101 160.121C40.6543 160.052 41.6763 159.943 42.7975 159.814C45.2484 159.546 48.0267 159.238 49.6539 159.179C49.6639 159.179 49.6738 159.179 49.6936 159.179C50.8645 159.149 51.8865 159.843 52.1941 160.865C52.7001 162.552 52.7299 165.777 52.7299 169.2C52.71 170.322 51.7178 171.254 50.4874 171.284ZM39.9696 160.826C39.6223 160.856 39.3147 161.014 39.1163 161.262C38.9575 161.461 38.8782 161.709 38.9178 161.957L39.8704 169.339C39.9696 170.123 40.7337 170.699 41.6366 170.689L50.4577 170.56C50.4676 170.56 50.4676 170.56 50.4775 170.56C51.3209 170.54 52.0056 169.925 52.0056 169.19C52.0056 165.817 51.9758 162.652 51.4995 161.054C51.2911 160.35 50.5073 159.834 49.6837 159.883C48.0763 159.943 45.1888 160.26 42.8769 160.508C41.7358 160.647 40.7138 160.756 39.9696 160.826Z" fill="white"/>
<path opacity="0.6" d="M40.9321 161.546C42.7776 161.378 46.7962 160.872 48.7113 160.802C49.5249 160.772 50.2393 161.249 50.4477 161.943C50.8446 163.293 50.8644 166.011 50.8644 168.522C50.8644 169.276 50.1897 169.891 49.3463 169.901L42.3014 170C41.4381 170.01 40.7039 169.435 40.6046 168.671L39.8406 162.777C39.7513 162.161 40.2474 161.606 40.9321 161.546Z" fill="white"/>
<g opacity="0.6">
<path d="M58.6735 163.414C57.9293 163.414 57.4927 164 57.7011 164.714L58.217 166.49C58.4254 167.205 59.1993 167.77 59.9435 167.76L103.096 166.719C103.84 166.699 104.416 166.074 104.386 165.329L104.356 164.744C104.327 164 103.682 163.395 102.937 163.395L58.6735 163.414Z" fill="#99E9D8"/>
</g>
<path d="M41.329 162.699C41.9739 162.302 42.8273 162.51 43.2043 163.165L45.0201 166.241C45.1987 166.549 45.6552 166.519 45.7941 166.191L49.8722 156.477C50.0806 155.991 50.795 156.14 50.795 156.666C50.8248 159.603 50.1798 165.209 45.5956 170.002C45.5956 170.002 42.986 169.059 40.7932 164.534C40.4856 163.87 40.7138 163.076 41.329 162.699Z" fill="#00C79D"/>
<path d="M50.5967 209.989C50.5867 209.989 50.5768 209.989 50.5768 209.989L41.7558 210.118C40.4857 210.138 39.4141 209.285 39.2652 208.144L38.3127 200.761C38.2531 200.325 38.3821 199.888 38.6699 199.531C38.9874 199.134 39.4835 198.876 40.0193 198.826C40.7635 198.757 41.7855 198.648 42.9068 198.519C45.3576 198.251 48.1359 197.943 49.7632 197.884C49.7731 197.884 49.783 197.884 49.8029 197.884C50.9737 197.854 51.9957 198.549 52.3033 199.571C52.8094 201.257 52.8391 204.482 52.8391 207.905C52.8292 209.037 51.8271 209.959 50.5967 209.989ZM40.0789 199.541C39.7316 199.571 39.424 199.729 39.2255 199.977C39.0668 200.176 38.9874 200.424 39.0172 200.672L39.9697 208.054C40.069 208.838 40.833 209.414 41.7359 209.404L50.557 209.275C50.5669 209.275 50.5669 209.275 50.5768 209.275C51.4202 209.255 52.1049 208.64 52.1049 207.905C52.1049 204.532 52.0751 201.367 51.5988 199.769C51.3905 199.065 50.6066 198.558 49.783 198.598C48.1756 198.658 45.2882 198.975 42.9762 199.223C41.855 199.362 40.8231 199.471 40.0789 199.541Z" fill="white"/>
<path opacity="0.6" d="M41.0413 200.257C42.8869 200.089 46.9055 199.582 48.8205 199.513C49.6342 199.483 50.3486 199.96 50.5569 200.654C50.9538 202.004 50.9737 204.722 50.9737 207.233C50.9737 207.987 50.299 208.602 49.4556 208.612L42.4106 208.711C41.5474 208.721 40.8131 208.146 40.7139 207.382L39.9499 201.488C39.8606 200.882 40.3567 200.327 41.0413 200.257Z" fill="white"/>
<g opacity="0.6">
<path d="M58.7826 202.131C58.0384 202.131 57.6018 202.717 57.8102 203.431L58.3262 205.207C58.5345 205.922 59.3085 206.487 60.0527 206.477L103.205 205.435C103.95 205.416 104.525 204.79 104.495 204.046L104.466 203.461C104.436 202.717 103.791 202.111 103.047 202.111L58.7826 202.131Z" fill="#99E9D8"/>
</g>
<path d="M41.4481 201.408C42.0931 201.011 42.9464 201.219 43.3235 201.874L45.1393 204.95C45.3179 205.258 45.7743 205.228 45.9132 204.9L49.9913 195.186C50.1997 194.7 50.9141 194.849 50.9141 195.375C50.9439 198.312 50.2989 203.918 45.7148 208.711C45.7148 208.711 43.1052 207.768 40.9123 203.243C40.6047 202.588 40.8329 201.795 41.4481 201.408Z" fill="#00C79D"/>
<path d="M50.2097 228.167C50.1998 228.167 50.1899 228.167 50.1899 228.167L41.3688 228.296C40.0987 228.316 39.0271 227.462 38.8783 226.321L37.9257 218.939C37.8662 218.502 37.9952 218.066 38.2829 217.709C38.6004 217.312 39.0966 217.054 39.6324 217.004C40.3766 216.935 41.3986 216.826 42.5198 216.697C44.8516 216.439 47.7489 216.121 49.3861 216.061C50.5471 216.032 51.6088 216.706 51.9164 217.748C52.4224 219.435 52.4522 222.66 52.4522 226.083C52.4423 227.204 51.4401 228.137 50.2097 228.167ZM39.6919 217.709C39.3446 217.738 39.037 217.897 38.8386 218.145C38.6798 218.344 38.6004 218.592 38.6401 218.84L39.5927 226.222C39.6919 227.006 40.4559 227.581 41.3589 227.572L50.1799 227.443C51.0134 227.403 51.7278 226.817 51.7278 226.073C51.7278 222.7 51.6981 219.544 51.2218 217.937C51.0134 217.232 50.2296 216.736 49.406 216.766C47.7986 216.826 44.9111 217.143 42.5992 217.391C41.4581 217.53 40.4361 217.639 39.6919 217.709Z" fill="white"/>
<path opacity="0.6" d="M40.6544 218.433C42.4999 218.264 46.5185 217.758 48.4336 217.689C49.2472 217.659 49.9616 218.135 50.17 218.83C50.5669 220.179 50.5867 222.898 50.5867 225.408C50.5867 226.163 49.912 226.778 49.0686 226.788L42.0237 226.887C41.1604 226.897 40.4261 226.321 40.3269 225.557L39.5629 219.663C39.4736 219.048 39.9697 218.493 40.6544 218.433Z" fill="white"/>
<g opacity="0.6">
<path d="M58.3956 220.299C57.6514 220.299 57.2149 220.884 57.4232 221.599L57.9392 223.375C58.1476 224.089 58.9215 224.655 59.6657 224.645L102.818 223.603C103.563 223.583 104.138 222.958 104.108 222.224L104.079 221.639C104.049 220.894 103.404 220.289 102.66 220.289L58.3956 220.299Z" fill="#99E9D8"/>
</g>
<path d="M41.0612 219.583C41.7061 219.187 42.5594 219.395 42.9365 220.05L44.7523 223.126C44.9309 223.433 45.3873 223.404 45.5263 223.076L49.6044 213.362C49.8128 212.876 50.5272 213.025 50.5272 213.551C50.5569 216.488 49.912 222.094 45.3278 226.886C45.3278 226.886 42.7182 225.944 40.5253 221.419C40.2178 220.754 40.446 219.961 41.0612 219.583Z" fill="#00C79D"/>
<path d="M49.6639 246.902C49.654 246.902 49.6441 246.902 49.6441 246.902L40.823 247.031C39.553 247.051 38.4813 246.198 38.3325 245.057L37.3799 237.674C37.3204 237.238 37.4494 236.801 37.7371 236.444C38.0547 236.047 38.5508 235.789 39.0866 235.74C39.8308 235.67 40.8528 235.561 41.974 235.432C44.4249 235.164 47.2032 234.857 48.8304 234.797C50.0311 234.787 51.0531 235.442 51.3607 236.484C51.8667 238.171 51.8965 241.395 51.8965 244.819C51.8866 245.95 50.8943 246.873 49.6639 246.902ZM39.1362 236.454C38.7889 236.484 38.4813 236.643 38.2829 236.891C38.1241 237.089 38.0447 237.337 38.0745 237.585L39.0271 244.967C39.1263 245.751 39.8903 246.327 40.7933 246.317L49.6143 246.188C49.6242 246.188 49.6242 246.188 49.6342 246.188C50.4776 246.168 51.1622 245.553 51.1622 244.819C51.1622 241.445 51.1325 238.28 50.6562 236.682C50.4478 235.978 49.6639 235.492 48.8404 235.511C47.2329 235.571 44.3455 235.888 42.0336 236.137C40.9123 236.275 39.8903 236.385 39.1362 236.454Z" fill="white"/>
<path opacity="0.6" d="M40.1086 237.167C41.9542 236.999 45.9727 236.493 47.8878 236.423C48.7014 236.393 49.4158 236.87 49.6242 237.564C50.0211 238.914 50.041 241.632 50.041 244.143C50.041 244.897 49.3662 245.512 48.5228 245.522L41.4779 245.621C40.6146 245.631 39.8804 245.056 39.7811 244.292L39.0171 238.398C38.9278 237.792 39.4239 237.237 40.1086 237.167Z" fill="white"/>
<g opacity="0.6">
<path d="M57.8498 239.043C57.1057 239.043 56.6691 239.629 56.8775 240.343L57.3934 242.119C57.6018 242.833 58.3757 243.399 59.1199 243.389L102.273 242.347C103.017 242.327 103.592 241.702 103.563 240.968L103.533 240.383C103.503 239.638 102.858 239.033 102.114 239.033L57.8498 239.043Z" fill="#99E9D8"/>
</g>
<path d="M40.5055 238.328C41.1505 237.931 42.0038 238.139 42.3808 238.794L44.1966 241.87C44.3752 242.177 44.8317 242.148 44.9706 241.82L49.0487 232.106C49.2571 231.62 49.9715 231.769 49.9715 232.295C50.0013 235.232 49.3563 240.838 44.7721 245.631C44.7721 245.631 42.1625 244.688 39.9697 240.163C39.6621 239.498 39.8903 238.705 40.5055 238.328Z" fill="#00C79D"/>
<path d="M74.4006 118.452C71.5826 116.458 69.1219 116.478 67.3854 116.974C65.7978 117.43 64.7659 118.948 64.9048 120.586L65.5895 128.752L74.48 129.615C74.4701 129.615 79.9274 122.352 74.4006 118.452ZM70.4416 125.001C69.2211 124.991 68.2288 123.989 68.2388 122.769C68.2487 121.548 69.2509 120.556 70.4713 120.566C71.6918 120.576 72.684 121.578 72.6741 122.798C72.6642 124.019 71.662 125.011 70.4416 125.001Z" fill="url(#paint4_linear_96_9251)"/>
<path d="M66.3435 125.517C66.1848 125.457 66.0756 125.318 66.0558 125.14L65.9466 123.84C65.9268 123.602 66.1054 123.384 66.3535 123.364C66.5916 123.344 66.8099 123.522 66.8297 123.771L66.9389 125.07C66.9587 125.309 66.7801 125.527 66.5321 125.547C66.4725 125.557 66.4031 125.547 66.3435 125.517ZM66.1352 122.977C65.9764 122.917 65.8673 122.778 65.8474 122.6L65.768 121.617C65.6291 119.94 66.6908 118.402 68.2983 117.936C69.3997 117.619 70.5308 117.589 71.662 117.827C71.9001 117.877 72.049 118.115 71.9993 118.353C71.9497 118.591 71.7116 118.74 71.4735 118.69C70.4812 118.482 69.4989 118.512 68.5364 118.789C67.3358 119.137 66.5321 120.298 66.6412 121.548L66.7206 122.53C66.7404 122.768 66.5618 122.987 66.3138 123.006C66.2642 123.006 66.1947 122.997 66.1352 122.977Z" fill="#BDD0FB"/>
<path d="M53.4047 133.923L53.4344 129.825C53.4444 128.406 54.6251 127.285 56.044 127.344L84.3131 128.545C85.5633 128.594 86.5754 129.596 86.6449 130.847L86.8532 134.786L53.4047 133.923Z" fill="url(#paint5_linear_96_9251)"/>
<path d="M62.7715 128.981C62.6326 128.981 62.5234 128.862 62.5234 128.723C62.5234 128.584 62.6425 128.465 62.7814 128.465L64.0019 128.475C64.1507 128.475 64.2599 128.594 64.2599 128.733C64.2599 128.872 64.1408 128.991 64.0019 128.991L62.7715 128.981Z" fill="#BDD0FB"/>
<path d="M54.7939 132.842C54.6252 132.783 54.5061 132.614 54.5061 132.426L54.516 130.769C54.526 130.084 54.7939 129.449 55.2801 128.973C55.7663 128.496 56.4112 128.238 57.0859 128.238L61.561 128.278C61.7991 128.278 61.9976 128.476 61.9976 128.724C61.9976 128.973 61.7991 129.161 61.551 129.161L57.076 129.121C56.1532 129.111 55.3991 129.856 55.3892 130.778L55.3793 132.435C55.3793 132.684 55.1808 132.872 54.9328 132.872C54.8931 132.872 54.8335 132.862 54.7939 132.842Z" fill="#BDD0FB"/>
<path d="M44.5539 132.344L94.0073 132.751C95.7835 132.761 97.2917 134.06 97.5794 135.817L97.6191 136.055C97.9366 137.98 96.4483 139.716 94.4935 139.706L43.7601 139.29C42.5991 139.28 41.6763 138.297 41.7359 137.136L41.8649 134.864C41.9542 133.445 43.1349 132.334 44.5539 132.344Z" fill="url(#paint6_linear_96_9251)"/>
<path d="M129.806 147.435C135.858 153.379 141.078 159.55 145.642 165.921C152.439 150.432 159.682 136.034 167.521 123.105L186.751 116.695C173.504 133.96 159.384 159.699 147.319 185.507C138.587 173.204 129.875 160.93 123.584 156.574L129.806 147.435Z" fill="#00C79D"/>
<path d="M95.731 110.239H93.6511V94.8949H99.445C102.735 94.8949 104.687 96.6352 104.687 99.5003C104.687 101.623 103.626 103.151 101.716 103.766L104.836 110.239H102.522L99.6573 104.169H95.731V110.239ZM95.731 96.7626V102.323H99.4663C101.398 102.323 102.501 101.283 102.501 99.5216C102.501 97.7388 101.355 96.7626 99.445 96.7626H95.731Z" fill="url(#paint7_linear_96_9251)"/>
<path d="M110.293 110.494C107.237 110.494 105.136 108.287 105.136 105.061C105.136 101.814 107.194 99.564 110.208 99.564C113.158 99.564 115.089 101.601 115.089 104.679V105.422L107.067 105.443C107.216 107.629 108.362 108.839 110.335 108.839C111.885 108.839 112.903 108.202 113.243 107.013H115.111C114.601 109.242 112.861 110.494 110.293 110.494ZM110.208 101.241C108.468 101.241 107.364 102.281 107.11 104.106H113.095C113.095 102.387 111.97 101.241 110.208 101.241Z" fill="url(#paint8_linear_96_9251)"/>
<path d="M116.023 104.785C116.023 101.856 117.912 99.564 120.926 99.564C122.602 99.564 123.897 100.328 124.555 101.623L124.703 99.8611H126.486V109.815C126.486 113.083 124.47 115.163 121.286 115.163C118.464 115.163 116.532 113.571 116.15 110.94H118.145C118.4 112.468 119.546 113.359 121.286 113.359C123.239 113.359 124.512 112.086 124.512 110.112V108.032C123.833 109.242 122.475 109.963 120.841 109.963C117.891 109.963 116.023 107.692 116.023 104.785ZM118.018 104.742C118.018 106.695 119.228 108.223 121.18 108.223C123.197 108.223 124.427 106.78 124.427 104.742C124.427 102.747 123.239 101.304 121.202 101.304C119.207 101.304 118.018 102.832 118.018 104.742Z" fill="url(#paint9_linear_96_9251)"/>
<path d="M129.705 97.3992C128.983 97.3992 128.389 96.805 128.389 96.0834C128.389 95.3406 128.983 94.7676 129.705 94.7676C130.426 94.7676 131.021 95.3406 131.021 96.0834C131.021 96.805 130.426 97.3992 129.705 97.3992ZM128.728 110.239V99.8611H130.723V110.239H128.728Z" fill="url(#paint10_linear_96_9251)"/>
<path d="M132.134 107.226H134.044C134.044 108.287 134.851 108.923 136.167 108.923C137.567 108.923 138.374 108.35 138.374 107.395C138.374 106.695 138.034 106.271 136.952 105.995L135.127 105.57C133.28 105.124 132.41 104.212 132.41 102.684C132.41 100.774 134.023 99.564 136.315 99.564C138.586 99.564 140.072 100.837 140.114 102.811H138.204C138.162 101.771 137.461 101.113 136.251 101.113C134.999 101.113 134.299 101.665 134.299 102.62C134.299 103.321 134.808 103.787 135.827 104.042L137.652 104.488C139.414 104.912 140.284 105.719 140.284 107.268C140.284 109.242 138.586 110.494 136.124 110.494C133.683 110.494 132.134 109.199 132.134 107.226Z" fill="url(#paint11_linear_96_9251)"/>
<path d="M144.788 110.239H142.793V101.538H140.756V99.8611H142.793V96.614H144.788V99.8611H146.826V101.538H144.788V110.239Z" fill="url(#paint12_linear_96_9251)"/>
<path d="M153.922 99.7762V101.601H153.03C151.142 101.601 149.974 102.747 149.974 104.742V110.239H147.979V99.8824H149.847L149.974 101.453C150.399 100.37 151.439 99.6489 152.861 99.6489C153.221 99.6489 153.519 99.6913 153.922 99.7762Z" fill="url(#paint13_linear_96_9251)"/>
<path d="M157.777 110.494C155.548 110.494 154.232 109.242 154.232 107.353C154.232 105.443 155.654 104.254 158.095 104.063L161.363 103.809V103.512C161.363 101.771 160.323 101.156 158.923 101.156C157.246 101.156 156.291 101.899 156.291 103.151H154.551C154.551 100.986 156.333 99.564 159.008 99.564C161.576 99.564 163.316 100.922 163.316 103.724V110.239H161.618L161.406 108.563C160.875 109.751 159.453 110.494 157.777 110.494ZM158.35 108.945C160.239 108.945 161.385 107.714 161.385 105.761V105.209L158.732 105.422C156.97 105.591 156.249 106.271 156.249 107.289C156.249 108.393 157.055 108.945 158.35 108.945Z" fill="url(#paint14_linear_96_9251)"/>
<path d="M168.205 110.239H166.21V101.538H164.173V99.8611H166.21V96.614H168.205V99.8611H170.242V101.538H168.205V110.239Z" fill="url(#paint15_linear_96_9251)"/>
<path d="M172.372 97.3992C171.651 97.3992 171.057 96.805 171.057 96.0834C171.057 95.3406 171.651 94.7676 172.372 94.7676C173.094 94.7676 173.688 95.3406 173.688 96.0834C173.688 96.805 173.094 97.3992 172.372 97.3992ZM171.396 110.239V99.8611H173.391V110.239H171.396Z" fill="url(#paint16_linear_96_9251)"/>
<path d="M174.972 105.04C174.972 101.835 177.264 99.5852 180.383 99.5852C183.482 99.5852 185.774 101.835 185.774 105.04C185.774 108.244 183.482 110.494 180.383 110.494C177.264 110.494 174.972 108.244 174.972 105.04ZM176.988 105.04C176.988 107.204 178.367 108.711 180.383 108.711C182.378 108.711 183.779 107.204 183.779 105.04C183.779 102.875 182.378 101.368 180.383 101.368C178.367 101.368 176.988 102.875 176.988 105.04Z" fill="url(#paint17_linear_96_9251)"/>
<path d="M189.341 110.239H187.346V99.8611H189.15L189.362 101.453C190.02 100.264 191.336 99.564 192.8 99.564C195.538 99.564 196.79 101.241 196.79 103.894V110.239H194.795V104.339C194.795 102.238 193.819 101.389 192.291 101.389C190.423 101.389 189.341 102.726 189.341 104.742V110.239Z" fill="url(#paint18_linear_96_9251)"/>
<defs>
<linearGradient id="paint0_linear_96_9251" x1="161.488" y1="200.388" x2="121.407" y2="301.35" gradientUnits="userSpaceOnUse">
<stop stop-color="#09005D"/>
<stop offset="1" stop-color="#1A0F91"/>
</linearGradient>
<linearGradient id="paint1_linear_96_9251" x1="170.915" y1="47.8101" x2="117.644" y2="207.624" gradientUnits="userSpaceOnUse">
<stop stop-color="#09005D"/>
<stop offset="1" stop-color="#1A0F91"/>
</linearGradient>
<linearGradient id="paint2_linear_96_9251" x1="102.311" y1="303.883" x2="164.207" y2="238.435" gradientUnits="userSpaceOnUse">
<stop stop-color="#09005D"/>
<stop offset="1" stop-color="#1A0F91"/>
</linearGradient>
<linearGradient id="paint3_linear_96_9251" x1="105.701" y1="145.891" x2="-3.14496" y2="313.187" gradientUnits="userSpaceOnUse">
<stop stop-color="#4F52FF"/>
<stop offset="1" stop-color="#4042E2"/>
</linearGradient>
<linearGradient id="paint4_linear_96_9251" x1="89.3139" y1="115.02" x2="36.6596" y2="138.652" gradientUnits="userSpaceOnUse">
<stop stop-color="#09005D"/>
<stop offset="1" stop-color="#1A0F91"/>
</linearGradient>
<linearGradient id="paint5_linear_96_9251" x1="87.1774" y1="109.859" x2="50.7279" y2="156.991" gradientUnits="userSpaceOnUse">
<stop stop-color="#09005D"/>
<stop offset="1" stop-color="#1A0F91"/>
</linearGradient>
<linearGradient id="paint6_linear_96_9251" x1="82.6102" y1="112.721" x2="57.3345" y2="158.229" gradientUnits="userSpaceOnUse">
<stop stop-color="#09005D"/>
<stop offset="1" stop-color="#1A0F91"/>
</linearGradient>
<linearGradient id="paint7_linear_96_9251" x1="170.528" y1="91.5222" x2="165.218" y2="143.804" gradientUnits="userSpaceOnUse">
<stop stop-color="#09005D"/>
<stop offset="1" stop-color="#1A0F91"/>
</linearGradient>
<linearGradient id="paint8_linear_96_9251" x1="170.528" y1="91.5222" x2="165.218" y2="143.804" gradientUnits="userSpaceOnUse">
<stop stop-color="#09005D"/>
<stop offset="1" stop-color="#1A0F91"/>
</linearGradient>
<linearGradient id="paint9_linear_96_9251" x1="170.528" y1="91.5222" x2="165.218" y2="143.804" gradientUnits="userSpaceOnUse">
<stop stop-color="#09005D"/>
<stop offset="1" stop-color="#1A0F91"/>
</linearGradient>
<linearGradient id="paint10_linear_96_9251" x1="170.528" y1="91.5222" x2="165.218" y2="143.804" gradientUnits="userSpaceOnUse">
<stop stop-color="#09005D"/>
<stop offset="1" stop-color="#1A0F91"/>
</linearGradient>
<linearGradient id="paint11_linear_96_9251" x1="170.528" y1="91.5222" x2="165.218" y2="143.804" gradientUnits="userSpaceOnUse">
<stop stop-color="#09005D"/>
<stop offset="1" stop-color="#1A0F91"/>
</linearGradient>
<linearGradient id="paint12_linear_96_9251" x1="170.528" y1="91.5222" x2="165.218" y2="143.804" gradientUnits="userSpaceOnUse">
<stop stop-color="#09005D"/>
<stop offset="1" stop-color="#1A0F91"/>
</linearGradient>
<linearGradient id="paint13_linear_96_9251" x1="170.528" y1="91.5222" x2="165.218" y2="143.804" gradientUnits="userSpaceOnUse">
<stop stop-color="#09005D"/>
<stop offset="1" stop-color="#1A0F91"/>
</linearGradient>
<linearGradient id="paint14_linear_96_9251" x1="170.528" y1="91.5222" x2="165.218" y2="143.804" gradientUnits="userSpaceOnUse">
<stop stop-color="#09005D"/>
<stop offset="1" stop-color="#1A0F91"/>
</linearGradient>
<linearGradient id="paint15_linear_96_9251" x1="170.528" y1="91.5222" x2="165.218" y2="143.804" gradientUnits="userSpaceOnUse">
<stop stop-color="#09005D"/>
<stop offset="1" stop-color="#1A0F91"/>
</linearGradient>
<linearGradient id="paint16_linear_96_9251" x1="170.528" y1="91.5222" x2="165.218" y2="143.804" gradientUnits="userSpaceOnUse">
<stop stop-color="#09005D"/>
<stop offset="1" stop-color="#1A0F91"/>
</linearGradient>
<linearGradient id="paint17_linear_96_9251" x1="170.528" y1="91.5222" x2="165.218" y2="143.804" gradientUnits="userSpaceOnUse">
<stop stop-color="#09005D"/>
<stop offset="1" stop-color="#1A0F91"/>
</linearGradient>
<linearGradient id="paint18_linear_96_9251" x1="170.528" y1="91.5222" x2="165.218" y2="143.804" gradientUnits="userSpaceOnUse">
<stop stop-color="#09005D"/>
<stop offset="1" stop-color="#1A0F91"/>
</linearGradient>
</defs>
</svg>
