<svg xmlns="http://www.w3.org/2000/svg" viewBox="0 0 512.46 432.68"><defs><style>.cls-1{fill:#444545;}.cls-2{fill:#208f8d;}.cls-3{fill:#fff;}.cls-4{fill:#f05555;}.cls-11,.cls-12,.cls-4,.cls-5,.cls-6,.cls-8,.cls-9{stroke:#444545;stroke-miterlimit:10;}.cls-4,.cls-5,.cls-6{stroke-width:5.5px;}.cls-5{fill:#ffcb18;}.cls-6{fill:#136735;}.cls-7{fill:#e7e4e5;}.cls-11,.cls-12,.cls-8{fill:none;}.cls-8,.cls-9{stroke-width:9.95px;}.cls-10,.cls-9{fill:#f27074;}.cls-11{stroke-width:7.8px;}.cls-12{stroke-width:7px;}</style></defs><g id="Layer_2" data-name="Layer 2"><g id="Layer_1-2" data-name="Layer 1"><rect class="cls-1" width="392" height="353" rx="26.28"/><rect class="cls-2" x="9.65" y="7.5" width="374.23" height="337" rx="19.32"/><rect class="cls-3" x="16.4" y="13.5" width="360.91" height="325" rx="18.63"/><rect class="cls-1" x="24.41" y="26.44" width="392" height="353" rx="26.28"/><rect class="cls-2" x="34.07" y="33.94" width="374.23" height="337" rx="19.32"/><path class="cls-3" d="M408.3,71.29V351A19.38,19.38,0,0,1,389,370.29H53.38A19.38,19.38,0,0,1,34.07,351V71.29Z"/><rect class="cls-1" x="30.63" y="67.29" width="381" height="8"/><circle class="cls-4" cx="68.76" cy="50.67" r="10.44"/><circle class="cls-5" cx="102.07" cy="50.67" r="10.44"/><circle class="cls-6" cx="135.39" cy="50.47" r="10.44"/><path class="cls-3" d="M314.13,131.38l-120.95,241c-12.75,25.4,5.72,55.34,34.15,55.34h241.9c28.43,0,46.9-29.94,34.15-55.34l-121-241C368.32,103.29,328.23,103.29,314.13,131.38Z"/><path class="cls-7" d="M276.36,427.71H469.23c28.43,0,46.9-29.94,34.15-55.34L396.53,159.48s-9.88,115.23-62.73,155.45S270.61,403.77,276.36,427.71Z"/><path class="cls-8" d="M314.13,131.38l-120.95,241c-12.75,25.4,5.72,55.34,34.15,55.34h241.9c28.43,0,46.9-29.94,34.15-55.34l-121-241C368.32,103.29,328.23,103.29,314.13,131.38Z"/><rect class="cls-9" x="328.75" y="150.79" width="39.06" height="193.02" rx="19.53"/><circle class="cls-9" cx="348.28" cy="379.43" r="18.34"/><path class="cls-10" d="M160.64,204.3a60.82,60.82,0,0,1,43.41,58.26H82.49A60.82,60.82,0,0,1,126.82,204s-14.23-5.59-14.23-27.55,15.7-33.15,31.84-33.15c18.47,0,29.52,15.12,29.52,33.15C174,196.41,160.64,204.3,160.64,204.3Z"/><path class="cls-11" d="M160.64,204.3a60.82,60.82,0,0,1,43.41,58.26H82.49A60.82,60.82,0,0,1,126.82,204s-14.23-5.59-14.23-27.55,15.7-33.15,31.84-33.15c18.47,0,29.52,15.12,29.52,33.15C174,196.41,160.64,204.3,160.64,204.3Z"/><polyline class="cls-12" points="61.36 158.17 61.36 122.51 97.02 122.51"/><polyline class="cls-12" points="229.7 251.18 229.7 286.84 194.04 286.84"/><polyline class="cls-12" points="194.04 122.51 229.7 122.51 229.7 158.17"/><polyline class="cls-12" points="97.02 286.84 61.36 286.84 61.36 251.18"/></g></g></svg>