<svg width="485" height="481" viewBox="0 0 485 481" fill="none" xmlns="http://www.w3.org/2000/svg">
<rect width="484.084" height="479.535" transform="translate(0.0419922 0.692383)" fill="#F2E5FF"/>
<g clip-path="url(#clip0_96_11597)">
<path d="M372.296 326.547C371.191 323.622 370.087 320.632 368.202 318.097C366.317 315.563 363.652 313.483 360.533 313.093C357.413 312.703 353.968 314.393 352.928 317.383C352.473 310.688 351.564 303.799 348.184 298.015C344.804 292.165 338.565 287.616 331.871 288.006C325.566 288.396 320.172 293.075 317.117 298.665C314.128 304.254 313.088 310.623 312.113 316.863C309.708 313.938 304.639 314.848 302.169 317.708C299.699 320.567 299.049 324.532 298.529 328.301H373.921L372.296 326.547Z" fill="white"/>
<path d="M277.018 145.601C275.913 142.677 274.808 139.687 272.923 137.152C271.039 134.617 268.374 132.538 265.254 132.148C262.135 131.758 258.69 133.448 257.65 136.437C257.195 129.743 256.285 122.854 252.906 117.069C249.526 111.22 243.287 106.67 236.592 107.06C230.288 107.45 224.894 112.13 221.839 117.719C218.849 123.309 217.809 129.678 216.835 135.917C214.43 132.993 209.36 133.903 206.891 136.762C204.421 139.622 203.771 143.586 203.251 147.356H278.643L277.018 145.601Z" fill="white"/>
<path d="M162.567 339.736C161.722 337.461 160.877 335.187 159.447 333.302C158.017 331.352 155.937 329.792 153.598 329.467C151.193 329.207 148.593 330.442 147.813 332.717C147.488 327.582 146.773 322.383 144.174 317.899C141.639 313.479 136.829 309.969 131.695 310.294C126.886 310.619 122.726 314.194 120.451 318.418C118.176 322.643 117.397 327.517 116.617 332.327C114.797 330.052 110.897 330.767 109.012 332.977C107.128 335.122 106.608 338.176 106.218 341.036H163.737L162.567 339.736Z" fill="white"/>
<path d="M284.819 286.969C283.974 284.694 283.129 282.419 281.699 280.534C280.269 278.584 278.189 277.025 275.85 276.7C273.445 276.44 270.845 277.675 270.065 279.949C269.74 274.815 269.025 269.615 266.426 265.131C263.891 260.711 259.081 257.202 253.947 257.527C249.137 257.852 244.978 261.426 242.703 265.651C240.428 269.875 239.649 274.75 238.869 279.559C237.049 277.285 233.149 278 231.264 280.209C229.38 282.354 228.86 285.409 228.47 288.268H285.989L284.819 286.969Z" fill="white"/>
<path d="M272.402 353.125C271.753 351.435 271.168 349.746 270.063 348.316C269.023 346.886 267.463 345.716 265.708 345.456C263.953 345.261 261.939 346.171 261.419 347.861C261.159 344.026 260.639 340.127 258.689 336.812C256.804 333.497 253.23 330.898 249.395 331.158C245.82 331.353 242.701 334.082 241.011 337.202C239.321 340.387 238.736 344.026 238.151 347.601C236.786 345.911 233.927 346.431 232.497 348.056C231.067 349.681 230.742 351.955 230.417 354.1H273.312L272.402 353.125Z" fill="white"/>
<path d="M380.358 247.385C379.708 245.695 379.123 244.005 378.018 242.576C376.978 241.146 375.418 239.976 373.663 239.716C371.908 239.521 369.894 240.431 369.374 242.121C369.114 238.286 368.594 234.386 366.644 231.072C364.759 227.757 361.185 225.157 357.35 225.417C353.775 225.612 350.656 228.342 348.966 231.462C347.276 234.646 346.691 238.286 346.106 241.861C344.741 240.171 341.882 240.691 340.452 242.316C339.022 243.94 338.697 246.215 338.372 248.36H381.267L380.358 247.385Z" fill="white"/>
<path d="M142.615 171.41C142.03 169.85 141.445 168.29 140.47 166.925C139.495 165.561 138.066 164.456 136.376 164.261C134.751 164.066 132.866 164.976 132.346 166.536C132.086 162.961 131.631 159.321 129.811 156.267C128.057 153.212 124.742 150.742 121.167 151.002C117.788 151.197 114.928 153.667 113.368 156.657C111.743 159.581 111.223 163.026 110.703 166.341C109.404 164.781 106.739 165.301 105.439 166.796C104.139 168.29 103.749 170.435 103.489 172.385H143.46L142.615 171.41Z" fill="white"/>
<path d="M174.072 128.509C173.617 127.275 173.097 125.975 172.317 124.87C171.537 123.765 170.367 122.92 169.067 122.725C167.768 122.53 166.273 123.31 165.818 124.545C165.623 121.685 165.233 118.76 163.803 116.291C162.373 113.821 159.708 111.871 156.849 112.066C154.184 112.261 151.844 114.211 150.544 116.616C149.245 119.02 148.855 121.685 148.4 124.35C147.36 123.115 145.215 123.505 144.175 124.675C143.135 125.91 142.81 127.6 142.615 129.159H174.787L174.072 128.509Z" fill="white"/>
<path d="M342.923 368.202C342.468 366.967 341.949 365.667 341.169 364.562C340.389 363.457 339.219 362.612 337.919 362.417C336.619 362.222 335.124 363.002 334.669 364.237C334.474 361.378 334.084 358.453 332.655 355.983C331.225 353.513 328.56 351.564 325.7 351.759C323.036 351.954 320.696 353.903 319.396 356.308C318.096 358.713 317.706 361.378 317.251 364.042C316.211 362.807 314.067 363.197 313.027 364.367C311.987 365.602 311.662 367.292 311.467 368.852H343.638L342.923 368.202Z" fill="white"/>
<path d="M382.047 148.008C379.512 138.779 374.182 127.925 367.878 123.44C367.878 123.44 362.289 111.481 348.77 108.297C348.77 108.297 342.661 101.863 332.392 103.292C332.392 103.292 325.438 98.2229 318.288 102.577C309.449 98.3529 304.575 103.682 304.575 103.682C294.306 102.317 288.587 109.402 288.587 109.402C274.483 114.861 268.699 127.34 268.699 127.34C265.969 129.355 260.315 138.259 257.78 148.008C255.18 157.757 256.415 168.155 256.415 168.155C256.35 178.554 261.81 193.178 265.774 199.287C269.739 205.461 285.597 223.789 288.587 226.909C291.511 230.029 303.86 241.727 303.86 241.727C304.705 245.952 308.929 250.761 308.929 250.761H317.769H319.328H320.628H331.027C331.027 250.761 335.252 245.952 336.097 241.727C336.097 241.727 348.38 230.029 351.37 226.909C354.295 223.789 370.218 205.396 374.182 199.287C378.147 193.113 383.541 181.024 383.996 168.285C383.931 168.285 384.711 157.627 382.047 148.008Z" fill="#455A64"/>
<path d="M382.047 172.641C372.493 177.386 374.313 161.592 374.313 161.592C363.784 173.291 361.77 153.858 361.77 153.858C358.39 155.353 353.906 156.913 350.461 155.483C347.081 154.118 344.871 148.204 343.507 144.759C339.932 149.959 334.343 153.533 329.338 152.883C324.334 152.234 320.304 145.994 317.704 141.64C315.755 146.384 310.035 153.858 304.251 153.403C299.116 153.013 296.192 148.854 293.072 144.759C291.317 148.074 289.562 155.548 284.168 156.068C280.463 156.458 276.889 152.623 274.679 149.569C273.834 151.909 271.624 157.693 269.155 158.083C266.685 158.473 263.565 155.808 262.525 152.883C262.59 155.938 259.341 166.142 256.026 161.982C255.961 166.077 256.221 167.247 256.221 167.247C256.221 168.872 256.871 174.526 257.066 176.346C259.666 177.321 263.695 169.652 263.565 165.947C264.54 168.872 268.635 171.146 271.104 170.757C273.574 170.367 276.369 165.687 277.214 163.347C279.359 166.402 283.583 171.666 287.028 170.237C290.472 168.807 293.722 164.387 294.957 159.253C296.387 161.268 300.026 166.987 306.136 167.572C312.895 168.222 316.6 162.892 317.834 157.823C319.719 162.957 322.709 168.612 328.233 169.197C336.552 170.107 340.907 162.372 341.752 160.488C342.727 163.997 344.157 169.392 347.536 170.822C350.916 172.186 354.75 170.172 358.455 167.377C358.455 167.377 360.47 181.155 371.194 173.031C371.194 173.031 368.854 184.925 378.408 180.18C378.408 180.18 375.353 188.5 380.163 185.51C381.398 182 382.372 178.426 383.022 174.461C381.008 179.921 382.047 172.641 382.047 172.641Z" fill="#EAEAEA"/>
<g opacity="0.1">
<path d="M356.701 136.311C359.626 135.336 361.771 131.891 360.666 128.967C362.421 131.046 365.995 130.656 367.88 128.707C368.92 127.667 369.505 126.367 369.895 124.937C369.245 124.352 368.595 123.767 367.945 123.312C367.945 123.312 362.356 111.354 348.837 108.169C348.837 108.169 342.728 101.735 332.459 103.164C332.459 103.164 325.505 98.095 318.356 102.45C309.516 98.225 304.642 103.554 304.642 103.554C294.373 102.19 288.654 109.274 288.654 109.274C274.485 114.668 268.701 127.212 268.701 127.212C265.971 129.227 260.317 138.131 257.782 147.88C256.482 152.819 256.157 157.889 256.157 161.723C256.937 161.073 259.797 158.603 260.707 154.314C261.357 151.259 262.527 145.8 263.371 141.965C263.176 143.33 263.111 144.63 263.306 145.93C263.696 148.66 265.516 151.714 268.831 151.779C271.561 151.844 275.2 148.66 274.81 145.93C275.33 150.089 274.225 144.11 276.76 147.425C279.295 150.739 284.494 152.429 287.744 149.829C290.084 147.945 290.669 144.695 291.058 141.705C291.838 135.076 293.723 133.711 293.723 133.711C293.723 133.711 296.258 141.055 299.638 142.81C303.017 144.5 307.307 144.305 310.426 142.225C315.821 138.716 316.991 131.436 317.576 125.002C318.356 129.747 320.5 134.426 324.27 137.416C328.039 140.405 333.564 141.38 337.788 139.171C342.078 136.961 344.353 131.241 342.208 126.952C343.768 129.617 345.458 132.346 347.862 134.296C350.462 136.181 353.777 137.286 356.701 136.311Z" fill="white"/>
</g>
<path d="M336.228 238.87C336.163 238.935 334.928 237.375 332.133 236.01C330.768 235.295 328.949 234.71 326.934 234.32C324.919 233.93 322.644 233.735 320.304 233.8C317.9 233.865 315.69 234.125 313.675 234.58C311.66 235.035 309.906 235.685 308.541 236.4C305.746 237.83 304.641 239.52 304.576 239.455C304.576 239.455 304.641 239.325 304.771 239.195C304.901 239 305.096 238.74 305.421 238.415C306.006 237.765 307.046 236.985 308.411 236.205C309.776 235.49 311.595 234.775 313.61 234.32C315.625 233.865 317.9 233.541 320.304 233.541C322.709 233.476 324.984 233.67 327.064 234.125C329.079 234.58 330.898 235.165 332.263 235.88C333.693 236.595 334.668 237.375 335.318 237.96C335.643 238.22 335.838 238.48 336.033 238.675C336.163 238.805 336.228 238.87 336.228 238.87Z" fill="#0E0E0E"/>
<path d="M305.159 236.269C305.159 236.269 305.094 236.204 304.964 236.009C304.834 235.814 304.639 235.619 304.379 235.294C303.86 234.644 303.145 233.669 302.235 232.435C300.415 229.965 297.75 226.325 294.566 221.841C291.381 217.356 287.611 211.962 283.582 205.917C281.567 202.863 279.422 199.678 277.277 196.363C275.068 193.049 272.923 189.539 270.973 185.835C267.073 178.36 264.214 170.756 263.109 163.542C262.004 156.328 262.459 149.634 263.434 144.239C264.409 138.78 265.839 134.555 266.878 131.63C267.398 130.201 267.853 129.096 268.178 128.316C268.308 127.926 268.438 127.666 268.568 127.471C268.633 127.276 268.698 127.211 268.698 127.211C268.698 127.211 268.698 127.341 268.568 127.536C268.503 127.731 268.373 128.056 268.243 128.381C267.918 129.161 267.528 130.266 267.008 131.695C265.969 134.62 264.604 138.845 263.629 144.304C262.654 149.699 262.264 156.328 263.369 163.542C264.474 170.756 267.333 178.295 271.233 185.77C273.183 189.474 275.328 192.984 277.472 196.298C279.617 199.613 281.762 202.798 283.777 205.852C287.806 211.897 291.576 217.291 294.695 221.841C297.88 226.325 300.48 229.965 302.235 232.5C303.145 233.734 303.795 234.709 304.314 235.359C304.509 235.684 304.704 235.944 304.834 236.139C305.159 236.139 305.159 236.269 305.159 236.269Z" fill="#0E0E0E"/>
<path d="M303.406 237.957C303.406 237.957 303.341 237.892 303.211 237.827C303.081 237.697 302.951 237.567 302.756 237.372C302.366 236.982 301.781 236.397 301.067 235.617C299.572 234.058 297.492 231.783 294.957 228.923C292.422 226.063 289.368 222.619 286.053 218.849C282.674 215.08 279.034 210.79 275.524 206.111C272.015 201.431 268.895 196.752 266.425 192.332C263.956 187.913 262.071 183.688 260.706 180.113C259.341 176.539 258.496 173.549 257.976 171.469C257.716 170.429 257.521 169.65 257.391 169.065C257.326 168.805 257.261 168.61 257.261 168.415C257.261 168.285 257.196 168.22 257.196 168.22C257.196 168.22 257.196 168.285 257.261 168.415C257.326 168.545 257.326 168.805 257.456 169.065C257.586 169.585 257.781 170.429 258.106 171.469C258.691 173.549 259.536 176.539 260.901 180.113C262.266 183.688 264.151 187.848 266.685 192.267C269.155 196.687 272.275 201.301 275.784 205.981C279.294 210.66 282.869 214.95 286.248 218.719C289.563 222.554 292.552 225.998 295.087 228.858C297.622 231.718 299.702 234.058 301.132 235.617C301.846 236.397 302.431 236.982 302.821 237.437C303.016 237.632 303.146 237.762 303.276 237.892C303.406 237.892 303.471 237.957 303.406 237.957Z" fill="#0E0E0E"/>
<path d="M288.781 109.209C288.781 109.209 288.716 109.274 288.521 109.469C288.326 109.664 288.131 109.859 287.806 110.184C287.481 110.509 287.091 110.899 286.636 111.354C286.181 111.809 285.726 112.459 285.141 113.109C282.997 115.708 280.137 119.868 277.992 125.587C275.912 131.307 274.548 138.586 274.938 146.645C275.068 150.675 275.717 154.899 276.562 159.189C277.472 163.478 278.577 167.898 280.007 172.317C282.802 181.221 286.311 189.345 289.691 196.69C293.071 204.034 296.45 210.468 299.18 215.927C301.975 221.387 304.184 225.806 305.614 228.861C306.329 230.421 306.914 231.591 307.304 232.436C307.499 232.826 307.629 233.151 307.759 233.346C307.824 233.541 307.889 233.671 307.889 233.671C307.889 233.671 307.824 233.541 307.694 233.346C307.564 233.151 307.434 232.826 307.239 232.436C306.849 231.591 306.264 230.421 305.484 228.926C303.989 225.871 301.715 221.452 298.92 216.057C296.125 210.598 292.746 204.164 289.366 196.82C285.986 189.475 282.477 181.286 279.617 172.382C278.187 167.963 277.017 163.543 276.172 159.189C275.263 154.899 274.678 150.675 274.548 146.645C274.223 138.521 275.522 131.242 277.667 125.522C279.877 119.803 282.737 115.643 284.946 113.044C285.531 112.394 285.986 111.809 286.441 111.354C286.896 110.899 287.286 110.509 287.611 110.184C287.936 109.859 288.196 109.664 288.326 109.469C288.716 109.274 288.781 109.209 288.781 109.209Z" fill="#0E0E0E"/>
<path d="M313.61 231.913C313.61 231.913 313.545 231.783 313.545 231.588C313.48 231.328 313.415 231.003 313.35 230.613C313.285 230.158 313.155 229.638 313.025 228.988C312.83 228.338 312.7 227.623 312.441 226.843C311.596 223.594 310.231 218.914 308.476 213.13C306.786 207.345 304.706 200.456 302.562 192.787C300.482 185.118 298.272 176.604 296.452 167.57C294.632 158.536 293.398 149.827 293.268 141.833C293.268 139.818 293.268 137.868 293.333 135.983C293.463 134.098 293.593 132.279 293.788 130.524C294.177 127.014 294.827 123.699 295.542 120.775C297.037 114.925 299.247 110.441 301.197 107.711C301.457 107.386 301.652 106.996 301.912 106.736C302.172 106.476 302.367 106.151 302.562 105.891C302.757 105.631 302.952 105.436 303.147 105.176C303.342 104.982 303.536 104.787 303.666 104.657C303.991 104.332 304.186 104.072 304.381 103.942C304.511 103.812 304.641 103.682 304.641 103.682C304.641 103.682 304.576 103.747 304.446 103.942C304.316 104.137 304.056 104.397 303.796 104.722C303.666 104.917 303.471 105.046 303.277 105.241C303.082 105.436 302.952 105.696 302.757 105.956C302.562 106.216 302.367 106.476 302.107 106.801C301.912 107.126 301.652 107.451 301.457 107.776C299.572 110.571 297.362 114.99 295.932 120.84C295.217 123.764 294.632 127.014 294.177 130.524C293.983 132.279 293.853 134.098 293.723 135.983C293.658 137.868 293.658 139.818 293.658 141.833C293.853 149.827 295.087 158.536 296.842 167.505C298.662 176.539 300.807 185.053 302.887 192.722C304.966 200.391 307.046 207.28 308.736 213.13C310.426 218.914 311.791 223.594 312.571 226.908C312.765 227.753 312.96 228.468 313.09 229.118C313.22 229.768 313.285 230.288 313.415 230.743C313.48 231.198 313.545 231.523 313.61 231.718C313.61 231.783 313.61 231.913 313.61 231.913Z" fill="#0E0E0E"/>
<path d="M317.769 231.915C317.704 231.915 317.639 202.928 317.769 167.182C317.834 131.436 317.964 102.449 318.094 102.449C318.159 102.449 318.224 131.436 318.094 167.182C318.029 202.928 317.899 231.915 317.769 231.915Z" fill="#0E0E0E"/>
<path d="M333.304 235.164C333.304 235.164 333.369 235.099 333.499 234.904C333.629 234.709 333.824 234.449 334.019 234.124C334.474 233.409 335.189 232.434 336.098 231.134C337.918 228.535 340.518 224.83 343.703 220.151C346.887 215.536 350.592 209.947 354.686 203.707C356.701 200.588 358.846 197.273 360.991 193.893C363.135 190.514 365.28 186.874 367.165 183.04C369.05 179.205 370.675 175.305 371.91 171.471C373.144 167.636 373.924 163.802 374.379 160.097C374.834 156.392 374.899 152.883 374.769 149.568C374.639 146.254 374.314 143.199 373.794 140.469C372.884 134.945 371.39 130.59 370.155 127.731C369.83 127.016 369.57 126.366 369.31 125.846C369.05 125.326 368.79 124.871 368.595 124.481C368.4 124.091 368.27 123.831 368.14 123.636C368.075 123.441 368.01 123.376 368.01 123.376C368.01 123.376 368.075 123.441 368.205 123.636C368.335 123.831 368.465 124.091 368.66 124.481C368.855 124.871 369.115 125.261 369.375 125.846C369.635 126.366 369.895 127.016 370.285 127.731C371.52 130.59 373.079 134.945 374.054 140.534C374.574 143.329 374.899 146.383 375.029 149.698C375.159 153.013 375.094 156.587 374.704 160.292C374.314 163.997 373.469 167.831 372.235 171.731C371 175.565 369.375 179.465 367.49 183.365C365.605 187.199 363.46 190.839 361.316 194.283C359.171 197.728 357.026 200.978 355.011 204.097C350.917 210.337 347.147 215.861 343.963 220.476C340.778 225.09 338.113 228.795 336.293 231.394C335.383 232.629 334.669 233.669 334.149 234.319C333.889 234.644 333.694 234.904 333.564 235.099C333.369 235.099 333.304 235.164 333.304 235.164Z" fill="#0E0E0E"/>
<path d="M335.059 236.854C335.059 236.854 335.124 236.789 335.189 236.659C335.319 236.529 335.449 236.399 335.644 236.139C336.033 235.684 336.618 235.034 337.333 234.254C338.828 232.629 340.908 230.224 343.508 227.17C346.107 224.18 349.162 220.605 352.542 216.641C355.986 212.676 359.886 208.517 363.656 203.772C365.54 201.432 367.23 199.028 368.79 196.623C370.35 194.218 371.845 191.943 373.209 189.669C375.939 185.249 378.214 181.09 379.904 177.515C381.594 173.94 382.633 170.951 383.283 168.806C383.608 167.766 383.803 166.921 383.933 166.336C383.998 166.076 384.063 165.881 384.128 165.686C384.063 165.881 384.063 166.076 383.998 166.336C383.868 166.921 383.673 167.766 383.348 168.806C382.763 170.951 381.724 174.005 380.034 177.58C378.409 181.155 376.134 185.314 373.404 189.799C372.04 192.008 370.545 194.348 369.05 196.753C367.555 199.158 365.8 201.562 363.915 203.902C360.146 208.647 356.181 212.806 352.737 216.771C349.292 220.735 346.237 224.31 343.638 227.3C341.038 230.289 338.893 232.694 337.398 234.319C336.618 235.099 336.033 235.749 335.644 236.139C335.449 236.334 335.319 236.464 335.189 236.594C335.124 236.854 335.059 236.854 335.059 236.854Z" fill="#0E0E0E"/>
<path d="M348.902 108.233C348.902 108.233 348.967 108.298 349.162 108.493C349.357 108.688 349.552 108.883 349.877 109.208C350.202 109.533 350.592 109.923 351.047 110.378C351.502 110.833 351.957 111.418 352.542 112.068C354.751 114.668 357.676 118.762 359.821 124.482C361.966 130.201 363.135 137.48 362.745 145.604C362.55 149.634 362.03 153.858 361.186 158.148C360.341 162.438 359.171 166.857 357.806 171.277C355.011 180.181 351.632 188.37 348.382 195.714C345.132 203.058 341.948 209.622 339.218 215.082C336.488 220.541 334.278 224.896 332.784 227.95C332.004 229.445 331.419 230.615 331.029 231.46C330.834 231.85 330.704 232.175 330.574 232.37C330.444 232.565 330.379 232.695 330.379 232.695C330.379 232.695 330.444 232.565 330.509 232.37C330.639 232.175 330.769 231.85 330.964 231.46C331.354 230.615 331.939 229.445 332.654 227.95C334.149 224.896 336.358 220.476 339.023 215.017C341.688 209.557 344.872 203.058 348.122 195.649C351.372 188.305 354.751 180.116 357.481 171.212C358.846 166.792 360.016 162.373 360.861 158.083C361.706 153.793 362.29 149.634 362.485 145.604C362.875 137.545 361.706 130.331 359.626 124.612C357.546 118.892 354.686 114.798 352.477 112.198C351.892 111.548 351.437 110.963 350.982 110.508C350.527 110.053 350.137 109.663 349.812 109.338C349.487 109.013 349.292 108.753 349.097 108.623C348.967 108.298 348.902 108.233 348.902 108.233Z" fill="#0E0E0E"/>
<path d="M324.791 230.943C324.791 230.943 324.791 230.813 324.856 230.618C324.921 230.358 324.921 230.033 325.051 229.643C325.116 229.188 325.246 228.668 325.311 228.018C325.441 227.368 325.636 226.654 325.831 225.874C326.611 222.624 327.846 217.945 329.471 212.16C331.095 206.376 333.045 199.487 335.06 191.817C337.075 184.148 339.089 175.634 340.844 166.665C342.534 157.696 343.704 148.987 343.834 141.058C343.769 139.108 343.769 137.158 343.704 135.273C343.574 133.389 343.444 131.569 343.249 129.814C342.859 126.304 342.274 123.055 341.494 120.195C339.999 114.411 337.79 109.991 335.84 107.261C335.58 106.936 335.385 106.612 335.125 106.287C334.865 106.027 334.67 105.702 334.475 105.507C334.28 105.247 334.085 105.052 333.89 104.792C333.695 104.597 333.565 104.402 333.37 104.272C333.045 103.947 332.85 103.687 332.655 103.557C332.525 103.362 332.46 103.297 332.46 103.297C332.46 103.297 332.525 103.362 332.72 103.557C332.915 103.752 333.11 103.947 333.435 104.272C333.565 104.402 333.76 104.597 333.955 104.792C334.15 104.987 334.345 105.247 334.54 105.507C334.735 105.767 334.995 106.027 335.19 106.287C335.45 106.547 335.645 106.936 335.905 107.261C337.855 109.991 340.129 114.411 341.689 120.195C342.469 123.12 343.054 126.369 343.444 129.879C343.639 131.634 343.834 133.454 343.964 135.338C344.029 137.223 344.029 139.173 344.094 141.123C343.964 149.052 342.794 157.761 341.104 166.795C339.414 175.829 337.335 184.278 335.32 191.947C333.305 199.616 331.355 206.506 329.665 212.29C328.041 218.075 326.676 222.754 325.896 226.004C325.701 226.849 325.506 227.563 325.376 228.148C325.246 228.798 325.116 229.318 325.051 229.773C324.986 230.163 324.921 230.553 324.856 230.748C324.791 230.813 324.791 230.943 324.791 230.943Z" fill="#0E0E0E"/>
<g opacity="0.3">
<path d="M286.898 210.468C286.638 210.143 286.443 209.753 286.183 209.428C286.378 209.753 286.638 210.078 286.898 210.468Z" fill="black"/>
</g>
<g opacity="0.3">
<path d="M306.85 207.28C306.59 206.11 306.33 204.94 306.005 203.771C306.135 204.42 306.46 205.785 306.85 207.28Z" fill="black"/>
</g>
<g opacity="0.3">
<path d="M306.005 203.775C305.94 203.58 305.94 203.45 305.94 203.45C305.94 203.58 305.94 203.71 306.005 203.775Z" fill="black"/>
</g>
<path d="M300.09 105.049C300.09 105.114 299.57 105.179 298.595 105.569C297.62 105.894 296.32 106.479 294.825 107.454C291.771 109.338 288.196 112.978 285.271 117.592C282.347 122.272 280.657 126.951 279.812 130.461C279.422 132.216 279.162 133.646 279.032 134.621C278.967 135.141 278.967 135.531 278.902 135.791C278.902 136.05 278.837 136.18 278.837 136.18C278.837 136.18 278.837 136.05 278.837 135.791C278.837 135.531 278.837 135.141 278.902 134.621C278.967 133.581 279.162 132.151 279.552 130.396C280.332 126.886 282.022 122.077 284.946 117.397C287.871 112.718 291.511 109.078 294.63 107.194C296.19 106.219 297.555 105.699 298.53 105.374C298.985 105.244 299.375 105.114 299.635 105.049C299.96 105.049 300.09 105.049 300.09 105.049Z" fill="white"/>
<path d="M302.69 107.907C302.625 107.907 302.885 107.388 303.405 106.738C303.925 106.088 304.705 105.178 305.745 104.463C306.785 103.683 307.89 103.228 308.67 102.968C309.45 102.708 309.97 102.643 309.97 102.708C310.035 102.838 307.955 103.228 305.875 104.723C303.86 106.218 302.82 107.972 302.69 107.907Z" fill="white"/>
<path d="M269.999 129.548C269.999 129.548 269.999 129.353 269.999 129.028C270.064 128.703 270.129 128.183 270.259 127.599C270.584 126.364 271.169 124.739 272.144 123.114C273.119 121.489 274.289 120.189 275.198 119.409C275.653 119.019 276.043 118.695 276.368 118.5C276.628 118.305 276.823 118.175 276.823 118.24C276.888 118.305 276.238 118.76 275.393 119.604C274.549 120.449 273.379 121.749 272.469 123.309C271.494 124.934 270.909 126.494 270.519 127.664C270.194 128.768 270.064 129.548 269.999 129.548Z" fill="white"/>
<path d="M260.122 144.307C260.057 144.307 260.122 142.877 260.707 141.317C261.292 139.692 262.202 138.652 262.267 138.652C262.332 138.717 261.617 139.887 261.032 141.382C260.447 142.942 260.252 144.307 260.122 144.307Z" fill="white"/>
<path d="M324.465 102.644C324.465 102.774 323.165 102.839 321.735 103.619C320.306 104.334 319.461 105.439 319.396 105.374C319.331 105.309 320.046 104.139 321.54 103.359C323.035 102.514 324.465 102.579 324.465 102.644Z" fill="white"/>
<path d="M341.167 105.631C341.102 105.696 340.192 105.306 338.892 105.241C337.657 105.111 336.617 105.306 336.617 105.241C336.617 105.176 337.657 104.786 338.957 104.916C340.257 105.046 341.232 105.566 341.167 105.631Z" fill="white"/>
<path d="M331.157 250.437C331.157 251.412 326.153 252.257 320.043 252.257C313.869 252.257 308.93 251.477 308.93 250.437C308.93 249.397 313.934 248.617 320.043 248.617C326.153 248.682 331.157 249.462 331.157 250.437Z" fill="#0E0E0E"/>
<path d="M316.469 256.937C316.469 257.002 316.014 256.677 315.364 256.157C314.714 255.637 313.804 254.857 312.83 254.012C310.88 252.323 309.32 250.828 309.45 250.763C309.45 250.763 309.905 251.088 310.555 251.608C311.205 252.128 312.115 252.907 313.09 253.752C314.064 254.597 314.909 255.377 315.559 255.962C316.079 256.547 316.469 256.937 316.469 256.937Z" fill="#0E0E0E"/>
<path d="M318.094 256.999C318.029 257.064 317.379 255.894 316.729 254.399C316.014 252.904 315.559 251.735 315.624 251.67C315.754 251.605 316.339 252.774 317.054 254.269C317.704 255.764 318.224 256.999 318.094 256.999Z" fill="#0E0E0E"/>
<path d="M327.193 249.917C327.258 249.982 326.543 251.607 325.503 253.557C324.463 255.506 323.618 257.066 323.488 257.001C323.423 256.936 324.138 255.311 325.178 253.362C326.218 251.412 327.128 249.852 327.193 249.917Z" fill="#0E0E0E"/>
<path d="M325.308 256.937C325.243 256.872 326.282 255.312 327.712 253.427C329.077 251.542 330.312 250.047 330.377 250.112C330.442 250.177 329.402 251.737 327.972 253.622C326.607 255.507 325.373 257.002 325.308 256.937Z" fill="#0E0E0E"/>
<path d="M327.193 268.117L325.374 257.523C325.374 257.393 325.244 257.328 325.114 257.328C320.629 257.263 317.379 257.263 316.599 257.328L313.74 267.922L313.09 267.727L316.015 256.873L316.145 256.743C316.275 256.613 316.339 256.548 325.179 256.678C325.633 256.678 325.958 257.003 326.088 257.458L327.908 268.052L327.193 268.117Z" fill="#0E0E0E"/>
<path d="M316.99 268.375H316.34C316.34 268.18 317.38 260.316 317.77 256.937L318.42 257.002C318.03 260.121 317.055 268.115 316.99 268.375Z" fill="#0E0E0E"/>
<path d="M323.825 257L323.176 257.023L323.563 267.806L324.213 267.782L323.825 257Z" fill="#0E0E0E"/>
<path d="M312.311 268.895C317.771 268.895 323.23 268.895 328.689 268.895C329.729 268.895 329.729 267.271 328.689 267.271C323.23 267.271 317.771 267.271 312.311 267.271C311.271 267.271 311.271 268.895 312.311 268.895Z" fill="#AE7461"/>
<path d="M327.843 268.245H312.895V277.669H327.843V268.245Z" fill="#AE7461"/>
<path d="M327.843 277.604C327.843 278.059 324.528 278.384 320.369 278.384C316.274 278.384 312.895 277.994 312.895 277.604C312.895 277.149 316.209 276.824 320.369 276.824C324.528 276.824 327.843 277.214 327.843 277.604Z" fill="#FEAD3B"/>
<path d="M327.974 268.376C327.974 268.441 324.594 268.571 320.435 268.571C316.275 268.571 312.896 268.506 312.896 268.376C312.896 268.246 316.275 268.181 320.435 268.181C324.594 268.246 327.974 268.311 327.974 268.376Z" fill="#FEAD3B"/>
<g opacity="0.2">
<path d="M331.872 249.588C333.171 247.898 335.446 244.714 336.031 241.724C336.031 241.724 341.621 236.395 346.17 231.975C345.455 231.91 344.87 231.65 344.35 231.13C343.31 230.155 343.57 227.296 344.415 225.801C343.505 226.971 342.076 228.596 341.231 228.141C340.191 227.621 340.321 225.476 340.906 224.501C341.491 223.526 343.05 220.341 343.05 220.341C342.4 221.446 340.581 223.981 339.476 224.566C338.371 225.216 337.071 225.281 336.551 224.111C336.291 223.396 336.096 221.901 336.291 221.186C336.941 219.237 338.306 215.467 338.306 215.467C338.306 215.467 336.421 219.302 334.926 220.666C333.496 222.096 331.417 223.201 329.597 222.291C328.037 221.576 327.907 219.886 328.037 218.197C328.167 215.987 328.167 214.102 328.557 212.867C327.907 214.492 327.842 216.507 326.737 217.807C325.632 219.107 324.007 220.146 322.318 220.081C320.238 219.951 318.548 218.327 317.703 216.442C316.923 214.557 316.793 212.412 316.793 210.397C316.598 212.997 316.208 215.662 315.623 218.197C315.428 219.172 315.103 220.211 314.324 220.796C313.284 221.511 311.724 221.056 310.879 220.146C309.969 219.237 309.579 217.937 309.254 216.702C308.864 215.467 308.474 214.232 307.629 213.257C308.279 215.857 308.539 218.587 308.409 221.251C308.344 222.291 308.214 223.331 307.499 224.046C306.459 225.086 304.64 224.826 303.535 223.916C302.365 223.006 301.715 221.641 301.13 220.341C300.545 219.042 299.83 217.677 298.66 216.832C299.375 219.107 300.09 221.381 300.805 223.591C301.065 224.436 301.325 225.411 300.87 226.191C300.35 227.166 298.92 227.296 297.945 226.776C296.97 226.256 296.32 225.281 295.801 224.371C295.281 223.396 294.696 222.421 293.851 221.771C294.111 223.071 295.151 224.111 295.736 225.281C296.32 226.516 296.645 228.011 295.281 228.336C294.306 228.531 293.266 227.816 292.616 227.036C290.666 224.696 288.326 222.616 286.312 220.276C287.156 221.381 292.486 228.336 291.251 229.635C295.93 234.25 303.73 241.659 303.73 241.659C304.575 245.884 308.799 250.693 308.799 250.693H317.638H319.198H320.498H330.117C330.767 250.433 331.352 250.043 331.872 249.588Z" fill="black"/>
</g>
<g opacity="0.2">
<path d="M344.415 225.804C344.61 225.544 344.805 225.284 344.935 225.154C344.74 225.349 344.545 225.544 344.415 225.804Z" fill="black"/>
</g>
<path d="M258.756 215.606C255.506 204.037 248.812 190.259 240.948 184.669C240.948 184.669 233.864 169.591 216.901 165.626C216.901 165.626 209.231 157.567 196.233 159.257C196.233 159.257 187.524 152.823 178.425 158.347C167.311 153.018 161.137 159.712 161.137 159.712C148.138 157.957 140.989 166.861 140.989 166.861C123.181 173.685 115.837 189.414 115.837 189.414C112.392 191.949 105.308 203.192 102.058 215.476C98.8083 227.76 100.303 240.823 100.303 240.823C99.7182 254.472 107.127 272.345 112.132 280.079C117.136 287.813 137.154 311.016 140.859 314.915C144.563 318.88 160.097 333.568 160.097 333.568C161.137 338.898 166.466 344.942 166.466 344.942H177.645H179.595H181.219H194.348C194.348 344.942 199.677 338.898 200.717 333.568C200.717 333.568 216.251 318.88 219.955 314.915C223.66 310.951 243.678 287.813 248.682 280.079C253.687 272.345 260.511 257.072 261.096 241.018C261.096 241.148 262.136 227.76 258.756 215.606Z" fill="#BD80FF"/>
<g opacity="0.2">
<path d="M232.172 290.543C232.172 290.543 225.543 296.718 223.593 294.248C221.643 291.713 228.338 279.95 228.338 279.95C228.338 279.95 224.048 284.499 219.954 282.029C215.859 279.495 217.289 271.565 217.289 271.565C216.444 273.905 213.064 274.49 210.92 273.19C208.775 271.89 207.67 269.421 206.89 267.081C204.29 258.827 204.55 249.988 205.655 241.409C204.875 245.828 200.586 249.403 196.036 249.858C191.162 250.378 186.287 247.908 183.103 244.203C179.918 240.499 178.228 235.689 177.383 230.88C177.513 238.159 176.148 247.453 174.133 254.472C172.834 259.152 168.934 263.506 161.785 260.452C158.47 259.022 153.401 251.483 153.401 251.353C153.726 254.732 156.78 267.341 156.455 270.981C156.13 274.36 154.246 277.74 150.931 278.39C148.461 278.91 146.641 277.22 144.432 275.205C142.547 273.45 135.658 261.687 134.488 259.217C135.853 261.557 134.228 266.626 131.693 267.536C129.158 268.446 126.299 267.536 124.024 266.106C118.629 262.726 115.64 256.682 112.845 250.963C112.52 252.977 109.725 253.822 107.906 252.913C106.086 252.003 105.046 249.988 104.331 248.038C103.616 246.088 102.966 244.073 101.536 242.579L100.691 244.268C101.211 257.397 107.906 273.19 112.52 280.34C117.525 288.074 137.217 311.146 140.922 315.111C144.627 319.075 160.16 333.764 160.16 333.764C161.2 339.093 166.529 345.138 166.529 345.138H168.414C172.899 343.513 178.163 342.733 180.438 343.188C180.893 343.253 177.123 324.145 180.893 323.755C191.097 323.495 197.986 326.55 202.535 332.464C206.5 328.694 217.224 318.425 220.279 315.241C221.838 313.616 226.258 308.547 231.262 302.697C227.168 298.278 232.172 290.543 232.172 290.543Z" fill="black"/>
</g>
<g opacity="0.2">
<path d="M226.78 201.108C230.485 199.873 233.215 195.519 231.785 191.879C233.93 194.544 238.479 193.959 240.884 191.554C242.184 190.254 242.964 188.564 243.483 186.81C242.639 186.03 241.859 185.315 241.014 184.73C241.014 184.73 233.93 169.651 216.966 165.687C216.966 165.687 209.297 157.628 196.299 159.318C196.299 159.318 187.59 152.883 178.49 158.408C167.377 153.078 161.202 159.773 161.202 159.773C148.204 158.018 141.055 166.922 141.055 166.922C123.246 173.746 115.902 189.474 115.902 189.474C112.458 192.009 105.373 203.253 102.124 215.537C100.499 221.841 100.044 228.21 100.044 233.02C101.019 232.24 104.658 229.12 105.763 223.726C106.543 219.891 108.038 213.002 109.078 208.192C108.818 209.882 108.753 211.572 109.013 213.197C109.533 216.641 111.808 220.476 115.967 220.606C119.412 220.736 123.961 216.641 123.506 213.197C124.156 218.461 124.351 225.935 127.536 230.095C130.721 234.255 137.285 236.399 141.444 233.15C144.434 230.81 145.149 226.65 145.604 222.881C146.579 214.562 147.229 206.178 147.424 197.793C147.684 202.538 150.608 207.087 154.833 209.232C159.058 211.377 164.452 211.117 168.482 208.517C175.306 204.098 176.736 194.934 177.516 186.81C178.49 192.789 181.22 198.703 185.965 202.408C190.709 206.178 197.663 207.412 203.058 204.553C208.452 201.758 211.377 194.544 208.647 189.149C210.662 192.529 212.742 195.909 215.796 198.378C218.851 200.913 223.011 202.278 226.78 201.108Z" fill="white"/>
</g>
<path d="M200.977 330.383C200.977 330.383 200.522 329.993 199.677 329.278C198.832 328.563 197.532 327.653 195.778 326.743C194.023 325.833 191.813 325.118 189.278 324.598C186.744 324.078 183.884 323.883 180.894 323.883C177.905 323.948 175.045 324.273 172.51 324.858C169.975 325.443 167.766 326.223 166.011 327.133C164.256 328.043 163.021 329.018 162.176 329.798C161.786 330.123 161.526 330.513 161.266 330.708C161.071 330.903 160.941 331.033 160.941 331.033C160.941 331.033 161.006 330.903 161.201 330.708C161.396 330.513 161.656 330.123 162.046 329.733C162.826 328.953 164.061 327.913 165.816 327.003C167.571 326.093 169.78 325.248 172.315 324.663C174.85 324.078 177.71 323.689 180.764 323.689C183.754 323.624 186.679 323.884 189.213 324.403C191.748 324.923 194.023 325.703 195.778 326.613C197.532 327.523 198.832 328.498 199.677 329.213C200.132 329.538 200.392 329.928 200.587 330.123C200.847 330.253 200.977 330.383 200.977 330.383Z" fill="#0E0E0E"/>
<path d="M161.851 327.001C161.851 327.001 161.786 326.871 161.591 326.676C161.396 326.481 161.201 326.156 160.877 325.766C160.292 324.921 159.382 323.752 158.212 322.192C155.937 319.072 152.622 314.523 148.593 308.868C144.563 303.214 139.819 296.389 134.749 288.785C132.215 284.951 129.55 280.986 126.82 276.762C124.09 272.602 121.361 268.183 118.891 263.438C114.017 254.014 110.377 244.46 108.947 235.361C107.517 226.262 108.102 217.878 109.337 211.054C110.572 204.229 112.392 198.835 113.692 195.195C114.017 194.286 114.342 193.506 114.601 192.791C114.861 192.076 115.121 191.491 115.316 191.036C115.511 190.581 115.641 190.191 115.771 189.931C115.901 189.671 115.966 189.541 115.966 189.541C115.966 189.541 115.901 189.671 115.836 189.931C115.706 190.191 115.576 190.516 115.446 191.036C115.251 191.491 115.056 192.076 114.731 192.791C114.472 193.506 114.212 194.286 113.822 195.195C112.522 198.835 110.767 204.229 109.597 211.054C108.427 217.878 107.842 226.197 109.272 235.296C110.702 244.395 114.277 253.949 119.216 263.308C121.686 267.988 124.35 272.407 127.145 276.567C129.875 280.726 132.54 284.756 135.074 288.59C140.209 296.195 144.888 303.019 148.853 308.738C152.817 314.393 156.132 319.007 158.407 322.127C159.512 323.687 160.422 324.921 161.006 325.766C161.266 326.156 161.526 326.481 161.656 326.741C161.721 326.936 161.851 327.001 161.851 327.001Z" fill="#0E0E0E"/>
<path d="M159.641 329.214C159.641 329.214 159.576 329.149 159.447 329.019C159.317 328.889 159.122 328.694 158.862 328.434C158.342 327.915 157.627 327.2 156.717 326.225C154.832 324.275 152.232 321.35 148.983 317.776C145.798 314.136 141.963 309.846 137.739 305.037C133.449 300.292 128.9 294.898 124.48 288.984C120.061 283.069 116.096 277.22 112.977 271.631C109.857 266.041 107.452 260.777 105.762 256.227C104.072 251.678 102.968 247.908 102.318 245.308C101.993 244.009 101.733 242.969 101.603 242.254C101.538 241.929 101.473 241.669 101.408 241.474C101.343 241.279 101.343 241.214 101.343 241.214C101.343 241.214 101.408 241.279 101.408 241.474C101.473 241.669 101.538 241.929 101.603 242.254C101.798 242.969 101.993 243.944 102.383 245.243C103.098 247.843 104.202 251.613 105.957 256.097C107.712 260.582 110.052 265.846 113.236 271.436C116.356 277.025 120.321 282.809 124.74 288.724C129.16 294.638 133.644 300.033 137.934 304.777C142.158 309.587 145.928 313.941 149.113 317.581C152.297 321.22 154.897 324.145 156.717 326.095C157.627 327.07 158.342 327.85 158.862 328.369C159.122 328.629 159.252 328.824 159.382 328.954C159.576 329.149 159.641 329.214 159.641 329.214Z" fill="#0E0E0E"/>
<path d="M141.118 166.858C141.118 166.858 141.053 166.988 140.793 167.183C140.598 167.378 140.273 167.703 139.883 168.093C139.493 168.483 138.973 169.003 138.453 169.588C137.869 170.173 137.284 170.953 136.569 171.733C133.839 175.048 130.264 180.247 127.535 187.461C124.87 194.675 123.245 203.839 123.635 213.978C123.83 219.048 124.61 224.377 125.715 229.772C126.82 235.166 128.315 240.755 130.069 246.345C133.644 257.524 137.998 267.858 142.288 277.087C146.578 286.316 150.802 294.44 154.247 301.329C157.756 308.218 160.551 313.743 162.436 317.642C163.346 319.592 164.061 321.087 164.581 322.127C164.841 322.647 164.971 323.037 165.101 323.297C164.971 323.037 164.776 322.647 164.516 322.127C163.996 321.087 163.281 319.592 162.306 317.707C160.421 313.873 157.561 308.283 154.052 301.459C150.542 294.635 146.318 286.446 142.028 277.217C137.739 267.988 133.319 257.654 129.744 246.475C127.925 240.885 126.495 235.296 125.39 229.902C124.285 224.442 123.505 219.178 123.31 214.043C122.855 203.839 124.545 194.61 127.275 187.396C130.004 180.182 133.644 174.983 136.439 171.668C137.154 170.888 137.739 170.108 138.323 169.523C138.908 168.938 139.428 168.418 139.818 168.028C140.208 167.638 140.533 167.313 140.728 167.118C141.053 166.988 141.118 166.858 141.118 166.858Z" fill="#0E0E0E"/>
<path d="M172.51 321.545C172.51 321.545 172.445 321.415 172.445 321.09C172.38 320.765 172.315 320.375 172.185 319.855C172.055 319.335 171.925 318.62 171.73 317.84C171.535 317.06 171.34 316.15 171.016 315.111C169.976 311.016 168.221 305.102 166.076 297.822C163.931 290.543 161.332 281.834 158.667 272.15C156.002 262.466 153.272 251.742 150.998 240.369C148.723 228.995 147.163 218.011 146.968 207.872C146.838 202.803 147.163 198.058 147.683 193.574C148.203 189.154 148.918 184.995 149.893 181.355C151.778 173.946 154.572 168.356 157.042 164.847C157.367 164.392 157.627 164.002 157.887 163.612C158.212 163.222 158.472 162.897 158.732 162.572C158.992 162.247 159.252 161.987 159.447 161.662C159.707 161.402 159.902 161.207 160.097 161.012C160.487 160.622 160.747 160.297 161.007 160.102C161.202 159.907 161.332 159.777 161.332 159.777C161.332 159.777 161.267 159.907 161.072 160.102C160.877 160.297 160.617 160.622 160.227 161.012C160.032 161.207 159.837 161.467 159.577 161.727C159.382 161.987 159.122 162.312 158.862 162.637C158.602 162.962 158.342 163.287 158.017 163.677C157.757 164.067 157.497 164.457 157.172 164.912C154.767 168.421 152.038 174.011 150.153 181.355C149.243 185.06 148.463 189.154 147.943 193.574C147.423 197.993 147.163 202.803 147.293 207.807C147.488 217.881 149.113 228.865 151.323 240.239C153.597 251.612 156.327 262.336 158.992 272.02C161.657 281.704 164.191 290.413 166.336 297.692C168.481 304.972 170.171 310.886 171.211 315.046C171.47 316.085 171.665 316.995 171.86 317.775C172.055 318.555 172.185 319.27 172.315 319.79C172.38 320.31 172.445 320.765 172.51 321.025C172.445 321.415 172.51 321.545 172.51 321.545Z" fill="#0E0E0E"/>
<path d="M177.708 321.544C177.643 321.544 177.643 285.018 177.708 239.912C177.838 194.807 177.968 158.281 178.098 158.281C178.163 158.281 178.163 194.807 178.098 239.912C177.968 285.018 177.773 321.544 177.708 321.544Z" fill="#0E0E0E"/>
<path d="M197.208 325.639C197.208 325.639 197.273 325.509 197.403 325.314C197.533 325.054 197.793 324.729 198.053 324.339C198.638 323.494 199.548 322.195 200.653 320.635C202.927 317.385 206.242 312.706 210.207 306.856C214.236 301.007 218.916 293.988 224.05 286.123C226.585 282.224 229.25 278.064 231.979 273.71C234.709 269.42 237.374 264.871 239.778 259.996C242.183 255.122 244.198 250.247 245.758 245.438C247.318 240.563 248.357 235.754 248.877 231.139C249.007 229.969 249.137 228.8 249.202 227.695C249.267 226.525 249.332 225.42 249.397 224.315C249.397 223.21 249.397 222.105 249.462 221.065C249.462 219.961 249.397 218.921 249.397 217.881C249.202 213.721 248.812 209.822 248.163 206.377C246.993 199.358 245.108 193.898 243.548 190.259C243.158 189.349 242.768 188.569 242.443 187.854C242.118 187.139 241.793 186.619 241.533 186.164C241.273 185.709 241.143 185.384 241.013 185.124C240.883 184.864 240.818 184.734 240.818 184.734C240.818 184.734 240.883 184.864 241.013 185.059C241.143 185.319 241.338 185.644 241.598 186.099C241.858 186.554 242.183 187.139 242.508 187.789C242.833 188.504 243.223 189.284 243.613 190.194C245.173 193.833 247.123 199.293 248.357 206.312C249.007 209.822 249.397 213.656 249.592 217.881C249.592 218.921 249.722 219.961 249.657 221.065C249.657 222.17 249.657 223.21 249.657 224.38C249.592 225.485 249.527 226.59 249.462 227.76C249.397 228.93 249.267 230.034 249.137 231.204C248.617 235.884 247.578 240.758 246.018 245.568C244.458 250.442 242.378 255.317 240.038 260.191C237.634 265.066 234.969 269.615 232.239 273.97C229.51 278.259 226.845 282.419 224.31 286.318C219.176 294.183 214.431 301.137 210.402 306.986C206.372 312.836 203.057 317.515 200.718 320.7C199.548 322.325 198.638 323.559 198.053 324.404C197.728 324.794 197.533 325.119 197.338 325.379C197.338 325.574 197.208 325.639 197.208 325.639Z" fill="#0E0E0E"/>
<path d="M199.484 327.851C199.484 327.851 199.549 327.786 199.679 327.656C199.809 327.526 200.004 327.331 200.264 327.006C200.784 326.421 201.499 325.641 202.409 324.601C204.294 322.521 206.959 319.466 210.208 315.697C213.458 311.927 217.292 307.378 221.582 302.373C225.872 297.369 230.876 292.104 235.62 286.19C236.79 284.695 237.96 283.2 239 281.706C240.105 280.211 241.08 278.716 242.055 277.156C244.005 274.166 245.889 271.242 247.579 268.447C251.024 262.858 253.884 257.658 255.963 253.109C258.043 248.624 259.408 244.79 260.253 242.125C260.448 241.475 260.643 240.89 260.773 240.37C260.903 239.85 261.033 239.395 261.098 239.07C261.163 238.745 261.228 238.485 261.293 238.29C261.228 238.485 261.163 238.745 261.098 239.135C261.033 239.525 260.903 239.915 260.773 240.435C260.643 240.955 260.448 241.54 260.253 242.255C259.473 244.92 258.173 248.754 256.093 253.304C254.013 257.853 251.154 263.053 247.709 268.707C246.019 271.502 244.135 274.426 242.185 277.481C241.21 278.976 240.235 280.536 239.13 282.031C238.025 283.525 236.92 285.02 235.685 286.515C230.941 292.429 225.937 297.759 221.647 302.698C217.357 307.703 213.458 312.187 210.208 315.957C206.959 319.726 204.229 322.716 202.344 324.796C201.369 325.836 200.654 326.616 200.134 327.136C199.874 327.396 199.679 327.591 199.549 327.721C199.549 327.786 199.484 327.851 199.484 327.851Z" fill="#0E0E0E"/>
<path d="M216.901 165.622C216.901 165.622 217.031 165.687 217.226 165.947C217.421 166.142 217.746 166.467 218.136 166.857C218.526 167.247 219.046 167.767 219.631 168.287C220.216 168.872 220.801 169.587 221.516 170.432C224.31 173.681 227.95 178.816 230.68 186.095C233.345 193.309 234.839 202.538 234.384 212.677C234.189 217.746 233.474 223.076 232.37 228.47C231.33 233.865 229.835 239.454 228.145 245.044C224.635 256.222 220.346 266.556 216.251 275.85C212.157 285.144 208.127 293.333 204.748 300.223C201.303 307.112 198.573 312.636 196.623 316.471C195.649 318.356 194.934 319.85 194.414 320.89C194.154 321.41 193.959 321.8 193.829 322.06C193.959 321.8 194.154 321.41 194.349 320.89C194.869 319.85 195.584 318.356 196.493 316.471C198.378 312.636 201.108 307.047 204.488 300.158C207.867 293.268 211.832 285.014 215.926 275.785C220.021 266.491 224.31 256.157 227.755 244.979C229.51 239.389 230.94 233.865 231.98 228.47C233.085 223.076 233.799 217.811 233.994 212.742C234.514 202.603 233.02 193.439 230.355 186.29C227.69 179.076 224.051 173.941 221.321 170.692C220.606 169.912 220.021 169.132 219.436 168.547C218.851 167.962 218.396 167.442 217.941 167.052C217.551 166.662 217.226 166.337 217.031 166.142C216.966 165.752 216.901 165.622 216.901 165.622Z" fill="#0E0E0E"/>
<path d="M186.551 320.31C186.551 320.31 186.551 320.18 186.616 319.855C186.681 319.53 186.746 319.14 186.811 318.621C186.941 318.101 187.071 317.386 187.201 316.606C187.396 315.826 187.591 314.916 187.851 313.876C188.826 309.781 190.45 303.867 192.465 296.588C194.48 289.309 196.95 280.665 199.484 270.981C202.019 261.297 204.619 250.638 206.764 239.264C208.908 227.955 210.338 216.971 210.533 207.028C210.663 202.023 210.273 197.279 209.818 192.859C209.298 188.44 208.583 184.345 207.609 180.705C205.724 173.361 202.929 167.837 200.459 164.392C200.134 163.937 199.874 163.547 199.614 163.157C199.289 162.767 199.029 162.442 198.769 162.117C198.509 161.792 198.25 161.532 198.055 161.272C197.795 161.013 197.6 160.818 197.405 160.623C197.015 160.233 196.755 159.908 196.56 159.713C196.365 159.518 196.3 159.388 196.3 159.388C196.3 159.388 196.43 159.453 196.625 159.713C196.82 159.908 197.145 160.233 197.535 160.623C197.73 160.818 197.925 161.078 198.185 161.272C198.38 161.532 198.639 161.857 198.899 162.117C199.159 162.442 199.419 162.767 199.744 163.157C200.004 163.547 200.329 163.937 200.654 164.392C203.124 167.837 205.984 173.361 207.868 180.705C208.843 184.345 209.558 188.44 210.078 192.859C210.598 197.279 210.923 202.023 210.858 207.028C210.728 217.036 209.233 228.02 207.089 239.329C204.944 250.703 202.344 261.362 199.809 271.046C197.275 280.73 194.805 289.374 192.725 296.653C190.645 303.932 189.021 309.846 187.981 313.941C187.721 314.981 187.526 315.891 187.331 316.671C187.136 317.451 187.006 318.166 186.876 318.686C186.746 319.205 186.681 319.66 186.616 319.92C186.551 320.18 186.551 320.31 186.551 320.31Z" fill="#0E0E0E"/>
<g opacity="0.3">
<path d="M138.713 294.508C138.453 294.053 138.128 293.663 137.868 293.208C138.128 293.598 138.388 294.053 138.713 294.508Z" fill="black"/>
</g>
<g opacity="0.3">
<path d="M163.931 290.543C163.606 289.048 163.281 287.553 162.826 286.123C163.021 286.903 163.411 288.593 163.931 290.543Z" fill="black"/>
</g>
<g opacity="0.3">
<path d="M162.826 286.122C162.761 285.862 162.761 285.732 162.696 285.732C162.761 285.862 162.826 285.992 162.826 286.122Z" fill="black"/>
</g>
<g opacity="0.3">
<path d="M215.017 320.505C212.157 322.195 209.297 323.95 206.437 325.639C205.658 326.094 204.683 326.549 203.903 326.094C202.993 325.574 203.188 324.209 203.708 323.3C204.293 322.455 205.138 321.805 205.593 320.83C204.553 322.13 203.383 323.3 202.148 324.404C201.693 324.794 201.173 325.249 200.523 325.249C199.353 325.249 198.963 324.014 199.483 322.975C200.068 321.805 201.303 320.05 201.303 320.05C200.588 320.765 199.938 321.35 199.288 322C198.638 322.65 197.793 322.975 196.948 322.845C196.039 322.715 195.454 321.74 195.324 320.83C195.259 319.92 195.519 319.01 195.844 318.1L194.024 321.87C195.584 318.165 197.663 314.591 199.288 310.886C197.468 313.356 195.129 315.76 192.334 314.526C189.539 313.226 189.734 310.366 190.254 307.311C190.774 304.387 192.464 300.032 192.334 297.497C191.034 300.747 189.929 304.127 187.914 306.401C185.965 308.676 182 309.521 179.985 307.311C178.88 306.141 178.62 304.387 178.425 302.827C177.776 298.082 178.685 293.403 177.711 288.593C177.256 292.818 177.841 296.003 175.566 298.667C172.966 301.722 169.326 300.487 166.857 297.367C165.622 295.873 164.647 293.143 163.997 290.673C164.712 294.118 165.037 297.627 165.167 301.137C165.232 302.762 165.167 304.582 163.932 305.621C162.047 307.246 159.123 305.686 157.303 303.932C152.168 298.992 150.024 292.688 146.579 286.059C147.749 289.633 149.049 292.558 150.219 296.133C150.543 297.172 151.518 302.307 150.738 303.087C149.959 303.802 148.724 303.542 147.749 303.152C144.694 301.917 140.925 297.822 138.715 294.638C142.939 301.007 147.294 306.986 151.778 313.031C152.948 314.656 153.273 317.645 151.388 318.295C150.154 318.685 149.049 317.58 148.009 316.8C138.65 309.651 131.501 303.477 125.911 297.887C132.345 305.621 138.845 313.161 140.86 315.305C144.564 319.27 160.097 333.958 160.097 333.958C161.137 339.288 166.532 345.462 166.532 345.462H170.366C169.846 343.187 167.962 338.378 162.827 329.669C162.372 328.889 171.081 324.469 177.646 323.95C186.94 323.17 191.294 324.989 192.399 325.379L192.334 325.509C192.334 325.509 197.013 326.744 199.223 329.084C200.913 330.904 201.953 332.334 202.343 332.854C204.878 330.254 210.597 324.794 215.017 320.505Z" fill="black"/>
</g>
<path d="M155.352 161.661C155.352 161.661 155.157 161.726 154.897 161.791C154.572 161.856 154.117 161.986 153.532 162.246C152.362 162.636 150.672 163.416 148.722 164.651C144.888 167.056 140.403 171.605 136.699 177.454C132.994 183.304 130.914 189.283 129.874 193.703C129.354 195.912 129.094 197.732 128.965 198.967C128.9 199.617 128.835 200.072 128.835 200.397C128.77 200.722 128.77 200.917 128.77 200.917C128.77 200.917 128.77 200.722 128.77 200.397C128.77 200.072 128.77 199.552 128.835 198.902C128.965 197.602 129.159 195.782 129.679 193.573C130.654 189.153 132.799 183.109 136.439 177.194C140.078 171.28 144.693 166.731 148.592 164.391C150.542 163.156 152.232 162.441 153.467 162.116C154.052 161.921 154.572 161.791 154.897 161.726C155.222 161.726 155.352 161.661 155.352 161.661Z" fill="white"/>
<path d="M158.667 165.302C158.667 165.302 158.927 164.717 159.577 163.872C160.227 163.027 161.202 161.922 162.502 161.012C163.801 160.037 165.166 159.452 166.206 159.127C167.246 158.802 167.896 158.737 167.896 158.737C167.961 158.867 165.361 159.387 162.762 161.272C160.097 163.092 158.797 165.367 158.667 165.302Z" fill="white"/>
<path d="M117.461 192.533C117.461 192.533 117.461 192.273 117.526 191.883C117.591 191.428 117.721 190.843 117.916 190.063C118.306 188.568 119.086 186.488 120.321 184.474C121.555 182.459 123.05 180.834 124.155 179.794C124.74 179.274 125.195 178.884 125.585 178.624C125.91 178.364 126.17 178.234 126.17 178.234C126.235 178.299 125.455 178.884 124.35 179.924C123.245 181.029 121.815 182.589 120.581 184.604C119.346 186.618 118.566 188.633 118.176 190.128C117.721 191.558 117.526 192.533 117.461 192.533Z" fill="white"/>
<path d="M105.046 211.122C104.981 211.122 105.046 209.367 105.826 207.352C106.606 205.337 107.646 203.972 107.711 204.037C107.776 204.102 106.866 205.532 106.151 207.482C105.371 209.432 105.111 211.122 105.046 211.122Z" fill="white"/>
<path d="M186.091 158.608C186.091 158.738 184.401 158.803 182.647 159.778C180.827 160.687 179.787 162.052 179.722 161.987C179.657 161.987 180.567 160.427 182.452 159.453C184.337 158.478 186.091 158.543 186.091 158.608Z" fill="white"/>
<path d="M207.216 162.439C207.151 162.504 205.981 161.984 204.356 161.854C202.796 161.659 201.497 161.984 201.432 161.854C201.432 161.789 202.732 161.334 204.356 161.529C206.046 161.659 207.216 162.374 207.216 162.439Z" fill="white"/>
<path d="M180.504 347.215C188.258 347.215 194.543 346.196 194.543 344.94C194.543 343.683 188.258 342.665 180.504 342.665C172.751 342.665 166.466 343.683 166.466 344.94C166.466 346.196 172.751 347.215 180.504 347.215Z" fill="#0E0E0E"/>
<path d="M176.018 353.132C176.018 353.197 175.433 352.742 174.653 352.092C173.808 351.442 172.703 350.467 171.469 349.362C168.999 347.217 167.049 345.398 167.179 345.268C167.179 345.268 167.309 345.333 167.569 345.528C167.894 345.788 168.154 346.047 168.544 346.307C169.389 347.022 170.494 347.932 171.729 349.037C172.963 350.142 174.068 351.117 174.848 351.832C175.628 352.547 176.018 353.067 176.018 353.132Z" fill="#0E0E0E"/>
<path d="M178.097 353.194C178.032 353.259 177.252 351.765 176.407 349.945C175.952 349.035 175.627 348.19 175.367 347.54C175.108 346.89 174.978 346.565 174.978 346.5C175.108 346.435 175.822 347.93 176.732 349.75C177.577 351.635 178.227 353.194 178.097 353.194Z" fill="#0E0E0E"/>
<path d="M189.537 344.225C189.602 344.29 188.627 346.304 187.392 348.774C186.092 351.244 184.987 353.194 184.922 353.194C184.857 353.129 185.832 351.114 187.067 348.644C188.367 346.174 189.472 344.225 189.537 344.225Z" fill="#0E0E0E"/>
<path d="M187.198 353.129C187.133 353.064 188.497 351.115 190.252 348.71C192.007 346.305 193.502 344.485 193.567 344.485C193.632 344.55 192.267 346.5 190.512 348.905C188.757 351.31 187.263 353.194 187.198 353.129Z" fill="#0E0E0E"/>
<path d="M189.667 367.168L187.327 353.845C187.262 353.65 187.132 353.52 186.937 353.52C181.023 353.455 176.993 353.455 176.083 353.52L172.444 366.908L171.794 366.713L175.499 353.065L175.629 352.935C175.759 352.805 175.889 352.675 186.937 352.805C187.457 352.805 187.847 353.195 187.977 353.715L190.317 367.038L189.667 367.168Z" fill="#0E0E0E"/>
<path d="M176.604 367.557H175.954C175.954 367.362 177.319 356.508 177.774 353.193L178.424 353.258C177.969 357.093 176.669 367.232 176.604 367.557Z" fill="#0E0E0E"/>
<path d="M185.267 353.195L184.617 353.219L185.104 366.794L185.754 366.771L185.267 353.195Z" fill="#0E0E0E"/>
<path d="M170.819 367.946C177.708 367.946 184.597 367.946 191.422 367.946C192.462 367.946 192.462 366.321 191.422 366.321C184.533 366.321 177.643 366.321 170.819 366.321C169.779 366.321 169.779 367.946 170.819 367.946Z" fill="#AE7461"/>
<path d="M190.381 367.362H171.533V379.191H190.381V367.362Z" fill="#AE7461"/>
<path d="M190.381 379.19C190.381 379.775 186.157 380.23 180.957 380.23C175.758 380.23 171.533 379.775 171.533 379.19C171.533 378.605 175.758 378.15 180.957 378.15C186.157 378.15 190.381 378.605 190.381 379.19Z" fill="#FEAD3B"/>
<path d="M190.511 367.553C190.511 367.618 186.287 367.748 181.022 367.748C175.758 367.748 171.533 367.683 171.533 367.553C171.533 367.423 175.758 367.358 181.022 367.358C186.287 367.358 190.511 367.423 190.511 367.553Z" fill="#FEAD3B"/>
</g>
<defs>
<clipPath id="clip0_96_11597">
<rect width="284.084" height="279.535" fill="white" transform="translate(100.042 100.692)"/>
</clipPath>
</defs>
</svg>
